<?xml version="1.0" encoding="utf-8"?>
<!-- Generator: Adobe Illustrator 24.1.2, SVG Export Plug-In . SVG Version: 6.00 Build 0)  -->
<svg version="1.1" id="Lag_1" xmlns="http://www.w3.org/2000/svg" xmlns:xlink="http://www.w3.org/1999/xlink" x="0px" y="0px"
	 viewBox="0 0 800 800" style="enable-background:new 0 0 800 800;" xml:space="preserve">
<style type="text/css">
	.st0{fill:#FFFFFF;}
</style>
<path class="st0" d="M265.73,232.67L265.73,232.67c0,0.01,0,0.01,0,0.02C265.73,232.68,265.73,232.67,265.73,232.67"/>
<path class="st0" d="M265.76,232.61c0-0.01,0-0.01,0-0.02c0.11-0.25,0.22-0.5,0.32-0.75C265.98,232.1,265.87,232.35,265.76,232.61"
	/>
<path class="st0" d="M303.63,304.99c-4.34,4.68-8.62,9.45-12.77,14.26c-3.96,4.52-7.74,9.46-10.88,14.59
	c-3.14,5.2-5.79,10.49-8.18,16.04c0,0.03,0,0.05,0,0.08c-0.06,0.04-0.06,0.08-0.06,0.13c0-0.01,0-0.02,0-0.02c0-0.01,0-0.01,0-0.01
	c0-0.01,0-0.02,0-0.03c-0.13,0.2-0.19,0.4-0.25,0.6c0.06-0.12,0.06-0.24,0.13-0.36c0,0.13-0.06,0.25-0.13,0.38c0,0.01,0,0.02,0,0.03
	c0.06-0.14,0.13-0.29,0.19-0.43c-0.06,0.01-0.06,0.03-0.06,0.03c0.06-0.06,0.06-0.12,0.13-0.17c-0.06,0.04-0.06,0.08-0.06,0.12
	c0-0.04,0-0.09,0.06-0.13c-0.06,0.05-0.06,0.09-0.06,0.15c-0.13,0.18-0.19,0.36-0.25,0.55c0,0.03-0.06,0.06-0.06,0.09
	c0-0.02,0.06-0.04,0.06-0.06c0,0.02-0.06,0.05-0.06,0.08c-0.31,0.7-0.57,1.38-0.88,2.08c0.25-0.63,0.57-1.28,0.82-1.91
	c-2.45,5.79-5.03,11.8-6.48,17.92c-1.57,7.1-2.58,14.33-2.89,21.59c-0.63,12.59-0.63,25.2-0.63,37.81c0,8.65,0.06,17.04,1.89,25.56
	c1.07,5.33,3.21,10.51,5.47,15.49c1.32,2.93,2.7,5.81,4.28,8.62c2.96,5.13,6.67,9.84,10,14.72c3.4,4.91,6.54,9.94,9.75,15.01
	c3.9,6.13,7.99,12,12.64,17.61c2.2,2.72,4.78,5.16,7.42,7.42c-1.26,4.64-2.45,9.3-3.21,14.03c-0.25,1.55-0.44,3.13-0.57,4.67
	c0,0.45,0,0.94-0.06,1.39c0.19,1.81,0.44,3.65,0.69,5.46c0.19,0.58,0.44,1.16,0.63,1.74c0.57,2.09,1.64,3.9,3.21,5.45
	c1.32,1.74,2.7,2.97,4.53,4.23c-2.45,4.03-4.91,8.04-7.17,12.13c-2.39,4.33-4.65,8.94-4.84,13.94c-0.38,7.36,4.78,13.12,11.2,16.05
	c-0.94,2.06-2.01,4.08-2.96,6.19c-2.33,5.58-4.02,11.33-1.95,17.32c2.7,7.98,10.25,12.88,17.05,16.98
	c7.55,4.48,16.1,7.71,24.66,9.54c4.28,0.94,8.81,1.36,13.21,1.62c4.47,0.26,8.68-0.23,13.15-0.8c4.34-0.62,8.3-2.84,11.39-5.98
	c3.71-3.77,5.72-8.83,7.55-13.67c0.94-2.42,1.51-4.98,2.14-7.49c0.75-3.08,1.57-6.08,2.7-9.06c0.88-1.96,1.76-3.93,2.58-5.92
	c1.01-2.43,1.76-4.64,1.64-7.1c1.76-1.75,3.52-3.52,5.16-5.49c2.7-3.32,5.41-6.64,7.49-10.42c1.57-3.03,2.7-6.28,3.84-9.54
	c0.06-0.04,0.06-0.1,0.13-0.15c1.19-1.42,2.45-2.79,3.65-4.2c2.26-2.55,3.65-5.3,3.65-8.74c0-0.87-0.13-1.72-0.31-2.56
	c1.13-1.7,2.14-3.43,3.08-5.11c2.33-4.13,4.03-8.69,5.91-13.01c0-0.05,0-0.1,0.06-0.15c1.57-0.66,3.21-1.33,4.78-1.97
	c6.54-2.59,13.02-5.42,19.06-8.97c6.16-3.58,11.89-7.98,17.11-12.72c10-9.04,17.11-20.91,24.15-32.24
	c3.27-5.23,6.35-10.59,9.12-16.07c1.45-2.81,2.83-5.65,4.15-8.49c2.64-5.62,4.34-11.39,5.91-17.33c3.52-13.23,6.54-26.75,8.05-40.34
	c1.19-9.97,1.38-20,1.45-30.01c0.06-4.97,0.06-9.94-0.13-14.9c-0.31-9.01-2.2-18.08-6.16-26.15c-2.26-4.55-4.72-8.94-7.42-13.23
	c-3.21-5.06-7.17-9.68-11.32-13.94c-3.46-3.48-6.86-7.1-10.32-10.55c-4.91-4.94-10.5-9.23-15.85-13.62
	c-2.7-2.16-5.22-3.62-8.81-3.62c-1.13,0-2.26,0.16-3.33,0.47c-4.4-3.19-8.74-6.37-13.15-9.51c-7.3-5.16-16.1-8.22-24.53-10.81
	c-13.15-4.09-27.05-5.2-40.82-5.71c-3.02-0.13-6.04-0.21-9.12-0.21c-7.42,0-14.78,0.5-22.08,2.14c-7.67,1.75-15.16,5.14-22.14,8.76
	c-7.86,4.07-15.03,9.57-21.7,15.39C312.82,295.01,308.22,300.08,303.63,304.99 M335.52,626.65c0-0.11,0-0.2,0-0.29
	c0,0.1,0,0.2,0.06,0.31C335.52,626.66,335.52,626.66,335.52,626.65z M377.79,627.75c-0.76,3.14-1.57,6.3-2.7,9.38
	c-0.25,0.54-0.5,1.06-0.75,1.59c-0.06,0.01-0.06,0.01-0.13,0.01c-3.9,0.26-7.8,0.06-11.76-0.35c-4.72-0.87-9.25-2.2-13.71-3.88
	c-4.09-1.91-7.99-3.99-11.76-6.51c0-0.05-0.06-0.09-0.13-0.14c1.32-2.92,2.77-5.79,4.21-8.67c5.22,1.01,10.57,1.69,15.85,2.3
	c5.28,0.6,10.69,0.77,16.04,0.91c2.14,0.04,4.21,0.09,6.35,0.12C378.73,624.23,378.23,625.97,377.79,627.75z M396.47,589.86
	c-2.2,2.64-4.53,5.18-7.11,7.45c-0.25,0.18-0.5,0.33-0.82,0.49c-2.77,0.15-5.6-0.01-8.3-0.04c-2.89-0.07-5.79-0.13-8.62-0.2
	c-5.6-0.11-11.26-0.51-16.79-1.1c-7.11-1.04-14.4-2.28-21.26-4.51c2.45-4.32,5.03-8.55,7.61-12.79c2.52,0.58,5.03,1.06,7.61,1.52
	c6.04,1.11,12.14,1.98,18.3,2.62c10.63,1.16,21.26,1.71,32.02,1.88c0.06,0,0.06,0,0.13,0C398.36,586.77,397.54,588.36,396.47,589.86
	z M410.43,560c-0.13,0.14-0.25,0.27-0.38,0.41c-7.61,0.4-15.41,0.03-23.02-0.3c-7.8-0.33-15.54-0.99-23.21-1.96
	c-9.43-1.42-18.68-3.14-27.61-6.43c-0.75-0.36-1.51-0.74-2.26-1.14c0.31-1.48,0.69-2.94,1.01-4.4c1.89,0.76,3.71,1.5,5.6,2.25
	c5.66,2.33,11.45,4.48,17.42,6.2c12.89,3.78,26.42,4.36,39.75,4.62c4.4,0.06,8.74,0.06,13.15,0.06
	C410.75,559.53,410.62,559.77,410.43,560z M340.05,304.18c5.53-4.03,11.32-7.44,17.49-10.27c4.97-1.98,10-3.52,15.22-4.45
	c7.3-0.67,14.66-0.43,21.89-0.12c5.54,0.2,11.07,0.63,16.54,1.18c4.21,0.74,8.37,1.56,12.52,2.57c4.03,0.94,7.93,2.42,11.76,3.81
	c2.26,1.01,4.53,2.06,6.67,3.26c2.58,1.39,4.97,3.19,7.36,4.91c4.59,3.38,9.18,6.77,13.78,10.16c2.45,1.79,6.29,2.02,9.18,1.33
	c4.28,3.55,8.43,7.21,12.33,11.2c4.4,4.57,8.93,9.06,13.02,13.91c3.65,5.18,6.86,10.74,9.5,16.48c0.88,2.45,1.51,4.87,1.95,7.43
	c0.88,8.28,0.75,16.55,0.63,24.9c-0.13,8.68-0.5,17.32-1.38,25.94c-1.13,6.83-2.45,13.67-4.03,20.4c-1.95,8.15-3.58,16.51-6.6,24.37
	c-3.59,8.15-7.99,15.93-12.58,23.57c-4.28,7.2-8.87,14.21-13.9,20.93c-3.46,3.99-7.17,7.5-11.2,10.88
	c-5.66,4.13-11.64,7.56-18.05,10.5c-6.92,2.92-13.9,5.8-21.26,7.15c-7.67,0.61-15.41,0.37-23.15,0.24
	c-7.42-0.15-14.78-0.4-22.14-1.21c-11.32-2.06-21.89-6.04-32.46-10.33c-4.09-1.93-7.93-4.18-11.7-6.74
	c-3.58-2.96-6.73-6.17-9.75-9.74c-5.72-7.82-10.57-16.19-15.98-24.2c-2.77-4.09-5.79-8.06-8.49-12.16
	c-2.64-4.03-4.91-8.22-6.92-12.59c-1.64-4.3-2.96-8.59-3.77-13.12c-0.5-4.97-0.44-9.94-0.44-14.95c0-5.2,0-10.36,0.06-15.52
	c0.06-10.49,0.19-20.97,1.26-31.39c0.63-3.81,1.51-7.51,2.64-11.23c1.01-3.34,2.26-6.68,3.59-9.9c0.25-0.57,0.5-1.13,0.69-1.69
	c0.06-0.06,0.06-0.11,0.13-0.18c1.95-4.18,3.96-8.24,6.35-12.21c1.95-3.17,4.09-6.16,6.35-9.1c4.59-5.32,9.25-10.53,14.03-15.68
	C327.22,316.06,333.19,309.71,340.05,304.18z"/>
<path class="st0" d="M319.11,473.19c1.64,8.39,3.52,16.49,7.36,24.23c5.28,10.94,16.1,17.65,25.91,24.01
	c4.09,2.65,9.37,2.09,13.27-0.52c2.2,0.03,4.4-0.49,6.54-1.54c7.3-3.67,14.59-7.5,22.08-10.79c8.05-3.32,16.23-6.52,23.9-10.58
	c8.18-4.35,16.17-9.1,22.14-16.33c4.53-5.58,7.48-11.97,8.18-19.2c0.57-4.84-0.25-9.61-1.32-14.35c-1.57-7.04-5.03-13.75-9.5-19.33
	c-2.77-3.38-6.23-6.13-9.94-8.32c-6.86-4-14.66-4.33-22.14-2.09c-10.76,3.21-19.06,10.94-27.3,18.35c-0.44-0.54-0.82-1.09-1.2-1.64
	c-2.52-3.38-5.03-6.78-7.99-9.81c-2.08-2.2-4.78-4.01-7.23-5.69c-2.45-1.64-5.41-2.65-8.18-3.61c-2.33-0.79-4.72-1.09-7.17-1.09
	c-2.7,0-5.47,0.39-8.18,0.91c-4.72,0.9-9.69,3.42-13.21,6.71c-7.11,6.65-8.93,16.79-8.55,26.08
	C316.97,456.76,317.53,465.12,319.11,473.19 M341.69,440.69c0,0.04,0,0.07,0,0.09c0,0,0,0,0,0.01
	C341.69,440.76,341.69,440.73,341.69,440.69z M341.5,442.74c0.19-0.66,0.31-1.3,0.57-1.93c0-0.06,0.06-0.11,0.06-0.17
	c0.13-0.09,0.31-0.17,0.44-0.26c0.82-0.25,1.57-0.48,2.39-0.67c0.5-0.02,1.01-0.02,1.45,0c0.38,0.09,0.75,0.2,1.13,0.3
	c0.88,0.47,1.76,0.96,2.58,1.52c1.57,1.4,3.02,2.89,4.4,4.52c1.95,2.66,3.84,5.36,5.79,8.05c1.64,2.28,3.33,4.61,5.41,6.57
	c2.33,2.26,6.86,4.75,10.25,4.33c1.76-0.22,3.58-0.45,5.35-0.71c1.45-0.58,2.89-1.19,4.34-1.87c1.82-0.84,3.9-2.71,5.35-3.93
	c1.07-0.87,2.08-1.77,3.08-2.68c1.51-1.38,3.08-2.77,4.59-4.16c1.95-1.79,4.03-3.48,6.1-5.13c2.14-1.52,4.34-2.84,6.67-3.98
	c1.01-0.35,2.01-0.63,3.08-0.87c0.06,0,0.13,0,0.19,0c0.82,0.45,1.57,0.92,2.39,1.44c0.69,0.61,1.32,1.26,1.95,1.94
	c1.07,1.62,2.01,3.31,2.83,5.04c0.88,2.36,1.51,4.77,1.95,7.24c0.06,1.08,0.13,2.14,0.06,3.2c-0.19,0.78-0.38,1.53-0.63,2.3
	c-0.5,0.9-1.01,1.75-1.57,2.6c-1.45,1.6-2.96,3.05-4.53,4.43c-7.92,5.56-16.92,9.52-25.79,13.32c-4.47,1.87-8.99,3.69-13.33,5.71
	c-5.85,2.66-11.51,5.64-17.23,8.52c-1.89-1.25-3.77-2.51-5.6-3.83c-1.76-1.45-3.33-2.98-4.91-4.68c-1.07-1.61-2.01-3.25-2.96-4.99
	c-2.58-7.09-3.96-14.54-5.03-22.01C341.75,455.56,340.99,449.11,341.5,442.74z"/>
<path class="st0" d="M269.54,213.72c2.39,4.91,4.78,9.68,7.42,14.45c2.52,4.55,5.03,9.1,7.3,13.78c1.07,2.13,2.08,4.26,3.14,6.35
	c3.52,6.84,11.07,10.27,17.36,14.04c5.72,3.48,13.52,1.31,16.92-4.45c3.46-5.87,1.32-13.45-4.47-16.95
	c-2.77-1.7-5.66-3.26-8.37-5.08c-2.96-5.37-5.41-11.04-8.37-16.44c-3.4-6.07-6.6-12.13-9.56-18.39c-1.82-4.25-3.58-8.52-5.35-12.81
	c-1.26-3.13-2.64-5.62-5.66-7.39c-1.89-1.12-4.09-1.69-6.29-1.69c-1.13,0-2.2,0.13-3.27,0.43c-3.08,0.87-5.79,2.94-7.36,5.71
	c-1.57,2.58-2.45,6.62-1.26,9.55C264.26,201.1,266.59,207.62,269.54,213.72"/>
<path class="st0" d="M424.65,224.75c1.19,2.77,4.65,4.91,7.42,5.69c3.14,0.86,6.67,0.4,9.56-1.27c2.77-1.62,4.84-4.29,5.66-7.38
	c0.94-3.53,0.13-6.36-1.26-9.56c-0.5-1.21-1.07-2.42-1.64-3.64c-0.25-0.73-0.5-1.43-0.69-2.18c-0.19-3.67,0-7.37,0.06-11.06
	c0.06-4.07,0.13-8.13,0.38-12.2c0.44-9,1.38-17.91,2.58-26.85c0.38-3.06-1.57-6.72-3.65-8.78c-2.33-2.33-5.53-3.62-8.74-3.62
	c-3.33,0-6.48,1.29-8.81,3.62c-2.52,2.55-3.21,5.32-3.59,8.78c-1.26,9.72-2.39,19.4-2.7,29.17c-0.19,4.77-0.25,9.58-0.38,14.35
	c0,2.26-0.06,4.52,0,6.79c0.13,2.64,0.5,5.25,1.32,7.77C421.25,217.94,423.14,221.33,424.65,224.75"/>
<path class="st0" d="M591.9,211.92c-1.76-1.02-4.28-1.79-6.6-1.79c-1.01,0-2.08,0.15-2.96,0.53c-4.97,2.09-10.32,3.71-14.72,6.84
	c-1.7,1.22-3.4,2.48-5.16,3.74c-3.77,2.81-7.3,5.75-10.82,8.88c-3.4,2.98-6.67,5.98-9.69,9.27c-3.84,4.06-7.23,8.49-10.69,12.84
	c-2.14,2.67-3.65,5.16-3.65,8.75c0,3.29,1.32,6.45,3.65,8.77c2.33,2.29,5.47,3.62,8.74,3.62c2.96,0,6.86-1.19,8.81-3.62
	c4.28-5.42,8.62-10.68,13.33-15.71c2.14-2.3,4.65-4.33,6.98-6.39c1.95-1.72,3.9-3.42,5.91-5.05c0.75-0.55,1.51-1.11,2.2-1.66
	c2.64-1.86,5.16-3.51,8.05-4.85c1.19-0.5,2.39-1,3.65-1.51c3.08-1.32,5.6-2.64,7.36-5.68c1.7-2.87,2.14-6.35,1.26-9.55
	C596.74,216.25,594.66,213.53,591.9,211.92"/>
</svg>
