<?xml version="1.0" encoding="utf-8"?>
<!-- Generator: Adobe Illustrator 24.1.2, SVG Export Plug-In . SVG Version: 6.00 Build 0)  -->
<svg version="1.1" id="Lag_1" xmlns="http://www.w3.org/2000/svg" xmlns:xlink="http://www.w3.org/1999/xlink" x="0px" y="0px"
	 viewBox="0 0 800 800" style="enable-background:new 0 0 800 800;" xml:space="preserve">
<style type="text/css">
	.st0{fill:#FFFFFF;}
</style>
<path class="st0" d="M459.4,478.41c-0.31,0-0.63,0-0.94,0c-1.16-1.68-2.27-3.38-3.22-5.21c-1.09-2.13-2.21-4.24-3.33-6.36
	c-2.23-4.22-4.46-8.45-6.42-12.81c-0.36-0.77-0.7-1.55-1.05-2.32c-0.63-1.39-1.46-2.58-2.46-3.71c-1.02-1.15-2.61-1.92-4.08-2.25
	c-0.96-0.21-1.95-0.23-2.94-0.23c-0.19,0-0.38,0-0.56,0c-2.26,0-4.5,0-6.77,0c-4.68,0-9.37,0-14.03,0c-9.25,0-18.48,0-27.72,0
	c-4.87,0-9.75,0-14.63,0.05c-5.37,0.06-10.81,0.03-16.09,1.03c-2.74,0.52-5.18,1.83-6.92,4c-0.91,1.15-1.81,2.32-2.71,3.49
	c0.25-0.3,0.48-0.61,0.72-0.92c-1.33,1.71-2.62,3.45-3.92,5.19c-1.54,2.08-2.95,4.23-4.17,6.53c-1.22,2.31-2.17,4.78-3.13,7.22
	c-1.16,1.37-2.33,2.74-3.49,4.1c-0.84,0.99-1.67,1.97-2.47,2.98c-0.39,0.5-0.82,0.95-1.1,1.5c-0.51,0.99-0.93,2.39-0.47,3.5
	c0.36,0.86,0.6,1.59,1.29,2.28c0.94,0.95,2.21,1.35,3.52,1.43c2.42,0.15,4.87-0.14,7.31-0.21c2.55-0.08,5.1-0.12,7.65-0.16
	c6.59-0.07,13.2-0.06,19.79-0.06c2.85,0,5.67,0.01,8.51,0c19.27,0,38.55,0,57.83,0c8.67,0,17.33,0,26,0c2.47,0,4.54-2.06,4.54-4.54
	C463.94,480.48,461.86,478.41,459.4,478.41 M400.25,478.41c-9.67,0-19.34,0-29.02,0c-9.52,0-19.06-0.05-28.58,0.13
	c-0.4,0-0.81,0.01-1.22,0.03c0.77-0.92,1.55-1.83,2.32-2.73c0.8-0.95,1.32-1.93,1.32-3.22c0-0.3-0.03-0.61-0.1-0.91
	c1.47-3.2,3.25-6.15,5.38-9c0.95-1.28,1.9-2.55,2.85-3.82c0.2-0.27,0.41-0.54,0.62-0.81c0.58-0.74,1.15-1.51,1.83-2.17
	c0.03-0.01,0.05-0.03,0.08-0.04c0.86-0.28,1.74-0.49,2.63-0.65c4.6-0.5,9.23-0.53,13.87-0.57c4.71-0.04,9.41-0.04,14.12-0.04
	c9.42,0,18.85,0,28.27,0c3.64,0,7.27,0,10.92,0c1.63,0,3.25,0,4.88,0c0.91,0,1.82,0,2.75,0c0.82,0,1.67-0.03,2.51,0
	c0.98,1.59,1.66,3.36,2.42,5.05c0.54,1.2,1.11,2.37,1.68,3.54c1.16,2.36,2.38,4.68,3.63,7c1.22,2.27,2.42,4.54,3.61,6.84
	c0.24,0.46,0.49,0.92,0.74,1.38C431.93,478.41,416.09,478.41,400.25,478.41z"/>
<path class="st0" d="M217.95,463.92c-0.04,0.09-0.08,0.17-0.11,0.26c-0.02,0.06-0.04,0.12-0.07,0.17
	C217.83,464.21,217.89,464.07,217.95,463.92"/>
<path class="st0" d="M607.17,344.37c-0.21-1.58-0.69-3.11-1.24-4.61c-0.8-2.13-1.76-4.11-3.04-5.99c-1.2-1.77-2.71-3.36-4.28-4.81
	c-1.1-1.01-2.18-2.03-3.23-3.1c-0.46-0.46-0.9-0.92-1.35-1.4c-0.04-0.04-0.08-0.07-0.11-0.11c0.18-0.76,0.18-1.56-0.02-2.31
	c-0.29-1.03-1.07-2.29-2.1-2.72c-3.93-1.71-7.86-3.67-12.08-4.59c-2.06-0.45-4.16-0.63-6.26-0.84c-0.81-0.08-1.63-0.12-2.46-0.12
	c-2.46,0-4.94,0.34-7.31,0.9c-3.17,0.74-6.22,2.07-9.11,3.56c-2.93,1.52-5.62,3.54-8.05,5.76c-1.3,1.18-2.43,2.54-3.61,3.85
	c-0.98,1.12-1.92,2.34-2.78,3.55c-1.36,1.9-2.64,3.88-3.66,5.99c-0.85,1.79-1.68,3.58-2.37,5.45c-0.76,2.02-1.11,4.13-1.45,6.26
	c-0.23,1.43-0.36,2.87-0.48,4.32c-0.19,2.35-0.07,4.64,0.3,6.98c0.18,1.2,0.65,2.37,1.1,3.47c0.6,1.45,1.25,2.91,2.14,4.21
	c0.89,1.3,1.8,2.59,2.88,3.76c1.62,1.76,3.47,3.32,5.6,4.43c1.15,0.6,2.33,1.12,3.5,1.64c2.05,0.93,4.13,1.77,6.21,2.62
	c-0.5,0.64-1.02,1.27-1.49,1.92c-1.4,1.92-2.81,3.87-4,5.92c-2.33,4.03-4.7,8.07-6.59,12.33c-0.03,0.06-0.06,0.12-0.08,0.17
	c-0.2,0.46-0.42,0.91-0.62,1.37c-0.04,0.08-0.07,0.16-0.11,0.24c-0.07,0.16-0.13,0.32-0.19,0.49c-0.11,0.22-0.2,0.45-0.27,0.69
	c-0.01,0.03-0.02,0.05-0.03,0.08c-0.05,0.11-0.1,0.23-0.15,0.34c-0.16,0.29-0.29,0.59-0.38,0.9c-0.08,0.2-0.16,0.39-0.24,0.59
	c-0.46,1.09-0.91,2.17-1.36,3.26c-1.21,2.81-2.45,5.6-3.84,8.33c-0.82,1.58-1.63,3.17-2.45,4.75c-0.77,1.45-1.7,2.86-2.55,4.27
	c-1.67,2.71-3.25,5.46-4.83,8.22c-1.44,2.48-2.95,4.99-4.62,7.32c-0.26,0.33-0.53,0.65-0.79,0.97c-0.94,1.14-1.69,2.38-2.41,3.64
	c-0.03-0.02-0.05-0.05-0.08-0.07c-1.73-1.73-3.51-3.36-5.3-5.03c-3.49-3.25-6.94-6.56-10.28-9.94c-3.48-3.5-6.64-7.28-9.94-10.95
	c-1.5-1.68-3.11-3.26-4.81-4.75c-1.19-1.06-2.39-2.13-3.64-3.14c-1.21-0.97-2.48-1.87-3.87-2.6c-0.7-0.36-1.44-0.64-2.18-0.93
	c-0.98-0.4-2.03-0.49-3.07-0.61c-1.23-0.14-2.58,0.12-3.82,0.2c-1.15,0.08-2.3,0.13-3.45,0.19c-2.28,0.1-4.58,0.2-6.87,0.2
	c-0.49,0-0.98,0-1.47,0c2.03-2.55,4.01-5.15,5.68-7.94c1.72-2.86,3.2-6.04,4.17-9.22c0.44-1.47,0.64-3.07,0.58-4.59
	c-0.07-1.89-0.67-3.62-1.45-5.32c-0.55-1.16-1.45-2.24-2.2-3.29c-0.85-1.18-1.79-2.33-2.72-3.45c-2.48-2.96-5.43-5.53-8.25-8.17
	c-1.19-1.13-2.38-2.27-3.56-3.42c-2.5-2.42-5-4.8-7.18-7.5c-1.17-1.63-2.27-3.31-3.39-4.98c-0.73-1.1-1.83-1.85-3.02-2.12
	c-1.41-4.44-2.94-8.89-3.7-13.48c-0.18-1.79-0.18-3.58-0.18-5.37c0.21-0.1,0.44-0.17,0.66-0.27c4.79-2.26,8.87-5.88,11.38-10.56
	c1.34-2.52,2.41-5.13,3.38-7.83c0.95-2.72,1.24-5.65,1.53-8.51c0.19-1.76,0.26-3.54,0.17-5.31c-0.23-3.93-1.34-7.65-3.58-10.9
	c-2.06-2.99-4.67-5.33-7.44-7.63c-1.22-1-2.5-1.95-3.77-2.9c-2.14-1.57-4.54-2.62-6.92-3.8c-1.12-0.56-2.26-0.8-3.5-0.46
	c-0.22,0.06-0.44,0.14-0.64,0.23c-2.68-0.9-5.35-1.79-8.12-2.36c-2.39-0.5-4.82-0.71-7.25-0.9c-2.52-0.19-5.05-0.27-7.58-0.31
	c-0.23,0-0.46-0.01-0.69-0.01c-2.41,0-4.82,0.23-7.18,0.66c-3.44,0.62-6.64,2.53-9.39,4.6c-5.3,3.99-9.56,9.37-12.18,15.47
	c-1.54,3.58-2.27,7.39-2.54,11.27c-0.22,2.99-0.46,6.08-0.11,9.06c0.18,1.44,0.43,2.78,0.98,4.13c0.54,1.37,1.18,2.65,2.01,3.88
	c1.44,2.14,3.24,3.95,5.17,5.64c2.02,1.75,4.14,3.37,6.35,4.86c1.67,1.13,3.47,2.01,5.32,2.75c-1.08,1.55-2.15,3.11-3.14,4.73
	c-0.68,1.14-1.39,2.28-2.07,3.42c-0.74,1.2-1.34,2.5-2,3.73c-1.14,2.13-2.18,4.31-3.19,6.5c-0.47,0.22-0.93,0.49-1.32,0.87
	c-2.06,2.07-4.08,4.16-6,6.37c-1.53,1.74-2.95,3.58-4.41,5.38c-2.1,2.58-4.27,5.07-6.67,7.37c-2.39,2.26-5.07,4.25-7.65,6.28
	c-1.88,1.48-3.77,2.95-5.61,4.48c-1.5,1.25-2.86,2.73-3.48,4.62c-1.09,3.29-0.14,6.99,1.19,10.06c1.45,3.3,3.49,6.35,5.34,9.44
	c0.38,0.62,0.72,1.26,1.09,1.88c-2.31,0.06-4.62,0.11-6.93,0.12c-4.81,0.04-9.64,0.04-14.46,0.37c-2.32,0.17-4.63,0.4-6.92,0.87
	c-1.4,0.29-2.78,0.85-4.04,1.53c-1.07,0.56-1.99,1.5-2.92,2.27c-1.94,1.62-3.91,3.2-5.86,4.79c-3.68,2.97-7.4,5.88-10.98,8.97
	c-2.62,2.26-5.24,4.51-7.84,6.79c-0.88-2.23-1.77-4.45-2.97-6.54c-1.68-2.91-3.38-5.83-5.18-8.68c-1.97-3.12-3.64-6.41-5.35-9.69
	c-1.63-3.1-3.1-6.3-4.54-9.49c-1.92-4.7-3.74-9.45-5.56-14.19c0.83-0.5,1.63-1.07,2.42-1.69c1.81-1.43,3.19-3.18,4.55-5.02
	c0.65-0.87,1.28-1.78,1.82-2.73c2.42-4.32,4.58-8.8,5.58-13.68c0.52-2.54,0.82-5.15,0.96-7.73c0.13-2.32,0.26-4.65,0.19-6.96
	c-0.11-3.34-0.78-6.62-2.29-9.62c-1.35-2.7-3.15-5.17-5.24-7.34c-1.36-1.43-2.83-2.71-4.37-3.93c-0.96-0.77-1.92-1.51-2.93-2.19
	c-1.92-1.29-4.19-2-6.3-2.86c-0.76-0.3-1.71-0.22-2.54,0.04c-0.39-0.26-0.8-0.44-1.22-0.5c-5.25-0.72-10.46-1.54-15.77-1.56
	c-1.1-0.01-2.2-0.01-3.29-0.01c-1.24,0.01-2.46,0.14-3.68,0.33c-1.71,0.27-3.24,0.77-4.83,1.46c-2.33,0.99-4.49,2.3-6.65,3.65
	c-3.05,1.9-5.63,4.46-7.49,7.55c-1.77,2.97-3.06,6.17-4.17,9.45c-1.58,4.62-2.25,9.52-2.46,14.39c-0.14,3.11-0.15,6.11,0.63,9.16
	c1.04,4.02,3.33,7.77,6.17,10.76c2.12,2.25,4.54,4.05,7.2,5.61c1.5,0.87,3.11,1.52,4.71,2.2c0.65,0.28,1.3,0.55,1.95,0.83
	c-0.75,1.84-1.5,3.68-2.22,5.55c-0.86,2.23-1.55,4.51-2.17,6.83c-1.22,4.46-2.37,8.95-3.4,13.47c-0.54,2.29-0.96,4.65-1.59,6.93
	c-0.67,2.43-1.36,4.87-1.95,7.33c-1.13,4.68-2.08,9.41-3.01,14.14c-0.78,4.03-1.4,8.07-2.46,12.03c-0.93,3.46-2.11,6.88-3.45,10.2
	c-0.45,1.06-0.89,2.12-1.34,3.17c-0.95,2.18-2.01,4.32-3,6.49c-0.64,1.38-1.22,2.8-1.76,4.23c-0.2,0.54-0.39,1.09-0.57,1.63
	c-0.1,0.29-0.18,0.58-0.25,0.88c-0.19,0.73-0.49,1.69-0.43,2.42c0.07,0.73,0.13,1.46,0.37,2.15c0.39,1.19,1.17,2.2,2.12,2.99
	c1.5,1.21,3.25,1.88,5.1,2.31c2.26,0.5,4.64,0.69,6.94,0.84c2.47,0.17,4.92,0.37,7.38,0.66c0.96,0.15,1.93,0.28,2.89,0.43
	c0.1,0.4,0.23,0.79,0.45,1.16c1.22,2.1,4.1,2.93,6.21,1.63c0.97-0.6,1.92-1.25,2.88-1.86c2.04,0.06,4.08,0.07,6.1,0.12
	c2.49,0.07,4.54-2.12,4.54-4.54c0-0.92-0.28-1.75-0.74-2.45c1.18-0.91,2.36-1.83,3.53-2.75c1.82-1.39,3.63-2.78,5.43-4.19
	c1.03-0.81,2.06-1.63,3.09-2.43c1.11-0.87,2.14-1.9,3.19-2.85c3.7-3.3,7.25-6.79,10.9-10.13c3.51-3.22,7.2-6.21,10.84-9.27
	c1.38-1.16,2.71-2.38,4.07-3.56c3.29,0.48,6.58,0.94,9.85,1.56c3.51,0.67,7.02,1.31,10.56,1.86c0.78,0.12,1.57,0.27,2.36,0.42
	c1.67,0.29,3.4,0.72,5.11,0.34c3.19-0.71,5.18-3.58,7.03-6.08c0.08-0.09,0.16-0.18,0.24-0.27c0.99-0.66,2.05-1.23,3.08-1.85
	c2.13-1.25,2.89-4.07,1.63-6.21c-1.24-2.13-4.08-2.89-6.21-1.63c-1.83,1.09-3.78,2.02-5.24,3.61c-0.68,0.74-1.26,1.59-1.86,2.41
	c-0.29,0.34-0.59,0.68-0.9,1c-3.79-0.63-7.6-1.21-11.37-1.97c-1.8-0.36-3.59-0.65-5.39-0.94c1.79-1.57,3.6-3.11,5.39-4.66
	c2.17-1.88,4.32-3.81,6.55-5.62c2.37-1.92,4.77-3.79,7.14-5.71c2.27-1.84,4.49-3.74,6.76-5.56c0.26-0.16,0.52-0.31,0.79-0.44
	c1.06-0.34,2.12-0.56,3.22-0.73c5.08-0.56,10.21-0.54,15.32-0.59c4.6-0.04,9.21-0.13,13.8-0.27c0.71,1.37,1.42,2.74,2.09,4.13
	c1.28,2.61,2.46,5.27,3.6,7.96c-0.08-0.17-0.14-0.35-0.22-0.52c0.51,1.24,1.04,2.48,1.57,3.72c0.08,0.17,0.16,0.35,0.24,0.52
	c-1.17,0.09-2.35,0.14-3.52,0.23c-1.25,0.09-2.32,0.44-3.22,1.34c-0.85,0.84-1.32,2.01-1.32,3.2c0,2.34,2.06,4.72,4.54,4.54
	c2.74-0.2,5.52-0.23,8.2-1c2.47-0.69,5.07-2.39,5.43-5.14c0.23-0.81,0.23-1.61,0-2.41c-0.1-0.76-0.35-1.32-0.67-2.02
	c-0.3-0.69-0.65-1.35-1-2.01c-0.47-0.93-0.86-1.88-1.28-2.84c-1.41-3.34-2.91-6.62-4.47-9.88c1.84-0.01,3.69-0.03,5.54-0.03
	c4.77-0.03,9.54-0.09,14.31,0.11c4.84,0.18,9.66,0.53,14.5,0.67c4.95,0.14,9.85,0.53,14.76,1.13c4.72,0.58,9.41,0.98,14.16,1.18
	c3.17,0.13,6.36,0.15,9.54,0.16c-1.04,1.21-2.07,2.44-3.13,3.64c-2.91,3.29-6.04,6.44-9.38,9.28c-0.9,0.77-1.67,1.82-1.99,2.97
	c-0.47,1.71,0.09,3.73,1.34,4.99c1.88,1.88,4.88,2.15,7.37,2.57c3.37,0.57,6.74,1.16,10.11,1.77c1.24,0.24,2.36,0.2,3.5-0.45
	c1-0.59,1.77-1.58,2.08-2.72c0.61-2.22-0.74-5.13-3.17-5.58c-2.64-0.48-5.29-0.98-7.96-1.42c-0.07-0.01-0.14-0.02-0.21-0.04
	c0.16-0.16,0.33-0.33,0.49-0.49c1.52-1.49,2.99-3.07,4.4-4.67c2.86-3.23,5.65-6.53,8.42-9.84c2.52,0,5.03,0.01,7.55,0.01
	s5.03-0.06,7.54-0.18c1.25-0.06,2.49-0.11,3.73-0.19c1.3-0.09,2.63-0.27,3.94-0.21c0.27,0.07,0.52,0.15,0.77,0.24
	c0.94,0.48,1.81,1.02,2.67,1.63c1.9,1.54,3.8,3.17,5.52,4.92c1.76,1.81,3.45,3.68,5.11,5.59c1.62,1.87,3.25,3.7,4.91,5.53
	c1.5,1.67,3.17,3.19,4.76,4.76c1.73,1.66,3.45,3.33,5.16,5c1.73,1.68,3.53,3.27,5.29,4.93c1.77,1.69,3.48,3.46,5.27,5.13
	c0.83,0.77,1.7,1.47,2.54,2.21c-1.47,0.73-2.96,1.45-4.44,2.18c-0.89,0.44-1.79,0.86-2.67,1.3c-0.82,0.4-1.58,0.9-2.39,1.33
	c-0.26,0.08-0.51,0.14-0.76,0.2c-0.1,0-0.2,0-0.3-0.01c-0.75-0.16-1.46-0.39-2.17-0.66c-2.09-0.96-4.1-2.08-5.94-3.45
	c-0.74-0.59-1.49-1.16-2.24-1.74c-0.91-0.71-2.45-0.76-3.5-0.46c-1.14,0.31-2.12,1.07-2.72,2.08c-0.61,1.05-0.78,2.33-0.45,3.5
	c0.33,1.18,1.02,1.87,1.92,2.59c-0.04-0.02-0.07-0.05-0.11-0.08c1.37,1.08,2.73,2.18,4.18,3.16c0.62,0.44,1.36,0.76,2.02,1.11
	c1.89,1.02,3.82,1.92,5.87,2.56c3.15,0.95,6.41,0.37,9.23-1.2c0.96-0.53,1.9-1.07,2.89-1.55c3.08-1.48,6.13-3,9.2-4.52
	c1.54,1.25,3.1,2.49,4.64,3.75c2.77,2.25,5.37,4.73,7.96,7.18c2.55,2.41,5.12,4.86,7.82,7.1c1.58,1.32,3.17,2.6,4.8,3.83
	c0.73,0.54,1.47,1.09,2.19,1.63c0.44,0.33,0.86,0.65,1.3,0.98c1.34,0.99,2.97,1.68,4.42,2.47c2.17,1.19,4.93,0.55,6.21-1.62
	c0.35-0.61,0.53-1.29,0.57-1.97c3.78,0.01,7.56,0.01,11.33-0.1c2.83-0.08,5.69-0.29,8.49-0.72c1.35-0.22,2.65-0.49,3.92-0.97
	c1.49-0.57,2.66-1.28,3.88-2.29c0.1-0.14,0.22-0.3,0.34-0.44c0.41-0.41,0.73-0.89,0.96-1.41c0.44-0.87,0.69-1.77,0.71-2.75
	c0.03-1.14-0.23-2.26-0.4-3.37c0.05,0.4,0.11,0.8,0.16,1.2c-0.38-2.92-0.83-5.82-1.24-8.74c0-0.01,0-0.03,0-0.04
	c0-0.01,0-0.03,0-0.04c-0.37-2.94-0.73-5.89-1.12-8.83c0.02,0.08,0.03,0.17,0.04,0.26c-0.35-2.92-0.69-5.83-1.1-8.75
	c-1.07-8.21-1.74-16.49-2.64-24.73c-0.98-8.91-2.2-17.79-3.47-26.67c-0.23-1.78-0.45-3.55-0.54-5.35c-0.09-1.78,0.01-3.57,0.2-5.35
	c0.2-1.15,0.44-2.3,0.68-3.44c2.64-0.59,5.2-1.75,7.44-3.25c5.16-3.48,9.87-7.92,12.89-13.43c1.9-3.49,3.08-7.46,3.53-11.41
	c0.17-1.4,0.31-2.78,0.39-4.19c0.06-0.74,0.07-1.49,0.11-2.23C607.62,348.09,607.42,346.26,607.17,344.37 M225.41,369.92
	c-1.38-1.18-2.6-2.49-3.74-3.9c-0.71-1.04-1.32-2.11-1.86-3.25c-0.41-1.1-0.74-2.2-0.95-3.33c-0.29-3.28,0.04-6.65,0.37-9.92
	c0.27-1.8,0.6-3.58,1.13-5.34c0.62-2.05,1.33-4.06,2.13-6.04c0.79-1.7,1.73-3.29,2.83-4.8c0.57-0.68,1.19-1.28,1.87-1.86
	c2.23-1.63,4.68-3.07,7.19-4.22c0.94-0.35,1.89-0.59,2.87-0.78c2.47-0.23,4.99-0.11,7.47-0.05c2.44,0.06,4.86,0.39,7.28,0.7
	c-0.05-0.01-0.1-0.01-0.15-0.02c1.29,0.17,2.57,0.34,3.86,0.52c0.94,0.13,1.78,0.19,2.62-0.06c0.35,0.2,0.73,0.37,1.13,0.54
	c0.71,0.29,1.43,0.57,2.13,0.85c1.1,0.52,2.11,1.13,3.08,1.85c2.21,1.78,4.24,3.66,6.05,5.86c0.87,1.2,1.63,2.45,2.26,3.8
	c0.37,1.06,0.65,2.12,0.86,3.22c0.16,2.02,0.1,4.05,0.03,6.08c-0.06,2.01-0.2,4.02-0.43,6.02c-0.24,1.43-0.49,2.86-0.92,4.23
	c-0.44,1.38-0.92,2.75-1.44,4.1c-0.72,1.46-1.47,2.9-2.26,4.31c-0.74,1.34-1.6,2.58-2.5,3.81c-0.72,0.86-1.48,1.63-2.33,2.36
	c-0.28,0.19-0.57,0.34-0.86,0.51c-0.63-0.3-1.31-0.48-2-0.48c-0.4,0-0.8,0.05-1.2,0.16c-1.13,0.31-2.12,1.07-2.71,2.08
	c-0.03,0.06-0.05,0.13-0.09,0.2c-0.01,0-0.02,0-0.03,0c-0.29,0.01-0.56,0.05-0.82,0.11c-4.79,0.33-9.63,0.19-14.39-0.36
	c-2.62-0.47-5.09-1.26-7.55-2.24c-1.18-0.51-2.37-1.02-3.56-1.53C228.89,372.18,227.1,371.11,225.41,369.92z M258.92,385.89
	c-0.03,0-0.05,0.01-0.08,0.01c0,0,0.02,0,0.03-0.01C258.88,385.89,258.9,385.89,258.92,385.89
	C258.92,385.89,258.92,385.89,258.92,385.89z M256,377.2c-0.02,0.01-0.05,0.01-0.08,0.02c-0.21,0.03-0.41,0.05-0.62,0.08
	C255.54,377.26,255.77,377.23,256,377.2z M242.35,395.73c-1.19,0-2.35,0.49-3.2,1.34c-0.9,0.9-1.24,1.96-1.34,3.2
	c-0.39,5.37-0.77,10.74-0.88,16.13c-0.04,2.2-0.05,4.41-0.07,6.62c0,1.26,0,2.53,0.02,3.79c0.05,3.78,2.91,6.43,5.95,8.22
	c1.48,0.86,3.17,1.43,4.78,2.03c1.03,0.39,2.11,0.75,3.19,1.03c1.26,0.34,2.52,0.67,3.79,1.02c2.45,0.66,4.88,1.33,7.33,2
	c4.55,1.24,9.07,2.49,13.74,3.22c0.25,0.04,0.5,0.08,0.75,0.11c-2.85,2.4-5.7,4.79-8.52,7.24c-3.24,2.8-6.28,5.86-9.43,8.77
	c-1.71,1.6-3.46,3.17-5.21,4.73c-1.49,1.34-3.12,2.52-4.69,3.75c0.3-0.24,0.61-0.48,0.92-0.71c-2.71,2.09-5.41,4.18-8.11,6.28
	c-1.63,1.24-3.26,2.46-4.97,3.6c-0.49,0.34-1.02,0.64-1.52,0.97c-1.16-0.06-2.33-0.09-3.49-0.22c-2.81-0.41-5.6-0.92-8.42-1.2
	c-2.96-0.3-5.95-0.41-8.92-0.75c-0.54-0.1-1.07-0.2-1.59-0.32c0.3-0.91,0.66-1.8,1.02-2.68c0.62-1.39,1.27-2.78,1.93-4.15
	c0.87-1.83,1.66-3.68,2.44-5.56c1.81-4.29,3.42-8.64,4.65-13.15c1.25-4.65,1.95-9.42,2.85-14.14c0.91-4.72,1.9-9.44,3.15-14.06
	c0.64-2.4,1.31-4.8,1.86-7.22c0.51-2.26,1.02-4.51,1.58-6.76c1.08-4.32,2.14-8.62,3.31-12.91c0.97-3.59,2.37-7.06,3.79-10.5
	c1.82,0.34,3.68,0.57,5.51,0.69c4.3,0.29,8.67,0.49,12.95-0.05c0.02,0,0.03,0,0.05,0c-0.3,0.04-0.61,0.08-0.92,0.12
	c0.31-0.04,0.62-0.08,0.93-0.12c0.07-0.01,0.14-0.01,0.21-0.02c0.36-0.01,0.7-0.06,1.03-0.14c0.04-0.01,0.09-0.01,0.13-0.02
	c1.14,2.96,2.28,5.93,3.43,8.88c0.99,2.56,1.98,5.12,3.11,7.63c1.01,2.22,2.05,4.41,3.12,6.61c2.05,4.17,4.2,8.34,6.67,12.27
	c1.19,1.9,2.32,3.83,3.44,5.76c1.11,1.88,2.23,3.72,3.12,5.72c0.01,0.04,0.03,0.09,0.05,0.13c0.4,0.97,0.8,1.94,1.18,2.93
	c0.07,0.18,0.14,0.36,0.2,0.55c-2.99-0.46-5.98-0.94-8.95-1.47c-2.22-0.39-4.43-1.07-6.62-1.65c-2.38-0.64-4.76-1.3-7.14-1.94
	c-4.06-1.1-8.14-2.07-12.05-3.6c-0.77-0.37-1.49-0.77-2.19-1.24c-0.12-0.11-0.24-0.23-0.36-0.35c-0.02-0.83,0.01-1.67,0.01-2.49
	c0-0.93,0.01-1.88,0.01-2.82c0.01-2.03,0.03-4.07,0.09-6.11c0.14-4.82,0.49-9.64,0.84-14.45
	C247.08,397.8,244.69,395.73,242.35,395.73z M314.46,441.41c-0.06,0.03-0.11,0.06-0.17,0.08c0,0-0.01,0-0.01,0
	C314.33,441.47,314.39,441.44,314.46,441.41z M385.66,318.44c-1.98-1.63-3.91-3.27-5.56-5.25c-0.55-0.8-1.04-1.62-1.47-2.49
	c-0.21-0.62-0.37-1.24-0.5-1.89c-0.17-2.02-0.06-4.04,0.04-6.06c0.06-1.24,0.16-2.48,0.29-3.72c0.34-2.04,0.77-4.02,1.5-5.97
	c1.11-2.42,2.5-4.67,4.09-6.83c1.49-1.82,3.13-3.47,4.96-4.95c1.4-1.02,2.86-1.93,4.42-2.68c0.92-0.31,1.84-0.56,2.79-0.74
	c2.84-0.3,5.7-0.27,8.54-0.16c2.37,0.1,4.72,0.24,7.08,0.5c3.66,0.57,7.12,1.73,10.62,2.9c0.97,0.33,1.99,0.23,2.9-0.16
	c1.53,0.71,3.07,1.44,4.43,2.42c0.68,0.49,1.36,0.99,2.04,1.49c2.32,1.86,4.64,3.79,6.54,6.09c0.64,0.9,1.22,1.8,1.7,2.79
	c0.35,1.02,0.6,2.06,0.79,3.12c0.23,2.52,0,5.01-0.26,7.52c-0.2,1.23-0.42,2.44-0.78,3.65c-0.36,1.26-0.82,2.49-1.31,3.72
	c-0.85,1.83-1.75,3.61-2.92,5.26c-0.72,0.86-1.49,1.66-2.34,2.39c-1.56,1.11-3.24,2.07-4.97,2.87c-2.77,1.06-5.63,1.73-8.54,2.22
	c-3.42,0.29-6.8,0.3-10.23,0.24c-3.37-0.07-6.73-0.22-10.1-0.53c-2.49-0.36-4.92-0.86-7.28-1.75
	C389.86,321.34,387.73,319.96,385.66,318.44z M361.72,390.9c-0.42,0.94-0.86,1.87-1.32,2.78c-0.3,0.62-0.62,1.22-0.89,1.83
	c-0.64,1.45-1.06,2.91-1.46,4.41c-0.46-0.76-0.91-1.52-1.37-2.29c-1.35-2.26-2.78-4.48-3.91-6.88c-0.3-0.87-0.54-1.74-0.71-2.63
	c-0.02-0.18-0.02-0.37-0.02-0.54c2.08-2.12,4.59-3.85,6.9-5.67c3.09-2.43,6.2-4.86,8.98-7.63c-0.34,0.88-0.7,1.75-1.04,2.62
	c-0.85,2.23-1.59,4.5-2.39,6.73C363.61,386.08,362.65,388.49,361.72,390.9z M446.46,408.92c-4.98,0.01-9.97-0.02-14.94-0.15
	c-4.86-0.13-9.7-0.43-14.52-1.02c-4.8-0.58-9.58-1.04-14.4-1.29c-2.5-0.11-5.02-0.15-7.52-0.23c-2.47-0.1-4.94-0.26-7.41-0.42
	c-2.93-0.18-5.88-0.22-8.82-0.22c-1.84,0-3.68,0.01-5.51,0.02c-2.8,0-5.59,0.06-8.39,0.09c0.75-0.58,1.33-1.38,1.58-2.35
	c0.33-1.24,0.6-2.49,1.03-3.69c0.47-1.02,0.99-2.01,1.48-3.02c0.73-1.55,1.38-3.15,1.99-4.74c1.01-2.69,2.05-5.37,3.03-8.08
	c1.07-2.99,2.14-5.97,3.32-8.93c1.12-2.75,2.25-5.49,3.39-8.24c2.28-5.31,4.56-10.65,7.1-15.85c1.36-2.77,2.71-5.55,4.3-8.17
	c1.99-3.25,4.09-6.4,6.27-9.53c0.98,0.12,1.95,0.26,2.94,0.35c4.66,0.44,9.39,0.4,14.06,0.39c2.82-0.01,5.66-0.34,8.46-0.9
	c0.01,0.51,0,1.02,0.03,1.53c0.07,1.61,0.36,3.21,0.67,4.8c0.43,2.21,1.12,4.37,1.76,6.53c0.68,2.25,1.39,4.47,2.07,6.71
	c0.71,2.33,1.5,4.66,2.12,7.01c0.6,2.33,1.15,4.67,1.74,7.02c1.18,4.56,2.42,9.1,3.83,13.6c1.49,4.75,3.47,9.31,5.47,13.87
	c0.61,1.4,1.32,2.76,1.96,4.15c0.2,0.54,0.38,1.09,0.52,1.66c0.57,2.36,1.8,4.4,2.95,6.52c0.2,0.37,0.47,0.69,0.76,0.97
	C447.34,407.84,446.9,408.38,446.46,408.92z M453.77,399.72c-0.22-0.4-0.45-0.8-0.66-1.22c-0.34-1.2-0.63-2.39-1.11-3.54
	c-0.54-1.34-1.21-2.6-1.81-3.9c-1.01-2.16-1.92-4.34-2.86-6.52c-2.13-5.35-3.83-10.9-5.28-16.48c0.04,0.04,0.08,0.08,0.12,0.12
	c1.76,1.69,3.51,3.37,5.28,5.06c3.2,3.07,6.46,6.04,9.32,9.45c0.88,1.15,1.77,2.32,2.44,3.6c0.11,0.33,0.2,0.65,0.27,0.99
	c0.01,0.28,0.02,0.57,0.01,0.86c-0.21,1.07-0.53,2.1-0.92,3.12c-0.76,1.76-1.61,3.45-2.58,5.12
	C455.3,397.53,454.54,398.63,453.77,399.72z M524.22,452.97c-0.16-0.13-0.31-0.26-0.46-0.39c0.05-0.08,0.11-0.14,0.16-0.22
	c0.69-1.23,1.33-2.51,2.16-3.66c1.29-1.6,2.49-3.24,3.59-4.98c1.28-2.01,2.52-4.03,3.7-6.09c1.19-2.07,2.41-4.14,3.63-6.19
	c1.2-2.04,2.48-4.03,3.58-6.14c1.1-2.1,2.26-4.2,3.25-6.35c1.13-2.49,2.22-5,3.27-7.52c0.42-1,0.83-2,1.24-3
	c0.2-0.36,0.36-0.75,0.51-1.13c0.11-0.21,0.19-0.43,0.27-0.67c0.15-0.27,0.26-0.56,0.35-0.86c0.04-0.1,0.08-0.19,0.13-0.29
	c0.01-0.01,0.01-0.02,0.02-0.03c0.16-0.27,0.28-0.55,0.37-0.84c1.63-3.29,3.32-6.52,5.17-9.71c0.98-1.7,2.02-3.35,3.09-4.99
	c0.87-1.34,1.83-2.61,2.76-3.91c0.63-0.74,1.27-1.48,1.91-2.22c1.94,0.44,3.93,0.63,5.91,0.84c1.7,0.18,3.41,0.24,5.11,0.3
	c-0.46,2.77-0.76,5.55-0.69,8.39c0.07,3.02,0.63,6.03,1.04,9.03c0.44,3.06,0.88,6.12,1.33,9.18c0.58,4.5,1.06,9,1.56,13.5
	c-0.11-0.17-0.18-0.35-0.3-0.52c-0.19-0.27-0.38-0.54-0.55-0.81c-1.8-2.83-3.42-5.82-4.78-8.89c-0.63-1.64-1.09-3.29-1.42-5.01
	c-0.33-3.35,0.03-6.63,0.45-9.97c0.14-1.12-0.57-2.46-1.33-3.22c-0.84-0.85-2.01-1.32-3.2-1.32c-1.2,0-2.36,0.47-3.22,1.32
	c-0.94,0.94-1.16,1.96-1.33,3.22c-0.24,1.77-0.45,3.55-0.58,5.33c-0.18,2.18,0.01,4.44,0.38,6.61c0.58,3.55,1.94,6.82,3.55,10.02
	c0.68,1.37,1.37,2.73,2.16,4.05c0.36,0.64,0.74,1.26,1.12,1.9c0.04,0.06,0.08,0.12,0.12,0.18c-4.45,3.25-9.3,5.92-14.09,8.63
	c-4.06,2.29-8.08,4.6-12.08,6.98C536.28,446.94,530.26,449.97,524.22,452.97z M584.55,476.09c-0.07,0.1-0.14,0.2-0.21,0.29
	c-0.01,0-0.01,0-0.01,0.01C584.41,476.29,584.48,476.19,584.55,476.09z M583.05,474.08c0.11,0.9,0.24,1.81,0.36,2.72
	c-0.85,0.26-1.72,0.44-2.6,0.59c-3.3,0.39-6.62,0.49-9.94,0.53c-3.96,0.05-7.93,0.03-11.88,0.03c-1.4-0.01-2.65,0.66-3.48,1.68
	c-0.13-0.1-0.28-0.19-0.41-0.29c-0.79-0.6-1.59-1.18-2.38-1.77c-6.79-5.41-12.71-11.8-19.44-17.28c-0.44-0.36-0.89-0.72-1.33-1.08
	c2.29-1.17,4.59-2.32,6.86-3.5c2.15-1.12,4.3-2.25,6.39-3.49c2.04-1.2,4.06-2.47,6.12-3.64c5.59-3.19,11.33-6.19,16.77-9.66
	c2.51-1.61,4.97-3.26,7.29-5.13c1.08-0.88,1.93-2.04,2.41-3.32c0.08,0.72,0.17,1.43,0.25,2.15c0.75,7.02,1.34,14.05,2.34,21.04
	c0.29,2.41,0.57,4.82,0.89,7.24c0.02,0.2,0.04,0.4,0.07,0.6c0.24,1.89,0.46,3.79,0.7,5.69C582.33,469.48,582.7,471.78,583.05,474.08
	z M598.05,355.71c-0.17,1-0.34,2.02-0.64,3c-0.33,1.11-0.7,2.17-1.11,3.24c-0.72,1.53-1.56,2.96-2.55,4.33
	c-1.04,1.24-2.11,2.43-3.28,3.56c-1,0.98-2.08,1.87-3.19,2.74c-1.45,0.97-2.89,1.87-4.46,2.62c-0.79,0.28-1.57,0.49-2.4,0.66
	c-2.45,0.21-4.97,0.03-7.42-0.07c-1.91-0.07-3.8-0.22-5.71-0.42c-2.33-0.4-4.53-1.05-6.75-1.92c-2.23-0.89-4.45-1.77-6.66-2.7
	c0.15,0.06,0.3,0.13,0.44,0.19c-2.53-1.06-5.12-2.12-7.38-3.67c-0.99-0.87-1.86-1.8-2.7-2.82c-0.81-1.2-1.55-2.42-2.18-3.73
	c-0.36-0.99-0.65-1.98-0.85-3.02c-0.15-2.31,0.06-4.61,0.32-6.9c0.07-0.46,0.14-0.92,0.21-1.38c0.28-1.8,0.87-3.55,1.54-5.24
	c1.33-2.97,2.96-5.73,4.82-8.39c2.05-2.5,4.14-4.89,6.65-6.95c2.2-1.6,4.53-2.93,7.02-4.03c2.01-0.77,4.06-1.39,6.2-1.77
	c2.56-0.24,5.05-0.1,7.61,0.14c1.04,0.17,2.07,0.37,3.09,0.61c1.05,0.25,2.06,0.61,3.05,1.01c0.03,0.19,0.07,0.39,0.12,0.58
	c0.34,1.23,1.09,2,2.09,2.72c0.92,0.66,1.85,1.31,2.77,1.98c1.45,1.24,2.7,2.7,4.09,4c1.43,1.35,2.87,2.66,4.15,4.15
	c0.8,1.13,1.48,2.3,2.06,3.56c0.61,1.61,1.09,3.23,1.37,4.92C598.64,349.7,598.39,352.74,598.05,355.71z"/>
</svg>
