<?xml version="1.0" encoding="utf-8"?>
<!-- Generator: Adobe Illustrator 24.1.2, SVG Export Plug-In . SVG Version: 6.00 Build 0)  -->
<svg version="1.1" id="Lag_1" xmlns="http://www.w3.org/2000/svg" xmlns:xlink="http://www.w3.org/1999/xlink" x="0px" y="0px"
	 viewBox="0 0 800 800" style="enable-background:new 0 0 800 800;" xml:space="preserve">
<style type="text/css">
	.st0{fill:#FFFFFF;}
</style>
<path class="st0" d="M513.07,492.02c-0.99,0-1.97,0.35-2.67,1.09c-0.73,0.16-1.49,0.23-2.23,0.33c-4.15,0.55-8.3,1.01-12.47,1.4
	c-4.42,0.41-8.85,0.66-13.29,0.94c-4.56,0.31-9.11,0.45-13.68,0.51c-1.25,0.02-2.51,0-3.76,0c0.13-0.19,0.27-0.39,0.39-0.58
	c0.88-1.56,1.56-3.25,2.18-4.91c0.98-2.63,1.42-5.57,1.34-8.38c-0.05-1.6-0.32-3.21-0.56-4.77c-0.27-1.75-0.8-3.41-1.42-5.06
	c-2.16-5.73-5.65-10.89-9.63-15.49c-4.08-4.73-8.97-8.67-13.98-12.33c-2.33-1.73-4.81-3.25-7.46-4.42c-1.46-0.64-2.93-1.19-4.5-1.54
	c-0.07-0.02-0.15-0.02-0.22-0.04c-0.79-2.65-1.61-5.26-2.33-7.93c-0.39-1.46-1.6-2.49-3-2.84c0.88-0.45,1.76-0.9,2.61-1.4
	c1.44-0.88,2.79-1.91,4.15-2.9c0.87-0.64,1.74-1.29,2.58-1.97c1.71-1.36,3.41-2.77,4.96-4.34c3.53-3.66,5.91-8.28,6.7-13.3
	c0.39-2.45,0.53-4.93,0.57-7.42c0.07-4.31-1.56-8.42-4.08-11.84c-0.63-0.84-1.3-1.66-2.06-2.42c-0.8-0.8-1.76-1.46-2.69-2.1
	c-1.08-0.72-2.32-1.15-3.47-1.75c-0.1-0.92-0.5-1.81-1.16-2.57c-0.83-0.94-1.67-1.89-2.56-2.79c-0.99-1.01-2.09-1.87-3.24-2.67
	c-1.46-1.03-3.26-1.64-4.95-2.16c-1.55-0.47-3.2-0.64-4.82-0.84c-1.47-0.19-2.96-0.25-4.44-0.27c-0.18,0-0.38,0-0.56,0
	c-3.21,0-6.45,0.51-9.57,1.23c-5.93,1.36-11.61,4.07-16.75,7.31c-5.44,3.45-10.38,7.79-14.02,13.13c-1.57,2.28-2.56,4.91-3.16,7.62
	c-0.36,1.62-0.54,3.29-0.65,4.95c-0.11,1.75,0.14,3.55,0.52,5.24c0.59,2.71,1.94,5.26,3.49,7.52c1.84,2.67,4.03,5.14,6.32,7.42
	c1.28,1.27,2.66,2.42,4.08,3.53c-0.36,0.6-0.57,1.29-0.51,2.03c0.14,1.6,0.26,3.19,0.32,4.79c0.02,0.35-0.01,0.68-0.01,1.03
	c-3.38,1.97-6.42,4.38-9.38,6.95c-3.36,2.9-6.51,5.98-9.35,9.43c-1.94,2.36-3.74,4.81-5.33,7.42c-1.69,2.79-3.04,5.77-4.21,8.8
	c-1.04,2.65-1.73,5.42-2.18,8.24c-0.51,3.16-0.84,6.39-0.68,9.58c0.27,5.16,2.63,9.9,5.45,14.14c-2.81-0.1-5.61-0.16-8.41-0.31
	c-8.78-0.53-17.58-1.13-26.37-1.19c-9.07-0.06-18.14-0.1-27.2,0.19c-2.23,0.08-4.09,1.81-4.09,4.09c0,2.18,1.87,4.17,4.09,4.09
	c9.11-0.29,18.22-0.25,27.33-0.19c8.97,0.06,17.94,0.7,26.89,1.21c4.53,0.27,9.06,0.43,13.6,0.51c2.15,3.14,4.33,6.29,6.94,9.08
	c1.95,2.08,3.96,4.03,6.16,5.86c1.13,0.95,2.34,1.85,3.56,2.69c1,0.68,2.05,1.31,3.03,2.03c-0.02-0.02-0.03-0.04-0.04-0.04
	c0.23,0.18,0.46,0.35,0.69,0.51c0.45,0.19,0.89,0.39,1.34,0.58c0.69,0.18,1.41,0.23,2.12,0.29c0.94,0.06,1.98-0.19,2.9-0.41
	c0.83-0.19,1.65-0.51,2.45-0.8c0.84-0.31,1.68-0.68,2.54-1.01c0.08,1.03,0.11,2.06,0.16,3.1c0.1,2.22,1.78,4.09,4.1,4.09
	c2.14,0,4.19-1.87,4.09-4.09c-0.14-2.84-0.12-5.9-1.39-8.51c-0.67-1.36-1.92-2.81-3.47-3.19c-1.37-0.33-2.66-0.29-4,0.16
	c-2.36,0.8-4.66,1.95-7.09,2.47c-1.46-1.07-2.99-2.03-4.46-3.06c-1.58-1.27-3.09-2.59-4.54-3.99c-1.52-1.48-2.92-3.1-4.32-4.71
	c-0.22-0.31-0.43-0.62-0.65-0.94c1,0.02,1.99,0.02,2.98,0.02c9.02,0.04,18.05,0.02,27.07-0.18c9.08-0.21,18.13-0.9,27.2-1.17
	c3.01-0.08,6.02-0.12,9.02-0.16c0.98,0.9,2.33,1.31,3.75,0.92c0.63-0.18,1.2-0.53,1.68-0.99c0.87,0,1.75,0,2.62,0
	c-1.23,1.15-2.45,2.3-3.75,3.37c-2.31,1.56-4.66,3.06-7.05,4.48c-1.92,1.17-3.89,2.34-5.72,3.66c-0.9-0.49-1.8-0.93-2.79-1.21
	c-3.68-0.99-6.83,1.46-8.89,4.25c-1.94,2.63-3.31,5.53-4.88,8.38c-1.09,1.95-0.49,4.46,1.46,5.59c0.14,0.1,0.3,0.14,0.45,0.21
	c-1.46,0-2.92,0-4.38,0c-4.28-0.02-8.55,0.19-12.84,0.29c-4.08,0.1-8.15,0.14-12.24,0.16c-0.11-0.16-0.24-0.31-0.38-0.45
	c-0.8-0.8-1.8-1.17-2.8-1.17c-1.06,0-2.13,0.41-2.99,1.17c-0.17,0.16-0.34,0.29-0.5,0.45c-0.85,0-1.7-0.02-2.55-0.06
	c-0.27-0.08-0.53-0.18-0.79-0.25c-2.12-0.7-4.46,0.78-5.04,2.84c-0.41,1.52,0.08,2.98,1.1,3.97c-1.91,1.73-3.82,3.49-5.73,5.2
	c-1.88,1.68-3.76,3.35-5.63,5.05c-1.08,0.95-2.14,1.93-3.2,2.9c-0.41,0.39-0.82,0.76-1.23,1.13c-0.3,0.29-0.59,0.56-0.9,0.82
	c-0.77,0.66-1.17,1.62-1.41,2.57c-0.26,1.07-0.15,2.18,0.41,3.16c0.59,0.99,1.41,1.46,2.45,1.87c1.95,0.76,4.06,0.82,6.13,0.86
	c1.43,0.04,2.86,0.08,4.29,0.1c2.07,0.06,4.14,0.04,6.21,0.04c4.26,0.04,8.57,0.02,12.83-0.23c9.02-0.53,18-1.48,27.02-1.93
	c3-0.14,6.02-0.14,9.03-0.25c3.03-0.1,6.05-0.29,9.09-0.35c1.48-0.04,2.98-0.04,4.46-0.04c0.76-0.02,1.5-0.02,2.26-0.04
	c1.15-0.04,2.35-0.23,3.36-0.82c1.18-0.68,2.25-1.99,2.59-3.31c0.89-3.53-1.2-6.84-2.9-9.78c-0.86-1.48-1.69-2.94-2.4-4.46
	c-0.39-1.03-0.73-2.06-1-3.12c-0.13-0.51-0.25-1.01-0.37-1.48c-0.46-1.83-1.93-3.14-3.64-3.74c-1.95-0.72-4.08-0.8-6.15-0.92
	c-1.15-0.06-2.29-0.08-3.44-0.12c-1.85-0.02-3.69-0.04-5.54-0.06c0.8-0.31,1.5-0.88,1.95-1.68c1.49-2.67,2.79-5.42,4.55-7.91
	c0.21-0.23,0.43-0.45,0.65-0.68c0.35,0.19,0.68,0.39,1.04,0.56c0.98,0.55,2.29,1.21,3.45,1.13c0.9-0.04,1.78-0.1,2.59-0.58
	c0.47-0.27,0.9-0.62,1.31-0.97c3.12-2.28,6.57-4.15,9.84-6.21c3.79-2.38,7.4-5.2,10.41-8.57c1.12-1.25,2.2-2.55,3.26-3.86
	c0.82,0,1.64,0,2.46,0c2.71,0,5.43,0.02,8.14-0.04c4.78-0.06,9.55-0.27,14.32-0.56c8.88-0.58,17.78-1.21,26.56-2.57
	c0.6-0.1,1.2-0.19,1.79-0.29c0.44-0.1,0.86-0.16,1.29-0.31c1.01-0.31,1.77-0.92,2.44-1.69c0.74-0.86,1.2-1.73,1.2-2.9
	c0-1.07-0.43-2.12-1.2-2.88C515.31,492.45,514.18,492.02,513.07,492.02 M394.83,522.9v0.02c-0.1-0.16-0.21-0.29-0.32-0.43
	C394.63,522.62,394.74,522.76,394.83,522.9z M387.67,518.81c0.05,0.04,0.11,0.08,0.16,0.12c-0.01,0-0.02-0.02-0.03-0.02
	c-0.01,0-0.01,0-0.02,0C387.75,518.86,387.7,518.84,387.67,518.81L387.67,518.81z M387.65,518.79L387.65,518.79c0,0-0.01,0-0.01,0
	C387.65,518.79,387.65,518.79,387.65,518.79z M429.01,541.62c0.78,0.06,1.54,0.1,2.31,0.18c0.62,2.2,1.36,4.34,2.45,6.39
	c0.84,1.6,1.82,3.16,2.69,4.77c-0.25,0-0.51,0-0.76,0c-0.6-0.02-1.19-0.02-1.77-0.02c-2.13,0.04-4.26,0.08-6.39,0.19
	c-1.99,0.08-3.98,0.21-5.96,0.27c-2.12,0.02-4.25,0.04-6.38,0.14c-9,0.43-17.99,1.38-26.99,1.91c-4.36,0.27-8.73,0.27-13.1,0.27
	c-2.07,0.02-4.15,0-6.21-0.04c-0.14,0-0.28,0-0.42,0c1.76-1.58,3.52-3.16,5.28-4.73c3.34-3.02,6.65-6.04,10-9.04
	c1.85-0.02,3.71-0.02,5.57-0.02c4.58-0.04,9.14-0.1,13.72-0.27c4.45-0.18,8.91-0.18,13.36-0.18c0.76,0,1.52,0,2.28,0
	C422.13,541.44,425.58,541.44,429.01,541.62z M427.49,522.7C427.49,522.7,427.5,522.7,427.49,522.7c0.13-0.02,0.25-0.04,0.38-0.04
	C427.74,522.68,427.61,522.68,427.49,522.7z M380.81,410.85c-1-1.38-1.89-2.77-2.6-4.31c-0.34-0.95-0.62-1.93-0.82-2.92
	c-0.1-1.27-0.04-2.51,0.1-3.78c0.25-1.46,0.58-2.88,1.09-4.27c0.66-1.36,1.46-2.63,2.36-3.84c1.99-2.42,4.26-4.54,6.72-6.47
	c3.73-2.79,7.72-5.08,11.97-6.93c3.12-1.21,6.33-2.1,9.63-2.65c3.08-0.35,6.13-0.31,9.21,0.02c1.34,0.23,2.64,0.55,3.92,1.01
	c0.74,0.37,1.43,0.78,2.11,1.27c0.61,0.53,1.19,1.11,1.74,1.71c0.09,0.43,0.25,0.84,0.5,1.23c0.65,1.01,1.23,2.08,2.05,3
	c0.65,0.74,1.42,1.34,2.32,1.79c1.3,0.64,2.58,1.19,3.78,2.01c0.56,0.49,1.08,1.03,1.56,1.62c0.75,1.05,1.4,2.16,1.96,3.33
	c0.27,0.76,0.48,1.52,0.64,2.3c0.12,1.58,0.04,3.18-0.04,4.77c-0.04,0.84-0.11,1.68-0.21,2.51c-0.26,1.44-0.62,2.82-1.12,4.21
	c-0.63,1.32-1.38,2.57-2.24,3.76c-1.79,2.14-3.9,3.92-6.06,5.65c-0.89,0.66-1.77,1.31-2.66,1.95c-2.13,1.54-4.35,2.84-6.73,3.93
	c-2.12,0.84-4.24,1.46-6.48,1.83c-2.72,0.27-5.46,0.14-8.2,0.08c-2.08-0.04-4.17-0.18-6.24-0.43c-1.94-0.31-3.82-0.82-5.66-1.5
	c-1.57-0.72-3.02-1.58-4.41-2.59C385.99,416.67,383.26,413.89,380.81,410.85z M376.16,471.74c-0.55,2.18-1.03,4.36-1.58,6.56
	c-1.07,4.25-2.18,8.49-3.26,12.74c-0.41,1.64-0.68,3.33-1.16,4.95c-0.03,0.02-0.06,0.04-0.09,0.08c-0.52,0.39-0.86,1.09-1.04,1.77
	c-0.41,0-0.81,0-1.22,0c-2.23-3.16-4.52-6.29-6.13-9.84c-0.53-1.38-0.93-2.79-1.19-4.23c-0.2-2.51,0.01-5.03,0.32-7.52
	c0.53-3.39,1.45-6.62,2.73-9.82c1.66-3.68,3.73-7.09,6.16-10.32c3.57-4.5,7.73-8.49,12.16-12.12c-0.53,2.71-1.11,5.4-1.61,8.1
	c-0.83,4.46-1.72,8.92-2.59,13.36C377.25,467.57,376.68,469.66,376.16,471.74z M429.44,496.62c-8.8,0.27-17.55,0.94-26.34,1.13
	c-8.34,0.19-16.67,0.19-25.01,0.18c0.07-0.27,0.14-0.55,0.2-0.82c0.26-1.13,0.53-2.26,0.81-3.37c0.52-2.14,1.04-4.29,1.61-6.43
	c1.08-4.11,2.05-8.22,3.07-12.35c0.56-2.2,1.2-4.42,1.63-6.66c0.47-2.38,0.93-4.77,1.38-7.15c0.83-4.38,1.68-8.75,2.55-13.11
	c0.34-1.75,0.68-3.49,1.03-5.22c0.51-2.59,0.88-5.2,1.14-7.81c0.17-1.77,0.09-3.55-0.04-5.32c1.26,0.45,2.54,0.84,3.82,1.15
	c3.24,0.74,6.72,0.95,10.04,1.03c2.86,0.04,5.73,0.19,8.57-0.14c2.5-0.27,4.88-0.82,7.25-1.68c0.03-0.02,0.06-0.02,0.1-0.04
	c-0.48,0.9-0.64,1.97-0.35,3c0.59,2.2,1.24,4.38,1.89,6.58c-0.67,0.74-1.1,1.71-1.1,2.75c0,1.89,1.31,3.43,3.04,3.92
	c1.15,4.17,2.16,8.4,3.16,12.6c0.96,4.05,1.59,8.16,2.26,12.25c0.73,4.42,1.39,8.82,2.69,13.11c0.93,3.06,1.8,6.12,2.69,9.19
	c0.3,1.03,0.62,2.05,0.95,3.08C434.11,496.54,431.78,496.56,429.44,496.62z M460.62,484.77c-0.28,1.64-0.71,3.18-1.31,4.71
	c-1.08,2.36-2.44,4.5-4.01,6.56c-0.06,0.08-0.13,0.18-0.19,0.25c-3.37,0-6.74,0.02-10.11,0.06c-1.16-3.23-2-6.56-2.96-9.86
	c-0.62-2.1-1.32-4.21-1.87-6.35c-0.55-2.18-1-4.38-1.38-6.62c-0.36-2.18-0.73-4.36-1.09-6.55c-0.34-2.06-0.62-4.17-1.06-6.23
	c-0.87-4.13-1.82-8.24-2.89-12.33c2.52,1.34,4.88,2.98,7.15,4.71c2.18,1.69,4.31,3.45,6.34,5.36c2.16,2.01,4.17,4.21,6.01,6.51
	c2.18,2.92,4.11,6.08,5.6,9.41c0.76,1.95,1.31,3.92,1.65,5.98C460.67,481.85,460.74,483.29,460.62,484.77z"/>
<path class="st0" d="M534.97,215.18c-0.49-1.8-1.89-2.96-3.56-3.62c-1.33-0.52-2.7-0.7-4.1-0.87c-1.59-0.2-3.21-0.27-4.82-0.34
	c-2.44-0.09-4.9-0.14-7.35-0.2c-4.73-0.11-9.46-0.19-14.19-0.24c-4.52-0.05-9.05-0.03-13.57-0.04c-0.91,0-1.82,0-2.73,0
	c-3.19,0-6.38,0.02-9.56,0.13c-2.23,0.09-4.46,0.11-6.68,0.25c-2.62,0.18-5.23,0.37-7.85,0.54c-4.27,0.3-8.54,0.72-12.8,1.14
	c-9.16,0.9-18.31,1.65-27.44,2.72c-4.01,0.46-8.05,0.96-12.07,1.32c-2.19,0.19-4.38,0.43-6.59,0.57c-2.28,0.13-4.57,0.24-6.85,0.42
	c-8.94,0.68-17.86,1.26-26.79,1.8c-4.65,0.28-9.29,0.49-13.94,0.69c-4.22,0.17-8.4,0.71-12.58,1.24c-2.74,0.34-5.49,0.63-8.22,1.01
	c-2.81,0.41-5.58,0.94-8.35,1.49c-2.43,0.49-4.86,1.12-7.21,1.93c-1.39,0.48-2.75,1-4.09,1.6c-0.94,0.42-1.83,0.94-2.75,1.39
	c-1.31,0.46-2.64,0.8-4.02,1.04c-0.56,0.09-1.13,0.17-1.69,0.25c-1.79-0.66-4.09-0.03-5.01,1.75c-0.12,0.21-0.23,0.44-0.32,0.66
	c-0.14,0.33-0.27,0.66-0.41,0.97c-0.08,0.47-0.13,0.94-0.18,1.4c-0.08,0.72,0.2,1.59,0.67,2.3c-0.02,0.13-0.03,0.27-0.03,0.41
	c-0.23,6.83-0.27,13.67-0.28,20.5c0,7.93,0.17,15.92-0.82,23.8c-0.59,3.95-1.56,7.82-2.48,11.71c-0.51,2.14-1.04,4.28-1.59,6.43
	c-1.11,4.29-2.39,8.52-3.67,12.77c-1.22,4.07-2.17,8.2-3.17,12.31c-0.11,0.49-0.22,0.94-0.35,1.4c-0.19,0.74-0.56,1.5-0.51,2.3
	c0.06,0.88,0.12,1.69,0.58,2.49c0.33,0.56,1.17,1.48,1.79,1.75c0.65,0.31,1.3,0.58,2,0.78c0.93,0.27,2.01,0.29,2.98,0.41
	c2.57,0.27,5.21,0.23,7.78,0.27c8.75,0.08,17.48,0.06,26.22,0.06c8.9,0,17.8,0.06,26.69,0c9.12-0.08,18.24-0.41,27.36-0.68
	c8.89-0.29,17.79-0.16,26.68-0.16c8.72,0,17.42-0.02,26.13-0.02c4.22,0,8.45,0,12.67,0c2.2,0,4.38-0.08,6.55-0.25
	c-0.48,1.15-0.92,2.32-1.38,3.49c-0.51,1.29-1.02,2.59-1.5,3.9c-0.86,2.38-1.59,4.95-0.42,7.36c0.86,1.75,2.33,3.04,4.08,3.86
	c1.15,0.55,2.37,0.92,3.59,1.31c1.3,0.41,2.64,0.7,3.97,0.97c0.68,0.16,1.38,0.29,2.07,0.41c-0.26,0.21-0.52,0.41-0.79,0.62
	c-0.94,0.78-1.89,1.54-2.86,2.3c-1.7,1.38-3.37,2.82-5.02,4.27c-1.64,1.44-3.29,2.88-4.92,4.34c-0.81,0.7-1.68,1.4-2.41,2.2
	c-0.53,0.6-0.96,1.29-1.17,2.06c-0.24,0.86-0.11,1.54,0.03,2.42c0.1,0.6,0.76,1.58,1.19,2.01c0.68,0.68,1.61,1.11,2.53,1.34
	c2.98,0.76,6.2,0.56,9.22,0.14c1.71-0.23,3.4-0.58,5.1-0.92c1.96-0.39,3.92-0.92,5.81-1.54c2.33-0.76,4.59-1.58,6.87-2.47
	c2.2-0.84,4.35-1.79,6.5-2.73c1.36-0.6,2.73-1.19,4.09-1.79c2.95-1.23,5.93-2.38,8.94-3.45c0.71-0.27,1.42-0.51,2.14-0.78
	c0.36-0.14,0.71-0.25,1.06-0.39c0.5-0.19,1-0.43,1.49-0.64c0.17-0.12,0.33-0.23,0.5-0.35c0.41-0.27,0.77-0.58,1.11-0.92
	c0.92-0.86,1.68-2.03,2.27-3.14c0.3-0.53,0.48-1.07,0.53-1.69c0.05-0.35,0.1-0.72,0.15-1.07c-0.07-0.53-0.14-1.05-0.22-1.58
	c-0.11-0.7-0.56-1.4-0.92-1.99c-0.4-0.62-0.94-1.21-1.45-1.71c-0.44-0.43-0.95-0.78-1.44-1.15c-0.56-0.47-1.14-0.95-1.74-1.36
	c-0.64-0.43-1.27-0.9-1.94-1.31c-1.52-0.94-3.06-1.77-4.66-2.55c-1.76-0.88-3.63-1.56-5.47-2.24c-0.7-0.25-1.4-0.51-2.1-0.76
	c0.13-0.43,0.29-0.86,0.45-1.31c1.07-2.3,2.36-4.48,3.42-6.78c0.03,0,0.05,0,0.08,0c2.57-0.27,5.15-0.27,7.72-0.33
	c2.05-0.04,4.09-0.04,6.15-0.04c1.22,0,2.43,0,3.64,0c3.12,0.02,6.24,0.02,9.37-0.1c1.3-0.04,2.58-0.12,3.87-0.31
	c0.68-0.12,1.73-0.86,2.21-1.34c0.64-0.64,0.97-1.38,1.31-2.2c0.65-1.64,0.75-3.47,0.89-5.2c0.17-2.24,0.18-4.52,0.24-6.76
	c0.05-1.97,0.12-3.93,0.21-5.9c0.11-2.4,0.3-4.75,0.51-7.14c0.5-5.54,1-11.09,1.55-16.62c0.25-2.54,0.62-5.05,0.94-7.58
	c0.36-2.81,0.71-5.63,1.05-8.44c0.67-4.52,1.38-9.06,1.65-13.63c0.26-4.5,0.42-8.98,0.89-13.46c0.27-1.83,0.54-3.66,0.84-5.49
	c0.37-2.2,0.75-4.41,0.82-6.63c0.14-4.12,0.06-8.26,0.06-12.38C535.18,216.81,535.18,215.92,534.97,215.18 M498.42,354.02
	c-0.13,0.08-0.26,0.12-0.4,0.18C498.16,354.14,498.29,354.08,498.42,354.02z M527,220.41c0,1.44-0.01,2.88-0.01,4.31
	c0,2.64,0.02,5.27-0.28,7.9c-0.35,2.37-0.77,4.73-1.11,7.09c-0.4,2.75-0.68,5.51-0.83,8.28c-0.16,2.78-0.26,5.56-0.42,8.33
	c-0.15,2.44-0.49,4.89-0.82,7.3c-0.68,4.66-1.24,9.33-1.84,13.99c-0.53,4.19-1.07,8.37-1.43,12.56c-0.39,4.5-0.82,9-1.23,13.47
	c-0.38,4.27-0.48,8.53-0.6,12.8c-0.05,2.01-0.11,4.05-0.29,6.06c-1.84,0.08-3.67,0.06-5.51,0.06c-2.55,0-5.1,0-7.65,0.02
	c-2.89,0.02-5.76,0.04-8.65,0.1c-1.36,0.02-2.73,0.08-4.08,0.18c-1.13,0.08-2.25,0.23-3.36,0.41c-0.87,0.14-1.69,0.51-2.46,0.9
	c-0.81,0.39-1.58,1.32-1.97,2.06c-0.2,0.41-0.36,0.82-0.52,1.23c-0.58,1.25-1.29,2.45-1.92,3.68c-0.44,0.84-0.87,1.69-1.28,2.55
	c-1.07,2.3-2.15,4.97-1.99,7.56c0.02,0.55,0.11,1.07,0.29,1.6c0.26,0.9,0.82,1.52,1.4,2.22c0.64,0.76,1.8,1.11,2.71,1.38
	c0.78,0.23,1.56,0.51,2.33,0.78c1.44,0.53,2.88,1.05,4.3,1.62c2.63,1.21,5.08,2.61,7.48,4.25c0.39,0.31,0.79,0.6,1.16,0.92
	c-2.96,1.15-5.99,2.18-8.97,3.35c-3.36,1.31-6.65,2.79-9.96,4.25c-3.12,1.31-6.24,2.53-9.45,3.58c-2.76,0.92-5.58,1.62-8.43,2.16
	c0.21-0.19,0.41-0.37,0.63-0.55c2.67-2.36,5.46-4.58,8.22-6.8c1.07-0.88,2.11-1.75,3.07-2.73c0.36-0.43,0.71-0.86,1.03-1.31
	c0.43-0.6,1-1.44,1.14-2.18c0.26-1.38,0.37-2.81-0.39-4.07c-0.3-0.47-0.64-0.86-1.02-1.23c-0.63-0.66-1.42-0.92-2.24-1.21
	c-0.35-0.14-0.73-0.21-1.08-0.29c-0.75-0.18-1.49-0.33-2.23-0.49c-1.62-0.35-3.25-0.64-4.86-0.99c-1.68-0.35-3.32-0.84-4.93-1.42
	c-0.03-0.02-0.05-0.04-0.08-0.06c0.38-1.34,0.92-2.65,1.42-3.93c0.61-1.52,1.21-3.04,1.81-4.56c0.58-1.29,1.19-2.57,1.74-3.86
	c0.36-0.86,0.94-2.08,0.84-3.06c-0.06-0.47-0.12-0.94-0.2-1.4c-0.26-0.99-0.96-1.99-1.88-2.45c-0.43-0.23-0.88-0.43-1.35-0.58
	c-0.59-0.18-1.18-0.21-1.76-0.12c-0.4,0.04-0.79,0.1-1.19,0.16c-4.29,0.51-8.55,0.6-12.86,0.6c-4.46,0-8.93,0-13.39,0
	c-8.76,0-17.53,0-26.29,0.02c-8.91,0-17.81-0.02-26.71,0.25c-8.74,0.27-17.47,0.58-26.2,0.58c-9,0-18,0-27.01,0
	c-8.89,0-17.82,0.12-26.71-0.14c-1.04-0.02-2.08-0.04-3.11-0.1c0.15-0.64,0.29-1.29,0.45-1.91c0.5-2.03,1-4.07,1.57-6.1
	c1.21-4.32,2.66-8.61,3.78-12.95c1.13-4.4,2.23-8.8,3.28-13.22c1.23-5.17,2.17-10.49,2.38-15.81c0.08-2.26,0.22-4.52,0.24-6.78
	c0.08-10.5-0.04-20.99,0.32-31.5c0.14-0.02,0.28-0.04,0.41-0.06c1.01-0.17,2.04-0.32,3.02-0.61c1.37-0.41,2.67-0.94,3.99-1.54
	c0.79-0.37,1.55-0.82,2.34-1.21c5.75-2.17,11.81-3.33,17.88-4.22c2.19-0.25,4.38-0.51,6.57-0.78c1.99-0.26,4.01-0.57,6.01-0.73
	c2.15-0.16,4.29-0.35,6.45-0.43c2.35-0.1,4.7-0.2,7.05-0.32c8.88-0.43,17.76-1.08,26.64-1.65c4.55-0.3,9.1-0.67,13.65-0.94
	c4.37-0.28,8.74-0.8,13.08-1.29c4.04-0.46,8.08-0.97,12.13-1.37c5.04-0.51,10.08-0.98,15.13-1.41c3.95-0.34,7.9-0.79,11.85-1.12
	c4.8-0.41,9.61-0.76,14.42-1.09c2.35-0.16,4.72-0.17,7.08-0.26c2.09-0.07,4.19-0.07,6.27-0.09c4.15-0.02,8.29-0.02,12.44-0.01
	c4.78,0.02,9.57,0.01,14.35,0.13c2.38,0.06,4.75,0.11,7.13,0.17c3.68,0.1,7.4,0.09,11.06,0.49c0.01,0,0.01,0,0.01,0
	C527.01,219.37,527,219.89,527,220.41z M460.07,332.19c0.17-0.04,0.34-0.06,0.51-0.08C460.42,332.13,460.26,332.15,460.07,332.19
	C460.08,332.19,460.08,332.19,460.07,332.19z"/>
</svg>
