<?xml version="1.0" encoding="utf-8"?>
<!-- Generator: Adobe Illustrator 24.1.2, SVG Export Plug-In . SVG Version: 6.00 Build 0)  -->
<svg version="1.1" id="Lag_1" xmlns="http://www.w3.org/2000/svg" xmlns:xlink="http://www.w3.org/1999/xlink" x="0px" y="0px"
	 viewBox="0 0 800 800" style="enable-background:new 0 0 800 800;" xml:space="preserve">
<style type="text/css">
	.st0{fill:#FFFFFF;}
</style>
<path class="st0" d="M545.74,499.09c-0.57-0.83-1.13-1.66-1.64-2.55c-0.73-1.27-1.39-2.58-2.02-3.88c-1.32-2.73-2.47-5.55-3.74-8.31
	c-0.63-1.36-1.26-2.71-1.9-4.06c-0.67-1.42-1.23-2.89-1.92-4.3c-0.75-1.54-1.49-3.09-2.28-4.62c-0.71-1.36-1.31-2.76-2.01-4.12
	c-1.56-3.01-3.15-5.99-4.51-9.09c-1.26-2.88-2.61-5.71-4.1-8.48c-1.59-2.96-3.25-5.88-4.98-8.77c-1.66-2.81-3.1-5.76-4.39-8.76
	c-0.09-0.2-0.17-0.41-0.26-0.61c-0.29-0.71-0.58-1.43-0.88-2.14c-0.8-1.96-1.66-4.38-3.6-5.51c-1.04-0.61-2.53-0.7-3.58-0.06
	c-0.67,0.4-1.2,0.89-1.72,1.46c-0.53,0.61-1.08,1.21-1.63,1.82c-1.1,1.2-2.2,2.39-3.27,3.62c-0.72,0.83-1.48,1.67-2.28,2.46
	c-0.24-0.52-0.51-1.03-0.77-1.53c-0.67-1.29-1.48-2.51-2.28-3.72c-1.8-2.73-3.76-5.33-5.52-8.09c-1.7-2.66-3.35-5.39-4.79-8.19
	c-0.76-1.49-1.52-2.99-2.29-4.47c-0.69-1.34-1.3-2.72-2.09-4.01c-1.67-2.75-3.44-5.43-5.21-8.13c-1.68-2.57-3.1-5.34-4.5-8.09
	c-0.79-1.54-1.56-3.08-2.45-4.56c-0.54-0.91-1.21-1.8-2.02-2.49c-1.04-0.89-2.22-1.35-3.6-1.09c-0.72,0.14-1.29,0.37-1.84,0.88
	c-0.23,0.21-0.42,0.42-0.62,0.66c-0.26,0.32-0.53,0.64-0.79,0.95c-1,1.19-1.98,2.38-2.97,3.57c-0.95,1.16-1.89,2.36-2.95,3.43
	c-0.26-0.4-0.52-0.79-0.79-1.18c-0.96-1.38-1.99-2.71-3.09-4c-1-1.17-2.05-2.31-3.09-3.46c-0.84-0.94-1.63-1.94-2.42-2.93
	c-1.84-2.65-3.52-5.39-5.11-8.2c-1.64-2.94-3.5-5.74-5.4-8.51c-1.8-2.62-3.56-5.3-5.24-8c-1.71-2.75-3.29-5.58-4.93-8.37
	c-1.39-2.34-2.81-4.65-4.36-6.9c-1.39-2.02-2.86-4.02-4.28-6.04c-1.27-1.79-2.51-3.59-3.95-5.25c-0.02-0.03-0.06-0.05-0.08-0.08
	c0.52-0.19,1.04-0.39,1.53-0.64c1.22-0.6,2.31-1.47,3.42-2.23c0.68-0.46,1.19-1.02,1.41-1.84c0.22-0.79,0.1-1.65-0.31-2.36
	c-0.8-1.35-2.81-2.04-4.19-1.09c-1.13,0.77-2.22,1.58-3.43,2.22c0-0.04,0-0.08,0.01-0.13c0.12-1.77,0.3-3.52,0.47-5.29
	c0.15-1.64,0.36-3.28,0.55-4.91c0.17-1.6,0.3-3.21,0.44-4.83c0.29-3.17,0.48-6.35,0.68-9.54c0.21-3.44,0.36-6.88,0.44-10.34
	c0.14-6.59,0.07-13.19,0.07-19.78c0-1.39,0-2.76,0-4.15c0.63-0.09,1.22-0.36,1.66-0.86c0.8-0.9,1.58-1.83,2.5-2.62
	c0.36-0.25,0.73-0.47,1.12-0.67c1.16-0.41,2.34-0.65,3.55-0.84c2.29-0.27,4.64-0.38,6.94-0.13c5.28,0.87,10.24,2.96,15.4,4.31
	c2.76,0.72,5.63,0.92,8.46,1.04c0.61,0.02,1.22,0.04,1.84,0.02c0.94-0.02,1.86-0.14,2.8-0.27c0.57-0.08,1.12-0.25,1.66-0.42
	c0.39-0.12,0.79-0.22,1.19-0.32c0.57,0.65,1.41,1.08,2.31,1.08c1.7,0,3.03-1.39,3.06-3.06c0.06-2.59,0.27-5.19,0.28-7.79
	c0.01-2.44,0.01-4.88,0.02-7.31c0.01-2.44,0.04-4.87,0.11-7.3c0.06-2.31,0.25-4.61,0.46-6.92c0.24-1.58,0.47-3.16,0.73-4.74
	c0.14-0.85,0.14-1.59-0.31-2.36c-0.4-0.68-1.07-1.2-1.83-1.4c-0.26-0.07-0.54-0.11-0.81-0.11c-0.54,0-1.08,0.14-1.55,0.42
	c-0.47,0.26-0.94,0.73-1.22,1.26c-0.57-0.04-1.13,0.09-1.62,0.43c-0.91,0.64-1.78,1.32-2.78,1.82c-0.3,0.14-0.6,0.28-0.9,0.43
	c-1.24,0.47-2.5,0.83-3.82,1.06c-2.24,0.22-4.49,0.04-6.72-0.22c-2.87-0.53-5.68-1.34-8.42-2.32c-1.46-0.52-2.9-1.09-4.33-1.69
	c-1.17-0.49-2.34-0.98-3.57-1.32c-1.44-0.4-2.97-0.57-4.49-0.57c-0.42,0-0.84,0.01-1.26,0.04c-2.5,0.13-4.97,0.41-7.4,1
	c-2.2,0.54-4.34,1.49-6.29,2.65c-0.05,0.03-0.09,0.06-0.14,0.09c0-0.04,0-0.08,0.01-0.12c0.28-1.7,0.65-3.38,1-5.05
	c0.34-1.64-0.45-3.31-2.14-3.77c-0.25-0.07-0.51-0.1-0.77-0.1c-1.34,0-2.71,0.87-3,2.24c-0.33,1.62-0.67,3.24-0.97,4.87
	c-0.14,0.78-0.24,1.59-0.31,2.38c-0.02,0.25-0.02,0.51,0,0.76c0.01,0.51,0.06,1.19,0.2,1.68c0.05,0.17,0.12,0.28,0.18,0.43
	c-0.57,0.34-1.12,0.69-1.68,1.04c-1.2,0.71-2.42,1.37-3.62,2.07c-1.41,0.81-2.78,1.67-4.15,2.51c-1.28,0.78-2.63,1.46-3.97,2.13
	c-5.97,2.96-12.19,5.53-17.76,9.22c-0.68,0.45-1.36,0.91-2.03,1.37c-0.02-0.09-0.03-0.18-0.05-0.27c-0.03-0.17-0.08-0.33-0.13-0.49
	c0.47-0.31,0.94-0.63,1.4-0.98c1.16-0.89,2.14-1.88,3.07-3c0.89-1.06,1.78-2.2,2.34-3.48c0.42-0.95,0.86-1.9,1.19-2.9
	c0.58-1.72,0.89-3.44,1.12-5.23c0.08-0.67,0.14-1.36,0.15-2.03c0.01-0.63,0.01-1.24-0.03-1.88c-0.1-1.38-0.43-2.66-0.93-3.94
	c-1.21-3.08-3.06-5.84-5.43-8.15c-0.24-0.23-0.47-0.45-0.7-0.68c0-0.02,0.01-0.04,0.01-0.05c0.44-1.62-0.53-3.32-2.14-3.76
	c-1.08-0.31-2.16-0.6-3.24-0.89c-0.84-0.22-1.71-0.37-2.58-0.53c-1.71-0.33-3.46-0.41-5.19-0.51c-0.33-0.01-0.66-0.02-0.99-0.02
	c-2,0-4.05,0.32-5.95,0.82c-2.37,0.63-4.59,1.92-6.48,3.45c-1.62,1.32-2.99,2.83-4.15,4.58c-1.23,1.87-2.05,4.08-2.63,6.23
	c-0.35,1.3-0.55,2.71-0.68,4.05c-0.08,0.82-0.14,1.64-0.19,2.47c-0.1,1.71-0.02,3.37,0.32,5.05c0.43,2.09,1.53,3.9,2.87,5.53
	c1.56,1.89,3.8,3.23,5.89,4.47c0.46,0.27,0.93,0.5,1.4,0.75c-0.73,2.49-1.47,4.97-2.05,7.5c-2.54-0.77-5.1-1.47-7.64-2.24
	c-3.18-0.96-6.35-1.94-9.51-2.96c-2.99-0.99-6.05-1.79-9.11-2.54c-1.58-0.4-3.16-0.8-4.74-1.16c-1.5-0.32-2.99-0.65-4.48-1.02
	c-2.13-0.53-4.32-0.89-6.51-1.13c-0.04-0.1-0.09-0.19-0.13-0.29c-0.31-0.83-0.59-1.67-0.84-2.53c-0.14-0.44-0.26-0.88-0.39-1.32
	c-0.28-1.01-0.7-1.91-1.23-2.81c-0.56-0.97-1.6-1.51-2.66-1.51c-0.52,0-1.05,0.14-1.52,0.41c-1.44,0.85-1.95,2.74-1.1,4.19
	c0.16,0.28,0.32,0.55,0.47,0.83c0.41,1.4,0.77,2.81,1.3,4.17c0.19,0.51,0.41,1.01,0.63,1.52c0.34,0.8,0.77,1.46,1.36,2.11
	c1.08,1.19,2.75,1.2,4.24,1.37c1.21,0.17,2.41,0.37,3.59,0.64c1.55,0.35,3.08,0.72,4.63,1.06c3.12,0.67,6.22,1.47,9.31,2.29
	c3.09,0.82,6.12,1.83,9.16,2.79c3.24,1.01,6.48,2,9.74,2.91c1.44,0.41,2.86,0.82,4.28,1.25c-0.25,1.45-0.49,2.91-0.74,4.36
	c-0.59,3.39-1.41,6.73-2.28,10.06c-0.41,1.55-0.74,3.12-1.08,4.69c-0.3,1.39-0.68,2.77-0.99,4.16c-0.39,1.73-0.74,3.47-1.12,5.2
	c-0.42,1.93-0.71,3.87-0.96,5.83c-0.2,1.43-0.4,2.85-0.64,4.28c-0.25,1.49-0.59,2.97-0.92,4.44c-0.16,0.67-0.29,1.35-0.44,2.03
	c-0.08,0.35-0.15,0.7-0.23,1.04c-0.06,0.29-0.13,0.57-0.19,0.87c-0.13,0.61-0.27,1.68-0.01,2.29c0.21,0.51,0.39,1.01,0.72,1.45
	c0.38,0.51,0.82,1.02,1.4,1.33c0.96,0.54,1.96,0.86,3.03,1.07c1.51,0.28,3.03,0.36,4.56,0.46c3.08,0.19,6.21,0.1,9.3-0.04
	c0.76-0.04,1.52-0.04,2.28-0.07c0.11,1.48,0.29,2.96,0.61,4.42c0.25,1.2,0.51,2.38,0.82,3.56c0.6,2.26,1.29,4.51,2.04,6.72
	c0.73,2.12,1.48,4.22,2.04,6.38c0.25,1.01,0.42,2.03,0.61,3.05c0.16,0.9,0.48,1.74,0.66,2.63c0.24,2.29,0.17,4.62,0.18,6.92
	c0.02,2.55,0.02,5.1,0.02,7.65c0.01,2.55,0.06,5.12-0.02,7.67c-0.04,1.26-0.12,2.5-0.16,3.75c-0.05,1.05-0.1,2.1-0.22,3.15
	c-0.14,0.85-0.33,1.7-0.51,2.54c-0.11,0.53-0.25,1.05-0.39,1.56c-0.22,0.84-0.22,1.6,0,2.43c0.26,0.98,1.03,1.9,1.88,2.42
	c1.12,0.67,2.4,0.97,3.7,1.14c-0.66,0.94-1.32,1.87-1.98,2.8c-3.31,4.62-5.98,9.65-9.4,14.19c-0.99,1.26-2.03,2.48-3.27,3.52
	c-0.06,0.04-0.12,0.08-0.18,0.12c-2.99-1.51-5.77-3.45-8.85-4.8c-2.02-0.89-4.39-1.82-6.64-1.31c-1.07,0.24-1.95,0.72-2.74,1.46
	c-0.49,0.45-0.84,1.09-1.22,1.64c-0.9,1.31-1.72,2.7-2.55,4.07c-1.68,2.74-3.27,5.55-4.93,8.3c-1.71,2.82-3.61,5.51-5.29,8.34
	c-1.36,2.31-2.61,4.66-3.83,7.03c-1.26,2.44-2.44,4.93-3.74,7.35c-2.5,4.68-5.32,9.21-8.54,13.43c-0.24,0.3-0.49,0.59-0.76,0.86
	c-0.37-0.27-0.73-0.56-1.1-0.82c-0.64-0.47-1.28-0.92-1.92-1.38c-1.27-0.89-2.55-1.82-3.92-2.55c-2.93-1.57-7.42-4.24-10.12-0.91
	c-1.03,1.27-1.89,2.71-2.72,4.11c-0.82,1.4-1.62,2.81-2.44,4.2c-0.81,1.4-1.67,2.76-2.51,4.15c-1.82,2.98-3.54,6.02-5.27,9.05
	c-1.59,2.79-3.26,5.52-4.82,8.32c-1.64,2.96-3.33,5.91-4.97,8.87c-1.6,2.89-3.25,5.78-4.73,8.73c-0.78,1.56-1.57,3.13-2.35,4.7
	c-0.72,1.45-1.36,2.97-2.17,4.37c-1.32,2.3-2.59,4.63-4.17,6.77c-1.64,2.03-3.51,3.82-5.4,5.61c-1.22,1.15-1.16,3.18,0,4.33
	c1.2,1.2,3.12,1.15,4.33,0c1.54-1.46,3.07-2.91,4.47-4.5c1.52-1.72,2.88-3.61,4.03-5.6c0.77-1.33,1.6-2.65,2.29-4.04
	c1.49-3,2.9-6.06,4.49-9.02c3.25-6.05,6.62-12.03,9.96-18.02c1.37-2.47,2.85-4.9,4.28-7.35c1.34-2.3,2.6-4.64,3.97-6.91
	c1.48-2.44,2.99-4.84,4.41-7.32c1.1-1.92,2.2-3.86,3.42-5.71c0.1,0.03,0.2,0.07,0.3,0.11c3.11,1.4,5.92,3.4,8.66,5.41
	c0.8,0.59,1.55,1.22,2.49,1.58c2.5,0.96,4.89-0.67,6.44-2.52c1.31-1.55,2.46-3.26,3.61-4.93c1.95-2.82,3.7-5.74,5.39-8.72
	c1.58-2.79,2.97-5.7,4.4-8.57c1.24-2.48,2.57-4.9,3.97-7.28c0.76-1.28,1.55-2.51,2.35-3.76c0.71-1.1,1.48-2.17,2.15-3.29
	c1.46-2.39,2.86-4.82,4.3-7.23c1.28-2.14,2.55-4.31,3.96-6.37c0.03,0,0.07,0,0.1,0c0.77,0.18,1.53,0.44,2.28,0.72
	c3.26,1.48,6.18,3.59,9.43,5.1c1.04,0.49,2.26,0.73,3.4,0.39c1.11-0.33,2.02-0.86,2.93-1.55c1.81-1.41,3.21-3.23,4.61-5.05
	c0.98-1.28,1.9-2.62,2.78-3.98c1.94-3,3.8-6.05,5.79-9.01c1.72-2.55,3.57-5,5.27-7.56c0.47-0.24,0.93-0.49,1.39-0.71
	c1.28-0.62,1.74-2.23,1.37-3.53c0.92-1.44,1.82-2.9,2.68-4.37c1.52-2.62,3.03-5.26,4.84-7.71c1.94-2.61,3.94-5.18,5.89-7.79
	c1.8-2.4,3.52-4.85,5.33-7.25c1.91-2.32,4-4.48,6.04-6.68c1.49-1.6,2.6-3.41,3.71-5.28c0.31-0.53,0.6-1.07,0.88-1.63
	c0.01,0.02,0.03,0.04,0.05,0.05c1.09,1.45,2.11,2.95,3.16,4.43c0.88,1.27,1.82,2.51,2.7,3.79c1.87,2.72,3.65,5.48,5.3,8.34
	c1.74,3.01,3.49,6.01,5.33,8.97c1.75,2.84,3.67,5.6,5.56,8.36c1.31,1.91,2.6,3.87,3.73,5.89c1.31,2.33,2.66,4.63,4.08,6.88
	c1.39,2.2,3.01,4.24,4.7,6.2c1.49,1.75,3.06,3.41,4.51,5.19c0.86,1.17,1.68,2.34,2.45,3.56c0.18,0.27,0.35,0.54,0.53,0.81
	c0.23,0.33,0.51,0.77,0.78,1.04c0.61,0.62,1.67,1.22,2.56,1.15c0.56-0.04,1.07-0.08,1.6-0.27c0.8-0.29,1.36-0.69,2.02-1.2
	c0.86-0.67,1.61-1.44,2.33-2.25c1.07-1.19,2.05-2.46,3.07-3.7c0.5-0.61,1-1.23,1.52-1.82c0.02-0.02,0.04-0.05,0.06-0.08
	c0.71,1.2,1.33,2.46,1.97,3.7c0.77,1.52,1.57,3.01,2.36,4.5c1.48,2.81,3.34,5.37,5.03,8.03c0.86,1.36,1.71,2.72,2.55,4.09
	c0.76,1.24,1.35,2.6,2.01,3.89c0.8,1.56,1.6,3.12,2.4,4.68c0.75,1.48,1.6,2.9,2.45,4.31c1.62,2.73,3.3,5.41,5.16,7.98
	c1.76,2.45,3.54,4.96,4.94,7.64c0.28,0.55,0.57,1.09,0.82,1.65c0.41,0.91,0.72,2.07,1.47,2.77c0.32,0.3,0.66,0.57,1.04,0.78
	c0.61,0.33,1.19,0.41,1.86,0.43c1,0.04,2.01-0.48,2.79-1.06c1-0.75,1.91-1.6,2.76-2.5c1.1-1.16,2.15-2.35,3.21-3.54
	c0.71-0.81,1.46-1.59,2.19-2.38c0.01,0.01,0.01,0.03,0.02,0.04c1.31,3.17,2.64,6.32,4.2,9.37c1.48,2.89,3.19,5.65,4.82,8.47
	c1.61,2.79,3.13,5.68,4.49,8.61c1.38,2.98,2.65,5.99,4.18,8.89c0.77,1.45,1.52,2.91,2.24,4.38c0.74,1.49,1.44,3,2.2,4.47
	c1.45,2.77,2.62,5.68,3.97,8.5c1.32,2.74,2.55,5.52,3.8,8.3c1.22,2.74,2.46,5.47,3.97,8.07c0.37,0.61,0.75,1.21,1.17,1.79
	c0.29,0.4,0.57,0.81,0.86,1.22c0.37,0.53,0.78,1.06,1.35,1.39c0.63,0.37,1.43,0.47,2.14,0.44c1.67-0.06,3.06-1.34,3.06-3.07
	C547.72,500.73,546.88,499.54,545.74,499.09 M406.69,230.12c0.35-0.36,0.6-0.8,0.75-1.26c1.05-0.75,2.15-1.39,3.32-1.95
	c1.72-0.67,3.48-1.11,5.3-1.4c1.97-0.21,3.92-0.38,5.9-0.21c3.13,0.55,5.98,2.13,8.96,3.18c2.36,0.84,4.75,1.55,7.19,2.15
	c1.38,0.33,2.81,0.45,4.21,0.61c1.24,0.15,2.51,0.16,3.76,0.19c1.69,0.05,3.42-0.23,5.06-0.64c0.64-0.16,1.28-0.34,1.9-0.58
	c0.76-0.29,1.49-0.61,2.23-0.95c0.22-0.1,0.41-0.24,0.62-0.35c-0.11,0.94-0.19,1.88-0.24,2.83c-0.15,2.82-0.23,5.65-0.25,8.48
	c-0.02,2.77-0.02,5.54-0.03,8.32c0,1.67-0.06,3.34-0.13,5c-0.38,0.08-0.76,0.15-1.13,0.25c-0.45,0.11-0.88,0.29-1.32,0.42
	c-0.48,0.15-0.96,0.26-1.44,0.34c-2.34,0.18-4.7,0-7.04-0.24c-1.03-0.16-2.04-0.35-3.05-0.61c-1.06-0.28-2.1-0.6-3.14-0.93
	c-2.41-0.78-4.83-1.55-7.26-2.23c-1.14-0.31-2.3-0.59-3.46-0.84c-1.9-0.41-3.79-0.58-5.72-0.58c-0.32,0-0.64,0-0.97,0.01
	c-2.07,0.06-4.14,0.32-6.19,0.69c-1.61,0.29-3.21,0.92-4.58,1.8c-0.42,0.27-0.82,0.58-1.19,0.9c0-2.32-0.01-4.65-0.11-6.97
	c-0.11-2.85-0.43-5.7-0.84-8.53c-0.33-2.28-0.79-4.54-1.18-6.82C406.62,230.17,406.65,230.15,406.69,230.12z M349.29,396.86
	c-0.05-0.01-0.1-0.01-0.14-0.03C349.2,396.85,349.25,396.85,349.29,396.86C349.3,396.86,349.29,396.86,349.29,396.86z
	 M349.56,396.77c0.08-0.04,0.17-0.07,0.25-0.11C349.73,396.71,349.65,396.74,349.56,396.77
	C349.57,396.77,349.57,396.77,349.56,396.77z M349.73,396.86c0,0-0.01-0.01-0.02-0.01c0.05-0.01,0.1-0.01,0.15-0.02
	C349.82,396.84,349.78,396.85,349.73,396.86z M343.18,235.11c-0.57-0.48-1.1-1-1.59-1.57c-0.33-0.48-0.63-0.98-0.88-1.5
	c-0.2-0.57-0.34-1.15-0.46-1.74c-0.15-1.75,0.01-3.5,0.17-5.25c0.04-0.31,0.09-0.62,0.12-0.93c0.21-1.45,0.65-2.86,1.19-4.22
	c0.49-1.06,1.05-2.05,1.73-3c0.74-0.86,1.56-1.64,2.43-2.37c0.87-0.63,1.78-1.17,2.75-1.62c1.06-0.4,2.13-0.68,3.25-0.87
	c2.33-0.24,4.61-0.1,6.92,0.16c0.7,0.13,1.41,0.23,2.1,0.41c0.22,0.06,0.43,0.12,0.64,0.17c0.12,0.54,0.39,1.04,0.8,1.45
	c1.35,1.33,2.76,2.61,3.98,4.06c0.91,1.27,1.66,2.61,2.33,4.03c0.23,0.62,0.42,1.25,0.56,1.91c0.11,1.41,0.02,2.81-0.14,4.22
	c-0.27,1.45-0.66,2.81-1.17,4.18c-0.4,0.88-0.83,1.71-1.39,2.5c-0.77,0.97-1.58,1.88-2.52,2.71c-0.85,0.63-1.71,1.18-2.67,1.64
	c-0.6,0.22-1.21,0.39-1.84,0.51c-2,0.19-4,0.05-6-0.14c-1.29-0.2-2.52-0.46-3.75-0.93C347.45,237.86,345.25,236.59,343.18,235.11z
	 M357.89,303.85c-0.53-0.41-1.17-0.67-1.87-0.67c-0.76,0-1.44,0.3-1.98,0.76c-0.16,0.01-0.32,0.01-0.47,0.01
	c-4.86,0.2-9.79,0.52-14.64-0.03c-0.3-0.05-0.6-0.1-0.9-0.17c0.42-1.9,0.85-3.79,1.24-5.71c0.5-2.55,0.84-5.13,1.16-7.71
	c0.23-1.43,0.51-2.85,0.81-4.27c0.33-1.59,0.65-3.17,1.03-4.74c0.75-3.14,1.4-6.29,2.22-9.41c0.82-3.15,1.56-6.34,2.12-9.55
	c0.58-3.35,1.12-6.69,1.81-10c0.29-1.36,0.67-2.71,1.08-4.05c0.28-0.94,0.54-1.88,0.81-2.82c0.68,0.14,1.38,0.25,2.07,0.35
	c1.01,0.15,2.01,0.24,3.02,0.3c0.77,0.05,1.52,0.05,2.29,0.07c0.89,0.02,1.8-0.07,2.7-0.2c0.09,0.42,0.16,0.84,0.24,1.27
	c0.12,0.67,0.25,1.34,0.38,2c0.3,1.47,0.62,2.93,0.93,4.4c0.64,3,1.16,6.04,1.73,9.06c0.56,2.93,0.95,5.88,1.51,8.81
	c0.6,3.09,1.2,6.16,1.69,9.26c0.38,3.06,0.75,6.12,1.2,9.17c0.45,2.97,0.93,5.94,1.36,8.92c0.11,1.14,0.19,2.26,0.11,3.4
	c-0.05,0.21-0.1,0.41-0.16,0.61c-0.4,0.23-0.82,0.43-1.24,0.61c-0.2,0.07-0.4,0.14-0.6,0.2c-0.91,0.05-1.84,0.02-2.75,0.02
	c-1.31,0.01-2.62,0.02-3.94,0.03C359.87,303.78,358.88,303.82,357.89,303.85z M396.04,332.46c-1.01,1.23-2.16,2.38-3.27,3.53
	c-1.11,1.16-2.19,2.36-3.2,3.6c-2.16,2.66-4.07,5.5-6.12,8.24c-2.07,2.76-4.2,5.49-6.25,8.26c-1.92,2.58-3.52,5.37-5.14,8.14
	c-1.22,2.08-2.5,4.12-3.82,6.13c-0.4-0.03-0.8-0.07-1.2-0.1c-0.59-0.04-1.17-0.1-1.75-0.17c-0.08-0.01-0.16-0.03-0.24-0.04
	c0.19-0.8,0.37-1.6,0.51-2.41c0.26-1.59,0.37-3.18,0.43-4.79c0.04-1.46,0.17-2.93,0.18-4.4c0.01-1.59,0.01-3.19,0-4.78
	c0-3.2,0-6.38-0.01-9.58c-0.01-1.52-0.01-3.03-0.05-4.56c-0.04-1.61-0.07-3.29-0.47-4.86c-0.21-0.79-0.45-1.56-0.6-2.37
	c-0.17-0.92-0.33-1.83-0.55-2.74c-0.48-1.89-1.12-3.72-1.76-5.55c-1.43-4.2-2.74-8.44-3.44-12.83c-0.05-0.42-0.06-0.84-0.09-1.26
	c0.51-0.01,1.02-0.04,1.53-0.05c2.03-0.02,4.07-0.02,6.1-0.03c0.89,0,1.77-0.08,2.63-0.32c0.76-0.22,1.49-0.6,2.2-0.93
	c0.75-0.36,1.39-0.77,2.03-1.3c0.27-0.31,0.52-0.62,0.76-0.95c0.16-0.23,0.3-0.47,0.41-0.73c0.44-0.91,0.64-1.78,0.76-2.77
	c0.01-0.07,0-0.14,0.01-0.21c0.25-0.13,0.49-0.28,0.71-0.48c1.61-1.47,3.22-2.91,4.91-4.28c0.72-0.51,1.44-1.02,2.18-1.5
	c0.18-0.12,0.37-0.24,0.56-0.36c0.48,0.92,0.88,1.9,1.3,2.83c2.26,5.78,3.94,11.78,5.38,17.82c0.37,1.56,0.69,3.13,1.08,4.7
	c0.14,0.62,0.3,1.23,0.45,1.84c0.15,0.6,0.26,1.19,0.56,1.75c0.62,1.14,1.63,1.82,2.88,2.09c1.2,0.27,2.43,0.11,3.64-0.09
	C398.26,328.82,397.26,330.71,396.04,332.46z M402.6,257.24c0,6.55,0.01,13.12-0.01,19.68c-0.01,3.27-0.04,6.53-0.11,9.8
	c-0.06,3.11-0.26,6.22-0.47,9.33c-0.23,3.46-0.47,6.92-0.79,10.38c-0.31,3.41-0.72,6.8-1.04,10.21c-0.13,1.35-0.23,2.69-0.3,4.04
	c-0.64,0.11-1.29,0.21-1.93,0.31c-0.59-2.43-1.09-4.88-1.7-7.32c-0.78-3.08-1.62-6.16-2.54-9.21c-1-3.29-2.13-6.51-3.55-9.64
	c-0.51-1.15-1.01-2.31-1.75-3.35c-0.67-0.96-1.61-1.79-2.76-2.1c-0.3-0.08-0.6-0.12-0.9-0.12c-0.9,0-1.79,0.33-2.58,0.77
	c-1.47,0.8-2.84,1.74-4.19,2.71c-1.02,0.73-1.99,1.54-2.94,2.37c-0.07-0.5-0.14-1.02-0.22-1.52c-0.35-2.15-0.69-4.31-1.01-6.47
	c-0.43-3.45-0.85-6.91-1.39-10.35c-0.23-1.44-0.54-2.86-0.81-4.28c-0.36-1.83-0.68-3.66-0.98-5.51c-0.91-5.48-1.99-10.93-3.1-16.38
	c0.49-0.01,0.98-0.14,1.4-0.42c1.58-1.08,3.16-2.16,4.81-3.13c1.38-0.82,2.79-1.57,4.23-2.31c3.06-1.56,6.17-3.05,9.28-4.51
	c2.88-1.35,5.65-2.92,8.36-4.58c1.25-0.77,2.54-1.51,3.83-2.23c0.47-0.27,0.94-0.55,1.4-0.83c0.09,0.51,0.18,1.02,0.27,1.53
	c0.25,1.41,0.51,2.8,0.72,4.21c0.18,1.37,0.38,2.74,0.49,4.1c0.12,1.68,0.2,3.36,0.26,5.04C402.66,250.72,402.6,253.98,402.6,257.24
	z"/>
</svg>
