<?xml version="1.0" encoding="utf-8"?>
<!-- Generator: Adobe Illustrator 24.1.2, SVG Export Plug-In . SVG Version: 6.00 Build 0)  -->
<svg version="1.1" id="Lag_1" xmlns="http://www.w3.org/2000/svg" xmlns:xlink="http://www.w3.org/1999/xlink" x="0px" y="0px"
	 viewBox="0 0 800 800" style="enable-background:new 0 0 800 800;" xml:space="preserve">
<style type="text/css">
	.st0{fill:#FFFFFF;}
	.st1{fill:#12100B;}
</style>
<path class="st0" d="M555.32,422.27c-22.67,0-45.36,0-68.03,0c-0.86,0-1.72,0-2.57,0c0.08-0.35,0.18-0.7,0.27-1.05
	c3.45,0,6.9-0.02,10.35,0.01c4.26,0.04,8.5,0.47,12.75,0.58c8.6,0.21,17.2,0.13,25.82,0.13c2.23,0,4.46,0.05,6.69-0.07
	c2.11-0.11,4.33-0.32,5.97-1.82c2.48-2.28,2.8-6,3.12-9.16c0.46-4.54,0.28-9.16,0.12-13.71c-0.15-4.39-0.68-8.78-1.13-13.15
	c-0.45-4.33-0.61-8.69-0.66-13.05c-0.11-9.21-0.07-18.43-0.07-27.64c0-8.95-0.12-17.9-0.45-26.84c-0.17-4.43-0.23-8.86-0.26-13.3
	c-0.02-4.49-0.2-8.97-0.27-13.45c-0.16-8.95-0.11-17.9-0.11-26.84c0-4.35,0-8.7,0-13.04c0-2.22,0-4.43,0-6.64
	c0-1.02-0.01-2.04-0.04-3.06c-0.05-2.02-0.41-3.96-0.84-5.93c-0.41-1.87-2.28-3.08-4.13-3.08c-0.36,0-0.71,0.05-1.06,0.14
	c-1.17,0.33-2.03,1.09-2.54,2.06c-0.11-0.01-0.22-0.03-0.33-0.03c-18.04,0-36.09,0.02-54.14,0c-0.04-0.13-0.07-0.25-0.11-0.37
	c-0.04-1.79,0.02-3.57,0.21-5.36c0.46-2.86,1.13-5.68,1.81-8.5c0.71-2.97-0.9-6.07-3.92-6.91c-0.47-0.13-0.95-0.19-1.43-0.19
	c-2.46,0-4.88,1.62-5.47,4.11c-0.94,3.93-1.8,7.81-2.26,11.82c-0.13,1.18-0.18,2.37-0.18,3.56c0,0.44,0.01,0.88,0.01,1.31
	c0,0.15,0.04,0.29,0.05,0.44c-0.91-0.01-1.83-0.01-2.74-0.02c-4.49-0.07-8.97-0.27-13.45-0.27c-5.01,0-10.03-0.01-15.05-0.01
	c-3.76,0-7.52,0.01-11.28,0.02c-3.26,0.01-6.52,0.01-9.77,0.1c-3.79,0.1-7.58,0.33-11.35,0.61c-1.15,0.09-2.15,0.4-2.98,1.24
	c-0.79,0.78-1.23,1.86-1.23,2.97c0,1.28,0.67,2.55,1.69,3.37c-0.35,1.66-0.64,3.32-0.87,5c-0.24,1.81-0.36,3.61-0.46,5.43
	c-0.11,2.14-0.18,4.3-0.08,6.45c0.21,4.48,0.49,8.96,0.63,13.44c0.14,4.6,0.42,9.18,0.79,13.78c0.16,2.16,0.23,4.33,0.34,6.5
	c0.14,2.32,0.26,4.63,0.32,6.94c0.27,8.78,0.16,17.57,0.16,26.36c0,2.41,0,4.83,0,7.25c-0.76,0.18-1.47,0.56-2.03,1.12
	c-0.86,0.85-1.11,1.82-1.23,2.97c-0.18,1.57-0.36,3.11-0.41,4.68c-0.02,0.9-0.06,1.81-0.08,2.72c-0.05,1.68-0.17,3.34-0.34,5
	c-0.07,0.41-0.15,0.81-0.27,1.2c0,0.01-0.01,0.01-0.01,0.02c-1.83,2.26-3.63,4.53-5.55,6.72c-2.12,2.41-4.55,4.59-6.85,6.84
	c-2.34,2.26-4.63,4.56-7.02,6.77c-2.3,2.12-4.7,4.15-7.13,6.11c-1.58,1.15-3.15,2.29-4.89,3.2c-0.02,0.01-0.05,0.02-0.08,0.03
	c-2.95-1-5.87-2.09-8.78-3.22c-3.15-1.23-6.31-2.46-9.43-3.74c-6.99-3.17-14.13-6.07-21.42-8.49c-0.54-0.18-1.09-0.21-1.62-0.14
	c-0.07-0.34-0.14-0.68-0.21-1.02c-0.49-2.4-1.09-4.76-1.69-7.13c3.52-1.64,6.81-3.8,9.73-6.31c1.45-1.24,2.82-2.52,4.08-3.94
	c2.13-2.38,3.73-5.13,4.95-8.06c1.14-2.73,2.01-5.68,2.43-8.62c0.37-2.54,0.64-5.04,0.8-7.6c0.06-0.97,0.07-1.93,0.1-2.9
	c0.01-0.57,0.02-1.15,0.03-1.72c0.04-1.91-0.16-3.79-0.43-5.69c-0.63-4.43-3.09-8.44-5.34-12.24c-1.58-2.65-3.42-5.18-5.31-7.62
	c-2.13-2.75-4.29-5.56-6.92-7.84c-1.96-1.7-4.16-3.1-6.43-4.34c-0.91-0.49-1.82-1.01-2.76-1.47c-0.83-0.41-1.69-0.77-2.55-1.11
	c-0.09-0.46-0.26-0.91-0.5-1.33c-0.51-0.86-1.49-1.76-2.52-1.93c-2.7-0.47-5.44-1.02-8.17-1.2c-1.37-0.08-2.71-0.17-4.08-0.17
	c-0.14,0-0.29,0-0.43,0c-3.25,0.06-6.52,0.69-9.63,1.57c-2.51,0.71-4.92,1.7-7.34,2.7c-2.23,0.92-4.51,1.96-6.57,3.23
	c-3.26,2.02-6.39,4.15-9.15,6.84c-1.66,1.62-3.14,3.37-4.57,5.21c-1.39,1.8-2.78,3.65-3.83,5.68c-0.92,1.8-1.79,3.6-2.55,5.47
	c-0.98,2.45-1.28,5.1-1.54,7.69c-0.29,2.98-0.48,6.05-0.18,9.04c0.4,4.1,1.96,7.91,3.62,11.65c0.84,1.9,1.91,3.71,2.96,5.49
	c1.18,2.02,2.41,4,3.68,5.97c1.29,1.98,2.71,3.84,4.52,5.39c1.8,1.54,3.79,2.72,5.91,3.74c-0.77,2.92-1.39,5.87-1.92,8.83
	c-3.16,2.1-6.21,4.31-9.21,6.65c-2.83,2.16-5.71,4.27-8.58,6.4c-3.18,2.36-6.2,4.92-9.28,7.39c-2.7,2.01-5.43,3.99-8.14,6.01
	c-1.28,0.95-2.58,1.88-3.85,2.85c-1.56,1.19-3.03,2.47-4.56,3.67c-0.35,0.27-0.7,0.53-1.04,0.8c-0.9,0.71-1.78,1.44-2.68,2.15
	c-0.77,0.53-1.6,0.95-2.45,1.34c-2.13,0.78-4.27,1.56-6.33,2.54c-0.86,0.42-1.71,0.86-2.49,1.41c-0.47,0.33-0.93,0.68-1.37,1.04
	c-0.65-0.4-1.29-0.84-1.92-1.27c-1.56-1.04-3.18-2.03-4.79-3.01c-1.97-1.2-4.62-0.44-5.76,1.51c-1.18,2.01-0.45,4.57,1.5,5.77
	c1.42,0.86,2.85,1.71,4.23,2.64c0.92,0.61,1.82,1.23,2.75,1.81c0.91,0.57,1.95,1.01,2.99,1.25c0.59,0.16,1.18,0.19,1.78,0.12
	c0.99-0.05,1.71-0.38,2.59-0.78c0.56-0.27,1.12-0.89,1.61-1.31c0.11-0.1,0.23-0.2,0.35-0.3c1.31-0.93,2.75-1.63,4.23-2.26
	c1.83-0.72,3.7-1.33,5.48-2.19c2.06-1.01,3.73-2.55,5.5-3.96c0.24-0.19,0.49-0.37,0.72-0.56c-0.28,0.22-0.57,0.44-0.85,0.65
	c1.73-1.32,3.39-2.71,5.09-4.06c3.32-2.5,6.69-4.92,10.02-7.4c3.81-2.84,7.48-5.88,11.21-8.82c3.78-2.8,7.54-5.6,11.25-8.49
	c0.01-0.01,0.03-0.02,0.04-0.03c-1.07,6.46-1.95,12.94-2.77,19.42c-0.02,0.14-0.04,0.28-0.06,0.42c0,0.01,0,0.02,0,0.03
	c-1.21,8.75-2.52,17.47-4.07,26.17c-0.77,4.32-1.82,8.62-3.09,12.82c-1.33,4.46-2.57,8.93-3.79,13.41
	c-1.18,4.38-2.26,8.78-3.43,13.17c-0.53,1.96-1.03,3.94-1.48,5.92c-0.3,1.3-0.46,2.64-0.63,3.98c-0.05,0.41-0.09,0.82-0.12,1.24
	c-0.04,0.5-0.03,0.94-0.01,1.45c0.08,1.36,0.64,2.45,1.46,3.49c0.99,1.22,2.45,1.84,3.91,2.29c1.34,0.4,2.86,0.39,4.25,0.36
	c1.71-0.02,3.44-0.3,5.13-0.47c2.04-0.21,4.08-0.41,6.12-0.63c0.91-0.09,1.81-0.15,2.72-0.23c-0.1,0.63-0.24,1.25-0.32,1.88
	c-0.32,2.59-0.34,5.24-0.24,7.85c0.08,2.39,0.19,4.78,0.31,7.17c0.22,4.43,0.28,8.86,0.75,13.27c0.48,4.54,1.02,9.07,1.4,13.62
	c0.37,4.47,0.39,8.98,0.43,13.46c0.02,3.5,0.02,6.98,0.02,10.48c0,2.84,0.07,5.7,0.01,8.54c-0.58,0.16-1.16,0.28-1.77,0.38
	c-4.62,0.5-9.33,0.42-13.97,0.42c-2.3,0-4.21,1.92-4.21,4.21c0,2.3,1.9,4.21,4.21,4.21c2.95,0,5.91-0.01,8.86-0.11
	c3.08-0.1,6.26-0.21,9.25-1.01c0.82-0.23,1.6-0.62,2.38-0.96c0.7-0.3,1.27-0.86,1.85-1.34c0.39-0.33,0.83-1.05,1.07-1.55
	c0.43-0.9,0.67-1.82,0.7-2.81c0.04-1.17,0.02-2.35,0.02-3.52c0-1.96,0-3.93,0-5.9c0-8.93,0.11-17.9-0.65-26.81
	c-0.24-2.93-0.58-5.84-0.93-8.76c-0.35-2.86-0.54-5.71-0.71-8.6c-0.19-3.13-0.27-6.27-0.42-9.42c-0.22-4.35-0.4-8.72,0.07-13.06
	c0.13-0.74,0.29-1.48,0.46-2.22c0.79-0.03,1.58-0.09,2.38-0.11c7.89-0.2,15.78-0.53,23.67-0.71c0.23,1.84,0.53,3.67,1,5.48
	c0.55,2.16,1.33,4.25,2.06,6.36c0.86,2.44,1.73,4.86,2.62,7.27c1.54,4.21,3.04,8.46,4.46,12.71c1.36,4.08,2.24,8.32,3.34,12.48
	c0.56,2.15,1.1,4.29,1.76,6.4c0.79,2.56,1.74,5,2.81,7.45c1.08,2.49,2.25,4.97,3.54,7.34c1.2,2.22,2.37,4.43,3.38,6.74
	c0.38,0.91,0.77,1.81,1.1,2.72c0.39,1.02,0.64,2.09,0.91,3.15c0.42,1.58,1.23,3.35,2.74,4.16c0.83,0.45,1.62,0.81,2.57,0.94
	c0.82,0.11,1.6,0.21,2.42,0.2c1.27-0.01,2.54-0.02,3.81-0.07c2.82-0.09,5.59-0.35,8.38-0.81c1.23-0.21,2.44-0.49,3.66-0.74
	c1.98-0.42,3.89-0.99,5.85-1.59c2.18-0.69,3.56-2.91,2.94-5.17c-0.59-2.16-3-3.63-5.17-2.95c-1.49,0.47-2.97,0.98-4.5,1.32
	c-0.76,0.16-1.52,0.3-2.28,0.47c-1.41,0.3-2.82,0.57-4.23,0.79c-1.44,0.13-2.89,0.22-4.34,0.26c-1.31,0.04-2.63,0.1-3.95,0.08
	c-0.14-0.51-0.28-1.02-0.42-1.53c-0.27-0.9-0.64-1.77-1-2.63c-0.92-2.17-1.83-4.34-2.91-6.45c-1.09-2.1-2.25-4.18-3.29-6.32
	c-0.84-1.69-1.59-3.42-2.34-5.16c-1.39-3.7-2.45-7.49-3.42-11.31c-1.02-4.01-1.91-8.08-3.23-12.01c-1.35-4.05-2.81-8.07-4.23-12.09
	c-0.67-1.89-1.4-3.76-2.05-5.64c-1.38-3.9-2.86-7.79-3.58-11.89c0-0.03,0-0.05-0.01-0.08c2.94-0.01,5.88-0.02,8.82-0.03
	c2.19,0,4.37,0,6.57,0c2.36,0,4.83,0.19,7.17-0.15c3.4-0.5,5.18-3.88,5.65-6.96c0.52-3.39,0.09-6.73-0.51-10.08
	c-0.66-3.71-1.86-7.32-2.91-10.93c-1.24-4.27-2.79-8.46-4.16-12.68c-0.75-2.28-1.28-4.65-1.86-6.97c-0.5-1.96-1-3.92-1.52-5.86
	c-1.17-4.43-2.16-8.9-3.16-13.37c-1.84-8.17-3.1-16.47-4.26-24.76c-0.39-2.78-0.89-5.55-1.43-8.31c3.91,1.37,7.8,2.86,11.65,4.39
	c1.86,0.81,3.7,1.65,5.55,2.49c2.25,1.02,4.59,1.91,6.89,2.77c3.62,1.36,7.18,2.86,10.83,4.13c0.9,0.32,1.81,0.64,2.72,0.93
	c0.91,0.31,1.98,0.22,2.9,0.09c0.66-0.1,1.2-0.27,1.83-0.53c1.54-0.62,2.91-1.44,4.27-2.37c2.05-1.39,4.02-2.96,5.9-4.58
	c3.2-2.76,6.36-5.55,9.35-8.53c2.07-2.06,4.2-4.06,6.27-6.12c2.2-2.2,4.3-4.49,6.26-6.92c0.28-0.35,0.56-0.7,0.83-1.04
	c-0.01,2.18-0.05,4.35-0.14,6.52c-0.16,4.25-0.18,8.52-0.2,12.78c-0.03,8.52-0.01,17.04-0.01,25.57c0,2.03,0,4.05,0,6.08
	c0,2.53-0.84,5.51,0.51,7.83c1.74,2.96,5.63,3.43,8.68,3.82c1.74,0.23,3.51,0.27,5.27,0.35c2.24,0.1,4.47,0.09,6.71,0.11
	c8.93,0.1,17.84,0.05,26.76,0.05c6.23,0,12.47,0,18.7,0c-0.07,0.35-0.15,0.7-0.22,1.05c-10.02,0-20.04,0-30.06,0
	c-7.36,0-14.71,0-22.07,0c-4.81,0-9.6,0.15-14.41,0.36c-3.06,0.13-5.61,2.46-5.61,5.62c0,2.96,2.55,5.74,5.61,5.61
	c10.8-0.47,21.6-0.36,32.4-0.36c11,0,22.01,0,33.01,0c0,0.06,0,0.12,0,0.17c0,2.6,0.07,5.21-0.01,7.81
	c-0.1,2.86-0.26,5.71-0.43,8.57c-0.33,5.45-0.24,10.93-0.25,16.41c0,2.51-0.13,5.02-0.22,7.54c-0.09,2.79-0.04,5.57-0.14,8.36
	c-0.2,5.47-0.4,10.99-0.87,16.44c-0.44,4.97-0.55,9.95-0.94,14.92c-0.08,1.06-0.14,2.11-0.19,3.17c-1.32,0-2.65,0-3.97,0
	c-2.87,0-5.73,0.01-8.61,0.05c-3.81,0.08-7.73,0.22-11.43,1.22c-2.1,0.56-4.17,1.75-5.37,3.58c-1.05,1.6-1.19,3.3-1.34,5.15
	c-0.12,1.37-0.15,2.75-0.2,4.11c-0.03,1.37,0.03,2.73,0.13,4.1c0.25,3.97,1.55,7.66,2.89,11.36c0.51,1.41,1.25,2.57,2.59,3.36
	c1.29,0.76,2.87,0.97,4.32,0.56c2.77-0.76,4.97-4.02,3.93-6.9c-0.95-2.63-1.93-5.23-2.44-7.98c-0.22-2.27-0.23-4.56-0.11-6.85
	c0.28-0.06,0.57-0.11,0.85-0.16c4.62-0.42,9.28-0.37,13.91-0.38c1.56,0,3.11,0,4.67,0c0,0.3,0,0.6,0,0.9
	c-0.01,2.4-0.12,4.79-0.26,7.19c-0.2,3.06-0.4,6.07-0.48,9.13c-0.06,3.06,2.61,5.61,5.62,5.61c3.11,0,5.55-2.56,5.62-5.61
	c0.13-5.54,0.72-11.06,0.73-16.6c0-0.21,0-0.42,0-0.62c6.96-0.01,13.92-0.06,20.88-0.02c0.09,0.53,0.18,1.07,0.25,1.6
	c0.7,5.69,1.42,11.37,1.7,17.09c0.16,3.06,2.43,5.62,5.62,5.62c2.95,0,5.76-2.56,5.61-5.62c-0.16-3.17-0.44-6.33-0.79-9.48
	c-0.34-3.08-0.69-6.2-1.13-9.26c-0.2-1.37-0.41-2.73-0.67-4.09c-0.35-1.81-1.17-3.71-2.5-5.03c-1.48-1.47-3.46-2.03-5.5-2.03
	c-2.17,0-4.36,0-6.53,0c-5.57,0-11.14,0-16.71,0c0.06-1.27,0.08-2.54,0.17-3.81c0.17-2.38,0.32-4.77,0.41-7.15
	c0.1-2.69,0.36-5.36,0.56-8.05c0.41-5.65,0.74-11.34,0.81-17c0.07-4.41,0.29-8.82,0.34-13.22c0.05-4.84-0.03-9.67,0.11-14.51
	c0.14-4.67,0.61-9.32,0.6-14c0-1.9-0.02-3.78-0.01-5.67c18.86,0,37.73,0,56.59,0c5.13,0,10.26,0,15.39,0c3.06,0,5.62-2.56,5.62-5.61
	C560.94,424.82,558.38,422.27,555.32,422.27 M282.84,551.33c-0.05,0.02-0.11,0.04-0.16,0.07
	C282.73,551.37,282.79,551.34,282.84,551.33L282.84,551.33z M278.06,339.82c-1.73-2.38-3.22-4.96-4.71-7.47
	c-1.27-2.15-2.4-4.34-3.44-6.6c-0.82-2.19-1.61-4.37-2.02-6.67c-0.28-3.21-0.06-6.55,0.33-9.75c0.27-1.6,0.66-3.14,1.24-4.65
	c0.62-1.36,1.29-2.71,2.05-3.99c0.73-1.21,1.51-2.37,2.33-3.52c0.81-1.03,1.64-2.05,2.52-3.03c1.37-1.55,2.9-2.97,4.51-4.28
	c3.17-2.31,6.57-4.15,10.12-5.82c3.64-1.47,7.31-2.74,11.22-3.39c3.08-0.33,6.07-0.16,9.12,0.17c0.16,0.02,0.33,0.05,0.49,0.08
	c0.07,0.15,0.14,0.31,0.23,0.46c0.6,1.03,1.46,1.51,2.52,1.93c1.11,0.45,2.24,0.87,3.35,1.31c2.8,1.21,5.58,2.79,8.05,4.59
	c2.66,2.22,4.81,4.94,6.93,7.67c2.98,4.06,5.81,8.34,7.9,12.94c0.43,1.22,0.72,2.44,0.93,3.71c0.24,2.47,0.12,4.96,0.03,7.44
	c-0.05,1.58-0.19,3.16-0.35,4.72c-0.49,3.13-1.17,6.18-2.33,9.14c-0.74,1.58-1.6,3.07-2.6,4.49c-1.53,1.84-3.29,3.41-5.11,4.97
	c-2.36,1.75-4.78,3.3-7.46,4.52c-2.07,0.83-4.17,1.47-6.36,1.83c-2.66,0.25-5.36,0.1-8.02,0.03c-2.02-0.05-4.02-0.23-6.03-0.45
	c-1.51-0.26-2.99-0.56-4.48-0.92c-1.58-0.38-3.14-0.88-4.71-1.33c-2.88-0.84-5.74-1.77-8.53-2.89c-1.9-0.89-3.71-1.81-5.42-3.02
	C279.52,341.38,278.76,340.65,278.06,339.82z M332.73,422.33c0.94,3.57,1.78,7.16,2.79,10.71c1,3.54,2.29,6.98,3.4,10.47
	c0.62,1.94,1.23,3.88,1.8,5.85c1.02,3.52,2.07,7.02,2.64,10.64c0.17,1.57,0.25,3.11,0.15,4.68c-0.02,0.11-0.04,0.23-0.07,0.34
	c-3.59,0.03-7.18,0.02-10.77,0.01c-4.53-0.01-9.05-0.02-13.57,0.02c-9.29,0.11-18.56,0.6-27.84,0.82c-1.05,0.02-2.09,0.08-3.13,0.13
	c-0.33-0.21-0.68-0.38-1.06-0.48c-0.36-0.1-0.73-0.15-1.08-0.15c-0.95,0-1.86,0.33-2.6,0.9c-1.39,0.1-2.78,0.19-4.17,0.34
	c-2.22,0.22-4.43,0.45-6.64,0.67c-2.37,0.24-4.78,0.63-7.17,0.57c0.01-0.13,0.03-0.25,0.04-0.37c0.66-4.13,1.98-8.15,2.99-12.19
	c1.08-4.25,2.19-8.5,3.34-12.73c1.25-4.58,2.69-9.1,3.89-13.68c1.06-4.09,1.87-8.22,2.57-12.39c1.74-10.3,3.2-20.65,4.52-31.02
	c0.74-5.35,1.6-10.68,2.49-16.01c0.41-2.4,0.74-4.82,1.2-7.21c0.28-1.45,0.55-2.9,0.82-4.37c0.19-1.02,0.45-2.03,0.73-3.04
	c4.18,1.36,8.41,2.69,12.75,3.44c4.71,0.8,9.51,0.94,14.28,0.92c1.71-0.01,3.4-0.21,5.07-0.52c0.56,2.28,1.13,4.57,1.62,6.87
	c0.46,2.21,0.91,4.43,1.38,6.64c0.95,4.38,1.71,8.82,2.33,13.26c1.23,8.78,2.75,17.49,4.69,26.14
	C330.94,415.17,331.77,418.77,332.73,422.33z M481.78,411.6c-0.48-0.14-0.97-0.2-1.45-0.2c-1.36,0-2.64,0.54-3.66,1.4
	c-13.36,0-26.73,0-40.11-0.01c-3.09,0-6.19,0-9.29-0.03c-3.72-0.04-7.46-0.04-11.16-0.45c-0.35-0.06-0.69-0.12-1.03-0.2
	c0.08-1.22,0.16-2.43,0.16-3.65c0-2.09,0-4.19,0-6.27c0-4.34,0-8.68,0-13.03c0-8.42-0.09-16.84,0.25-25.25
	c0.17-4.33,0.12-8.66,0.12-12.99c0-4.46,0-8.93,0-13.39c0-8.86,0.01-17.73-0.01-26.6c-0.01-4.39-0.04-8.76-0.18-13.15
	c-0.06-2.07-0.2-4.13-0.3-6.21c-0.1-2.24-0.2-4.48-0.37-6.72c-0.36-4.63-0.63-9.25-0.77-13.9c-0.15-4.34-0.59-8.69-0.62-13.04
	c-0.02-3.71,0.04-7.4,0.48-11.09c0.27-1.7,0.63-3.38,1.01-5.06c2.95-0.15,5.91-0.27,8.87-0.3c4.36-0.06,8.71-0.05,13.06-0.06
	c4.5,0,8.99,0,13.48,0c4.44,0,8.89-0.05,13.33,0.09c4.46,0.14,8.93,0.21,13.4,0.24c1.04,0.38,2.2,0.46,3.35,0.15
	c0.12-0.04,0.24-0.1,0.35-0.14c3.1,0.01,6.21,0.02,9.31,0.02c8.61,0,17.2,0,25.81,0c7.38,0,14.76,0,22.13,0
	c0.17,0,0.34-0.03,0.51-0.05c0.01,0.92,0.01,1.85,0.01,2.77c0,2.17,0,4.33,0,6.49c0,4.33,0,8.65,0,12.98
	c0,9.09-0.05,18.18,0.13,27.26c0.04,2.24,0.13,4.48,0.21,6.7c0.07,2.09,0.03,4.19,0.05,6.28c0.03,4.73,0.14,9.43,0.32,14.14
	c0.17,4.55,0.21,9.1,0.35,13.64c0.13,4.4,0.03,8.8,0.03,13.19c0,8.85-0.12,17.7,0.09,26.55c0.1,4.71,0.34,9.38,0.82,14.06
	c0.46,4.37,0.85,8.76,1.02,13.14c0.16,4.32,0.17,8.65-0.29,12.94c-0.08,0.52-0.19,1.03-0.32,1.54c-1.71,0.11-3.42,0.11-5.15,0.11
	c-2.05,0-4.1,0-6.16,0c-4.32,0-8.65,0-12.97-0.01c-4.34-0.02-8.69-0.07-13.03-0.31c-2.15-0.11-4.3-0.28-6.46-0.34
	c-2.21-0.07-4.44-0.06-6.66-0.06c-2.15,0-4.3,0-6.45,0C483.33,412.26,482.61,411.83,481.78,411.6z"/>
<path class="st0" d="M233.07,394.72c0.18-0.14,0.36-0.28,0.54-0.42c0.1-0.08,0.2-0.16,0.3-0.24
	C233.63,394.28,233.35,394.5,233.07,394.72"/>
<path class="st1" d="M1095.93,368.62L1095.93,368.62c-0.15,0.06-0.29,0.13-0.44,0.19C1095.65,368.75,1095.79,368.71,1095.93,368.62"
	/>
<g>
	<g>
		<g>
			<path class="st0" d="M427.73,264.99c0.35,12.61,1.16,25.19,2.45,37.74c0.19,1.85,1.99,3.16,3.76,2.16
				c4.83-2.72,10.84-0.19,15.78,0.91c2.91,0.65,6.13,1.3,9.1,0.72c1.59-0.31,3.02-1.16,3.93-2.52c0.91-1.36,1.11-3.04,1.36-4.61
				c1.15-7.11,1.71-14.31,1.59-21.52c-0.06-3.5-0.1-7.14-0.69-10.6c-0.26-1.55-1.04-3.02-2.45-3.82c-1.45-0.83-3.23-0.74-4.84-0.8
				c-8.24-0.29-16.48-0.58-24.71-0.87c-3.22-0.11-3.21,4.89,0,5c6.59,0.23,13.18,0.46,19.77,0.7c1.65,0.06,3.3,0.12,4.94,0.17
				c0.39,0.01,1.87-0.15,2.21,0.09c0.2,0.14,0.04,0.06,0.16,0.34c0.19,0.46,0.14,1.04,0.18,1.53c0.07,0.81,0.13,1.62,0.19,2.43
				c0.11,1.7,0.19,3.4,0.23,5.11c0.15,6.42-0.2,12.88-1.14,19.23c-0.21,1.41-0.35,2.91-0.75,4.28c-0.28,0.96-0.96,1.04-1.91,1.06
				c-2.66,0.06-5.26-0.58-7.82-1.21c-5.85-1.43-12.05-3.09-17.65,0.06c1.25,0.72,2.51,1.44,3.76,2.16
				c-1.28-12.54-2.1-25.13-2.45-37.74C432.64,261.78,427.64,261.77,427.73,264.99L427.73,264.99z"/>
		</g>
	</g>
	<g>
		<g>
			<path class="st0" d="M441.53,281.62c0.1-0.13,0.27-0.25,0.35-0.39c0.14-0.13,0.07-0.07-0.23,0.17c0.08-0.05,0.16-0.1,0.24-0.14
				c0.37-0.24-0.54,0.13-0.08,0.04c0.1-0.02,0.33-0.05,0.42-0.1c-0.42,0.05-0.5,0.07-0.23,0.04c0.05,0,0.1,0,0.15-0.01
				c0.18-0.01,0.36,0,0.54,0.01c0.08,0,0.16,0.01,0.24,0.02c0.27,0.03,0.21,0.02-0.18-0.03c0.06,0.06,0.41,0.07,0.49,0.09
				c1.45,0.29,2.82,0.84,4.31,0.87c1.42,0.03,3.06-0.32,4.25-1.14c1.63-1.14,2.44-2.9,1.95-4.87c-0.32-1.27-1.81-2.16-3.08-1.75
				c-1.31,0.43-2.09,1.72-1.75,3.08c0.12,0.46,0-0.61-0.01-0.19c-0.01,0.44,0.18-0.61,0.04-0.23c-0.15,0.42,0.27-0.61,0.1-0.2
				c-0.17,0.4-0.15-0.14,0.14-0.15c0,0-0.24,0.24-0.24,0.24c0.01-0.15,0.53-0.37,0.12-0.11c-0.08,0.05-0.26,0.11-0.33,0.18
				c0.15-0.14,0.56-0.21,0.11-0.06c-0.26,0.09-0.52,0.14-0.79,0.2c-0.45,0.1,0.61-0.04,0.11-0.02c-0.12,0-0.23,0.02-0.35,0.02
				c-0.14,0-0.28,0-0.42,0c-0.1,0-0.62-0.07-0.15,0c0.47,0.07-0.03-0.01-0.13-0.04c-0.14-0.03-0.28-0.07-0.42-0.11
				c-2.79-0.78-6.62-1.67-8.72,1.03c-0.43,0.55-0.73,1.04-0.73,1.77c0,0.61,0.27,1.35,0.73,1.77
				C438.89,282.45,440.68,282.73,441.53,281.62L441.53,281.62z"/>
		</g>
	</g>
	<g>
		<g>
			<path class="st0" d="M443.62,292.99c0.01-0.18,0.03-0.36,0.05-0.54c0.04-0.45-0.11,0.66,0.01-0.03c0.06-0.37,0.15-0.73,0.27-1.08
				c0.22-0.63-0.21,0.34,0-0.02c0.07-0.11,0.13-0.22,0.19-0.33c0.21-0.37-0.42,0.51,0,0.03c0.27-0.31-0.54,0.37-0.01,0.03
				c0.23-0.11,0.15-0.08-0.25,0.1c0.1-0.03,0.19-0.06,0.29-0.07c-0.39,0.05-0.45,0.06-0.17,0.06c-0.39-0.07-0.45-0.07-0.18-0.02
				c0.08,0.02,0.16,0.04,0.24,0.07c0.18,0.06,0.11,0.03-0.21-0.09c0.09-0.04,0.51,0.3,0.6,0.35c0.22,0.16,0.19,0.13-0.08-0.08
				c0.09,0.07,0.18,0.15,0.27,0.23c0.17,0.15,0.34,0.3,0.5,0.46c0.29,0.28,0.58,0.56,0.89,0.82c1.74,1.47,4.19,2.52,6.32,1.12
				c2-1.32,3.01-4.39,0.98-6.2c-0.98-0.87-2.59-1.03-3.54,0c-0.87,0.95-1.04,2.61,0,3.54c0.19,0.18,0.13,0.09-0.17-0.26
				c0.12,0.22,0.08,0.12-0.13-0.31c-0.05-0.5-0.06-0.62-0.05-0.36c0.08-0.49,0.1-0.6,0.04-0.35c-0.13,0.39,0.33-0.53,0.08-0.18
				c-0.37,0.51,0.33-0.34,0.03-0.04c-0.19,0.17-0.11,0.12,0.23-0.16c-0.07,0.05-0.13,0.09-0.2,0.13c0.13-0.05,0.25-0.1,0.38-0.15
				c-0.07,0.03-0.15,0.05-0.23,0.07c0.47-0.05,0.57-0.06,0.31-0.05c-0.28-0.02-0.21-0.01,0.2,0.04c0-0.01-0.4-0.14-0.44-0.13
				c0.36,0.16,0.42,0.18,0.18,0.06c-0.09-0.05-0.18-0.1-0.27-0.16c-0.09-0.06-0.18-0.12-0.26-0.18c0.29,0.23,0.34,0.26,0.13,0.1
				c-0.29-0.24-0.56-0.5-0.84-0.76c-0.71-0.68-1.46-1.37-2.34-1.81c-1.18-0.6-2.47-0.87-3.78-0.53c-1.02,0.26-1.88,0.9-2.52,1.72
				c-1.11,1.43-1.42,3.22-1.55,4.98c-0.1,1.31,1.22,2.56,2.5,2.5C442.55,295.43,443.51,294.39,443.62,292.99L443.62,292.99z"/>
		</g>
	</g>
</g>
<g>
	<g>
		<g>
			<path class="st0" d="M481.44,260.6c0.35,12.61,1.16,25.19,2.45,37.74c0.19,1.85,1.99,3.16,3.76,2.16
				c4.83-2.72,10.84-0.19,15.78,0.91c2.91,0.65,6.13,1.3,9.1,0.72c1.59-0.31,3.02-1.16,3.93-2.52c0.91-1.36,1.11-3.04,1.36-4.61
				c1.15-7.11,1.71-14.31,1.59-21.52c-0.06-3.5-0.1-7.14-0.69-10.6c-0.26-1.55-1.04-3.02-2.45-3.82c-1.45-0.83-3.23-0.74-4.84-0.8
				c-8.24-0.29-16.48-0.58-24.71-0.87c-3.22-0.11-3.21,4.89,0,5c6.59,0.23,13.18,0.46,19.77,0.7c1.65,0.06,3.3,0.12,4.94,0.17
				c0.39,0.01,1.87-0.15,2.21,0.09c0.2,0.14,0.04,0.06,0.16,0.34c0.19,0.46,0.14,1.04,0.18,1.53c0.07,0.81,0.13,1.62,0.19,2.43
				c0.11,1.7,0.19,3.4,0.23,5.11c0.15,6.42-0.2,12.88-1.14,19.23c-0.21,1.41-0.35,2.91-0.75,4.28c-0.28,0.96-0.96,1.04-1.91,1.06
				c-2.66,0.06-5.26-0.58-7.82-1.21c-5.85-1.43-12.05-3.09-17.65,0.06c1.25,0.72,2.51,1.44,3.76,2.16
				c-1.28-12.54-2.1-25.13-2.45-37.74C486.35,257.39,481.35,257.38,481.44,260.6L481.44,260.6z"/>
		</g>
	</g>
	<g>
		<g>
			<path class="st0" d="M495.25,277.23c0.1-0.13,0.27-0.25,0.35-0.39c0.14-0.13,0.07-0.07-0.23,0.17c0.08-0.05,0.16-0.1,0.24-0.14
				c0.37-0.24-0.54,0.13-0.08,0.04c0.1-0.02,0.33-0.05,0.42-0.1c-0.42,0.05-0.5,0.07-0.23,0.04c0.05,0,0.1,0,0.15-0.01
				c0.18-0.01,0.36,0,0.54,0.01c0.08,0,0.16,0.01,0.24,0.02c0.27,0.03,0.21,0.02-0.18-0.03c0.06,0.06,0.41,0.07,0.49,0.09
				c1.45,0.29,2.82,0.84,4.31,0.87c1.42,0.03,3.06-0.32,4.25-1.14c1.63-1.14,2.44-2.9,1.95-4.87c-0.32-1.27-1.81-2.16-3.08-1.75
				c-1.31,0.43-2.09,1.72-1.75,3.08c0.12,0.46,0-0.61-0.01-0.19c-0.01,0.44,0.18-0.61,0.04-0.23c-0.15,0.42,0.27-0.61,0.1-0.2
				c-0.17,0.4-0.15-0.14,0.14-0.15c0,0-0.24,0.24-0.24,0.24c0.01-0.15,0.53-0.37,0.12-0.11c-0.08,0.05-0.26,0.11-0.33,0.18
				c0.15-0.14,0.56-0.21,0.11-0.06c-0.26,0.09-0.52,0.14-0.79,0.2c-0.45,0.1,0.61-0.04,0.11-0.02c-0.12,0-0.23,0.02-0.35,0.02
				c-0.14,0-0.28,0-0.42,0c-0.1,0-0.62-0.07-0.15,0c0.47,0.07-0.03-0.01-0.13-0.04c-0.14-0.03-0.28-0.07-0.42-0.11
				c-2.79-0.78-6.62-1.67-8.72,1.03c-0.43,0.55-0.73,1.04-0.73,1.77c0,0.61,0.27,1.35,0.73,1.77
				C492.61,278.05,494.39,278.34,495.25,277.23L495.25,277.23z"/>
		</g>
	</g>
	<g>
		<g>
			<path class="st0" d="M497.33,288.6c0.01-0.18,0.03-0.36,0.05-0.54c0.04-0.45-0.11,0.66,0.01-0.03c0.06-0.37,0.15-0.73,0.27-1.08
				c0.22-0.63-0.21,0.34,0-0.02c0.07-0.11,0.13-0.22,0.19-0.33c0.21-0.37-0.42,0.51,0,0.03c0.27-0.31-0.54,0.37-0.01,0.03
				c0.23-0.11,0.15-0.08-0.25,0.1c0.1-0.03,0.19-0.06,0.29-0.07c-0.39,0.05-0.45,0.06-0.17,0.06c-0.39-0.07-0.45-0.07-0.18-0.02
				c0.08,0.02,0.16,0.04,0.24,0.07c0.18,0.06,0.11,0.03-0.21-0.09c0.09-0.04,0.51,0.3,0.6,0.35c0.22,0.16,0.19,0.13-0.08-0.08
				c0.09,0.07,0.18,0.15,0.27,0.23c0.17,0.15,0.34,0.3,0.5,0.46c0.29,0.28,0.58,0.56,0.89,0.82c1.74,1.47,4.19,2.52,6.32,1.12
				c2-1.32,3.01-4.39,0.98-6.2c-0.98-0.87-2.59-1.03-3.54,0c-0.87,0.95-1.04,2.61,0,3.54c0.19,0.18,0.13,0.09-0.17-0.26
				c0.12,0.22,0.08,0.12-0.13-0.31c-0.05-0.5-0.06-0.62-0.05-0.36c0.08-0.49,0.1-0.6,0.04-0.35c-0.13,0.39,0.33-0.53,0.08-0.18
				c-0.37,0.51,0.33-0.34,0.03-0.04c-0.19,0.17-0.11,0.12,0.23-0.16c-0.07,0.05-0.13,0.09-0.2,0.13c0.13-0.05,0.25-0.1,0.38-0.15
				c-0.07,0.03-0.15,0.05-0.23,0.07c0.47-0.05,0.57-0.06,0.31-0.05c-0.28-0.02-0.21-0.01,0.2,0.04c0-0.01-0.4-0.14-0.44-0.13
				c0.36,0.16,0.42,0.18,0.18,0.06c-0.09-0.05-0.18-0.1-0.27-0.16c-0.09-0.06-0.18-0.12-0.26-0.18c0.29,0.23,0.34,0.26,0.13,0.1
				c-0.29-0.24-0.56-0.5-0.84-0.76c-0.71-0.68-1.46-1.37-2.34-1.81c-1.18-0.6-2.47-0.87-3.78-0.53c-1.02,0.26-1.88,0.9-2.52,1.72
				c-1.11,1.43-1.42,3.22-1.55,4.98c-0.1,1.31,1.22,2.56,2.5,2.5C496.27,291.04,497.23,290,497.33,288.6L497.33,288.6z"/>
		</g>
	</g>
</g>
<g>
	<g>
		<g>
			<path class="st0" d="M432.26,333.08c1.34,12.76,3.15,25.47,5.44,38.1c0.28,1.54,2.41,2.34,3.67,1.49
				c4.66-3.13,10.68-1.19,15.78-0.45c2.95,0.43,6.19,0.88,9.13,0.11c1.54-0.4,2.99-1.3,3.82-2.7c0.87-1.47,0.95-3.21,1.1-4.87
				c0.63-7.11,0.6-14.28-0.06-21.39c-0.33-3.48-0.64-7.11-1.45-10.52c-0.36-1.53-1.19-2.97-2.62-3.72
				c-1.51-0.78-3.23-0.59-4.87-0.52c-8.24,0.34-16.47,0.69-24.71,1.03c-3.21,0.13-3.22,5.13,0,5c6.59-0.28,13.18-0.55,19.77-0.83
				c1.65-0.07,3.29-0.14,4.94-0.21c0.71-0.03,1.5,0.02,2.21-0.08c0.65-0.09,0.24-0.04,0.4,0.05c-0.35-0.19-0.11-0.16-0.08,0.08
				c0.16,1.35,0.54,2.73,0.74,4.09c0.24,1.63,0.44,3.26,0.6,4.89c0.65,6.46,0.76,12.97,0.34,19.45c-0.09,1.37-0.12,2.8-0.36,4.15
				c-0.18,1.05-0.65,1.24-1.68,1.38c-2.59,0.35-5.34-0.13-7.9-0.55c-5.88-0.97-12.31-2.28-17.62,1.27c1.22,0.5,2.45,1,3.67,1.49
				c-2.21-12.19-3.96-24.45-5.26-36.77c-0.14-1.34-1.05-2.5-2.5-2.5C433.51,330.58,432.11,331.73,432.26,333.08L432.26,333.08z"/>
		</g>
	</g>
	<g>
		<g>
			<path class="st0" d="M447.57,348.43c0.27-0.41-0.41,0.44,0,0.02c0.39-0.4-0.43,0.21-0.04,0.03c0.06-0.03,0.11-0.07,0.17-0.09
				c0.17-0.09,0.07-0.05-0.3,0.12c0.12-0.01,0.26-0.09,0.38-0.12c0.66-0.16-0.43,0,0.02-0.02c0.15-0.01,0.29-0.02,0.43-0.02
				c0.3,0,0.6,0.01,0.9,0.04c0.1,0.01,0.2,0.02,0.31,0.03c-0.41-0.06-0.47-0.07-0.2-0.03c0.15,0.03,0.31,0.05,0.46,0.08
				c0.3,0.05,0.61,0.11,0.91,0.17c0.79,0.15,1.58,0.32,2.39,0.29c1.6-0.05,3.2-0.51,4.47-1.5c1.46-1.13,2.24-2.99,1.63-4.81
				c-0.41-1.24-1.74-2.18-3.08-1.75c-1.23,0.4-2.19,1.75-1.75,3.08c0.04,0.11,0.05,0.25,0.1,0.36c-0.05-0.47-0.07-0.58-0.06-0.33
				c-0.01,0.18-0.01,0.15,0.02-0.12c0.08-0.68-0.18,0.39,0.05-0.22c0.21-0.56-0.26,0.26,0.1-0.18c0.31-0.38-0.04,0.01-0.11,0.08
				c-0.29,0.3,0.52-0.32,0.13-0.1c-0.11,0.06-0.21,0.13-0.33,0.19c-0.22,0.12-0.51,0.1,0.12-0.03c-0.26,0.06-0.52,0.18-0.78,0.25
				c-0.12,0.03-0.3,0.04-0.41,0.08c0.49-0.19,0.43-0.05,0.11-0.02c-0.28,0.02-0.55,0.01-0.82,0c-0.49-0.01,0.58,0.12,0.14,0.02
				c-0.17-0.04-0.34-0.07-0.51-0.1c-1.37-0.27-2.82-0.59-4.22-0.46c-1.9,0.16-3.49,0.91-4.56,2.54c-0.72,1.1-0.25,2.81,0.9,3.42
				C445.39,349.98,446.8,349.6,447.57,348.43L447.57,348.43z"/>
		</g>
	</g>
	<g>
		<g>
			<path class="st0" d="M450.27,360.16c0-0.35,0.01-0.7,0.03-1.05c0.02-0.24,0.19-0.77-0.01,0c0.05-0.17,0.06-0.35,0.1-0.52
				c0.04-0.17,0.09-0.33,0.14-0.49c0.12-0.41-0.31,0.59-0.01,0.03c0.04-0.07,0.08-0.14,0.12-0.21c0.14-0.21,0.08-0.14-0.18,0.22
				c0.05-0.06,0.1-0.12,0.16-0.17c0.19-0.17,0.11-0.11-0.24,0.17c0.06-0.05,0.13-0.09,0.2-0.12c0.23-0.11,0.14-0.08-0.26,0.1
				c0.11-0.04,0.21-0.06,0.32-0.08c-0.39,0.05-0.45,0.06-0.17,0.06c-0.75-0.06-0.05,0.02,0.15,0.07c0.25,0.09,0.21,0.08-0.12-0.06
				c0.11,0.05,0.21,0.1,0.31,0.16c0.21,0.12,0.4,0.25,0.6,0.38c0.22,0.16,0.19,0.14-0.09-0.07c0.09,0.07,0.17,0.14,0.26,0.21
				c0.45,0.36,0.9,0.73,1.36,1.07c1.95,1.43,4.59,1.84,6.49,0.11c0.83-0.76,1.37-1.86,1.43-2.99c0.07-1.39-0.61-2.4-1.68-3.21
				c-0.48-0.36-1.37-0.4-1.93-0.25c-0.58,0.16-1.21,0.61-1.49,1.15c-0.31,0.58-0.46,1.28-0.25,1.93c0.21,0.66,0.6,1.08,1.15,1.49
				c-0.26-0.14-0.46-0.34-0.61-0.6c0.12,0.22,0.08,0.11-0.13-0.33c0.06,0.25,0.04,0.12-0.05-0.38c-0.01,0.26,0.01,0.13,0.06-0.36
				c-0.22,0.52,0.23-0.33,0.09-0.14c-0.02,0.05-0.05,0.1-0.08,0.15c-0.14,0.21-0.07,0.13,0.19-0.23c-0.05,0.06-0.1,0.11-0.16,0.17
				c-0.19,0.17-0.11,0.11,0.24-0.18c-0.58,0.22,0.51-0.12,0.09-0.01c-0.42,0.11,0.75-0.03,0.17-0.03c-0.28-0.02-0.21,0,0.19,0.04
				c-0.1-0.02-0.21-0.05-0.31-0.08c-0.25-0.09-0.2-0.06,0.15,0.08c-0.1-0.05-0.19-0.09-0.29-0.15c-0.14-0.08-0.29-0.17-0.42-0.26
				c-0.09-0.06-0.18-0.13-0.27-0.19c-0.22-0.16-0.18-0.13,0.1,0.09c-0.18-0.09-0.36-0.29-0.52-0.42c-0.92-0.75-1.81-1.39-2.93-1.82
				c-2.21-0.86-4.61,0.01-5.87,1.97c-0.88,1.37-1.06,3.17-1.05,4.76c0.01,1.31,1.15,2.56,2.5,2.5
				C449.12,362.6,450.27,361.56,450.27,360.16L450.27,360.16z"/>
		</g>
	</g>
</g>
<g>
	<g>
		<g>
			<path class="st0" d="M489.09,347.53c-1.17,12.56-1.86,25.15-2.09,37.76c-0.03,1.47,1.65,3.04,3.16,2.41
				c5.32-2.21,10.9,0.89,15.89,2.67c2.68,0.96,5.69,1.97,8.57,1.83c1.63-0.08,3.2-0.61,4.35-1.8c1.17-1.21,1.62-2.91,2.08-4.47
				c2.02-6.89,3.38-13.96,4.16-21.09c0.37-3.44,0.8-7.04,0.66-10.51c-0.06-1.47-0.42-2.92-1.47-4.01c-1.29-1.33-3.16-1.49-4.87-1.76
				c-8.14-1.27-16.29-2.55-24.43-3.82c-1.33-0.21-2.69,0.34-3.08,1.75c-0.33,1.19,0.4,2.87,1.75,3.08
				c6.68,1.05,13.36,2.09,20.03,3.14c1.55,0.24,3.09,0.48,4.64,0.73c0.55,0.09,2.13,0.11,2.41,0.55c0.22,0.34,0,1.66-0.01,2.02
				c-0.03,0.8-0.06,1.6-0.1,2.4c-0.09,1.6-0.2,3.19-0.35,4.78c-0.61,6.46-1.8,12.86-3.5,19.13c-0.36,1.33-0.66,2.77-1.19,4.04
				c-0.42,0.99-1.18,0.93-2.17,0.84c-2.49-0.22-4.96-1.17-7.28-2.04c-5.51-2.06-11.58-4.69-17.42-2.26c1.05,0.8,2.11,1.61,3.16,2.41
				c0.23-12.61,0.92-25.2,2.09-37.76c0.12-1.35-1.24-2.5-2.5-2.5C490.14,345.03,489.22,346.18,489.09,347.53L489.09,347.53z"/>
		</g>
	</g>
	<g>
		<g>
			<path class="st0" d="M501.05,365.19c0.44-0.44,0.03,0.02-0.02-0.02c0.08-0.05,0.17-0.1,0.26-0.15c-0.35,0.14-0.43,0.17-0.25,0.11
				c0.07,0,0.65-0.13,0.18-0.07c-0.45,0.07,0.11,0.01,0.21,0.01c0.08,0,0.16,0,0.24,0.01c0.27,0.03,0.22,0.02-0.18-0.03
				c0,0.01,0.48,0.09,0.5,0.1c0.34,0.08,0.68,0.18,1.01,0.29c0.67,0.23,1.31,0.5,1.97,0.77c0.71,0.29,1.43,0.42,2.19,0.5
				c1.42,0.14,2.93-0.11,4.18-0.8c1.43-0.79,2.49-2.42,2.28-4.1c-0.16-1.29-1.03-2.57-2.5-2.5c-1.21,0.05-2.67,1.11-2.5,2.5
				c0.02,0.12,0.01,0.25,0.02,0.37c0.04,0.43,0.11-0.62,0.02-0.22c-0.09,0.42,0.26-0.59,0.08-0.21c-0.17,0.35,0.42-0.47,0.12-0.17
				c-0.28,0.28,0.54-0.31,0.16-0.11c-0.09,0.04-0.17,0.1-0.25,0.15c-0.43,0.27,0.38-0.11,0.15-0.06c-0.1,0.03-0.2,0.07-0.31,0.1
				c-0.13,0.03-0.26,0.06-0.39,0.09c-0.48,0.11,0.62-0.03,0.12-0.02c-0.28,0.01-0.56,0.03-0.84,0.01c-0.24-0.01-0.56-0.17,0.11,0.03
				c-0.11-0.03-0.23-0.04-0.34-0.06c-0.26-0.06-0.52-0.13-0.77-0.23c-1.24-0.47-2.44-1.05-3.77-1.26c-1.92-0.3-3.8-0.01-5.23,1.43
				c-0.92,0.93-1,2.62,0,3.54C498.51,366.11,500.06,366.19,501.05,365.19L501.05,365.19z"/>
		</g>
	</g>
	<g>
		<g>
			<path class="st0" d="M501.46,377.3c0.07-0.37,0.15-0.74,0.26-1.1c0.05-0.18,0.11-0.37,0.18-0.55c0.03-0.09,0.07-0.18,0.1-0.27
				c-0.16,0.38-0.19,0.45-0.08,0.21c0.07-0.12,0.13-0.24,0.2-0.36c0.05-0.08,0.1-0.15,0.15-0.23c-0.26,0.33-0.31,0.39-0.15,0.2
				c0.06-0.06,0.12-0.13,0.18-0.18c0.19-0.17,0.12-0.12-0.21,0.15c0.07-0.05,0.14-0.09,0.21-0.13c0.23-0.11,0.15-0.08-0.25,0.1
				c0.08-0.03,0.17-0.05,0.25-0.07c-0.4,0.04-0.49,0.06-0.29,0.05c0.65,0.07-0.47-0.11,0.03,0.01c0.25,0.09,0.2,0.06-0.16-0.08
				c0.1,0.05,0.19,0.1,0.28,0.16c0.09,0.06,0.18,0.12,0.27,0.18c-0.28-0.22-0.32-0.25-0.11-0.08c0.59,0.58,1.1,1.22,1.65,1.84
				c1.58,1.77,3.92,2.86,6.2,1.77c1.05-0.51,1.81-1.43,2.22-2.51c0.5-1.32,0.09-2.67-0.81-3.7c-0.87-0.99-2.66-0.95-3.54,0
				c-0.96,1.05-0.92,2.48,0,3.54c-0.37-0.42-0.44-0.64-0.44-1.05c0.09-0.48,0.1-0.59,0.04-0.33c-0.06,0.17-0.05,0.15,0.04-0.08
				c0.1-0.22,0.11-0.25,0.01-0.09c0.28-0.33,0.33-0.41,0.16-0.21c-0.44,0.39,0.2-0.12,0.06-0.03c-0.47,0.31,0.5-0.14,0.07-0.02
				c-0.26,0.06-0.16,0.04,0.29-0.03c-0.25-0.01-0.17,0.01,0.26,0.05c-0.05-0.01-0.1-0.02-0.15-0.04c-0.25-0.08-0.2-0.05,0.17,0.09
				c-0.01-0.02-0.53-0.31-0.53-0.31c0.07-0.04,0.47,0.4,0.02,0c-0.16-0.14-0.31-0.3-0.45-0.45c-0.25-0.28-0.49-0.57-0.73-0.86
				c-0.6-0.73-1.27-1.37-2.06-1.9c-1.92-1.27-4.41-1.06-6.08,0.51c-1.22,1.15-1.81,2.89-2.12,4.49c-0.25,1.28,0.36,2.76,1.75,3.08
				C499.62,379.32,501.19,378.67,501.46,377.3L501.46,377.3z"/>
		</g>
	</g>
</g>
</svg>
