<?xml version="1.0" standalone="no"?>
<!DOCTYPE svg PUBLIC "-//W3C//DTD SVG 1.1//EN" "http://www.w3.org/Graphics/SVG/1.1/DTD/svg11.dtd" >
<svg xmlns="http://www.w3.org/2000/svg">
<metadata>
Created by FontPrep 20130207 at Fri Oct 17 11:27:36 2014
 By Jacques Mourier
Copyright (c) 2012 by Dino dos Santos. All rights reserved.
</metadata>
<defs>
<font id="e6eba3bc9d70a64ccff4ceff2e5b9f76" horiz-adv-x='1024' >
  <font-face 
    font-family="SolidoCondensed-Medium"
    font-weight="500"
    font-stretch="normal"
    units-per-em="2048"
    panose-1="0 0 6 0 0 0 0 0 0 0"
    ascent="1536"
    descent="-512"
    x-height="1024"
    cap-height="1434"
    bbox="-340 -647 1812 1870"
    underline-thickness="102"
    underline-position="-102"
    unicode-range="U+0020-FB02"
  />
<missing-glyph horiz-adv-x="706" 
d="M123 600v-174q1 -113 65 -174q64 -62 166 -62t166 62t64 174v174q0 113 -64 174q-64 62 -166 62t-166 -62t-65 -174zM604 600v-174q0 -143 -96 -211l61 -123h-20l-57 113q-56 -35 -136 -35t-141 35l-55 -113h-21l60 123q-96 68 -97 211v174q0 143 97 211l-60 121h21
l53 -113q61 37 141 37t140 -37l55 113h20l-59 -121q94 -70 94 -211z" />
    <glyph glyph-name="fi" unicode="fi" horiz-adv-x="872" 
d="M596 0v1024h184v-1024h-184zM348 1475h432v-314h-184v162h-190q-96 0 -97 -100v-199h170v-139h-170v-885h-184v885h-92v139h92v221q0 125 57 177t166 53z" />
    <glyph glyph-name="fl" unicode="fl" horiz-adv-x="878" 
d="M348 1475h432v-1475h-184v1323h-190q-96 0 -97 -100v-199h170v-139h-170v-885h-184v885h-92v139h92v221q0 125 57 177t166 53z" />
    <glyph glyph-name="f_f" unicode="ff" horiz-adv-x="974" 
d="M877 1339q-96 0 -97 -102v-213h170v-139h-170v-885h-184v885h-287v-885h-184v885h-92v139h92v236q0 127 57 179q56 52 148 52t166 -16l-11 -146q-45 10 -79 10q-96 0 -97 -102v-213h287v236q0 127 57 179t149 52t167 -16l-13 -146q-45 10 -79 10z" />
    <glyph glyph-name="f_f_i" unicode="ffi" horiz-adv-x="1345" 
d="M1069 1024h184v-1024h-184v1024zM1253 1475v-314h-184v162h-192q-96 0 -97 -100v-199h170v-139h-170v-885h-184v885h-287v-885h-184v885h-92v139h92v236q0 127 57 179q56 52 148 52t166 -16l-11 -146q-45 10 -79 10q-96 0 -97 -102v-213h287v221q0 125 57 177t166 53h434
z" />
    <glyph glyph-name="f_f_l" unicode="ffl" horiz-adv-x="1351" 
d="M1253 1475v-1475h-184v1323h-192q-96 0 -97 -100v-199h170v-139h-170v-885h-184v885h-287v-885h-184v885h-92v139h92v236q0 127 57 179q56 52 148 52t166 -16l-11 -146q-45 10 -79 10q-96 0 -97 -102v-213h287v221q0 125 57 177t166 53h434z" />
    <glyph glyph-name=".notdef" horiz-adv-x="706" 
d="M123 600v-174q1 -113 65 -174q64 -62 166 -62t166 62t64 174v174q0 113 -64 174q-64 62 -166 62t-166 -62t-65 -174zM604 600v-174q0 -143 -96 -211l61 -123h-20l-57 113q-56 -35 -136 -35t-141 35l-55 -113h-21l60 123q-96 68 -97 211v174q0 143 97 211l-60 121h21
l53 -113q61 37 141 37t140 -37l55 113h20l-59 -121q94 -70 94 -211z" />
    <glyph glyph-name=".null" horiz-adv-x="0" 
 />
    <glyph glyph-name="nonmarkingreturn" horiz-adv-x="681" 
 />
    <glyph glyph-name="space" unicode=" " horiz-adv-x="327" 
 />
    <glyph glyph-name="exclam" unicode="!" horiz-adv-x="415" 
d="M303 215v-215h-190v215h190zM113 1434h190v-615l-33 -440h-125l-32 440v615z" />
    <glyph glyph-name="quotedbl" unicode="&#x22;" horiz-adv-x="722" 
d="M471 1434h166v-215l-33 -281h-100l-33 281v215zM86 1434h164v-215l-33 -281h-98l-33 281v215z" />
    <glyph glyph-name="numbersign" unicode="#" horiz-adv-x="1021" 
d="M655 567v322h-286v-322h286zM952 889h-198v-322h198v-98h-198v-469h-99v469h-286v-469h-99v469h-200v98h200v322h-200v98h200v447h99v-447h286v447h99v-447h198v-98z" />
    <glyph glyph-name="dollar" unicode="$" horiz-adv-x="884" 
d="M276 1151v-111q0 -127 190 -228q79 -42 157 -90t133 -130t55 -195v-104q0 -131 -87 -213t-232 -94v-191h-99v191q-145 12 -231 97t-86 220v209h184v-209q0 -74 51 -116t131 -42t129 38t50 104v100q0 126 -190 229q-79 42 -157 92t-133 134t-55 196v113q0 127 82 206
t225 91v190h99v-190q143 -14 226 -98t83 -220v-208h-185v208q0 72 -48 115t-125 43t-122 -38t-45 -99z" />
    <glyph glyph-name="percent" unicode="%" horiz-adv-x="1349" 
d="M946 678v-496q0 -40 29 -66t76 -26t75 26t29 66v496q0 40 -29 66q-30 26 -76 26t-75 -26t-29 -66zM1272 678v-496q0 -88 -60 -140t-161 -52q-100 0 -161 52q-60 52 -61 140v496q1 88 61 140t160 52t162 -52q60 -52 60 -140zM195 1262v-494q1 -43 29 -68q28 -24 74 -24
t76 24t29 68v494q1 44 -29 68t-76 24t-74 -24t-29 -68zM965 1434h98l-676 -1434h-98zM520 1262v-494q0 -88 -60 -140t-160 -52t-162 52q-60 52 -60 140v494q0 88 60 140t160 52t162 -52q60 -52 60 -140z" />
    <glyph glyph-name="ampersand" unicode="&#x26;" horiz-adv-x="1044" 
d="M262 461v-158q0 -76 50 -117t129 -41t129 36t53 100l-291 344q-70 -68 -70 -164zM985 616h-178v-272l178 -209v-135h-125l-102 121q-92 -137 -316 -137q-166 0 -265 87t-99 232v158q0 176 151 287q-131 168 -131 327v76q0 139 96 219t259 80q164 0 257 -86t93 -234v-208
h-180v208q0 72 -46 115t-124 43t-123 -38t-45 -99v-72q0 -111 104 -248l234 -272v215h362v-158z" />
    <glyph glyph-name="quotesingle" unicode="'" horiz-adv-x="335" 
d="M86 1434h164v-215l-33 -281h-98l-33 281v215z" />
    <glyph glyph-name="parenleft" unicode="(" horiz-adv-x="536" 
d="M518 1741q-278 -487 -278 -1024t278 -1024h-119q-160 221 -248 488q-179 538 0 1071q89 267 248 489h119z" />
    <glyph glyph-name="parenright" unicode=")" horiz-adv-x="536" 
d="M475 717q0 -269 -88 -535t-248 -489h-121q279 487 279 1024t-279 1024h121q160 -223 248 -489t88 -535z" />
    <glyph glyph-name="asterisk" unicode="*" horiz-adv-x="612" 
d="M252 1452h108l-14 -174l146 98l53 -92l-160 -76l160 -75l-53 -93l-146 101l14 -176h-108l14 176l-143 -101l-55 93l159 75l-159 76l55 92l143 -98z" />
    <glyph glyph-name="plus" unicode="+" horiz-adv-x="700" 
d="M633 797v-146h-211v-209h-143v209h-211v146h211v209h143v-209h211z" />
    <glyph glyph-name="comma" unicode="," horiz-adv-x="348" 
d="M256 215v-215l-96 -279h-131l63 279v215h164z" />
    <glyph glyph-name="hyphen" unicode="-" horiz-adv-x="679" 
d="M84 440v144h512v-144h-512z" />
    <glyph glyph-name="period" unicode="." horiz-adv-x="348" 
d="M256 215v-215h-164v215h164z" />
    <glyph glyph-name="slash" unicode="/" horiz-adv-x="868" 
d="M723 1434h98l-676 -1434h-98z" />
    <glyph glyph-name="zero" unicode="0" horiz-adv-x="927" 
d="M287 1130v-827q0 -72 49 -115t128 -43t128 43t49 115v827q0 72 -49 115t-128 43t-128 -43t-49 -115zM831 1130v-827q0 -145 -101 -232t-266 -87t-266 87t-102 232v827q0 144 102 232t266 88q165 0 266 -88t101 -232z" />
    <glyph glyph-name="one" unicode="1" horiz-adv-x="702" 
d="M461 158h209v-158h-609v158h209v1118h-209v158h400v-1276z" />
    <glyph glyph-name="two" unicode="2" horiz-adv-x="886" 
d="M813 1130v-112q0 -113 -56 -208t-136 -161t-160 -124q-191 -139 -193 -267v-100h545v-158h-735v254q0 113 56 208t136 162t160 126q191 141 193 270v110q1 72 -49 115t-129 43t-126 -43t-47 -115v-190h-184v190q0 144 96 232t261 88t267 -87q101 -88 101 -233z" />
    <glyph glyph-name="three" unicode="3" horiz-adv-x="892" 
d="M793 1149v-158q0 -166 -140 -239q158 -78 158 -246v-215q0 -143 -100 -225q-101 -82 -267 -82t-267 87t-101 232v191h190v-191q0 -72 49 -115t128 -43t128 42t50 114v211q1 70 -49 113t-130 43h-82v161h82q78 0 123 42t45 110v156q0 71 -45 111t-123 40t-125 -43
t-47 -115v-190h-184v190q0 144 97 232t260 88t257 -81t93 -220z" />
    <glyph glyph-name="four" unicode="4" horiz-adv-x="933" 
d="M541 530v574l-312 -574h312zM895 530v-159h-164v-371h-190v371h-508v159l508 906v-2h190v-904h164z" />
    <glyph glyph-name="five" unicode="5" horiz-adv-x="880" 
d="M287 913h159q166 0 268 -85t101 -230v-295q0 -145 -101 -232q-100 -87 -266 -87t-264 87t-98 232v191h184v-191q0 -72 49 -115t128 -43t128 43t50 115v295q1 72 -49 113t-130 41h-344v682h668v-158h-483v-363z" />
    <glyph glyph-name="six" unicode="6" horiz-adv-x="911" 
d="M641 303v209q0 72 -49 114t-127 42h-178v-365q0 -72 49 -115t128 -43t128 43t49 115zM287 829h178q164 0 265 -86t101 -231v-209q0 -145 -101 -232t-266 -87t-266 87t-102 232v827q0 144 102 232t265 88q164 0 261 -87t97 -233v-190h-184v190q0 72 -47 115t-126 43
t-128 -43t-49 -115v-301z" />
    <glyph glyph-name="seven" unicode="7" horiz-adv-x="776" 
d="M35 1434h706v-158q-168 -256 -262 -584t-94 -692h-197q0 336 97 684q96 348 264 592h-514v158z" />
    <glyph glyph-name="eight" unicode="8" horiz-adv-x="897" 
d="M627 301v182q0 70 -49 113t-128 43t-128 -43t-50 -113v-182q0 -72 50 -114t128 -42q79 0 128 42t49 114zM283 1135v-183q0 -68 45 -110t122 -41q78 0 122 42t44 109v183q0 73 -45 113t-121 40t-122 -40q-45 -40 -45 -113zM799 1149v-186q0 -166 -142 -242
q160 -74 160 -244v-186q0 -143 -100 -225t-267 -82t-268 82q-100 82 -100 225v186q0 172 162 246q-143 80 -144 240v186q0 141 92 221t257 80q164 0 257 -81t93 -220z" />
    <glyph glyph-name="nine" unicode="9" horiz-adv-x="911" 
d="M446 766h177v364q1 72 -49 115t-128 43t-127 -43t-49 -115v-208q0 -72 49 -114t127 -42zM78 922v208q0 144 101 232t267 88t266 -87t101 -233v-827q0 -145 -100 -232q-99 -87 -265 -87t-263 87t-97 232v191h184v-191q0 -72 48 -115t126 -43t127 43t50 115v301h-177
q-166 0 -267 86t-101 232z" />
    <glyph glyph-name="colon" unicode=":" horiz-adv-x="368" 
d="M266 352v-215h-164v215h164zM266 825v-215h-164v215h164z" />
    <glyph glyph-name="semicolon" unicode=";" horiz-adv-x="415" 
d="M299 215v-215l-98 -279h-131l63 279v215h166zM299 825v-215h-166v215h166z" />
    <glyph glyph-name="less" unicode="&#x3c;" horiz-adv-x="681" 
d="M580 469l-512 178v146l512 182v-152l-310 -100v-4l310 -98v-152z" />
    <glyph glyph-name="equal" unicode="=" horiz-adv-x="712" 
d="M100 502v145h512v-145h-512zM100 801v145h512v-145h-512z" />
    <glyph glyph-name="greater" unicode="&#x3e;" horiz-adv-x="681" 
d="M102 469v152l310 98v4l-310 100v152l512 -182v-146z" />
    <glyph glyph-name="question" unicode="?" horiz-adv-x="860" 
d="M326 215h190v-215h-190v215zM63 940v190q1 144 97 232t261 88t266 -87t101 -233v-253q0 -123 -74 -206t-202 -106l-23 -198h-145v352h76q80 0 129 43t49 115v253q0 72 -49 115t-128 43t-126 -43t-47 -115v-190h-185z" />
    <glyph glyph-name="at" unicode="@" horiz-adv-x="1064" 
d="M618 375v221q0 111 -81 111q-72 0 -72 -78v-287q0 -78 72 -78q81 0 81 111zM96 156v712q0 162 109 270t334 108t333 -108t109 -270v-692h-336l-27 55q-42 -63 -120 -63t-113 46t-35 116v311q0 70 35 116t117 46t125 -72l14 64h92v-525h129v598q0 123 -81 195t-243 72
t-242 -72q-81 -72 -81 -195v-712q0 -123 81 -195t243 -72v-110q-225 -1 -334 107t-109 270z" />
    <glyph glyph-name="A" unicode="A" horiz-adv-x="892" 
d="M319 530h250l-125 607zM678 0l-76 373h-315l-78 -373h-195l338 1444h193l332 -1444h-199z" />
    <glyph glyph-name="B" unicode="B" horiz-adv-x="921" 
d="M666 305v193q0 70 -44 108t-116 39h-205v-487h205q74 0 117 36t43 111zM475 1276h-174v-473h174q70 0 112 36t42 105v191q0 69 -42 105t-112 36zM821 1145v-184q0 -162 -145 -226q180 -66 180 -243v-193q0 -143 -93 -221t-257 -78h-395v1434h370q160 0 250 -73t90 -216z
" />
    <glyph glyph-name="C" unicode="C" horiz-adv-x="899" 
d="M641 512h184v-209q0 -145 -101 -232t-266 -87t-267 87q-101 87 -101 232v827q0 144 101 232t267 88t266 -87q101 -87 101 -233v-208h-184v208q0 72 -52 115t-131 43t-128 -43t-49 -115v-827q0 -76 48 -117t129 -41t132 42t51 116v209z" />
    <glyph glyph-name="D" unicode="D" horiz-adv-x="935" 
d="M655 315v803q0 72 -46 115t-122 43h-186v-1118h186q78 0 123 40t45 117zM111 1434h376q163 0 261 -85t98 -231v-803q0 -145 -97 -230t-262 -85h-376v1434z" />
    <glyph glyph-name="E" unicode="E" horiz-adv-x="804" 
d="M754 1276h-453v-473h371v-158h-371v-487h453v-158h-643v1434h643v-158z" />
    <glyph glyph-name="F" unicode="F" horiz-adv-x="790" 
d="M754 1276h-453v-520h371v-158h-371v-598h-190v1434h643v-158z" />
    <glyph glyph-name="G" unicode="G" horiz-adv-x="907" 
d="M825 922h-184v208q0 72 -52 115t-131 43t-128 -43t-49 -115v-827q0 -76 48 -117t129 -41t132 42t51 116v244h-180v158h364v-402q0 -145 -101 -232t-266 -87t-267 87q-101 87 -101 232v827q0 144 101 232t267 88t266 -87q101 -87 101 -233v-208z" />
    <glyph glyph-name="H" unicode="H" horiz-adv-x="966" 
d="M666 1434h190v-1434h-190v645h-365v-645h-190v1434h190v-631h365v631z" />
    <glyph glyph-name="I" unicode="I" horiz-adv-x="411" 
d="M111 1434h190v-1434h-190v1434z" />
    <glyph glyph-name="J" unicode="J" horiz-adv-x="518" 
d="M33 158q106 0 147 28t41 115v1133h191v-1153q0 -169 -94 -225t-285 -56v158z" />
    <glyph glyph-name="K" unicode="K" horiz-adv-x="888" 
d="M301 0h-190v1434h190v-658l377 658h215l-412 -697l422 -737h-221l-381 676v-676z" />
    <glyph glyph-name="L" unicode="L" horiz-adv-x="776" 
d="M303 158h442v-158h-632v1434h190v-1276z" />
    <glyph glyph-name="M" unicode="M" horiz-adv-x="1124" 
d="M1014 1434v-1434h-191v631q0 211 11 387l-195 -479h-164l-196 503q10 -252 10 -411v-631h-178v1434h200l258 -648l258 648h187z" />
    <glyph glyph-name="N" unicode="N" horiz-adv-x="987" 
d="M698 1434h179v-1434h-197l-401 1020q10 -236 10 -389v-631h-178v1434h204l394 -1016q-10 174 -11 385v631z" />
    <glyph glyph-name="O" unicode="O" horiz-adv-x="915" 
d="M635 1130q0 72 -49 115t-128 43t-128 -43t-49 -115v-827q0 -72 49 -115t128 -43t128 43t49 115v827zM90 1130q0 144 101 232t267 88t266 -87q101 -87 101 -233v-827q0 -145 -101 -232t-266 -87t-267 87q-101 87 -101 232v827z" />
    <glyph glyph-name="P" unicode="P" horiz-adv-x="880" 
d="M645 864v254q0 72 -46 115t-122 43h-176v-569h176q78 1 123 41t45 116zM111 1434h366q164 0 261 -85t98 -231v-254q0 -145 -98 -230t-261 -85h-176v-549h-190v1434z" />
    <glyph glyph-name="Q" unicode="Q" horiz-adv-x="915" 
d="M281 1130v-827q0 -72 49 -115t128 -43t128 43t49 115v827q0 72 -49 115t-128 43t-128 -43t-49 -115zM825 1130v-827q1 -121 -73 -204t-199 -107v-51q0 -80 41 -106t147 -25v-158q-195 0 -287 55t-92 213v72q-124 24 -198 106t-74 205v827q0 144 101 232t267 88t266 -88
q101 -88 101 -232z" />
    <glyph glyph-name="R" unicode="R" horiz-adv-x="921" 
d="M492 1276h-191v-496h191q154 0 153 148v200q-1 66 -39 107t-114 41zM444 621h-143v-621h-190v1434h395q160 0 245 -80t85 -219v-168q0 -207 -172 -267q120 -55 145 -233l51 -467h-190l-45 457q-11 96 -55 130t-126 34z" />
    <glyph glyph-name="S" unicode="S" horiz-adv-x="874" 
d="M805 293q1 -143 -101 -226t-269 -83t-266 87t-99 232v209h184v-209q0 -74 51 -116t131 -42t129 38t49 104v100q0 125 -188 229q-78 42 -157 92t-134 134t-55 196v113q0 139 96 219t260 80t261 -87t98 -233v-208h-185v208q0 72 -47 115t-125 43t-123 -38t-45 -99v-111
q0 -126 189 -228q79 -42 157 -90t134 -130t55 -195v-104z" />
    <glyph glyph-name="T" unicode="T" horiz-adv-x="745" 
d="M707 1434v-158h-238v-1276h-190v1276h-240v158h668z" />
    <glyph glyph-name="U" unicode="U" horiz-adv-x="948" 
d="M842 1434v-1131q0 -145 -102 -232t-266 -87q-165 0 -266 87t-102 232v1131h191v-1131q0 -76 48 -117t128 -41t129 41t49 117v1131h191z" />
    <glyph glyph-name="V" unicode="V" horiz-adv-x="892" 
d="M684 1434h195l-338 -1444h-191l-332 1444h197l234 -1129z" />
    <glyph glyph-name="W" unicode="W" horiz-adv-x="1351" 
d="M1143 1434h188l-280 -1444h-191l-184 1067l-184 -1067h-191l-281 1444h199l178 -1078l187 1078h194l185 -1078z" />
    <glyph glyph-name="X" unicode="X" horiz-adv-x="856" 
d="M858 0h-201l-229 555l-229 -555h-201l332 727l-322 707h201l219 -529l219 529h201l-322 -707z" />
    <glyph glyph-name="Y" unicode="Y" horiz-adv-x="874" 
d="M530 0h-190v535l-332 899h197l233 -689l236 689h194l-338 -899v-535z" />
    <glyph glyph-name="Z" unicode="Z" horiz-adv-x="782" 
d="M735 158v-158h-692v158l479 1118h-459v158h668v-158l-481 -1118h485z" />
    <glyph glyph-name="bracketleft" unicode="[" horiz-adv-x="565" 
d="M524 1616h-262v-1798h262v-125h-407v2048h407v-125z" />
    <glyph glyph-name="backslash" unicode="\" horiz-adv-x="868" 
d="M145 1434l676 -1434h-98l-676 1434h98z" />
    <glyph glyph-name="bracketright" unicode="]" horiz-adv-x="565" 
d="M41 1741h408v-2048h-408v125h262v1798h-262v125z" />
    <glyph glyph-name="asciicircum" unicode="^" horiz-adv-x="778" 
d="M147 594l166 287h150l168 -287h-150l-94 168l-92 -168h-148z" />
    <glyph glyph-name="underscore" unicode="_" horiz-adv-x="716" 
d="M102 -186v145h512v-145h-512z" />
    <glyph glyph-name="grave" unicode="`" horiz-adv-x="612" 
d="M317 1413l150 -287h-141l-179 287h170z" />
    <glyph glyph-name="a" unicode="a" horiz-adv-x="770" 
d="M498 344v154q-156 -2 -210 -39t-55 -109v-94q0 -53 30 -85t89 -32q146 0 146 205zM379 1040q303 0 303 -282v-758h-152l-20 119q-72 -135 -227 -135q-123 0 -179 72q-55 73 -55 173v93q1 68 17 116t62 91q92 88 370 92v127q0 133 -140 133q-102 0 -229 -70l-55 137
q147 92 305 92z" />
    <glyph glyph-name="b" unicode="b" horiz-adv-x="798" 
d="M276 330q0 -86 36 -138t100 -53q64 0 97 38q32 38 32 97v476q0 59 -32 97q-33 38 -97 38t-100 -52t-36 -139v-364zM92 0v1475h184v-549q74 114 204 114t188 -77q57 -78 57 -191v-520q0 -113 -57 -191q-56 -77 -192 -77t-214 127l-18 -111h-152z" />
    <glyph glyph-name="c" unicode="c" horiz-adv-x="686" 
d="M72 737q0 156 85 230q85 73 222 73t272 -45l-20 -151q-119 41 -203 41q-172 0 -172 -170v-406q0 -170 172 -170q84 0 203 41l20 -151q-153 -45 -281 -45t-213 74t-85 229v450z" />
    <glyph glyph-name="d" unicode="d" horiz-adv-x="798" 
d="M524 330v364q0 86 -36 138t-101 53q-65 0 -96 -38t-31 -97v-476q0 -59 31 -97t97 -38q66 1 100 53q36 52 36 138zM324 -16q-136 0 -192 78t-56 190v520q0 113 56 191q56 77 185 77t207 -114v549h185v-1475h-152l-20 111q-77 -127 -213 -127z" />
    <glyph glyph-name="e" unicode="e" horiz-adv-x="759" 
d="M520 598v160q0 63 -34 98t-98 35t-98 -37t-34 -100v-156h264zM256 463v-164q0 -86 45 -123t151 -37t226 41l22 -151q-158 -45 -304 -45t-234 74q-90 74 -90 229v461q0 143 83 218q83 74 230 74t227 -72t80 -216v-289h-436z" />
    <glyph glyph-name="f" unicode="f" horiz-adv-x="501" 
d="M309 1024h170v-139h-170v-885h-184v885h-92v139h92v236q0 127 57 179q56 52 148 52t166 -16l-11 -146q-45 10 -79 10q-96 0 -97 -102v-213z" />
    <glyph glyph-name="g" unicode="g" horiz-adv-x="798" 
d="M522 694q0 86 -36 138t-100 53q-64 0 -96 -38t-32 -97v-445q0 -59 32 -97t96 -38t100 52t36 138v334zM707 1024v-1139q1 -163 -91 -239t-241 -76t-285 45l23 152q106 -41 233 -41q176 0 176 161v242q-74 -113 -204 -113t-187 77t-57 190v489q0 113 57 191q57 77 192 77
t214 -127l18 111h152z" />
    <glyph glyph-name="h" unicode="h" horiz-adv-x="813" 
d="M725 0h-184v750q0 59 -32 97q-33 38 -97 38t-100 -52t-36 -139v-694h-184v1475h184v-549q74 114 204 114t188 -77q57 -78 57 -191v-772z" />
    <glyph glyph-name="i" unicode="i" horiz-adv-x="368" 
d="M276 1024v-1024h-184v1024h184zM276 1427v-266h-184v266h184z" />
    <glyph glyph-name="j" unicode="j" horiz-adv-x="368" 
d="M92 1024h184v-1225q0 -125 -57 -177t-147 -52t-166 14l12 148q41 -10 78 -11q96 0 96 101v1202zM276 1427v-266h-184v266h184z" />
    <glyph glyph-name="k" unicode="k" horiz-adv-x="817" 
d="M276 0h-184v1475h184v-910l330 459h211l-364 -492l374 -532h-217l-334 479v-479z" />
    <glyph glyph-name="l" unicode="l" horiz-adv-x="380" 
d="M283 1475v-1475h-185v1475h185z" />
    <glyph glyph-name="m" unicode="m" horiz-adv-x="1261" 
d="M494 1040q154 0 208 -141q41 76 106 109t124 32q127 0 184 -78t58 -190v-772h-185v750q0 59 -32 97q-33 38 -97 38t-100 -52t-35 -139v-694h-184v750q0 59 -32 97q-33 38 -97 38t-100 -52t-36 -139v-694h-184v1024h152l18 -111q78 127 232 127z" />
    <glyph glyph-name="n" unicode="n" horiz-adv-x="813" 
d="M725 0h-184v750q0 59 -32 97q-33 38 -97 38t-100 -52t-36 -139v-694h-184v1024h152l18 -111q78 127 213 127t193 -77q57 -78 57 -191v-772z" />
    <glyph glyph-name="o" unicode="o" horiz-adv-x="776" 
d="M256 754v-484q0 -63 34 -100t98 -37t98 37t34 100v484q0 63 -34 100t-98 37t-98 -37t-34 -100zM705 748v-472q0 -143 -84 -218q-84 -74 -234 -74q-151 0 -233 74t-82 218v472q0 143 83 218q83 74 233 74t233 -74q84 -74 84 -218z" />
    <glyph glyph-name="p" unicode="p" horiz-adv-x="798" 
d="M276 694v-364q0 -86 36 -138t100 -53q64 0 97 38q32 38 32 97v476q0 59 -32 97q-33 38 -97 38q-64 -1 -100 -53t-36 -138zM475 1040q135 0 193 -77q57 -78 57 -191v-520q0 -113 -57 -191q-58 -77 -188 -77t-204 114v-508h-184v1434h152l18 -111q78 127 213 127z" />
    <glyph glyph-name="q" unicode="q" horiz-adv-x="798" 
d="M524 694q0 86 -36 138t-101 53q-65 0 -96 -38t-31 -97v-476q0 -59 31 -97t97 -38t100 52q36 52 36 139v364zM709 1024v-1434h-185v508q-78 -114 -207 -114t-185 78t-56 190v520q0 113 56 191q56 77 191 77t214 -127l20 111h152z" />
    <glyph glyph-name="r" unicode="r" horiz-adv-x="524" 
d="M489 846q-213 0 -213 -184v-662h-184v1024h152l18 -150q29 86 95 126q67 40 132 40v-194z" />
    <glyph glyph-name="s" unicode="s" horiz-adv-x="718" 
d="M483 283q0 92 -150 155q-63 27 -125 59t-107 95q-44 63 -44 156v36q0 117 82 187q81 69 223 69t281 -45l-27 -151q-121 47 -209 47q-159 0 -159 -109v-28q0 -97 151 -157q63 -27 125 -57t108 -94q44 -64 44 -155v-39q0 -125 -90 -197q-90 -71 -246 -71t-293 53l33 149
q133 -53 258 -53q145 0 145 121v29z" />
    <glyph glyph-name="t" unicode="t" horiz-adv-x="514" 
d="M309 885v-647q0 -102 97 -103q37 0 77 10l13 -145q-74 -16 -166 -16t-149 52q-56 52 -56 179v670h-94v139h94v205h184v-205h172v-139h-172z" />
    <glyph glyph-name="u" unicode="u" horiz-adv-x="813" 
d="M88 1024h184v-750q0 -59 32 -97t96 -38t101 52q36 52 36 139v694h184v-1024h-152l-18 111q-78 -127 -213 -127t-193 77q-57 78 -57 191v772z" />
    <glyph glyph-name="v" unicode="v" horiz-adv-x="743" 
d="M551 1024h178l-268 -1034h-180l-267 1034h185l176 -795z" />
    <glyph glyph-name="w" unicode="w" horiz-adv-x="1124" 
d="M924 1024h182l-217 -1034h-197l-131 768l-131 -768h-192l-220 1034h183l135 -786l133 786h182l137 -786z" />
    <glyph glyph-name="x" unicode="x" horiz-adv-x="724" 
d="M721 1024l-268 -512l268 -512h-180l-174 346l-177 -346h-184l264 512l-264 512h184l177 -346l174 346h180z" />
    <glyph glyph-name="y" unicode="y" horiz-adv-x="739" 
d="M127 -430q-51 0 -129 14l12 150q49 -14 111 -14q61 0 91 26q30 27 50 96l39 148h-22l-267 1034h187l180 -793l170 793h178l-297 -1157q-49 -177 -115 -237t-188 -60z" />
    <glyph glyph-name="z" unicode="z" horiz-adv-x="671" 
d="M631 139v-139h-590v139l385 746h-367v139h557v-139l-385 -746h400z" />
    <glyph glyph-name="braceleft" unicode="{" horiz-adv-x="522" 
d="M477 -182v-125q-82 0 -133 9t-97 38q-91 57 -89 246l20 430q0 63 -2 92q-6 87 -59 118q-31 17 -82 25v131q103 16 126 79q13 36 15 65t2 92l-20 430q0 190 89 246q46 29 97 38t133 9v-125q-82 0 -128 -36t-46 -153l21 -466q0 -113 -38 -165t-126 -77v-4q88 -25 126 -77
t38 -165l-21 -467q0 -82 28 -126q29 -44 61 -53t85 -9z" />
    <glyph glyph-name="bar" unicode="|" horiz-adv-x="333" 
d="M215 1741v-2048h-98v2048h98z" />
    <glyph glyph-name="braceright" unicode="}" horiz-adv-x="522" 
d="M47 1616v125q82 0 132 -9t96 -38q90 -57 90 -246l-21 -430q0 -63 2 -92q6 -89 60 -118q31 -17 81 -26v-131q-51 -8 -81 -25q-53 -30 -60 -118q-2 -29 -2 -92l21 -430q0 -189 -90 -246q-46 -29 -96 -38t-132 -9v125q73 0 109 22q63 39 63 166l-20 467q-1 113 37 165
t126 77v4q-88 25 -126 77t-37 165l20 466q0 117 -46 153t-126 36z" />
    <glyph glyph-name="asciitilde" unicode="~" horiz-adv-x="696" 
d="M510 831h106q0 -205 -145 -204q-49 0 -122 38t-99 37q-61 0 -62 -75h-106q0 205 145 204q49 -1 122 -39t100 -38q61 -1 61 77z" />
    <glyph glyph-name="exclamdown" unicode="&#xa1;" horiz-adv-x="393" 
d="M291 -410h-191v273l33 782h125l33 -782v-273zM102 809v215h191v-215h-191z" />
    <glyph glyph-name="cent" unicode="&#xa2;" horiz-adv-x="735" 
d="M449 -205h-99v191q-266 27 -266 301v450q0 274 266 301v191h99v-191q106 -4 217 -43l-23 -151q-119 41 -201 41q-174 0 -174 -170v-406q0 -170 174 -170q82 0 201 41l23 -151q-121 -37 -217 -43v-191z" />
    <glyph glyph-name="sterling" unicode="&#xa3;" horiz-adv-x="962" 
d="M352 158h531v-158h-803v158h82v379h-84v157h84v457q0 139 95 219t260 80t262 -87t98 -233v-208h-185v208q0 72 -48 115t-125 43t-122 -38t-45 -99v-457h221v-157h-221v-379z" />
    <glyph glyph-name="currency" unicode="&#xa4;" horiz-adv-x="991" 
d="M901 922h-184v208q0 72 -52 115t-131 43t-128 -43t-50 -115v-215h164v-118h-164v-150h164v-119h-164v-225q0 -76 50 -117t129 -41q80 0 131 42t51 116v209h184v-209q0 -145 -100 -232t-266 -87t-268 87q-101 87 -101 232v225h-100v119h100v150h-100v118h100v215
q0 144 101 232t267 88t267 -87q100 -87 100 -233v-208z" />
    <glyph glyph-name="yen" unicode="&#xa5;" horiz-adv-x="958" 
d="M764 588v-144h-193v-444h-190v444h-195v144h174l-311 846h199l231 -689l236 689h194l-317 -846h172z" />
    <glyph glyph-name="brokenbar" unicode="&#xa6;" horiz-adv-x="335" 
d="M217 614v-921h-98v921h98zM217 1741v-922h-98v922h98z" />
    <glyph glyph-name="section" unicode="&#xa7;" horiz-adv-x="913" 
d="M98 563v119h717v-399q0 -141 -96 -221t-261 -78q-165 0 -261 87t-97 232v160h185v-160q0 -74 47 -116t124 -42t122 37t45 101v280h-525zM289 877h526v-119h-717v393q0 139 96 219t261 80q164 0 261 -87t97 -233v-163h-184v163q0 72 -48 115t-125 43t-122 -38t-45 -99
v-274z" />
    <glyph glyph-name="dieresis" unicode="&#xa8;" horiz-adv-x="821" 
d="M676 1427v-266h-184v266h184zM330 1427v-266h-183v266h183z" />
    <glyph glyph-name="copyright" unicode="&#xa9;" horiz-adv-x="1568" 
d="M893 592h113v-125q0 -88 -60 -140q-60 -53 -162 -53q-100 0 -160 52t-61 141v494q1 88 61 140t160 52t160 -52t62 -140v-123h-113v123q0 43 -31 67t-78 25q-48 0 -76 -25t-28 -67v-494q0 -92 104 -92q47 -1 78 23t31 69v125zM121 716q0 -306 191 -496t472 -189
q281 0 472 189q192 190 192 496t-192 495t-472 189q-281 0 -472 -188q-191 -190 -191 -496zM68 716q0 312 205 525q206 213 511 213t511 -213t206 -525t-205 -524t-512 -212t-512 211q-204 213 -204 525z" />
    <glyph glyph-name="ordfeminine" unicode="&#xaa;" horiz-adv-x="581" 
d="M94 647v92h383v-92h-383zM362 1036v92q-90 -2 -122 -24t-33 -64v-55q0 -68 72 -67q83 -1 83 118zM293 1454q184 0 184 -170v-453h-94l-12 70q-43 -80 -127 -80t-118 44q-32 44 -32 104v53q0 86 54 132t214 48v76q0 78 -81 78q-64 0 -138 -41l-34 84q86 55 184 55z" />
    <glyph glyph-name="guillemotleft" unicode="&#xab;" horiz-adv-x="1048" 
d="M963 63l-449 375v146l449 377v-160l-271 -289v-4l271 -285v-160zM502 63l-451 375v146l451 377v-160l-273 -289v-4l273 -285v-160z" />
    <glyph glyph-name="logicalnot" unicode="&#xac;" horiz-adv-x="790" 
d="M92 797h598v-310h-192v164h-406v146z" />
    <glyph glyph-name="softhyphen" unicode="&#xad;" horiz-adv-x="679" 
d="M596 584v-144h-512v144h512z" />
    <glyph glyph-name="registered" unicode="&#xae;" horiz-adv-x="1568" 
d="M698 1049v-295h113q90 0 90 86v121q0 88 -90 88h-113zM1018 965v-101q0 -125 -103 -159q74 -29 89 -140l30 -280h-119l-26 274q-8 57 -33 77t-72 21h-86v-372h-116v860h237q99 0 149 -48t50 -132zM784 31q281 0 472 189q192 190 192 496t-192 495t-472 189
q-281 0 -472 -188q-191 -190 -191 -496t191 -496t472 -189zM784 1454q305 0 511 -213t206 -525t-205 -524t-512 -212t-512 212q-204 212 -204 524t205 525q206 213 511 213z" />
    <glyph glyph-name="macron" unicode="&#xaf;" horiz-adv-x="817" 
d="M147 1161v125h525v-125h-525z" />
    <glyph glyph-name="degree" unicode="&#xb0;" horiz-adv-x="501" 
d="M250 1368q-44 0 -72 -28t-28 -74q0 -45 28 -75t73 -30q44 0 73 30q28 30 28 74q0 43 -28 73t-74 30zM63 1265q1 79 55 134t133 55t133 -55t54 -134t-55 -133t-133 -54t-132 54t-55 133z" />
    <glyph glyph-name="plusminus" unicode="&#xb1;" horiz-adv-x="712" 
d="M86 395v146h539v-146h-539zM428 946h197v-145h-197v-197h-145v197h-197v145h197v197h145v-197z" />
    <glyph glyph-name="twosuperior" unicode="&#xb2;" horiz-adv-x="544" 
d="M496 1511v-67q0 -127 -116 -221q-48 -39 -96 -74q-116 -85 -116 -160v-57h328v-98h-445v155q0 82 51 152q52 71 112 109q164 104 163 196v65q0 41 -29 67t-75 26q-47 0 -75 -26t-28 -67v-114h-113v114q1 89 59 141t157 52t161 -52t62 -141z" />
    <glyph glyph-name="threesuperior" unicode="&#xb3;" horiz-adv-x="548" 
d="M483 1524v-99q0 -98 -84 -143q94 -43 95 -143v-131q0 -86 -60 -134t-162 -49q-100 1 -161 53t-62 138v114h119v-114q0 -41 29 -67q29 -25 75 -25t75 24q30 24 30 66v127q0 41 -30 67t-75 25h-49v98h49q45 0 72 25t27 63v97q0 88 -99 88q-46 0 -74 -26t-28 -67v-114h-115
v114q1 89 59 141t157 52t155 -48t57 -132z" />
    <glyph glyph-name="acute" unicode="&#xb4;" horiz-adv-x="612" 
d="M295 1413h172l-178 -287h-142z" />
    <glyph glyph-name="paragraph" unicode="&#xb6;" horiz-adv-x="1030" 
d="M811 1309v-1184h154v-125h-299v1434h299v-125h-154zM102 315v803q0 144 96 230t261 86h121v-1434h-121q-165 0 -261 85t-96 230z" />
    <glyph glyph-name="periodcentered" unicode="&#xb7;" horiz-adv-x="354" 
d="M258 641v-215h-164v215h164z" />
    <glyph glyph-name="cedilla" unicode="&#xb8;" horiz-adv-x="665" 
d="M338 -78h12q178 0 178 -158v-30q0 -82 -54 -129t-154 -47t-181 32l23 91q68 -29 141 -29q90 0 90 82v14q0 41 -19 59t-73 19h-57v186h94v-90z" />
    <glyph glyph-name="onesuperior" unicode="&#xb9;" horiz-adv-x="428" 
d="M285 932h125v-98h-369v98h125v665h-125v97h244v-762z" />
    <glyph glyph-name="ordmasculine" unicode="&#xba;" horiz-adv-x="589" 
d="M102 647v92h383v-92h-383zM217 1282v-289q0 -80 78 -80t78 80v289q0 80 -78 80t-78 -80zM485 1278v-281q0 -86 -50 -131t-140 -45t-141 45t-52 131v281q0 86 52 131t141 45q90 0 140 -45t50 -131z" />
    <glyph glyph-name="guillemotright" unicode="&#xbb;" horiz-adv-x="1048" 
d="M547 63v160l272 285v4l-272 289v160l448 -377v-146zM86 63v160l270 285v4l-270 289v160l449 -377v-146z" />
    <glyph glyph-name="onequarter" unicode="&#xbc;" horiz-adv-x="1232" 
d="M993 319v336l-182 -336h182zM1208 221h-98v-221h-117v221h-303v98l303 541h117v-541h98v-98zM967 1434l-676 -1434h-98l675 1434h99zM41 573v99h125v665h-125v97h244v-762h125v-99h-369z" />
    <glyph glyph-name="onehalf" unicode="&#xbd;" horiz-adv-x="1265" 
d="M1217 678v-68q1 -82 -51 -152t-112 -107q-60 -38 -112 -90t-51 -105v-58h326v-98h-445v156q0 127 116 221q48 39 96 75q116 87 116 160v66q0 40 -30 66t-75 26t-73 -26t-29 -66v-115h-115v115q0 88 58 140t158 52q99 0 161 -52t62 -140zM967 1434l-676 -1434h-98
l675 1434h99zM41 573v99h125v665h-125v97h244v-762h125v-99h-369z" />
    <glyph glyph-name="threequarters" unicode="&#xbe;" horiz-adv-x="1349" 
d="M1110 319v336l-182 -336h182zM1325 221h-98v-221h-117v221h-303v98l303 541h117v-541h98v-98zM1083 1434l-675 -1434h-99l676 1434h98zM494 879v-131q0 -86 -60 -134t-162 -49q-100 0 -161 52t-62 139v114h119v-114q0 -41 29 -67q29 -25 75 -25t75 24q30 24 30 66v127
q0 41 -30 67t-75 25h-49v98h49q45 0 72 25t27 63v96q0 88 -99 88q-46 1 -74 -25t-28 -67v-114h-115v114q1 89 59 141t157 52t155 -48t57 -132v-99q0 -98 -84 -143q95 -43 95 -143z" />
    <glyph glyph-name="questiondown" unicode="&#xbf;" horiz-adv-x="849" 
d="M795 84v-190q1 -144 -97 -232t-262 -88t-265 87t-101 233v253q0 123 74 206q75 83 202 106l23 198h145v-352h-76q-80 0 -129 -43t-49 -115v-253q0 -72 49 -115t128 -43t126 43t47 115v190h185zM532 809h-190v215h190v-215z" />
    <glyph glyph-name="Agrave" unicode="&#xc0;" horiz-adv-x="892" 
d="M444 1137l-125 -607h250zM287 373l-78 -373h-195l338 1444h193l332 -1444h-199l-76 373h-315zM369 1823l149 -287h-141l-178 287h170z" />
    <glyph glyph-name="Aacute" unicode="&#xc1;" horiz-adv-x="892" 
d="M444 1137l-125 -607h250zM287 373l-78 -373h-195l338 1444h193l332 -1444h-199l-76 373h-315zM522 1823h172l-178 -287h-141z" />
    <glyph glyph-name="Acircumflex" unicode="&#xc2;" horiz-adv-x="892" 
d="M444 1137l-125 -607h250zM287 373l-78 -373h-195l338 1444h193l332 -1444h-199l-76 373h-315zM205 1536l166 287h149l168 -287h-149l-95 168l-92 -168h-147z" />
    <glyph glyph-name="Atilde" unicode="&#xc3;" horiz-adv-x="892" 
d="M444 1137l-125 -607h250zM287 373l-78 -373h-195l338 1444h193l332 -1444h-199l-76 373h-315zM606 1749h107q0 -205 -146 -205q-49 0 -122 38t-99 38q-61 0 -61 -76h-107q0 205 146 205q50 0 122 -39t99 -39q61 0 61 78z" />
    <glyph glyph-name="Adieresis" unicode="&#xc4;" horiz-adv-x="892" 
d="M444 1137l-125 -607h250zM287 373l-78 -373h-195l338 1444h193l332 -1444h-199l-76 373h-315zM526 1837h185v-266h-185v266zM182 1837h183v-266h-183v266z" />
    <glyph glyph-name="Aring" unicode="&#xc5;" horiz-adv-x="892" 
d="M444 1137l-125 -607h250zM287 373l-78 -373h-195l338 1444h193l332 -1444h-199l-76 373h-315zM446 1790q-94 0 -94 -95t94 -96t94 95t-94 96zM446 1522q-211 0 -210 174q0 174 210 174t211 -174q0 -174 -211 -174z" />
    <glyph glyph-name="AE" unicode="&#xc6;" horiz-adv-x="1267" 
d="M573 530v656l-206 -656h206zM1217 1276h-453v-473h373v-158h-373v-487h453v-158h-644v373h-256l-118 -373h-195l461 1434h752v-158z" />
    <glyph glyph-name="Ccedilla" unicode="&#xc7;" horiz-adv-x="899" 
d="M641 922v208q0 72 -52 115t-131 43t-128 -43t-49 -115v-827q0 -76 48 -117t129 -41t132 42t51 116v209h184v-209q0 -133 -87 -218t-232 -99v-76h12q178 0 178 -158v-31q0 -82 -54 -129t-154 -47t-181 33l23 90q68 -29 141 -28q90 0 90 81v15q0 41 -19 59t-73 19h-57v172
q-145 12 -234 98q-88 86 -88 219v827q0 144 101 232t267 88t266 -87q101 -87 101 -233v-208h-184z" />
    <glyph glyph-name="Egrave" unicode="&#xc8;" horiz-adv-x="804" 
d="M301 803h371v-158h-371v-487h453v-158h-643v1434h643v-158h-453v-473zM346 1823l150 -287h-142l-178 287h170z" />
    <glyph glyph-name="Eacute" unicode="&#xc9;" horiz-adv-x="804" 
d="M301 803h371v-158h-371v-487h453v-158h-643v1434h643v-158h-453v-473zM500 1823h172l-178 -287h-142z" />
    <glyph glyph-name="Ecircumflex" unicode="&#xca;" horiz-adv-x="804" 
d="M301 803h371v-158h-371v-487h453v-158h-643v1434h643v-158h-453v-473zM182 1536l166 287h150l168 -287h-150l-94 168l-92 -168h-148z" />
    <glyph glyph-name="Edieresis" unicode="&#xcb;" horiz-adv-x="804" 
d="M301 803h371v-158h-371v-487h453v-158h-643v1434h643v-158h-453v-473zM504 1837h184v-266h-184v266zM160 1837h182v-266h-182v266z" />
    <glyph glyph-name="Igrave" unicode="&#xcc;" horiz-adv-x="411" 
d="M301 0h-190v1434h190v-1434zM129 1823l150 -287h-142l-178 287h170z" />
    <glyph glyph-name="Iacute" unicode="&#xcd;" horiz-adv-x="411" 
d="M301 0h-190v1434h190v-1434zM283 1823h172l-179 -287h-141z" />
    <glyph glyph-name="Icircumflex" unicode="&#xce;" horiz-adv-x="411" 
d="M301 0h-190v1434h190v-1434zM-35 1536l166 287h150l168 -287h-150l-94 168l-92 -168h-148z" />
    <glyph glyph-name="Idieresis" unicode="&#xcf;" horiz-adv-x="411" 
d="M301 0h-190v1434h190v-1434zM287 1837h184v-266h-184v266zM-57 1837h182v-266h-182v266z" />
    <glyph glyph-name="Eth" unicode="&#xd0;" horiz-adv-x="948" 
d="M668 315v803q0 72 -46 115t-120 43h-189v-473h144v-158h-144v-487h189q76 0 121 40t45 117zM123 1434h379q164 0 260 -85t96 -231v-803q0 -145 -96 -230t-260 -85h-379v645h-113v158h113v631z" />
    <glyph glyph-name="Ntilde" unicode="&#xd1;" horiz-adv-x="987" 
d="M877 0h-197l-401 1020q10 -236 10 -389v-631h-178v1434h204l394 -1016q-10 174 -11 385v631h179v-1434zM655 1749h107q0 -205 -146 -205q-50 0 -122 38t-99 38q-61 0 -61 -76h-107q0 205 146 205q49 0 122 -39t99 -39q61 0 61 78z" />
    <glyph glyph-name="Ograve" unicode="&#xd2;" horiz-adv-x="915" 
d="M635 1130q0 72 -49 115t-128 43t-128 -43t-49 -115v-827q0 -72 49 -115t128 -43t128 43t49 115v827zM90 1130q0 144 101 232t267 88t266 -87q101 -87 101 -233v-827q0 -145 -101 -232t-266 -87t-267 87q-101 87 -101 232v827zM381 1823l149 -287h-141l-178 287h170z" />
    <glyph glyph-name="Oacute" unicode="&#xd3;" horiz-adv-x="915" 
d="M635 1130q0 72 -49 115t-128 43t-128 -43t-49 -115v-827q0 -72 49 -115t128 -43t128 43t49 115v827zM90 1130q0 144 101 232t267 88t266 -87q101 -87 101 -233v-827q0 -145 -101 -232t-266 -87t-267 87q-101 87 -101 232v827zM535 1823h172l-179 -287h-141z" />
    <glyph glyph-name="Ocircumflex" unicode="&#xd4;" horiz-adv-x="915" 
d="M635 1130q0 72 -49 115t-128 43t-128 -43t-49 -115v-827q0 -72 49 -115t128 -43t128 43t49 115v827zM90 1130q0 144 101 232t267 88t266 -87q101 -87 101 -233v-827q0 -145 -101 -232t-266 -87t-267 87q-101 87 -101 232v827zM217 1536l166 287h149l168 -287h-149
l-94 168l-92 -168h-148z" />
    <glyph glyph-name="Otilde" unicode="&#xd5;" horiz-adv-x="915" 
d="M635 1130q0 72 -49 115t-128 43t-128 -43t-49 -115v-827q0 -72 49 -115t128 -43t128 43t49 115v827zM90 1130q0 144 101 232t267 88t266 -87q101 -87 101 -233v-827q0 -145 -101 -232t-266 -87t-267 87q-101 87 -101 232v827zM618 1749h107q0 -205 -145 -205
q-49 0 -122 38t-100 38q-61 0 -61 -76h-107q0 205 146 205q49 0 122 -39t99 -39q61 0 61 78z" />
    <glyph glyph-name="Odieresis" unicode="&#xd6;" horiz-adv-x="915" 
d="M635 1130q0 72 -49 115t-128 43t-128 -43t-49 -115v-827q0 -72 49 -115t128 -43t128 43t49 115v827zM90 1130q0 144 101 232t267 88t266 -87q101 -87 101 -233v-827q0 -145 -101 -232t-266 -87t-267 87q-101 87 -101 232v827zM539 1837h184v-266h-184v266zM195 1837h182
v-266h-182v266z" />
    <glyph glyph-name="multiply" unicode="&#xd7;" horiz-adv-x="712" 
d="M172 438l-102 103l469 469l104 -103z" />
    <glyph glyph-name="Oslash" unicode="&#xd8;" horiz-adv-x="915" 
d="M635 303v719l-334 -797q41 -80 156 -80q80 0 129 43t49 115zM281 1130v-733l337 805q-43 86 -161 86q-78 0 -127 -43t-49 -115zM825 1130v-827q0 -145 -101 -232q-102 -87 -252 -87t-247 61l-37 -86h-92l62 145q-68 84 -68 199v827q0 144 101 232t255 88t250 -66l37 91
h92l-63 -152q63 -80 63 -193z" />
    <glyph glyph-name="Ugrave" unicode="&#xd9;" horiz-adv-x="948" 
d="M842 1434v-1131q0 -145 -102 -232t-266 -87q-165 0 -266 87t-102 232v1131h191v-1131q0 -76 48 -117t128 -41t129 41t49 117v1131h191zM397 1823l150 -287h-141l-179 287h170z" />
    <glyph glyph-name="Uacute" unicode="&#xda;" horiz-adv-x="948" 
d="M842 1434v-1131q0 -145 -102 -232t-266 -87q-165 0 -266 87t-102 232v1131h191v-1131q0 -76 48 -117t128 -41t129 41t49 117v1131h191zM551 1823h172l-178 -287h-142z" />
    <glyph glyph-name="Ucircumflex" unicode="&#xdb;" horiz-adv-x="948" 
d="M842 1434v-1131q0 -145 -102 -232t-266 -87q-165 0 -266 87t-102 232v1131h191v-1131q0 -76 48 -117t128 -41t129 41t49 117v1131h191zM233 1536l166 287h150l168 -287h-150l-94 168l-92 -168h-148z" />
    <glyph glyph-name="Udieresis" unicode="&#xdc;" horiz-adv-x="948" 
d="M842 1434v-1131q0 -145 -102 -232t-266 -87q-165 0 -266 87t-102 232v1131h191v-1131q0 -76 48 -117t128 -41t129 41t49 117v1131h191zM555 1837h184v-266h-184v266zM211 1837h182v-266h-182v266z" />
    <glyph glyph-name="Yacute" unicode="&#xdd;" horiz-adv-x="874" 
d="M530 0h-190v535l-332 899h197l233 -689l236 689h194l-338 -899v-535zM512 1823h172l-178 -287h-141z" />
    <glyph glyph-name="Thorn" unicode="&#xde;" horiz-adv-x="880" 
d="M645 598v254q0 72 -46 115t-122 43h-176v-570h176q78 0 123 41t45 117zM301 1167h176q164 0 261 -85t98 -230v-254q0 -145 -98 -231t-261 -86h-176v-281h-190v1434h190v-267z" />
    <glyph glyph-name="germandbls" unicode="&#xdf;" horiz-adv-x="880" 
d="M426 838q154 0 154 141v225q0 137 -136 137q-66 -1 -100 -37t-35 -100v-1204h-184v885h-92v139h92v174q0 143 85 218q86 75 236 75t234 -75t84 -218v-211q0 -152 -123 -213q180 -63 180 -250v-225q0 -143 -90 -221t-242 -78h-116v158h110q74 0 117 37t43 110v227
q0 70 -44 109t-116 39h-110v158h53z" />
    <glyph glyph-name="agrave" unicode="&#xe0;" horiz-adv-x="770" 
d="M498 344v154q-156 -2 -210 -39t-55 -109v-94q0 -53 30 -85t89 -32q146 0 146 205zM379 1040q303 0 303 -282v-758h-152l-20 119q-72 -135 -227 -135q-123 0 -179 72q-55 73 -55 173v93q1 68 17 116t62 91q92 88 370 92v127q0 133 -140 133q-102 0 -229 -70l-55 137
q147 92 305 92zM301 1413l150 -287h-142l-178 287h170z" />
    <glyph glyph-name="aacute" unicode="&#xe1;" horiz-adv-x="770" 
d="M498 344v154q-156 -2 -210 -39t-55 -109v-94q0 -53 30 -85t89 -32q146 0 146 205zM379 1040q303 0 303 -282v-758h-152l-20 119q-72 -135 -227 -135q-123 0 -179 72q-55 73 -55 173v93q1 68 17 116t62 91q92 88 370 92v127q0 133 -140 133q-102 0 -229 -70l-55 137
q147 92 305 92zM455 1413h172l-178 -287h-142z" />
    <glyph glyph-name="acircumflex" unicode="&#xe2;" horiz-adv-x="770" 
d="M498 344v154q-156 -2 -210 -39t-55 -109v-94q0 -53 30 -85t89 -32q146 0 146 205zM379 1040q303 0 303 -282v-758h-152l-20 119q-72 -135 -227 -135q-123 0 -179 72q-55 73 -55 173v93q1 68 17 116t62 91q92 88 370 92v127q0 133 -140 133q-102 0 -229 -70l-55 137
q147 92 305 92zM137 1126l166 287h150l168 -287h-150l-94 168l-92 -168h-148z" />
    <glyph glyph-name="atilde" unicode="&#xe3;" horiz-adv-x="770" 
d="M498 344v154q-156 -2 -210 -39t-55 -109v-94q0 -53 30 -85t89 -32q146 0 146 205zM379 1040q303 0 303 -282v-758h-152l-20 119q-72 -135 -227 -135q-123 0 -179 72q-55 73 -55 173v93q1 68 17 116t62 91q92 88 370 92v127q0 133 -140 133q-102 0 -229 -70l-55 137
q147 92 305 92zM541 1339h106q0 -205 -145 -204q-49 -1 -122 37t-99 38q-61 0 -62 -75h-106q0 205 145 204q49 0 122 -39t99 -38q62 -1 62 77z" />
    <glyph glyph-name="adieresis" unicode="&#xe4;" horiz-adv-x="770" 
d="M498 344v154q-156 -2 -210 -39t-55 -109v-94q0 -53 30 -85t89 -32q146 0 146 205zM379 1040q303 0 303 -282v-758h-152l-20 119q-72 -135 -227 -135q-123 0 -179 72q-55 73 -55 173v93q1 68 17 116t62 91q92 88 370 92v127q0 133 -140 133q-102 0 -229 -70l-55 137
q147 92 305 92zM459 1427h184v-266h-184v266zM115 1427h182v-266h-182v266z" />
    <glyph glyph-name="aring" unicode="&#xe5;" horiz-adv-x="770" 
d="M498 344v154q-156 -2 -210 -39t-55 -109v-94q0 -53 30 -85t89 -32q146 0 146 205zM379 1040q303 0 303 -282v-758h-152l-20 119q-72 -135 -227 -135q-123 0 -179 72q-55 73 -55 173v93q1 68 17 116t62 91q92 88 370 92v127q0 133 -140 133q-102 0 -229 -70l-55 137
q147 92 305 92zM379 1380q-94 0 -94 -95t94 -95t94 95t-94 95zM379 1112q-211 0 -211 174t211 174t211 -174t-211 -174z" />
    <glyph glyph-name="ae" unicode="&#xe6;" horiz-adv-x="1183" 
d="M498 344v145q-156 -3 -210 -39t-55 -108v-86q0 -53 30 -85t89 -32q146 0 146 205zM946 610v148q0 63 -34 98t-98 35t-98 -37t-34 -100v-144h264zM827 -16q-233 0 -303 157q-72 -158 -241 -157q-123 0 -179 72q-55 73 -55 173v82q0 68 17 117q60 185 432 182v138
q0 133 -140 133q-102 0 -229 -70l-55 137q146 92 296 92t226 -61q84 61 222 61t218 -72t80 -216v-263h-434v-190q0 -86 45 -123t151 -37t226 41l20 -151q-152 -45 -297 -45z" />
    <glyph glyph-name="ccedilla" unicode="&#xe7;" horiz-adv-x="686" 
d="M436 -90h13q178 0 178 -158v-31q-1 -82 -55 -129t-154 -47t-180 33l22 90q68 -29 141 -28q90 0 91 81v15q0 41 -20 59t-73 19h-57v172q-270 25 -270 301v450q0 156 85 230q85 73 222 73t272 -45l-20 -151q-119 41 -203 41q-172 0 -172 -170v-406q0 -170 172 -170
q84 0 203 41l20 -151q-121 -37 -215 -43v-76z" />
    <glyph glyph-name="egrave" unicode="&#xe8;" horiz-adv-x="759" 
d="M520 598v160q0 63 -34 98t-98 35t-98 -37t-34 -100v-156h264zM256 463v-164q0 -86 45 -123t151 -37t226 41l22 -151q-158 -45 -304 -45t-234 74q-90 74 -90 229v461q0 143 83 218q83 74 230 74t227 -72t80 -216v-289h-436zM311 1413l150 -287h-142l-178 287h170z" />
    <glyph glyph-name="eacute" unicode="&#xe9;" horiz-adv-x="759" 
d="M520 598v160q0 63 -34 98t-98 35t-98 -37t-34 -100v-156h264zM256 463v-164q0 -86 45 -123t151 -37t226 41l22 -151q-158 -45 -304 -45t-234 74q-90 74 -90 229v461q0 143 83 218q83 74 230 74t227 -72t80 -216v-289h-436zM465 1413h172l-178 -287h-142z" />
    <glyph glyph-name="ecircumflex" unicode="&#xea;" horiz-adv-x="759" 
d="M520 598v160q0 63 -34 98t-98 35t-98 -37t-34 -100v-156h264zM256 463v-164q0 -86 45 -123t151 -37t226 41l22 -151q-158 -45 -304 -45t-234 74q-90 74 -90 229v461q0 143 83 218q83 74 230 74t227 -72t80 -216v-289h-436zM147 1126l166 287h150l168 -287h-150l-94 168
l-92 -168h-148z" />
    <glyph glyph-name="edieresis" unicode="&#xeb;" horiz-adv-x="759" 
d="M520 598v160q0 63 -34 98t-98 35t-98 -37t-34 -100v-156h264zM256 463v-164q0 -86 45 -123t151 -37t226 41l22 -151q-158 -45 -304 -45t-234 74q-90 74 -90 229v461q0 143 83 218q83 74 230 74t227 -72t80 -216v-289h-436zM469 1427h184v-266h-184v266zM125 1427h182
v-266h-182v266z" />
    <glyph glyph-name="igrave" unicode="&#xec;" horiz-adv-x="368" 
d="M92 0v1024h184v-1024h-184zM106 1413l150 -287h-141l-178 287h169z" />
    <glyph glyph-name="iacute" unicode="&#xed;" horiz-adv-x="368" 
d="M92 0v1024h184v-1024h-184zM260 1413h172l-178 -287h-141z" />
    <glyph glyph-name="icircumflex" unicode="&#xee;" horiz-adv-x="368" 
d="M92 0v1024h184v-1024h-184zM-57 1126l166 287h149l168 -287h-150l-94 168l-92 -168h-147z" />
    <glyph glyph-name="idieresis" unicode="&#xef;" horiz-adv-x="368" 
d="M92 0v1024h184v-1024h-184zM264 1427h185v-266h-185v266zM-80 1427h182v-266h-182v266z" />
    <glyph glyph-name="eth" unicode="&#xf0;" horiz-adv-x="860" 
d="M236 512v-209q0 -72 49 -115t128 -43t128 43t49 115v365h-176q-80 0 -129 -42t-49 -114zM442 1638v-188q152 -10 245 -96t93 -224v-827q0 -145 -101 -232t-266 -87t-267 87q-101 87 -101 232v209q0 145 101 231t268 86h176v301q0 64 -40 106t-108 50v-201h-98v203h-235
v162h235v188h98z" />
    <glyph glyph-name="ntilde" unicode="&#xf1;" horiz-adv-x="813" 
d="M725 0h-184v750q0 59 -32 97q-33 38 -97 38t-100 -52t-36 -139v-694h-184v1024h152l18 -111q78 127 213 127t193 -77q57 -78 57 -191v-772zM571 1339h107q0 -205 -146 -204q-50 -1 -122 37t-99 38q-61 0 -61 -75h-107q0 205 146 204q49 0 122 -39t99 -38q61 -1 61 77z
" />
    <glyph glyph-name="ograve" unicode="&#xf2;" horiz-adv-x="776" 
d="M256 754v-484q0 -63 34 -100t98 -37t98 37t34 100v484q0 63 -34 100t-98 37t-98 -37t-34 -100zM705 748v-472q0 -143 -84 -218q-84 -74 -234 -74q-151 0 -233 74t-82 218v472q0 143 83 218q83 74 233 74t233 -74q84 -74 84 -218zM311 1413l150 -287h-142l-178 287h170z
" />
    <glyph glyph-name="oacute" unicode="&#xf3;" horiz-adv-x="776" 
d="M256 754v-484q0 -63 34 -100t98 -37t98 37t34 100v484q0 63 -34 100t-98 37t-98 -37t-34 -100zM705 748v-472q0 -143 -84 -218q-84 -74 -234 -74q-151 0 -233 74t-82 218v472q0 143 83 218q83 74 233 74t233 -74q84 -74 84 -218zM465 1413h172l-178 -287h-142z" />
    <glyph glyph-name="ocircumflex" unicode="&#xf4;" horiz-adv-x="776" 
d="M256 754v-484q0 -63 34 -100t98 -37t98 37t34 100v484q0 63 -34 100t-98 37t-98 -37t-34 -100zM705 748v-472q0 -143 -84 -218q-84 -74 -234 -74q-151 0 -233 74t-82 218v472q0 143 83 218q83 74 233 74t233 -74q84 -74 84 -218zM147 1126l166 287h150l168 -287h-150
l-94 168l-92 -168h-148z" />
    <glyph glyph-name="otilde" unicode="&#xf5;" horiz-adv-x="776" 
d="M256 754v-484q0 -63 34 -100t98 -37t98 37t34 100v484q0 63 -34 100t-98 37t-98 -37t-34 -100zM705 748v-472q0 -143 -84 -218q-84 -74 -234 -74q-151 0 -233 74t-82 218v472q0 143 83 218q83 74 233 74t233 -74q84 -74 84 -218zM549 1339h106q0 -205 -145 -204
q-49 -1 -122 37t-99 38q-61 0 -62 -75h-106q0 205 145 204q49 0 122 -39t99 -38q62 -1 62 77z" />
    <glyph glyph-name="odieresis" unicode="&#xf6;" horiz-adv-x="776" 
d="M256 754v-484q0 -63 34 -100t98 -37t98 37t34 100v484q0 63 -34 100t-98 37t-98 -37t-34 -100zM705 748v-472q0 -143 -84 -218q-84 -74 -234 -74q-151 0 -233 74t-82 218v472q0 143 83 218q83 74 233 74t233 -74q84 -74 84 -218zM469 1427h184v-266h-184v266zM125 1427
h182v-266h-182v266z" />
    <glyph glyph-name="divide" unicode="&#xf7;" horiz-adv-x="720" 
d="M440 561v-217h-164v217h164zM78 651v146h565v-146h-565zM440 1102v-215h-164v215h164z" />
    <glyph glyph-name="oslash" unicode="&#xf8;" horiz-adv-x="776" 
d="M520 270v414l-241 -500q35 -51 105 -51q136 0 136 137zM256 754v-414l242 500q-34 51 -104 51t-104 -37t-34 -100zM705 276q0 -143 -84 -218t-234 -74q-109 0 -184 41l-33 -66h-98l59 125q-59 72 -59 192v472q0 143 83 218q83 74 213 74t205 -41l33 66h99l-60 -125
q59 -72 60 -192v-472z" />
    <glyph glyph-name="ugrave" unicode="&#xf9;" horiz-adv-x="813" 
d="M88 1024h184v-750q0 -59 32 -97t96 -38t101 52q36 52 36 139v694h184v-1024h-152l-18 111q-78 -127 -213 -127t-193 77q-57 78 -57 191v772zM330 1413l149 -287h-141l-178 287h170z" />
    <glyph glyph-name="uacute" unicode="&#xfa;" horiz-adv-x="813" 
d="M88 1024h184v-750q0 -59 32 -97t96 -38t101 52q36 52 36 139v694h184v-1024h-152l-18 111q-78 -127 -213 -127t-193 77q-57 78 -57 191v772zM483 1413h172l-178 -287h-141z" />
    <glyph glyph-name="ucircumflex" unicode="&#xfb;" horiz-adv-x="813" 
d="M88 1024h184v-750q0 -59 32 -97t96 -38t101 52q36 52 36 139v694h184v-1024h-152l-18 111q-78 -127 -213 -127t-193 77q-57 78 -57 191v772zM166 1126l166 287h149l168 -287h-149l-94 168l-93 -168h-147z" />
    <glyph glyph-name="udieresis" unicode="&#xfc;" horiz-adv-x="813" 
d="M88 1024h184v-750q0 -59 32 -97t96 -38t101 52q36 52 36 139v694h184v-1024h-152l-18 111q-78 -127 -213 -127t-193 77q-57 78 -57 191v772zM487 1427h185v-266h-185v266zM143 1427h183v-266h-183v266z" />
    <glyph glyph-name="yacute" unicode="&#xfd;" horiz-adv-x="739" 
d="M127 -430q-51 0 -129 14l12 150q49 -14 111 -14q61 0 91 26q30 27 50 96l39 148h-22l-267 1034h187l180 -793l170 793h178l-297 -1157q-49 -177 -115 -237t-188 -60zM446 1413h172l-178 -287h-141z" />
    <glyph glyph-name="thorn" unicode="&#xfe;" horiz-adv-x="798" 
d="M276 694v-364q0 -86 36 -138t100 -53q64 0 97 38q32 38 32 97v476q0 59 -32 97q-33 38 -97 38q-64 -1 -100 -53t-36 -138zM276 1475v-549q74 114 204 114t188 -77q57 -78 57 -191v-520q0 -113 -57 -191q-58 -77 -188 -77t-204 114v-508h-184v1885h184z" />
    <glyph glyph-name="ydieresis" unicode="&#xff;" horiz-adv-x="739" 
d="M127 -430q-51 0 -129 14l12 150q49 -14 111 -14q61 0 91 26q30 27 50 96l39 148h-22l-267 1034h187l180 -793l170 793h178l-297 -1157q-49 -177 -115 -237t-188 -60zM451 1427h184v-266h-184v266zM106 1427h183v-266h-183v266z" />
    <glyph glyph-name="Amacron" unicode="&#x100;" horiz-adv-x="892" 
d="M444 1137l-125 -607h250zM287 373l-78 -373h-195l338 1444h193l332 -1444h-199l-76 373h-315zM184 1696h525v-125h-525v125z" />
    <glyph glyph-name="amacron" unicode="&#x101;" horiz-adv-x="770" 
d="M498 344v154q-156 -2 -210 -39t-55 -109v-94q0 -53 30 -85t89 -32q146 0 146 205zM379 1040q303 0 303 -282v-758h-152l-20 119q-72 -135 -227 -135q-123 0 -179 72q-55 73 -55 173v93q1 68 17 116t62 91q92 88 370 92v127q0 133 -140 133q-102 0 -229 -70l-55 137
q147 92 305 92zM117 1286h524v-125h-524v125z" />
    <glyph glyph-name="Abreve" unicode="&#x102;" horiz-adv-x="892" 
d="M444 1137l-125 -607h250zM287 373l-78 -373h-195l338 1444h193l332 -1444h-199l-76 373h-315zM313 1823q0 -68 34 -112t97 -44t99 44q35 44 35 112h98q0 -131 -62 -209t-170 -78q-109 0 -169 78t-60 209h98z" />
    <glyph glyph-name="abreve" unicode="&#x103;" horiz-adv-x="770" 
d="M498 344v154q-156 -2 -210 -39t-55 -109v-94q0 -53 30 -85t89 -32q146 0 146 205zM379 1040q303 0 303 -282v-758h-152l-20 119q-72 -135 -227 -135q-123 0 -179 72q-55 73 -55 173v93q1 68 17 116t62 91q92 88 370 92v127q0 133 -140 133q-102 0 -229 -70l-55 137
q147 92 305 92zM248 1413q0 -67 34 -111t97 -44t98 44t35 111h98q0 -131 -61 -209t-170 -78t-169 78t-60 209h98z" />
    <glyph glyph-name="Aogonek" unicode="&#x104;" horiz-adv-x="892" 
d="M569 530l-125 607l-125 -607h250zM580 -265q0 71 43 141t112 124h-57l-76 373h-315l-78 -373h-195l338 1444h193l332 -1444h-43q-45 -46 -77 -108t-32 -111q0 -88 86 -88q33 0 78 20l18 -75q-73 -50 -151 -50t-127 38t-49 109z" />
    <glyph glyph-name="aogonek" unicode="&#x105;" horiz-adv-x="770" 
d="M498 344v154q-156 -2 -210 -39t-55 -109v-94q0 -53 30 -85t89 -32q146 0 146 205zM406 -265q0 71 43 141t112 124h-31l-20 119q-72 -135 -227 -135q-123 0 -179 72q-55 73 -55 173v93q1 68 17 116t62 91q92 88 370 92v127q0 133 -140 133q-102 0 -229 -70l-55 137
q147 92 305 92q303 0 303 -282v-758h-23q-45 -46 -77 -108t-31 -111q0 -88 86 -88q33 0 78 20l18 -75q-73 -50 -151 -50t-127 38t-49 109z" />
    <glyph glyph-name="Cacute" unicode="&#x106;" horiz-adv-x="899" 
d="M641 512h184v-209q0 -145 -101 -232t-266 -87t-267 87q-101 87 -101 232v827q0 144 101 232t267 88t266 -87q101 -87 101 -233v-208h-184v208q0 72 -52 115t-131 43t-128 -43t-49 -115v-827q0 -76 48 -117t129 -41t132 42t51 116v209zM535 1819h172l-179 -287h-141z" />
    <glyph glyph-name="cacute" unicode="&#x107;" horiz-adv-x="686" 
d="M72 737q0 156 85 230q85 73 222 73t272 -45l-20 -151q-119 41 -203 41q-172 0 -172 -170v-406q0 -170 172 -170q84 0 203 41l20 -151q-153 -45 -281 -45t-213 74t-85 229v450zM461 1413h172l-178 -287h-142z" />
    <glyph glyph-name="Ccircumflex" unicode="&#x108;" horiz-adv-x="899" 
d="M641 512h184v-209q0 -145 -101 -232t-266 -87t-267 87q-101 87 -101 232v827q0 144 101 232t267 88t266 -87q101 -87 101 -233v-208h-184v208q0 72 -52 115t-131 43t-128 -43t-49 -115v-827q0 -76 48 -117t129 -41t132 42t51 116v209zM217 1532l166 287h149l168 -287
h-149l-94 168l-92 -168h-148z" />
    <glyph glyph-name="ccircumflex" unicode="&#x109;" horiz-adv-x="686" 
d="M72 737q0 156 85 230q85 73 222 73t272 -45l-20 -151q-119 41 -203 41q-172 0 -172 -170v-406q0 -170 172 -170q84 0 203 41l20 -151q-153 -45 -281 -45t-213 74t-85 229v450zM143 1126l166 287h150l168 -287h-150l-94 168l-92 -168h-148z" />
    <glyph glyph-name="Cdotaccent" unicode="&#x10a;" horiz-adv-x="899" 
d="M641 512h184v-209q0 -145 -101 -232t-266 -87t-267 87q-101 87 -101 232v827q0 144 101 232t267 88t266 -87q101 -87 101 -233v-208h-184v208q0 72 -52 115t-131 43t-128 -43t-49 -115v-827q0 -76 48 -117t129 -41t132 42t51 116v209zM367 1833h182v-266h-182v266z" />
    <glyph glyph-name="cdotaccent" unicode="&#x10b;" horiz-adv-x="686" 
d="M72 737q0 156 85 230q85 73 222 73t272 -45l-20 -151q-119 41 -203 41q-172 0 -172 -170v-406q0 -170 172 -170q84 0 203 41l20 -151q-153 -45 -281 -45t-213 74t-85 229v450zM293 1427h182v-266h-182v266z" />
    <glyph glyph-name="Ccaron" unicode="&#x10c;" horiz-adv-x="899" 
d="M641 512h184v-209q0 -145 -101 -232t-266 -87t-267 87q-101 87 -101 232v827q0 144 101 232t267 88t266 -87q101 -87 101 -233v-208h-184v208q0 72 -52 115t-131 43t-128 -43t-49 -115v-827q0 -76 48 -117t129 -41t132 42t51 116v209zM217 1819h148l92 -168l94 168h149
l-168 -287h-149z" />
    <glyph glyph-name="ccaron" unicode="&#x10d;" horiz-adv-x="686" 
d="M72 737q0 156 85 230q85 73 222 73t272 -45l-20 -151q-119 41 -203 41q-172 0 -172 -170v-406q0 -170 172 -170q84 0 203 41l20 -151q-153 -45 -281 -45t-213 74t-85 229v450zM143 1413h148l92 -168l94 168h150l-168 -287h-150z" />
    <glyph glyph-name="Dcaron" unicode="&#x10e;" horiz-adv-x="935" 
d="M655 315v803q0 72 -46 115t-122 43h-186v-1118h186q78 0 123 40t45 117zM111 1434h376q163 0 261 -85t98 -231v-803q0 -145 -97 -230t-262 -85h-376v1434zM223 1823h148l92 -168l94 168h150l-168 -287h-150z" />
    <glyph glyph-name="dcaron" unicode="&#x10f;" horiz-adv-x="991" 
d="M524 330v364q0 86 -36 138t-101 53q-65 0 -96 -38t-31 -97v-476q0 -59 31 -97t97 -38q66 1 100 53q36 52 36 138zM952 1038h-82l-63 234v203h145v-437zM324 -16q-136 0 -192 78t-56 190v520q0 113 56 191q56 77 185 77t207 -114v549h185v-1475h-152l-20 111
q-77 -127 -213 -127z" />
    <glyph glyph-name="Dcroat" unicode="&#x110;" horiz-adv-x="948" 
d="M668 315v803q0 72 -46 115t-120 43h-189v-473h144v-158h-144v-487h189q76 0 121 40t45 117zM123 1434h379q164 0 260 -85t96 -231v-803q0 -145 -96 -230t-260 -85h-379v645h-113v158h113v631z" />
    <glyph glyph-name="dcroat" unicode="&#x111;" horiz-adv-x="798" 
d="M524 330v364q0 86 -36 138t-101 53q-65 0 -96 -38t-31 -97v-476q0 -59 31 -97t97 -38q66 1 100 53q36 52 36 138zM823 1294v-125h-114v-1169h-152l-20 111q-77 -127 -213 -127t-192 78t-56 190v520q0 113 56 191q56 77 185 77t207 -114v243h-123v125h123v181h185v-181
h114z" />
    <glyph glyph-name="Emacron" unicode="&#x112;" horiz-adv-x="804" 
d="M301 803h371v-158h-371v-487h453v-158h-643v1434h643v-158h-453v-473zM162 1696h524v-125h-524v125z" />
    <glyph glyph-name="emacron" unicode="&#x113;" horiz-adv-x="759" 
d="M520 598v160q0 63 -34 98t-98 35t-98 -37t-34 -100v-156h264zM256 463v-164q0 -86 45 -123t151 -37t226 41l22 -151q-158 -45 -304 -45t-234 74q-90 74 -90 229v461q0 143 83 218q83 74 230 74t227 -72t80 -216v-289h-436zM127 1286h524v-125h-524v125z" />
    <glyph glyph-name="Ebreve" unicode="&#x114;" horiz-adv-x="804" 
d="M301 803h371v-158h-371v-487h453v-158h-643v1434h643v-158h-453v-473zM293 1823q0 -68 34 -112t97 -44t98 44t35 112h98q0 -131 -61 -209t-170 -78t-169 78t-60 209h98z" />
    <glyph glyph-name="ebreve" unicode="&#x115;" horiz-adv-x="759" 
d="M520 598v160q0 63 -34 98t-98 35t-98 -37t-34 -100v-156h264zM256 463v-164q0 -86 45 -123t151 -37t226 41l22 -151q-158 -45 -304 -45t-234 74q-90 74 -90 229v461q0 143 83 218q83 74 230 74t227 -72t80 -216v-289h-436zM256 1413q0 -67 34 -111t97 -44t98 44t35 111
h98q0 -131 -61 -209t-170 -78t-169 78t-60 209h98z" />
    <glyph glyph-name="Edotaccent" unicode="&#x116;" horiz-adv-x="804" 
d="M301 803h371v-158h-371v-487h453v-158h-643v1434h643v-158h-453v-473zM334 1837h182v-266h-182v266z" />
    <glyph glyph-name="edotaccent" unicode="&#x117;" horiz-adv-x="759" 
d="M520 598v160q0 63 -34 98t-98 35t-98 -37t-34 -100v-156h264zM256 463v-164q0 -86 45 -123t151 -37t226 41l22 -151q-158 -45 -304 -45t-234 74q-90 74 -90 229v461q0 143 83 218q83 74 230 74t227 -72t80 -216v-289h-436zM297 1427h182v-266h-182v266z" />
    <glyph glyph-name="Eogonek" unicode="&#x118;" horiz-adv-x="804" 
d="M502 -265q0 71 43 141t112 124h-546v1434h643v-158h-453v-473h371v-158h-371v-487h453v-158h2q-45 -46 -77 -108t-32 -111q0 -88 86 -88q33 0 78 20l18 -75q-73 -50 -151 -50t-127 38t-49 109z" />
    <glyph glyph-name="eogonek" unicode="&#x119;" horiz-adv-x="759" 
d="M256 598h264v160q0 63 -34 98t-98 35t-98 -37t-34 -100v-156zM623 -383q-79 0 -127 38t-50 107q0 123 119 236q-86 -14 -164 -14q-149 0 -239 74t-90 229v461q0 143 83 218q83 74 230 74t227 -72t80 -216v-289h-436v-164q0 -86 45 -123t151 -37t226 41l22 -151
q-44 -45 -76 -107t-32 -112q0 -88 86 -89q33 1 78 21l18 -76q-72 -49 -151 -49z" />
    <glyph glyph-name="Ecaron" unicode="&#x11a;" horiz-adv-x="804" 
d="M301 803h371v-158h-371v-487h453v-158h-643v1434h643v-158h-453v-473zM182 1823h148l92 -168l94 168h150l-168 -287h-150z" />
    <glyph glyph-name="ecaron" unicode="&#x11b;" horiz-adv-x="759" 
d="M520 598v160q0 63 -34 98t-98 35t-98 -37t-34 -100v-156h264zM256 463v-164q0 -86 45 -123t151 -37t226 41l22 -151q-158 -45 -304 -45t-234 74q-90 74 -90 229v461q0 143 83 218q83 74 230 74t227 -72t80 -216v-289h-436zM147 1413h148l92 -168l94 168h150l-168 -287
h-150z" />
    <glyph glyph-name="Gcircumflex" unicode="&#x11c;" horiz-adv-x="907" 
d="M641 922v208q0 72 -52 115t-131 43t-128 -43t-49 -115v-827q0 -76 48 -117t129 -41t132 42t51 116v244h-180v158h364v-402q0 -145 -101 -232t-266 -87t-267 87q-101 87 -101 232v827q0 144 101 232t267 88t266 -87q101 -87 101 -233v-208h-184zM215 1536l166 287h149
l168 -287h-149l-94 168l-93 -168h-147z" />
    <glyph glyph-name="gcircumflex" unicode="&#x11d;" horiz-adv-x="798" 
d="M522 694q0 86 -36 138t-100 53q-64 0 -96 -38t-32 -97v-445q0 -59 32 -97t96 -38t100 52t36 138v334zM707 1024v-1139q1 -163 -91 -239t-241 -76t-285 45l23 152q106 -41 233 -41q176 0 176 161v242q-74 -113 -204 -113t-187 77t-57 190v489q0 113 57 191q57 77 192 77
t214 -127l18 111h152zM139 1126l166 287h150l168 -287h-150l-94 168l-92 -168h-148z" />
    <glyph glyph-name="Gbreve" unicode="&#x11e;" horiz-adv-x="907" 
d="M641 922v208q0 72 -52 115t-131 43t-128 -43t-49 -115v-827q0 -76 48 -117t129 -41t132 42t51 116v244h-180v158h364v-402q0 -145 -101 -232t-266 -87t-267 87q-101 87 -101 232v827q0 144 101 232t267 88t266 -87q101 -87 101 -233v-208h-184zM326 1823q0 -68 34 -112
t96 -44q64 0 99 44t35 112h98q0 -131 -61 -209t-170 -78t-169 78t-61 209h99z" />
    <glyph glyph-name="gbreve" unicode="&#x11f;" horiz-adv-x="798" 
d="M522 694q0 86 -36 138t-100 53q-64 0 -96 -38t-32 -97v-445q0 -59 32 -97t96 -38t100 52t36 138v334zM707 1024v-1139q1 -163 -91 -239t-241 -76t-285 45l23 152q106 -41 233 -41q176 0 176 161v242q-74 -113 -204 -113t-187 77t-57 190v489q0 113 57 191q57 77 192 77
t214 -127l18 111h152zM248 1413q0 -67 34 -111t97 -44t98 44t35 111h98q0 -131 -61 -209t-170 -78t-169 78t-60 209h98z" />
    <glyph glyph-name="Gdotaccent" unicode="&#x120;" horiz-adv-x="907" 
d="M641 922v208q0 72 -52 115t-131 43t-128 -43t-49 -115v-827q0 -76 48 -117t129 -41t132 42t51 116v244h-180v158h364v-402q0 -145 -101 -232t-266 -87t-267 87q-101 87 -101 232v827q0 144 101 232t267 88t266 -87q101 -87 101 -233v-208h-184zM367 1837h182v-266h-182
v266z" />
    <glyph glyph-name="gdotaccent" unicode="&#x121;" horiz-adv-x="798" 
d="M522 694q0 86 -36 138t-100 53q-64 0 -96 -38t-32 -97v-445q0 -59 32 -97t96 -38t100 52t36 138v334zM707 1024v-1139q1 -163 -91 -239t-241 -76t-285 45l23 152q106 -41 233 -41q176 0 176 161v242q-74 -113 -204 -113t-187 77t-57 190v489q0 113 57 191q57 77 192 77
t214 -127l18 111h152zM289 1427h182v-266h-182v266z" />
    <glyph glyph-name="Gcommaaccent" unicode="&#x122;" horiz-adv-x="907" 
d="M373 -154h166v-215l-99 -278h-131l64 278v215zM641 922v208q0 72 -52 115t-131 43t-128 -43t-49 -115v-827q0 -76 48 -117t129 -41t132 42t51 116v244h-180v158h364v-402q0 -145 -101 -232t-266 -87t-267 87q-101 87 -101 232v827q0 144 101 232t267 88t266 -87
q101 -87 101 -233v-208h-184z" />
    <glyph glyph-name="gcommaaccent" unicode="&#x123;" horiz-adv-x="798" 
d="M522 694q0 86 -36 138t-100 53q-64 0 -96 -38t-32 -97v-445q0 -59 32 -97t96 -38t100 52t36 138v334zM707 1024v-1139q1 -163 -91 -239t-241 -76t-285 45l23 152q106 -41 233 -41q176 0 176 161v242q-74 -113 -204 -113t-187 77t-57 190v489q0 113 57 191q57 77 192 77
t214 -127l18 111h152zM467 1163h-166v215l98 279h131l-63 -279v-215z" />
    <glyph glyph-name="Hcircumflex" unicode="&#x124;" horiz-adv-x="966" 
d="M856 0h-190v645h-365v-645h-190v1434h190v-631h365v631h190v-1434zM242 1536l166 287h149l168 -287h-150l-94 168l-92 -168h-147z" />
    <glyph glyph-name="hcircumflex" unicode="&#x125;" horiz-adv-x="813" 
d="M725 0h-184v750q0 59 -32 97q-33 38 -97 38t-100 -52t-36 -139v-694h-184v1475h184v-549q74 114 204 114t188 -77q57 -78 57 -191v-772zM-61 1577l165 287h150l168 -287h-150l-94 168l-92 -168h-147z" />
    <glyph glyph-name="Hbar" unicode="&#x126;" horiz-adv-x="966" 
d="M666 803v229h-365v-229h365zM920 1157v-125h-64v-1032h-190v645h-365v-645h-190v1032h-64v125h64v277h190v-277h365v277h190v-277h64z" />
    <glyph glyph-name="hbar" unicode="&#x127;" horiz-adv-x="813" 
d="M276 1169v-243q74 114 204 114t188 -77q57 -78 57 -191v-772h-184v750q0 59 -32 97q-33 38 -97 38t-100 -52t-36 -139v-694h-184v1169h-119v125h119v181h184v-181h119v-125h-119z" />
    <glyph glyph-name="Itilde" unicode="&#x128;" horiz-adv-x="411" 
d="M301 0h-190v1434h190v-1434zM367 1749h106q0 -205 -145 -205q-49 0 -122 38t-100 38q-61 0 -61 -76h-106q0 205 145 205q49 0 122 -39t99 -39q62 0 62 78z" />
    <glyph glyph-name="itilde" unicode="&#x129;" horiz-adv-x="368" 
d="M92 0v1024h184v-1024h-184zM344 1339h107q0 -205 -146 -204q-49 -1 -122 37t-99 38q-61 0 -61 -75h-107q0 205 145 204q49 0 122 -39t100 -38q61 -1 61 77z" />
    <glyph glyph-name="Imacron" unicode="&#x12a;" horiz-adv-x="411" 
d="M301 0h-190v1434h190v-1434zM-55 1696h524v-125h-524v125z" />
    <glyph glyph-name="imacron" unicode="&#x12b;" horiz-adv-x="368" 
d="M92 0v1024h184v-1024h-184zM-78 1286h524v-125h-524v125z" />
    <glyph glyph-name="Ibreve" unicode="&#x12c;" horiz-adv-x="411" 
d="M301 0h-190v1434h190v-1434zM74 1823q0 -68 34 -112t97 -44t98 44t35 112h98q0 -131 -61 -209t-170 -78t-169 78t-61 209h99z" />
    <glyph glyph-name="ibreve" unicode="&#x12d;" horiz-adv-x="368" 
d="M92 0v1024h184v-1024h-184zM53 1413q0 -67 34 -111t97 -44q62 0 98 44t35 111h99q0 -131 -62 -209t-170 -78q-109 0 -169 78t-60 209h98z" />
    <glyph glyph-name="Iogonek" unicode="&#x12e;" horiz-adv-x="411" 
d="M12 -265q0 71 43 141t113 124h-57v1434h190v-1434h-35q-45 -46 -77 -108t-31 -111q0 -88 86 -88q33 0 78 20l18 -75q-72 -50 -151 -50t-128 38t-49 109z" />
    <glyph glyph-name="iogonek" unicode="&#x12f;" horiz-adv-x="368" 
d="M-14 -265q0 71 43 141t112 124h-49v1024h184v-1024h-36q-45 -46 -77 -108t-32 -111q0 -88 86 -88q33 0 78 20l18 -75q-73 -50 -151 -50t-127 38t-49 109zM274 1161h-182v266h182v-266z" />
    <glyph glyph-name="Idotaccent" unicode="&#x130;" horiz-adv-x="411" 
d="M301 0h-190v1434h190v-1434zM115 1837h182v-266h-182v266z" />
    <glyph glyph-name="dotlessi" unicode="&#x131;" horiz-adv-x="368" 
d="M276 1024v-1024h-184v1024h184z" />
    <glyph glyph-name="IJ" unicode="&#x132;" horiz-adv-x="929" 
d="M444 158q106 0 148 28q41 29 41 115v1133h190v-1153q0 -169 -93 -225t-286 -56v158zM301 0h-190v1434h190v-1434z" />
    <glyph glyph-name="ij" unicode="&#x133;" horiz-adv-x="737" 
d="M461 1024h184v-1225q0 -125 -57 -177q-56 -52 -146 -52t-168 14l13 148q41 -10 78 -11q96 0 96 101v1202zM92 0v1024h184v-1024h-184zM461 1427h184v-266h-184v266zM92 1161v266h184v-266h-184z" />
    <glyph glyph-name="Jcircumflex" unicode="&#x134;" horiz-adv-x="518" 
d="M33 158q106 0 147 28t41 115v1133h191v-1153q0 -169 -94 -225t-285 -56v158zM74 1536l166 287h149l168 -287h-149l-95 168l-92 -168h-147z" />
    <glyph glyph-name="jcircumflex" unicode="&#x135;" horiz-adv-x="368" 
d="M92 1024h184v-1225q0 -125 -57 -177t-147 -52t-166 14l12 148q41 -10 78 -11q96 0 96 101v1202zM-57 1126l166 287h149l168 -287h-150l-94 168l-92 -168h-147z" />
    <glyph glyph-name="Kcommaaccent" unicode="&#x136;" horiz-adv-x="888" 
d="M375 -154h166v-215l-99 -278h-131l64 278v215zM301 0h-190v1434h190v-658l377 658h215l-412 -697l422 -737h-221l-381 676v-676z" />
    <glyph glyph-name="kcommaaccent" unicode="&#x137;" horiz-adv-x="817" 
d="M326 -154h166v-215l-99 -278h-131l64 278v215zM276 0h-184v1475h184v-910l330 459h211l-364 -492l374 -532h-217l-334 479v-479z" />
    <glyph glyph-name="Lacute" unicode="&#x139;" horiz-adv-x="776" 
d="M745 0h-632v1434h190v-1276h442v-158zM283 1823h172l-179 -287h-141z" />
    <glyph glyph-name="lacute" unicode="&#x13a;" horiz-adv-x="380" 
d="M98 0v1475h185v-1475h-185zM266 1823h172l-178 -287h-141z" />
    <glyph glyph-name="Lcommaaccent" unicode="&#x13b;" horiz-adv-x="776" 
d="M305 -154h166v-215l-98 -278h-131l63 278v215zM745 0h-632v1434h190v-1276h442v-158z" />
    <glyph glyph-name="lcommaaccent" unicode="&#x13c;" horiz-adv-x="380" 
d="M106 -154h166v-215l-98 -278h-131l63 278v215zM98 0v1475h185v-1475h-185z" />
    <glyph glyph-name="Lcaron" unicode="&#x13d;" horiz-adv-x="776" 
d="M451 1434h165v-496h-100l-65 281v215zM745 0h-632v1434h190v-1276h442v-158z" />
    <glyph glyph-name="lcaron" unicode="&#x13e;" horiz-adv-x="565" 
d="M526 1038h-82l-61 234v203h143v-437zM283 1475v-1475h-185v1475h185z" />
    <glyph glyph-name="Ldot" unicode="&#x13f;" horiz-adv-x="776" 
d="M449 866h163v-215h-163v215zM745 0h-632v1434h190v-1276h442v-158z" />
    <glyph glyph-name="ldot" unicode="&#x140;" horiz-adv-x="548" 
d="M373 786h166v-215h-166v215zM98 1475h185v-1475h-185v1475z" />
    <glyph glyph-name="Lslash" unicode="&#x141;" horiz-adv-x="778" 
d="M305 158h443v-158h-633v602l-101 -39v158l101 39v674h190v-603l141 54v-158l-141 -53v-516z" />
    <glyph glyph-name="lslash" unicode="&#x142;" horiz-adv-x="403" 
d="M295 0h-184v600l-91 -37v158l91 37v717h184v-646l90 37v-157l-90 -37v-672z" />
    <glyph glyph-name="Nacute" unicode="&#x143;" horiz-adv-x="987" 
d="M877 0h-197l-401 1020q10 -236 10 -389v-631h-178v1434h204l394 -1016q-10 174 -11 385v631h179v-1434zM569 1823h172l-178 -287h-141z" />
    <glyph glyph-name="nacute" unicode="&#x144;" horiz-adv-x="813" 
d="M725 0h-184v750q0 59 -32 97q-33 38 -97 38t-100 -52t-36 -139v-694h-184v1024h152l18 -111q78 127 213 127t193 -77q57 -78 57 -191v-772zM487 1413h172l-178 -287h-141z" />
    <glyph glyph-name="Ncommaaccent" unicode="&#x145;" horiz-adv-x="987" 
d="M412 -154h166v-215l-99 -278h-131l64 278v215zM877 0h-197l-401 1020q10 -236 10 -389v-631h-178v1434h204l394 -1016q-10 174 -11 385v631h179v-1434z" />
    <glyph glyph-name="ncommaaccent" unicode="&#x146;" horiz-adv-x="813" 
d="M324 -154h165v-215l-98 -278h-131l64 278v215zM725 0h-184v750q0 59 -32 97q-33 38 -97 38t-100 -52t-36 -139v-694h-184v1024h152l18 -111q78 127 213 127t193 -77q57 -78 57 -191v-772z" />
    <glyph glyph-name="Ncaron" unicode="&#x147;" horiz-adv-x="987" 
d="M877 0h-197l-401 1020q10 -236 10 -389v-631h-178v1434h204l394 -1016q-10 174 -11 385v631h179v-1434zM252 1823h147l93 -168l94 168h149l-168 -287h-149z" />
    <glyph glyph-name="ncaron" unicode="&#x148;" horiz-adv-x="813" 
d="M725 0h-184v750q0 59 -32 97q-33 38 -97 38t-100 -52t-36 -139v-694h-184v1024h152l18 -111q78 127 213 127t193 -77q57 -78 57 -191v-772zM170 1413h147l93 -168l94 168h149l-168 -287h-149z" />
    <glyph glyph-name="Eng" unicode="&#x14a;" horiz-adv-x="987" 
d="M698 1434h179v-1584q1 -168 -93 -224t-286 -56v158q104 0 146 26t42 105v141l-407 1024q10 -240 10 -393v-631h-178v1434h204l394 -1016q-10 174 -11 385v631z" />
    <glyph glyph-name="eng" unicode="&#x14b;" horiz-adv-x="813" 
d="M475 1040q135 0 193 -77q57 -78 57 -191v-973q0 -125 -57 -177q-56 -52 -146 -52t-168 14l11 148q45 -10 79 -11q96 0 97 101v928q0 59 -32 97q-33 38 -97 38t-100 -52t-36 -139v-694h-184v1024h152l18 -111q78 127 213 127z" />
    <glyph glyph-name="Omacron" unicode="&#x14c;" horiz-adv-x="915" 
d="M635 1130q0 72 -49 115t-128 43t-128 -43t-49 -115v-827q0 -72 49 -115t128 -43t128 43t49 115v827zM90 1130q0 144 101 232t267 88t266 -87q101 -87 101 -233v-827q0 -145 -101 -232t-266 -87t-267 87q-101 87 -101 232v827zM197 1696h524v-125h-524v125z" />
    <glyph glyph-name="omacron" unicode="&#x14d;" horiz-adv-x="776" 
d="M256 754v-484q0 -63 34 -100t98 -37t98 37t34 100v484q0 63 -34 100t-98 37t-98 -37t-34 -100zM705 748v-472q0 -143 -84 -218q-84 -74 -234 -74q-151 0 -233 74t-82 218v472q0 143 83 218q83 74 233 74t233 -74q84 -74 84 -218zM127 1286h524v-125h-524v125z" />
    <glyph glyph-name="Obreve" unicode="&#x14e;" horiz-adv-x="915" 
d="M635 1130q0 72 -49 115t-128 43t-128 -43t-49 -115v-827q0 -72 49 -115t128 -43t128 43t49 115v827zM90 1130q0 144 101 232t267 88t266 -87q101 -87 101 -233v-827q0 -145 -101 -232t-266 -87t-267 87q-101 87 -101 232v827zM326 1823q0 -68 34 -112t96 -44q64 0 99 44
t35 112h98q0 -131 -61 -209t-170 -78t-169 78t-61 209h99z" />
    <glyph glyph-name="obreve" unicode="&#x14f;" horiz-adv-x="776" 
d="M256 754v-484q0 -63 34 -100t98 -37t98 37t34 100v484q0 63 -34 100t-98 37t-98 -37t-34 -100zM705 748v-472q0 -143 -84 -218q-84 -74 -234 -74q-151 0 -233 74t-82 218v472q0 143 83 218q83 74 233 74t233 -74q84 -74 84 -218zM256 1413q0 -67 34 -111t97 -44t98 44
t35 111h98q0 -131 -61 -209t-170 -78t-169 78t-60 209h98z" />
    <glyph glyph-name="Ohungarumlaut" unicode="&#x150;" horiz-adv-x="915" 
d="M635 1130q0 72 -49 115t-128 43t-128 -43t-49 -115v-827q0 -72 49 -115t128 -43t128 43t49 115v827zM90 1130q0 144 101 232t267 88t266 -87q101 -87 101 -233v-827q0 -145 -101 -232t-266 -87t-267 87q-101 87 -101 232v827zM666 1823h151l-180 -287h-121zM422 1823h151
l-178 -287h-121z" />
    <glyph glyph-name="ohungarumlaut" unicode="&#x151;" horiz-adv-x="776" 
d="M256 754v-484q0 -63 34 -100t98 -37t98 37t34 100v484q0 63 -34 100t-98 37t-98 -37t-34 -100zM705 748v-472q0 -143 -84 -218q-84 -74 -234 -74q-151 0 -233 74t-82 218v472q0 143 83 218q83 74 233 74t233 -74q84 -74 84 -218zM596 1413h152l-181 -287h-121zM352 1413
h152l-178 -287h-121z" />
    <glyph glyph-name="OE" unicode="&#x152;" horiz-adv-x="1331" 
d="M635 303v827q0 72 -49 115t-128 43t-128 -43t-49 -115v-827q0 -72 49 -115t128 -43t128 43t49 115zM1278 1276h-451v-473h371v-158h-371v-487h451v-158h-563v131q-68 -147 -277 -147q-158 0 -253 87t-95 232v827q0 144 95 232t253 88q209 0 277 -147v131h563v-158z" />
    <glyph glyph-name="oe" unicode="&#x153;" horiz-adv-x="1208" 
d="M969 598v160q0 63 -34 98t-98 35q-65 0 -99 -37t-33 -100v-156h264zM520 270v484q0 63 -34 100t-98 37t-98 -37t-34 -100v-484q0 -63 34 -100t98 -37t98 37t34 100zM848 -16q-143 0 -232 69q-82 -69 -230 -69t-232 74q-82 74 -82 218v472q0 143 83 218q83 74 228 74
t229 -67q84 67 226 67t223 -72q80 -72 80 -216v-289h-436v-164q0 -86 45 -123t151 -37t225 41l23 -151q-158 -45 -301 -45z" />
    <glyph glyph-name="Racute" unicode="&#x154;" horiz-adv-x="921" 
d="M301 780h191q154 0 153 148v200q0 66 -39 107t-114 41h-191v-496zM444 621h-143v-621h-190v1434h395q160 0 245 -80t85 -219v-168q0 -207 -172 -267q121 -55 145 -233l51 -467h-190l-45 457q-11 96 -55 130t-126 34zM526 1823h172l-178 -287h-141z" />
    <glyph glyph-name="racute" unicode="&#x155;" horiz-adv-x="524" 
d="M489 846q-213 0 -213 -184v-662h-184v1024h152l18 -150q29 86 95 126q67 40 132 40v-194zM334 1413h172l-178 -287h-142z" />
    <glyph glyph-name="Rcommaaccent" unicode="&#x156;" horiz-adv-x="921" 
d="M387 -154h166v-215l-98 -278h-131l63 278v215zM301 780h191q154 0 153 148v200q0 66 -39 107t-114 41h-191v-496zM444 621h-143v-621h-190v1434h395q160 0 245 -80t85 -219v-168q0 -207 -172 -267q121 -55 145 -233l51 -467h-190l-45 457q-11 96 -55 130t-126 34z" />
    <glyph glyph-name="rcommaaccent" unicode="&#x157;" horiz-adv-x="524" 
d="M100 -154h166v-215l-98 -278h-131l63 278v215zM489 846q-213 0 -213 -184v-662h-184v1024h152l18 -150q29 86 95 126q67 40 132 40v-194z" />
    <glyph glyph-name="Rcaron" unicode="&#x158;" horiz-adv-x="921" 
d="M301 780h191q154 0 153 148v200q0 66 -39 107t-114 41h-191v-496zM444 621h-143v-621h-190v1434h395q160 0 245 -80t85 -219v-168q0 -207 -172 -267q121 -55 145 -233l51 -467h-190l-45 457q-11 96 -55 130t-126 34zM209 1823h147l93 -168l94 168h149l-168 -287h-149z
" />
    <glyph glyph-name="rcaron" unicode="&#x159;" horiz-adv-x="524" 
d="M489 846q-213 0 -213 -184v-662h-184v1024h152l18 -150q29 86 95 126q67 40 132 40v-194zM16 1413h148l92 -168l94 168h150l-168 -287h-150z" />
    <glyph glyph-name="Sacute" unicode="&#x15a;" horiz-adv-x="874" 
d="M805 293q1 -143 -101 -226t-269 -83t-266 87t-99 232v209h184v-209q0 -74 51 -116t131 -42t129 38t49 104v100q0 125 -188 229q-78 42 -157 92t-134 134t-55 196v113q0 139 96 219t260 80t261 -87t98 -233v-208h-185v208q0 72 -47 115t-125 43t-123 -38t-45 -99v-111
q0 -126 189 -228q79 -42 157 -90t134 -130t55 -195v-104zM514 1823h172l-178 -287h-141z" />
    <glyph glyph-name="sacute" unicode="&#x15b;" horiz-adv-x="718" 
d="M483 283q0 92 -150 155q-63 27 -125 59t-107 95q-44 63 -44 156v36q0 117 82 187q81 69 223 69t281 -45l-27 -151q-121 47 -209 47q-159 0 -159 -109v-28q0 -97 151 -157q63 -27 125 -57t108 -94q44 -64 44 -155v-39q0 -125 -90 -197q-90 -71 -246 -71t-293 53l33 149
q133 -53 258 -53q145 0 145 121v29zM451 1409h172l-179 -287h-141z" />
    <glyph glyph-name="Scircumflex" unicode="&#x15c;" horiz-adv-x="874" 
d="M805 293q1 -143 -101 -226t-269 -83t-266 87t-99 232v209h184v-209q0 -74 51 -116t131 -42t129 38t49 104v100q0 125 -188 229q-78 42 -157 92t-134 134t-55 196v113q0 139 96 219t260 80t261 -87t98 -233v-208h-185v208q0 72 -47 115t-125 43t-123 -38t-45 -99v-111
q0 -126 189 -228q79 -42 157 -90t134 -130t55 -195v-104zM197 1536l165 287h150l168 -287h-150l-94 168l-92 -168h-147z" />
    <glyph glyph-name="scircumflex" unicode="&#x15d;" horiz-adv-x="718" 
d="M483 283q0 92 -150 155q-63 27 -125 59t-107 95q-44 63 -44 156v36q0 117 82 187q81 69 223 69t281 -45l-27 -151q-121 47 -209 47q-159 0 -159 -109v-28q0 -97 151 -157q63 -27 125 -57t108 -94q44 -64 44 -155v-39q0 -125 -90 -197q-90 -71 -246 -71t-293 53l33 149
q133 -53 258 -53q145 0 145 121v29zM133 1122l166 287h150l167 -287h-149l-94 168l-92 -168h-148z" />
    <glyph glyph-name="Scedilla" unicode="&#x15e;" horiz-adv-x="876" 
d="M270 1151v-111q0 -126 189 -228q79 -42 157 -90t134 -130t55 -195v-104q0 -135 -90 -216t-240 -91v-64h14q170 0 170 -158v-20q0 -82 -49 -128q-48 -46 -150 -46t-171 35l22 82q63 -27 145 -27t83 80v16q1 40 -19 58t-74 18h-57v154q-147 12 -233 97t-86 220v209h184
v-209q0 -74 51 -116t131 -42t129 38t49 104v100q0 125 -188 229q-78 42 -157 92t-134 134t-55 196v113q0 139 96 219t260 80t261 -87t98 -233v-208h-185v208q0 72 -47 115t-125 43t-123 -38t-45 -99z" />
    <glyph glyph-name="scedilla" unicode="&#x15f;" horiz-adv-x="718" 
d="M248 782v-28q0 -97 151 -157q63 -27 125 -57t108 -94q44 -64 44 -155v-39q0 -116 -77 -186t-208 -80v-76h12q178 0 179 -158v-31q0 -82 -54 -129t-156 -47q-100 0 -179 33l22 90q68 -29 141 -28q90 0 90 81v15q0 41 -19 59t-73 19h-57v172q-133 8 -250 51l33 149
q133 -53 258 -53q145 0 145 121v29q0 92 -150 155q-63 27 -125 59t-107 95q-44 63 -44 156v36q0 117 82 187q81 69 223 69t281 -45l-27 -151q-121 47 -209 47q-159 0 -159 -109z" />
    <glyph glyph-name="Scaron" unicode="&#x160;" horiz-adv-x="874" 
d="M805 293q1 -143 -101 -226t-269 -83t-266 87t-99 232v209h184v-209q0 -74 51 -116t131 -42t129 38t49 104v100q0 125 -188 229q-78 42 -157 92t-134 134t-55 196v113q0 139 96 219t260 80t261 -87t98 -233v-208h-185v208q0 72 -47 115t-125 43t-123 -38t-45 -99v-111
q0 -126 189 -228q79 -42 157 -90t134 -130t55 -195v-104zM197 1823h147l92 -168l94 168h150l-168 -287h-150z" />
    <glyph glyph-name="scaron" unicode="&#x161;" horiz-adv-x="718" 
d="M483 283q0 92 -150 155q-63 27 -125 59t-107 95q-44 63 -44 156v36q0 117 82 187q81 69 223 69t281 -45l-27 -151q-121 47 -209 47q-159 0 -159 -109v-28q0 -97 151 -157q63 -27 125 -57t108 -94q44 -64 44 -155v-39q0 -125 -90 -197q-90 -71 -246 -71t-293 53l33 149
q133 -53 258 -53q145 0 145 121v29zM133 1409h148l92 -168l94 168h149l-167 -287h-150z" />
    <glyph glyph-name="Tcedilla" unicode="&#x162;" horiz-adv-x="745" 
d="M422 0v-90h12q178 0 178 -158v-31q0 -82 -54 -129t-154 -47t-181 33l23 90q68 -29 141 -28q90 0 90 81v15q0 41 -19 59t-73 19h-57v186h-49v1276h-240v158h668v-158h-238v-1276h-47z" />
    <glyph glyph-name="tcedilla" unicode="&#x163;" horiz-adv-x="514" 
d="M395 -90h13q178 0 178 -158v-31q0 -82 -54 -129t-156 -47q-100 0 -179 33l22 90q68 -29 141 -28q90 0 91 81v15q1 41 -19 59t-74 19h-57v172q14 -2 45 -2l49 2v-76zM395 0h-94v-14q-86 10 -131 63t-45 166v670h-94v139h94v205h184v-205h172v-139h-172v-647
q0 -102 97 -103q37 0 77 10l13 -145q-56 -12 -101 -14v14z" />
    <glyph glyph-name="Tcaron" unicode="&#x164;" horiz-adv-x="745" 
d="M469 1276v-1276h-190v1276h-240v158h668v-158h-238zM131 1823h148l92 -168l94 168h149l-168 -287h-149z" />
    <glyph glyph-name="tcaron" unicode="&#x165;" horiz-adv-x="694" 
d="M309 885v-647q0 -102 97 -103q37 0 77 10l13 -145q-74 -16 -166 -16t-149 52q-56 52 -56 179v670h-94v139h94v205h184v-205h172v-139h-172zM668 1038h-82l-64 234v203h146v-437z" />
    <glyph glyph-name="Tbar" unicode="&#x166;" horiz-adv-x="747" 
d="M709 1276h-238v-473h197v-158h-197v-645h-190v645h-201v158h201v473h-242v158h670v-158z" />
    <glyph glyph-name="tbar" unicode="&#x167;" horiz-adv-x="518" 
d="M332 -16q-92 0 -148 52q-57 52 -57 179v287h-92v125h92v258h-94v139h94v205h184v-205h172v-139h-172v-258h125v-125h-125v-264q0 -102 97 -103q36 0 77 10l13 -145q-74 -16 -166 -16z" />
    <glyph glyph-name="Utilde" unicode="&#x168;" horiz-adv-x="948" 
d="M842 1434v-1131q0 -145 -102 -232t-266 -87q-165 0 -266 87t-102 232v1131h191v-1131q0 -76 48 -117t128 -41t129 41t49 117v1131h191zM635 1749h106q0 -205 -145 -205q-49 0 -122 38t-99 38q-61 0 -62 -76h-106q0 205 145 205q49 0 122 -39t99 -39q62 0 62 78z" />
    <glyph glyph-name="utilde" unicode="&#x169;" horiz-adv-x="813" 
d="M88 1024h184v-750q0 -59 32 -97t96 -38t101 52q36 52 36 139v694h184v-1024h-152l-18 111q-78 -127 -213 -127t-193 77q-57 78 -57 191v772zM567 1339h107q0 -205 -146 -204q-50 -1 -122 37t-99 38q-61 0 -61 -75h-107q0 205 146 204q49 0 122 -39t99 -38q61 -1 61 77z
" />
    <glyph glyph-name="Umacron" unicode="&#x16a;" horiz-adv-x="948" 
d="M842 1434v-1131q0 -145 -102 -232t-266 -87q-165 0 -266 87t-102 232v1131h191v-1131q0 -76 48 -117t128 -41t129 41t49 117v1131h191zM213 1696h524v-125h-524v125z" />
    <glyph glyph-name="umacron" unicode="&#x16b;" horiz-adv-x="813" 
d="M88 1024h184v-750q0 -59 32 -97t96 -38t101 52q36 52 36 139v694h184v-1024h-152l-18 111q-78 -127 -213 -127t-193 77q-57 78 -57 191v772zM145 1286h525v-125h-525v125z" />
    <glyph glyph-name="Ubreve" unicode="&#x16c;" horiz-adv-x="948" 
d="M842 1434v-1131q0 -145 -102 -232t-266 -87q-165 0 -266 87t-102 232v1131h191v-1131q0 -76 48 -117t128 -41t129 41t49 117v1131h191zM342 1823q0 -68 34 -112t97 -44t98 44t35 112h99q1 -131 -61 -209t-171 -78t-169 78t-60 209h98z" />
    <glyph glyph-name="ubreve" unicode="&#x16d;" horiz-adv-x="813" 
d="M88 1024h184v-750q0 -59 32 -97t96 -38t101 52q36 52 36 139v694h184v-1024h-152l-18 111q-78 -127 -213 -127t-193 77q-57 78 -57 191v772zM274 1413q0 -67 34 -111t98 -44t98 44q35 44 35 111h98q1 -131 -61 -209t-170 -78t-169 78q-60 78 -61 209h98z" />
    <glyph glyph-name="Uring" unicode="&#x16e;" horiz-adv-x="948" 
d="M842 1434v-1131q0 -145 -102 -232t-266 -87q-165 0 -266 87t-102 232v1131h191v-1131q0 -76 48 -117t128 -41t129 41t49 117v1131h191zM473 1790q-94 0 -94 -95t94 -96t94 95t-94 96zM473 1522q-211 0 -211 174t211 174t211 -174t-211 -174z" />
    <glyph glyph-name="uring" unicode="&#x16f;" horiz-adv-x="813" 
d="M88 1024h184v-750q0 -59 32 -97t96 -38t101 52q36 52 36 139v694h184v-1024h-152l-18 111q-78 -127 -213 -127t-193 77q-57 78 -57 191v772zM408 1380q-94 0 -94 -95t94 -95t94 95t-94 95zM408 1112q-211 0 -211 174t211 174t210 -174q1 -174 -210 -174z" />
    <glyph glyph-name="Uhungarumlaut" unicode="&#x170;" horiz-adv-x="948" 
d="M842 1434v-1131q0 -145 -102 -232t-266 -87q-165 0 -266 87t-102 232v1131h191v-1131q0 -76 48 -117t128 -41t129 41t49 117v1131h191zM682 1823h152l-181 -287h-121zM438 1823h152l-178 -287h-121z" />
    <glyph glyph-name="uhungarumlaut" unicode="&#x171;" horiz-adv-x="813" 
d="M88 1024h184v-750q0 -59 32 -97t96 -38t101 52q36 52 36 139v694h184v-1024h-152l-18 111q-78 -127 -213 -127t-193 77q-57 78 -57 191v772zM614 1413h152l-180 -287h-121zM371 1413h151l-178 -287h-121z" />
    <glyph glyph-name="Uogonek" unicode="&#x172;" horiz-adv-x="948" 
d="M842 1434v-1131q0 -133 -87 -218t-233 -99q-98 -111 -98 -204t86 -93q33 0 78 20l18 -76q-72 -49 -150 -49t-128 38q-49 38 -49 108q0 137 143 256q-143 14 -229 99t-87 218v1131h191v-1131q0 -76 48 -117t128 -41t129 41t49 117v1131h191z" />
    <glyph glyph-name="uogonek" unicode="&#x173;" horiz-adv-x="813" 
d="M338 -16q-135 0 -193 77q-57 78 -57 191v772h184v-750q0 -59 32 -97t96 -38t101 52q36 52 36 139v694h184v-1024h-23q-44 -46 -76 -108t-32 -111q0 -88 86 -88q33 0 78 20l18 -75q-72 -50 -151 -50t-127 38t-50 109q0 71 43 141t113 124h-31l-18 111q-78 -127 -213 -127z
" />
    <glyph glyph-name="Wcircumflex" unicode="&#x174;" horiz-adv-x="1351" 
d="M1051 -10h-191l-184 1067l-184 -1067h-191l-281 1444h199l178 -1078l187 1078h194l185 -1078l180 1078h188zM434 1536l166 287h150l168 -287h-150l-94 168l-92 -168h-148z" />
    <glyph glyph-name="wcircumflex" unicode="&#x175;" horiz-adv-x="1124" 
d="M889 -10h-197l-131 768l-131 -768h-192l-220 1034h183l135 -786l133 786h182l137 -786l136 786h182zM322 1126l165 287h150l168 -287h-150l-94 168l-92 -168h-147z" />
    <glyph glyph-name="Ycircumflex" unicode="&#x176;" horiz-adv-x="874" 
d="M530 0h-190v535l-332 899h197l233 -689l236 689h194l-338 -899v-535zM195 1536l165 287h150l168 -287h-150l-94 168l-92 -168h-147z" />
    <glyph glyph-name="ycircumflex" unicode="&#x177;" horiz-adv-x="739" 
d="M127 -430q-51 0 -129 14l12 150q49 -14 111 -14q61 0 91 26q30 27 50 96l39 148h-22l-267 1034h187l180 -793l170 793h178l-297 -1157q-49 -177 -115 -237t-188 -60zM129 1126l166 287h149l168 -287h-149l-94 168l-93 -168h-147z" />
    <glyph glyph-name="Ydieresis" unicode="&#x178;" horiz-adv-x="874" 
d="M530 0h-190v535l-332 899h197l233 -689l236 689h194l-338 -899v-535zM518 1837h184v-266h-184v266zM174 1837h182v-266h-182v266z" />
    <glyph glyph-name="Zacute" unicode="&#x179;" horiz-adv-x="782" 
d="M735 0h-692v158l479 1118h-459v158h668v-158l-481 -1118h485v-158zM467 1823h172l-178 -287h-142z" />
    <glyph glyph-name="zacute" unicode="&#x17a;" horiz-adv-x="671" 
d="M631 0h-590v139l385 746h-367v139h557v-139l-385 -746h400v-139zM416 1413h172l-178 -287h-142z" />
    <glyph glyph-name="Zdotaccent" unicode="&#x17b;" horiz-adv-x="782" 
d="M735 0h-692v158l479 1118h-459v158h668v-158l-481 -1118h485v-158zM301 1837h182v-266h-182v266z" />
    <glyph glyph-name="zdotaccent" unicode="&#x17c;" horiz-adv-x="671" 
d="M631 0h-590v139l385 746h-367v139h557v-139l-385 -746h400v-139zM248 1427h182v-266h-182v266z" />
    <glyph glyph-name="Zcaron" unicode="&#x17d;" horiz-adv-x="782" 
d="M735 0h-692v158l479 1118h-459v158h668v-158l-481 -1118h485v-158zM150 1823h147l92 -168l94 168h150l-168 -287h-150z" />
    <glyph glyph-name="zcaron" unicode="&#x17e;" horiz-adv-x="671" 
d="M631 0h-590v139l385 746h-367v139h557v-139l-385 -746h400v-139zM98 1413h148l92 -168l94 168h150l-168 -287h-150z" />
    <glyph glyph-name="Schwa" unicode="&#x18f;" horiz-adv-x="907" 
d="M266 621v-318q0 -72 52 -115t132 -43t128 43q49 43 49 115v318h-361zM82 922v208q0 144 101 232t267 88t267 -87q100 -87 100 -233v-827q0 -145 -100 -232t-266 -87t-268 87q-101 87 -101 232v463h545v364q0 76 -48 117t-129 41q-80 0 -132 -42t-52 -116v-208h-184z" />
    <glyph glyph-name="florin" unicode="&#x192;" horiz-adv-x="501" 
d="M125 885h-92v139h92v236q0 127 57 179q56 52 148 52t166 -16l-11 -146q-45 10 -79 10q-96 0 -97 -102v-213h170v-139h-170v-1086q0 -125 -56 -177q-57 -52 -147 -52t-167 14l12 148q41 -10 78 -11q96 0 96 101v1063z" />
    <glyph glyph-name="AEacute" unicode="&#x1fc;" horiz-adv-x="1267" 
d="M573 530v656l-206 -656h206zM764 803h373v-158h-373v-487h453v-158h-644v373h-256l-118 -373h-195l461 1434h752v-158h-453v-473zM707 1823h172l-179 -287h-141z" />
    <glyph glyph-name="aeacute" unicode="&#x1fd;" horiz-adv-x="1183" 
d="M498 344v145q-156 -3 -210 -39t-55 -108v-86q0 -53 30 -85t89 -32q146 0 146 205zM946 610v148q0 63 -34 98t-98 35t-98 -37t-34 -100v-144h264zM827 -16q-233 0 -303 157q-72 -158 -241 -157q-123 0 -179 72q-55 73 -55 173v82q0 68 17 117q60 185 432 182v138
q0 133 -140 133q-102 0 -229 -70l-55 137q146 92 296 92t226 -61q84 61 222 61t218 -72t80 -216v-263h-434v-190q0 -86 45 -123t151 -37t226 41l20 -151q-152 -45 -297 -45zM668 1413h172l-178 -287h-142z" />
    <glyph glyph-name="Oslashacute" unicode="&#x1fe;" horiz-adv-x="915" 
d="M635 303v678l-346 -731q37 -104 168 -105q80 0 129 43t49 115zM450 1288q-70 0 -120 -43q-49 -43 -49 -115v-692l348 740q-17 50 -63 80t-116 30zM825 1130v-827q0 -145 -101 -232t-261 -87t-262 79l-29 -63h-98l63 133q-47 72 -47 170v827q0 144 101 232t263 88t265 -82
l31 66h98l-66 -140q43 -72 43 -164zM528 1536h-141l148 287h172z" />
    <glyph glyph-name="oslashacute" unicode="&#x1ff;" horiz-adv-x="776" 
d="M384 133q136 0 136 137v414l-241 -500q35 -51 105 -51zM394 891q-70 0 -104 -37t-34 -100v-414l242 500q-34 51 -104 51zM705 276q0 -143 -84 -218t-234 -74q-109 0 -184 41l-33 -66h-98l59 125q-59 72 -59 192v472q0 143 83 218q83 74 213 74t205 -41l33 66h99l-60 -125
q59 -72 60 -192v-472zM465 1413h172l-178 -287h-142z" />
    <glyph glyph-name="Scommaaccent" unicode="&#x218;" horiz-adv-x="874" 
d="M352 -154h166v-215l-98 -278h-131l63 278v215zM805 293q1 -143 -101 -226t-269 -83t-266 87t-99 232v209h184v-209q0 -74 51 -116t131 -42t129 38t49 104v100q0 125 -188 229q-78 42 -157 92t-134 134t-55 196v113q0 139 96 219t260 80t261 -87t98 -233v-208h-185v208
q0 72 -47 115t-125 43t-123 -38t-45 -99v-111q0 -126 189 -228q79 -42 157 -90t134 -130t55 -195v-104z" />
    <glyph glyph-name="scommaaccent" unicode="&#x219;" horiz-adv-x="718" 
d="M260 -154h166v-215l-98 -278h-131l63 278v215zM483 283q0 92 -150 155q-63 27 -125 59t-107 95q-44 63 -44 156v36q0 117 82 187q81 69 223 69t281 -45l-27 -151q-121 47 -209 47q-159 0 -159 -109v-28q0 -97 151 -157q63 -27 125 -57t108 -94q44 -64 44 -155v-39
q0 -125 -90 -197q-90 -71 -246 -71t-293 53l33 149q133 -53 258 -53q145 0 145 121v29z" />
    <glyph glyph-name="uni021A" unicode="&#x21a;" horiz-adv-x="745" 
d="M291 -154h166v-215l-99 -278h-131l64 278v215zM469 1276v-1276h-190v1276h-240v158h668v-158h-238z" />
    <glyph glyph-name="uni021B" unicode="&#x21b;" horiz-adv-x="514" 
d="M264 -154h166v-215l-98 -278h-131l63 278v215zM309 885v-647q0 -102 97 -103q37 0 77 10l13 -145q-74 -16 -166 -16t-149 52q-56 52 -56 179v670h-94v139h94v205h184v-205h172v-139h-172z" />
    <glyph glyph-name="dotlessj" unicode="&#x237;" horiz-adv-x="368" 
d="M92 1024h184v-1225q0 -125 -57 -177t-147 -52t-166 14l12 148q41 -10 78 -11q96 0 96 101v1202z" />
    <glyph glyph-name="schwa" unicode="&#x259;" horiz-adv-x="759" 
d="M240 426v-160q0 -61 34 -97t98 -36t98 37t34 100v156h-264zM351 1040q157 0 247 -74t90 -229v-461q0 -143 -84 -218q-84 -74 -230 -74t-227 72q-80 73 -79 216v289h436v164q0 86 -45 123t-151 37t-226 -41l-23 151q135 45 292 45z" />
    <glyph glyph-name="circumflex" unicode="&#x2c6;" horiz-adv-x="778" 
d="M295 1126h-148l166 287h150l168 -287h-150l-94 168z" />
    <glyph glyph-name="caron" unicode="&#x2c7;" horiz-adv-x="778" 
d="M295 1413l92 -168l94 168h150l-168 -287h-150l-166 287h148z" />
    <glyph glyph-name="breve" unicode="&#x2d8;" horiz-adv-x="755" 
d="M246 1413q0 -67 34 -111t97 -44t98 44t35 111h98q0 -131 -61 -209t-170 -78t-169 78t-61 209h99z" />
    <glyph glyph-name="dotaccent" unicode="&#x2d9;" horiz-adv-x="477" 
d="M330 1427v-266h-183v266h183z" />
    <glyph glyph-name="ring" unicode="&#x2da;" horiz-adv-x="716" 
d="M358 1380q-94 0 -94 -95t94 -95t94 95t-94 95zM358 1112q-211 0 -211 174t211 174t211 -174t-211 -174z" />
    <glyph glyph-name="ogonek" unicode="&#x2db;" horiz-adv-x="612" 
d="M139 -265q0 71 43 141t113 124h98q-45 -46 -77 -108t-31 -111q0 -88 86 -88q33 0 78 20l18 -75q-72 -50 -151 -50t-128 38t-49 109z" />
    <glyph glyph-name="tilde" unicode="&#x2dc;" horiz-adv-x="663" 
d="M545 1339h106q0 -205 -145 -204q-49 -1 -122 37t-99 38q-61 0 -62 -75h-106q0 205 145 204q49 0 122 -39t99 -38q62 -1 62 77z" />
    <glyph glyph-name="hungarumlaut" unicode="&#x2dd;" horiz-adv-x="835" 
d="M539 1413h151l-180 -287h-121zM295 1413h151l-178 -287h-121z" />
    <glyph glyph-name="commaaccentcomb" unicode="&#x326;" horiz-adv-x="0" 
d="M-111 -154v-215l-98 -278h-131l64 278v215h165z" />
    <glyph glyph-name="Delta" unicode="&#x394;" horiz-adv-x="962" 
d="M279 158h403l-201 979zM580 1444l331 -1444h-860l338 1444h191z" />
    <glyph glyph-name="Omega" unicode="&#x3a9;" horiz-adv-x="931" 
d="M834 1130v-602q0 -132 -81 -211q-60 -55 -122 -77v-115h203v-125h-310v328q45 10 82 48t37 101v653q0 72 -49 115t-128 43t-128 -43t-49 -115v-653q0 -63 37 -101t82 -48v-328h-310v125h203v115q-61 21 -109 66q-94 86 -94 222v602q0 144 102 232t266 88t266 -88
t102 -232z" />
    <glyph glyph-name="mu" unicode="&#x3bc;" horiz-adv-x="966" 
d="M387 -201q0 -229 -179 -229q-81 0 -159 14l12 148q41 -10 78 -11q96 0 97 101v1202h184v-750q0 -59 32 -97t96 -38t100 52t36 139v694h184v-1024h-151l-19 111q-78 -127 -221 -127q-53 0 -90 14v-199z" />
    <glyph glyph-name="pi" unicode="&#x3c0;" horiz-adv-x="882" 
d="M573 885h-264v-885h-184v885h-92v139h819v-139h-94v-885h-185v885z" />
    <glyph glyph-name="sigma" unicode="&#x3c3;" horiz-adv-x="847" 
d="M541 270v469q0 61 -35 99t-98 39q-64 0 -98 -38t-34 -100v-469q0 -63 34 -100t99 -37t99 37t33 100zM778 1024v-139h-116q63 -78 63 -178v-431q0 -143 -84 -218q-83 -74 -233 -74t-233 74t-83 218v455q0 143 83 218t233 75h370z" />
    <glyph glyph-name="Wgrave" unicode="&#x1e80;" horiz-adv-x="1351" 
d="M1051 -10h-191l-184 1067l-184 -1067h-191l-281 1444h199l178 -1078l187 1078h194l185 -1078l180 1078h188zM600 1823l150 -287h-142l-178 287h170z" />
    <glyph glyph-name="wgrave" unicode="&#x1e81;" horiz-adv-x="1124" 
d="M889 -10h-197l-131 768l-131 -768h-192l-220 1034h183l135 -786l133 786h182l137 -786l136 786h182zM485 1413l150 -287h-141l-179 287h170z" />
    <glyph glyph-name="Wacute" unicode="&#x1e82;" horiz-adv-x="1351" 
d="M1051 -10h-191l-184 1067l-184 -1067h-191l-281 1444h199l178 -1078l187 1078h194l185 -1078l180 1078h188zM752 1823h172l-179 -287h-141z" />
    <glyph glyph-name="wacute" unicode="&#x1e83;" horiz-adv-x="1124" 
d="M889 -10h-197l-131 768l-131 -768h-192l-220 1034h183l135 -786l133 786h182l137 -786l136 786h182zM639 1413h172l-178 -287h-141z" />
    <glyph glyph-name="Wdieresis" unicode="&#x1e84;" horiz-adv-x="1351" 
d="M1051 -10h-191l-184 1067l-184 -1067h-191l-281 1444h199l178 -1078l187 1078h194l185 -1078l180 1078h188zM758 1837h184v-266h-184v266zM414 1837h182v-266h-182v266z" />
    <glyph glyph-name="wdieresis" unicode="&#x1e85;" horiz-adv-x="1124" 
d="M889 -10h-197l-131 768l-131 -768h-192l-220 1034h183l135 -786l133 786h182l137 -786l136 786h182zM643 1427h184v-266h-184v266zM299 1427h182v-266h-182v266z" />
    <glyph glyph-name="uni1E9E" unicode="&#x1e9e;" horiz-adv-x="897" 
d="M772 1198v-211q0 -152 -123 -213q180 -63 180 -250v-225q0 -143 -90 -221t-241 -78h-117v158h111q74 0 116 37t43 110v227q0 70 -44 109t-115 39h-111v158h53q68 0 111 36t43 105v225q0 62 -35 100t-101 38t-100 -38q-35 -36 -35 -100v-1204h-184v885h-94v139h94v174
q0 143 84 218t236 75q151 0 235 -75t84 -218z" />
    <glyph glyph-name="Ygrave" unicode="&#x1ef2;" horiz-adv-x="874" 
d="M530 0h-190v535l-332 899h197l233 -689l236 689h194l-338 -899v-535zM360 1823l150 -287h-141l-179 287h170z" />
    <glyph glyph-name="ygrave" unicode="&#x1ef3;" horiz-adv-x="739" 
d="M127 -430q-51 0 -129 14l12 150q49 -14 111 -14q61 0 91 26q30 27 50 96l39 148h-22l-267 1034h187l180 -793l170 793h178l-297 -1157q-49 -177 -115 -237t-188 -60zM293 1413l149 -287h-141l-178 287h170z" />
    <glyph glyph-name="figuredash" unicode="&#x2012;" horiz-adv-x="903" 
d="M80 651v146h743v-146h-743z" />
    <glyph glyph-name="endash" unicode="&#x2013;" horiz-adv-x="911" 
d="M84 440v144h743v-144h-743z" />
    <glyph glyph-name="emdash" unicode="&#x2014;" horiz-adv-x="1116" 
d="M84 440v144h948v-144h-948z" />
    <glyph glyph-name="quoteleft" unicode="&#x2018;" horiz-adv-x="344" 
d="M256 938h-158v496h92l66 -279v-217z" />
    <glyph glyph-name="quoteright" unicode="&#x2019;" horiz-adv-x="339" 
d="M80 1434h166v-496h-101l-65 281v215z" />
    <glyph glyph-name="quotesinglbase" unicode="&#x201a;" horiz-adv-x="348" 
d="M92 215h164v-494h-98l-66 279v215z" />
    <glyph glyph-name="quotedblleft" unicode="&#x201c;" horiz-adv-x="729" 
d="M645 938h-164v496h99l65 -279v-217zM260 938h-166v496h101l65 -279v-217z" />
    <glyph glyph-name="quotedblright" unicode="&#x201d;" horiz-adv-x="724" 
d="M467 1434h164v-496h-99l-65 281v215zM80 1434h166v-496h-101l-65 281v215z" />
    <glyph glyph-name="quotedblbase" unicode="&#x201e;" horiz-adv-x="735" 
d="M477 215h166v-494h-100l-66 279v215zM92 215h164v-494h-98l-66 279v215z" />
    <glyph glyph-name="dagger" unicode="&#x2020;" horiz-adv-x="692" 
d="M631 1161v-145h-189v-1016h-192v1016h-189v145h189v273h192v-273h189z" />
    <glyph glyph-name="daggerdbl" unicode="&#x2021;" horiz-adv-x="718" 
d="M645 1016h-190v-598h190v-146h-190v-272h-191v272h-190v146h190v598h-190v145h190v273h191v-273h190v-145z" />
    <glyph glyph-name="bullet" unicode="&#x2022;" horiz-adv-x="434" 
d="M96 874h244v-274h-244v274z" />
    <glyph glyph-name="onedotenleader" unicode="&#x2024;" horiz-adv-x="348" 
d="M256 215v-215h-164v215h164z" />
    <glyph glyph-name="twodotenleader" unicode="&#x2025;" horiz-adv-x="733" 
d="M641 215v-215h-164v215h164zM256 215v-215h-164v215h164z" />
    <glyph glyph-name="ellipsis" unicode="&#x2026;" horiz-adv-x="1120" 
d="M1028 215v-215h-164v215h164zM643 215v-215h-166v215h166zM256 215v-215h-164v215h164z" />
    <glyph glyph-name="perthousand" unicode="&#x2030;" horiz-adv-x="1888" 
d="M1487 678v-496q0 -40 29 -66q30 -26 76 -26t75 26t29 66v496q0 40 -29 66t-76 26t-75 -26t-29 -66zM946 678v-496q0 -40 29 -66t76 -26t75 26t29 66v496q0 40 -29 66q-30 26 -76 26t-75 -26t-29 -66zM1812 678v-496q0 -88 -60 -140t-160 -52t-161 52q-60 52 -61 140v496
q0 88 60 140t161 52t161 -52t60 -140zM1272 678v-496q0 -88 -60 -140t-161 -52q-100 0 -161 52q-60 52 -61 140v496q1 88 61 140t160 52t162 -52q60 -52 60 -140zM195 1262v-494q1 -43 29 -68q28 -24 75 -24t76 24t28 68v494q-1 44 -29 68t-75 24t-75 -24t-29 -68zM965 1434
h98l-676 -1434h-98zM520 1262v-494q0 -88 -60 -140t-160 -52t-162 52q-60 52 -60 140v494q0 88 60 140t160 52t162 -52q60 -52 60 -140z" />
    <glyph glyph-name="guilsinglleft" unicode="&#x2039;" horiz-adv-x="585" 
d="M502 63l-451 375v146l451 377v-160l-273 -289v-4l273 -285v-160z" />
    <glyph glyph-name="guilsinglright" unicode="&#x203a;" horiz-adv-x="585" 
d="M86 63v160l270 285v4l-270 289v160l449 -377v-146z" />
    <glyph glyph-name="exclamdbl" unicode="&#x203c;" horiz-adv-x="808" 
d="M696 215v-215h-190v215h190zM303 215v-215h-190v215h190zM506 1434h190v-615l-32 -440h-125l-33 440v615zM113 1434h190v-615l-33 -440h-125l-32 440v615z" />
    <glyph glyph-name="fraction" unicode="&#x2044;" horiz-adv-x="286" 
d="M434 1434h98l-675 -1434h-99z" />
    <glyph glyph-name="colonsign" unicode="&#x20a1;" horiz-adv-x="921" 
d="M291 690v-194l360 651q-6 57 -53 98zM452 1288q-64 0 -112 -43q-49 -43 -49 -115v-342l266 482q-41 18 -105 18zM836 922h-185v131l-360 -654v-96q0 -76 48 -117t128 -41t132 42t52 116v209h185v-209q0 -145 -102 -232t-267 -87q-166 0 -266 87t-101 232v827
q0 144 100 232t267 88q166 0 267 -87t102 -233v-208z" />
    <glyph glyph-name="uni20A8" unicode="&#x20a8;" horiz-adv-x="1032" 
d="M975 1294h-184q35 -59 38 -145h146v-139h-146v-70q0 -207 -170 -266q123 -51 148 -234l47 -440h-190l-41 432q-11 94 -55 129t-126 35h-358v137h401q154 0 154 148v129h-555v139h555q0 65 -39 105t-115 40h-401v140h891v-140z" />
    <glyph glyph-name="Euro" unicode="&#x20ac;" horiz-adv-x="991" 
d="M901 922h-184v208q0 72 -52 115t-131 43t-128 -43t-50 -115v-215h164v-118h-164v-150h164v-119h-164v-225q0 -76 50 -117t129 -41q80 0 131 42t51 116v209h184v-209q0 -145 -100 -232t-266 -87t-268 87q-101 87 -101 232v225h-100v119h100v150h-100v118h100v215
q0 144 101 232t267 88t267 -87q100 -87 100 -233v-208z" />
    <glyph glyph-name="uni2113" unicode="&#x2113;" horiz-adv-x="907" 
d="M399 1112v-395q274 317 275 495q0 84 -39 134t-98 49q-59 1 -99 -57t-39 -226zM399 317q0 -276 166 -276t246 270h37q-43 -170 -129 -251q-85 -80 -183 -80t-168 50t-98 126q-27 76 -26 227v106l-168 -170l-25 23l193 203v497q0 208 84 310t202 102q90 0 144 -55t53 -153
q0 -98 -63 -226q-63 -127 -265 -358v-345z" />
    <glyph glyph-name="uni2116" unicode="&#x2116;" horiz-adv-x="1576" 
d="M1473 739v-92h-383v92h383zM1204 1282v-289q0 -80 78 -80t78 80v289q0 80 -78 80t-78 -80zM877 0h-197l-401 1020q10 -236 10 -389v-631h-178v1434h204l394 -1016q-10 174 -11 385v631h179v-1434zM1473 1278v-281q-1 -86 -51 -131t-140 -45t-141 45t-51 131v281
q0 86 51 131t141 45t140 -45t51 -131z" />
    <glyph glyph-name="trademark" unicode="&#x2122;" horiz-adv-x="1243" 
d="M1128 1434v-861h-116v371q0 109 6 234l-115 -283h-100l-117 299q6 -139 6 -250v-371h-108v861h123l153 -387l154 387h114zM98 1337v97h402v-97h-142v-764h-116v764h-144z" />
    <glyph glyph-name="estimated" unicode="&#x212e;" horiz-adv-x="1519" 
d="M1155 813v387q-168 158 -392 158t-386 -158v-387h778zM377 715v-482q166 -160 389 -159q334 0 516 321l94 -53q-137 -197 -271 -280t-339 -82q-307 0 -500 210q-192 210 -192 528q0 320 194 528t491 208t491 -194t208 -545h-1081z" />
    <glyph glyph-name="oneeighth" unicode="&#x215b;" horiz-adv-x="1275" 
d="M1102 180v111q0 41 -29 65t-75 25q-46 0 -76 -25t-29 -65v-111q0 -42 30 -66q29 -24 75 -24t75 24t29 66zM899 680v-109q0 -41 27 -65q28 -24 72 -25q44 0 72 25t28 65v109q0 42 -27 66t-73 24t-72 -24t-27 -66zM1208 688v-110q0 -100 -84 -146q96 -45 97 -145v-113
q1 -86 -61 -135t-162 -49t-161 49q-60 49 -61 135v113q0 102 98 147q-86 47 -86 144v110q0 84 56 133t154 49t154 -49t56 -133zM967 1434l-676 -1434h-98l675 1434h99zM41 573v99h125v665h-125v97h244v-762h125v-99h-369z" />
    <glyph glyph-name="threeeighths" unicode="&#x215c;" horiz-adv-x="1392" 
d="M1219 180v111q0 41 -29 65t-75 25q-46 0 -76 -25t-29 -65v-111q0 -42 30 -66t75 -24q46 0 75 24t29 66zM1016 680v-109q0 -41 26 -65t72 -25q45 0 73 25t27 65v109q0 42 -26 66t-73 24t-73 -24t-26 -66zM1325 688v-110q0 -100 -84 -146q96 -45 96 -145v-113
q0 -86 -61 -135q-62 -49 -162 -49t-161 49q-60 49 -60 135v113q0 102 98 147q-86 47 -86 144v110q-1 84 55 133t155 49t155 -49t55 -133zM1083 1434l-675 -1434h-99l676 1434h98zM494 879v-131q0 -86 -60 -134t-162 -49q-100 0 -161 52t-62 139v114h119v-114q0 -41 29 -67
q29 -25 75 -25t75 24q30 24 30 66v127q0 41 -30 67t-75 25h-49v98h49q45 0 72 25t27 63v96q0 88 -99 88q-46 1 -74 -25t-28 -67v-114h-115v114q1 89 59 141t157 52t155 -48t57 -132v-99q0 -98 -84 -143q95 -43 95 -143z" />
    <glyph glyph-name="fiveeighths" unicode="&#x215d;" horiz-adv-x="1382" 
d="M1208 180v111q0 41 -28 65t-75 25q-46 0 -76 -25t-30 -65v-111q0 -42 30 -66t76 -24q47 0 75 24t28 66zM1006 680v-109q0 -41 26 -65t72 -25q45 0 73 25t27 65v109q0 42 -26 66t-73 24t-73 -24t-26 -66zM1315 688v-110q0 -100 -84 -146q96 -45 96 -145v-113
q0 -86 -61 -135q-62 -49 -162 -49t-161 49q-60 49 -60 135v113q0 102 98 147q-86 47 -86 144v110q0 84 55 133q54 49 154 49t156 -49t55 -133zM1073 1434l-676 -1434h-98l676 1434h98zM498 915v-159q0 -86 -62 -138t-160 -53q-100 0 -159 51t-60 140v114h115v-114
q0 -41 29 -67q29 -25 75 -25t74 26q29 26 29 66v159q0 41 -29 66t-76 25h-206v428h403v-97h-289v-231h92q100 0 162 -52t62 -139z" />
    <glyph glyph-name="seveneighths" unicode="&#x215e;" horiz-adv-x="1255" 
d="M1081 180v111q-1 41 -29 65t-74 25q-46 0 -76 -25t-30 -65v-111q0 -42 30 -66t76 -24t74 24t29 66zM879 680v-109q1 -41 27 -65t71 -25q45 0 73 25t27 65v109q-1 42 -27 66t-72 24t-72 -24t-27 -66zM1188 688v-110q0 -100 -84 -146q96 -45 96 -145v-113q0 -86 -61 -135
t-161 -49t-162 49q-60 49 -60 135v113q0 102 98 147q-86 47 -86 144v110q0 84 55 133t155 49t154 -49q56 -49 56 -133zM946 1434l-676 -1434h-98l676 1434h98zM233 573h-120q0 203 57 410t158 354h-308v97h426v-97q-213 -324 -213 -764z" />
    <glyph glyph-name="partialdiff" unicode="&#x2202;" horiz-adv-x="1024" 
d="M405 145q79 0 136 43t69 115l78 447h-176q-80 0 -136 -42t-69 -114l-51 -291q-12 -72 29 -115t120 -43zM623 1450q188 0 269 -85t54 -235l-145 -827q-27 -145 -143 -232t-282 -87t-251 87q-86 87 -59 232l51 291q25 145 141 231q117 86 283 86h176l39 219q12 72 -30 115
t-120 43h-303l29 162h291z" />
    <glyph glyph-name="emptyset" unicode="&#x2205;" horiz-adv-x="927" 
d="M465 145q78 0 127 43t49 115v721l-332 -803q47 -76 156 -76zM465 1288q-80 0 -129 -43t-49 -115v-724l334 804q-45 78 -156 78zM831 303q0 -145 -101 -232q-100 -87 -250 -87t-244 59l-19 -43h-98l45 106q-68 80 -68 197v827q0 144 102 232t250 88q150 0 246 -61l19 45
h98l-45 -109q66 -78 65 -195v-827z" />
    <glyph glyph-name="product" unicode="&#x220f;" horiz-adv-x="980" 
d="M117 1434h745v-1434h-190v1276h-365v-1276h-190v1434z" />
    <glyph glyph-name="summation" unicode="&#x2211;" horiz-adv-x="788" 
d="M717 1434v-158h-453l240 -553l-240 -565h453v-158h-643v158l248 565l-248 553v158h643z" />
    <glyph glyph-name="minus" unicode="&#x2212;" horiz-adv-x="681" 
d="M84 651v146h512v-146h-512z" />
    <glyph glyph-name="radical" unicode="&#x221a;" horiz-adv-x="1064" 
d="M39 651v146h471l104 -478l236 1115h194l-339 -1444h-191l-149 661h-326z" />
    <glyph glyph-name="infinity" unicode="&#x221e;" horiz-adv-x="1435" 
d="M383 342q83 0 147 51t99 115q-35 64 -104 116t-143 52t-119 -48q-44 -48 -44 -118t41 -119t123 -49zM1055 682q-80 0 -145 -51t-105 -119q33 -63 103 -114q71 -50 147 -50t120 48t44 118t-42 119t-122 49zM356 211q-124 0 -204 83t-80 217t85 218t215 84t208 -54
t147 -149q133 203 342 203q135 0 215 -83t80 -214t-86 -218t-229 -87q-203 0 -338 203q-49 -82 -139 -142q-92 -60 -216 -61z" />
    <glyph glyph-name="integral" unicode="&#x222b;" horiz-adv-x="598" 
d="M207 1260q0 127 57 179q56 52 148 52t166 -16l-13 -146q-41 10 -78 10q-96 0 -96 -102v-1438q0 -125 -56 -177q-57 -52 -147 -52t-168 14l13 148q41 -10 78 -11q96 0 96 101v1438z" />
    <glyph glyph-name="approxequal" unicode="&#x2248;" horiz-adv-x="722" 
d="M526 674h107q0 -207 -146 -207q-49 0 -121 39t-100 39q-61 0 -61 -78h-107q0 207 146 207q49 0 121 -39t98 -39q63 0 63 78zM526 981h107q0 -207 -146 -207q-49 0 -121 39t-100 39q-61 0 -61 -78h-107q0 207 146 207q49 0 121 -39t98 -39q63 0 63 78z" />
    <glyph glyph-name="notequal" unicode="&#x2260;" horiz-adv-x="698" 
d="M608 647v-145h-280l-90 -277h-99l90 277h-133v145h180l50 154h-230v145h277l92 283h98l-92 -283h137v-145h-184l-49 -154h233z" />
    <glyph glyph-name="lessequal" unicode="&#x2264;" horiz-adv-x="714" 
d="M96 395v146h512v-146h-512zM608 621l-512 178v145l512 182v-151l-309 -101v-4l309 -98v-151z" />
    <glyph glyph-name="greaterequal" unicode="&#x2265;" horiz-adv-x="714" 
d="M618 395h-512v146h512v-146zM106 621v151l312 98v4l-312 101v151l512 -182v-145z" />
    <glyph glyph-name="lozenge" unicode="&#x25ca;" horiz-adv-x="909" 
d="M453 178h4l260 539l-260 538h-4l-260 -538zM504 -10h-98l-355 727l355 727h98l354 -727z" />
    <glyph glyph-name="a.ss01" horiz-adv-x="770" 
d="M498 344v154q-156 -2 -210 -39t-55 -109v-94q0 -53 30 -85t89 -32q146 0 146 205zM682 0h-152l-20 119q-72 -135 -227 -135q-123 0 -179 72q-55 73 -55 173v93q1 68 17 116t62 91q92 88 370 92v147q0 123 -128 123t-128 -123v-61h-172v57q0 137 78 207q80 69 224 69
t227 -70t83 -206v-764z" />
    <glyph glyph-name="aacute.ss01" horiz-adv-x="770" 
d="M498 344v154q-156 -2 -210 -39t-55 -109v-94q0 -53 30 -85t89 -32q146 0 146 205zM283 -16q-123 0 -179 72q-55 73 -55 173v93q1 68 17 116t62 91q92 88 370 92v147q0 123 -128 123t-128 -123v-61h-172v57q0 137 78 207q80 69 224 69t227 -70t83 -206v-764h-152l-20 119
q-72 -135 -227 -135zM444 1413h172l-178 -287h-141z" />
    <glyph glyph-name="abreve.ss01" horiz-adv-x="770" 
d="M498 344v154q-156 -2 -210 -39t-55 -109v-94q0 -53 30 -85t89 -32q146 0 146 205zM283 -16q-123 0 -179 72q-55 73 -55 173v93q1 68 17 116t62 91q92 88 370 92v147q0 123 -128 123t-128 -123v-61h-172v57q0 137 78 207q80 69 224 69t227 -70t83 -206v-764h-152l-20 119
q-72 -135 -227 -135zM238 1413q0 -67 34 -111t96 -44q64 0 99 44t35 111h98q0 -131 -61 -209t-170 -78t-169 78t-61 209h99z" />
    <glyph glyph-name="acircumflex.ss01" horiz-adv-x="770" 
d="M498 344v154q-156 -2 -210 -39t-55 -109v-94q0 -53 30 -85t89 -32q146 0 146 205zM283 -16q-123 0 -179 72q-55 73 -55 173v93q1 68 17 116t62 91q92 88 370 92v147q0 123 -128 123t-128 -123v-61h-172v57q0 137 78 207q80 69 224 69t227 -70t83 -206v-764h-152l-20 119
q-72 -135 -227 -135zM127 1126l166 287h149l168 -287h-149l-94 168l-93 -168h-147z" />
    <glyph glyph-name="adieresis.ss01" horiz-adv-x="770" 
d="M498 344v154q-156 -2 -210 -39t-55 -109v-94q0 -53 30 -85t89 -32q146 0 146 205zM283 -16q-123 0 -179 72q-55 73 -55 173v93q1 68 17 116t62 91q92 88 370 92v147q0 123 -128 123t-128 -123v-61h-172v57q0 137 78 207q80 69 224 69t227 -70t83 -206v-764h-152l-20 119
q-72 -135 -227 -135zM451 1427h184v-266h-184v266zM106 1427h183v-266h-183v266z" />
    <glyph glyph-name="agrave.ss01" horiz-adv-x="770" 
d="M498 344v154q-156 -2 -210 -39t-55 -109v-94q0 -53 30 -85t89 -32q146 0 146 205zM283 -16q-123 0 -179 72q-55 73 -55 173v93q1 68 17 116t62 91q92 88 370 92v147q0 123 -128 123t-128 -123v-61h-172v57q0 137 78 207q80 69 224 69t227 -70t83 -206v-764h-152l-20 119
q-72 -135 -227 -135zM293 1413l149 -287h-141l-178 287h170z" />
    <glyph glyph-name="amacron.ss01" horiz-adv-x="770" 
d="M498 344v154q-156 -2 -210 -39t-55 -109v-94q0 -53 30 -85t89 -32q146 0 146 205zM283 -16q-123 0 -179 72q-55 73 -55 173v93q1 68 17 116t62 91q92 88 370 92v147q0 123 -128 123t-128 -123v-61h-172v57q0 137 78 207q80 69 224 69t227 -70t83 -206v-764h-152l-20 119
q-72 -135 -227 -135zM109 1286h524v-125h-524v125z" />
    <glyph glyph-name="aogonek.ss01" horiz-adv-x="770" 
d="M498 344v154q-156 -2 -210 -39t-55 -109v-94q0 -53 30 -85t89 -32q146 0 146 205zM406 -265q0 71 43 141t112 124h-31l-20 119q-72 -135 -227 -135q-123 0 -179 72q-55 73 -55 173v93q1 68 17 116t62 91q92 88 370 92v147q0 123 -128 123t-128 -123v-61h-172v57
q0 137 78 207q80 69 224 69t227 -70t83 -206v-764h-23q-45 -46 -77 -108t-31 -111q0 -88 86 -88q33 0 78 20l18 -75q-73 -50 -151 -50t-127 38t-49 109z" />
    <glyph glyph-name="aring.ss01" horiz-adv-x="770" 
d="M498 344v154q-156 -2 -210 -39t-55 -109v-94q0 -53 30 -85t89 -32q146 0 146 205zM283 -16q-123 0 -179 72q-55 73 -55 173v93q1 68 17 116t62 91q92 88 370 92v147q0 123 -128 123t-128 -123v-61h-172v57q0 137 78 207q80 69 224 69t227 -70t83 -206v-764h-152l-20 119
q-72 -135 -227 -135zM369 1380q-95 0 -95 -95t94 -95t95 95q0 95 -94 95zM369 1112q-211 0 -211 174t211 174t211 -174t-211 -174z" />
    <glyph glyph-name="atilde.ss01" horiz-adv-x="770" 
d="M498 344v154q-156 -2 -210 -39t-55 -109v-94q0 -53 30 -85t89 -32q146 0 146 205zM283 -16q-123 0 -179 72q-55 73 -55 173v93q1 68 17 116t62 91q92 88 370 92v147q0 123 -128 123t-128 -123v-61h-172v57q0 137 78 207q80 69 224 69t227 -70t83 -206v-764h-152l-20 119
q-72 -135 -227 -135zM530 1339h107q0 -205 -145 -204q-49 -1 -122 37t-100 38q-61 0 -61 -75h-107q0 205 146 204q49 0 122 -39t99 -38q61 -1 61 77z" />
    <glyph glyph-name="c.ss01" horiz-adv-x="739" 
d="M520 326h170v-60q0 -283 -303 -282q-151 0 -233 74t-82 218v472q0 143 83 218t232 74q303 0 303 -282v-51h-170v51q0 63 -34 98t-98 35t-98 -37t-34 -100v-484q0 -63 34 -100t98 -37t98 35t34 98v60z" />
    <glyph glyph-name="cacute.ss01" horiz-adv-x="739" 
d="M520 326h170v-60q0 -283 -303 -282q-151 0 -233 74t-82 218v472q0 143 83 218t232 74q303 0 303 -282v-51h-170v51q0 63 -34 98t-98 35t-98 -37t-34 -100v-484q0 -63 34 -100t98 -37t98 35t34 98v60zM463 1413h172l-178 -287h-142z" />
    <glyph glyph-name="ccaron.ss01" horiz-adv-x="739" 
d="M520 326h170v-60q0 -283 -303 -282q-151 0 -233 74t-82 218v472q0 143 83 218t232 74q303 0 303 -282v-51h-170v51q0 63 -34 98t-98 35t-98 -37t-34 -100v-484q0 -63 34 -100t98 -37t98 35t34 98v60zM145 1413h148l92 -168l94 168h150l-168 -287h-150z" />
    <glyph glyph-name="ccedilla.ss01" horiz-adv-x="739" 
d="M520 707v51q0 63 -34 98t-98 35t-98 -37t-34 -100v-484q0 -63 34 -100t98 -37t98 35t34 98v60h170v-60q0 -258 -254 -280v-76h13q178 0 178 -158v-31q-1 -82 -55 -129t-154 -47t-180 33l22 90q68 -29 141 -28q90 0 91 81v15q0 41 -20 59t-73 19h-57v172q-129 10 -200 85
t-70 205v472q0 143 83 218t232 74q303 0 303 -282v-51h-170z" />
    <glyph glyph-name="ccircumflex.ss01" horiz-adv-x="739" 
d="M520 326h170v-60q0 -283 -303 -282q-151 0 -233 74t-82 218v472q0 143 83 218t232 74q303 0 303 -282v-51h-170v51q0 63 -34 98t-98 35t-98 -37t-34 -100v-484q0 -63 34 -100t98 -37t98 35t34 98v60zM145 1126l166 287h150l168 -287h-150l-94 168l-92 -168h-148z" />
    <glyph glyph-name="cdotaccent.ss01" horiz-adv-x="739" 
d="M520 326h170v-60q0 -283 -303 -282q-151 0 -233 74t-82 218v472q0 143 83 218t232 74q303 0 303 -282v-51h-170v51q0 63 -34 98t-98 35t-98 -37t-34 -100v-484q0 -63 34 -100t98 -37t98 35t34 98v60zM297 1427h182v-266h-182v266z" />
    <glyph glyph-name="e.ss01" horiz-adv-x="759" 
d="M520 602v156q0 63 -34 98t-98 35t-98 -37t-34 -100v-152h264zM692 467h-436v-197q0 -63 34 -100t98 -37t98 35t34 98v60h172v-60q0 -141 -80 -212q-80 -70 -228 -70t-230 74t-82 218v472q0 143 83 218q83 74 230 74t227 -72t80 -216v-285z" />
    <glyph glyph-name="eacute.ss01" horiz-adv-x="759" 
d="M520 602v156q0 63 -34 98t-98 35t-98 -37t-34 -100v-152h264zM256 467v-197q0 -63 34 -100t98 -37t98 35t34 98v60h172v-60q0 -141 -80 -212q-80 -70 -228 -70t-230 74t-82 218v472q0 143 83 218q83 74 230 74t227 -72t80 -216v-285h-436zM465 1413h172l-178 -287h-142z
" />
    <glyph glyph-name="ebreve.ss01" horiz-adv-x="759" 
d="M520 602v156q0 63 -34 98t-98 35t-98 -37t-34 -100v-152h264zM256 467v-197q0 -63 34 -100t98 -37t98 35t34 98v60h172v-60q0 -141 -80 -212q-80 -70 -228 -70t-230 74t-82 218v472q0 143 83 218q83 74 230 74t227 -72t80 -216v-285h-436zM256 1413q0 -67 34 -111t97 -44
t98 44t35 111h98q0 -131 -61 -209t-170 -78t-169 78t-60 209h98z" />
    <glyph glyph-name="ecaron.ss01" horiz-adv-x="759" 
d="M520 602v156q0 63 -34 98t-98 35t-98 -37t-34 -100v-152h264zM256 467v-197q0 -63 34 -100t98 -37t98 35t34 98v60h172v-60q0 -141 -80 -212q-80 -70 -228 -70t-230 74t-82 218v472q0 143 83 218q83 74 230 74t227 -72t80 -216v-285h-436zM147 1413h148l92 -168l94 168
h150l-168 -287h-150z" />
    <glyph glyph-name="ecircumflex.ss01" horiz-adv-x="759" 
d="M520 602v156q0 63 -34 98t-98 35t-98 -37t-34 -100v-152h264zM256 467v-197q0 -63 34 -100t98 -37t98 35t34 98v60h172v-60q0 -141 -80 -212q-80 -70 -228 -70t-230 74t-82 218v472q0 143 83 218q83 74 230 74t227 -72t80 -216v-285h-436zM147 1126l166 287h150l168 -287
h-150l-94 168l-92 -168h-148z" />
    <glyph glyph-name="edieresis.ss01" horiz-adv-x="759" 
d="M520 602v156q0 63 -34 98t-98 35t-98 -37t-34 -100v-152h264zM256 467v-197q0 -63 34 -100t98 -37t98 35t34 98v60h172v-60q0 -141 -80 -212q-80 -70 -228 -70t-230 74t-82 218v472q0 143 83 218q83 74 230 74t227 -72t80 -216v-285h-436zM469 1427h184v-266h-184v266z
M125 1427h182v-266h-182v266z" />
    <glyph glyph-name="edotaccent.ss01" horiz-adv-x="759" 
d="M520 602v156q0 63 -34 98t-98 35t-98 -37t-34 -100v-152h264zM256 467v-197q0 -63 34 -100t98 -37t98 35t34 98v60h172v-60q0 -141 -80 -212q-80 -70 -228 -70t-230 74t-82 218v472q0 143 83 218q83 74 230 74t227 -72t80 -216v-285h-436zM297 1427h182v-266h-182v266z
" />
    <glyph glyph-name="egrave.ss01" horiz-adv-x="759" 
d="M520 602v156q0 63 -34 98t-98 35t-98 -37t-34 -100v-152h264zM256 467v-197q0 -63 34 -100t98 -37t98 35t34 98v60h172v-60q0 -141 -80 -212q-80 -70 -228 -70t-230 74t-82 218v472q0 143 83 218q83 74 230 74t227 -72t80 -216v-285h-436zM311 1413l150 -287h-142
l-178 287h170z" />
    <glyph glyph-name="emacron.ss01" horiz-adv-x="759" 
d="M520 602v156q0 63 -34 98t-98 35t-98 -37t-34 -100v-152h264zM256 467v-197q0 -63 34 -100t98 -37t98 35t34 98v60h172v-60q0 -141 -80 -212q-80 -70 -228 -70t-230 74t-82 218v472q0 143 83 218q83 74 230 74t227 -72t80 -216v-285h-436zM127 1286h524v-125h-524v125z
" />
    <glyph glyph-name="eogonek.ss01" horiz-adv-x="759" 
d="M256 602h264v156q0 63 -34 98t-98 35t-98 -37t-34 -100v-152zM256 467v-197q0 -63 34 -100t98 -37t98 35t34 98v60h172v-60q0 -258 -256 -280q-96 -109 -96 -201t86 -92q33 0 78 20l18 -75q-72 -50 -150 -50t-128 38q-49 38 -49 108q0 137 139 252q-125 14 -194 88
t-68 202v472q0 143 83 218q83 74 230 74t227 -72t80 -216v-285h-436z" />
    <glyph glyph-name="g.ss01" horiz-adv-x="796" 
d="M520 694q0 86 -36 138t-100 53q-64 0 -96 -38t-32 -97v-445q0 -59 32 -97t96 -38t100 52t36 138v334zM316 16q-130 0 -187 77t-57 190v489q0 113 57 191q57 77 192 77t214 -127l18 111h152v-1161q0 -143 -83 -218t-233 -75q-303 0 -303 283v57h170v-57q0 -63 34 -99
t98 -37q64 0 98 38t34 100v274q-74 -113 -204 -113z" />
    <glyph glyph-name="gbreve.ss01" horiz-adv-x="796" 
d="M520 694q0 86 -36 138t-100 53q-64 0 -96 -38t-32 -97v-445q0 -59 32 -97t96 -38t100 52t36 138v334zM316 16q-130 0 -187 77t-57 190v489q0 113 57 191q57 77 192 77t214 -127l18 111h152v-1161q0 -143 -83 -218t-233 -75q-303 0 -303 283v57h170v-57q0 -63 34 -99
t98 -37q64 0 98 38t34 100v274q-74 -113 -204 -113zM248 1413q0 -67 34 -111t97 -44t98 44t35 111h98q0 -131 -61 -209t-170 -78t-169 78t-60 209h98z" />
    <glyph glyph-name="gcircumflex.ss01" horiz-adv-x="796" 
d="M520 694q0 86 -36 138t-100 53q-64 0 -96 -38t-32 -97v-445q0 -59 32 -97t96 -38t100 52t36 138v334zM316 16q-130 0 -187 77t-57 190v489q0 113 57 191q57 77 192 77t214 -127l18 111h152v-1161q0 -143 -83 -218t-233 -75q-303 0 -303 283v57h170v-57q0 -63 34 -99
t98 -37q64 0 98 38t34 100v274q-74 -113 -204 -113zM139 1126l166 287h150l168 -287h-150l-94 168l-92 -168h-148z" />
    <glyph glyph-name="gdotaccent.ss01" horiz-adv-x="796" 
d="M520 694q0 86 -36 138t-100 53q-64 0 -96 -38t-32 -97v-445q0 -59 32 -97t96 -38t100 52t36 138v334zM316 16q-130 0 -187 77t-57 190v489q0 113 57 191q57 77 192 77t214 -127l18 111h152v-1161q0 -143 -83 -218t-233 -75q-303 0 -303 283v57h170v-57q0 -63 34 -99
t98 -37q64 0 98 38t34 100v274q-74 -113 -204 -113zM289 1427h182v-266h-182v266z" />
    <glyph glyph-name="m.ss01" horiz-adv-x="1257" 
d="M88 0v741q0 143 78 221t215 78q178 0 248 -147q70 147 248 147q137 0 215 -74t77 -218v-748h-184v754q0 63 -34 100q-35 37 -99 37t-98 -37t-33 -100v-754h-184v754q0 63 -34 100q-35 37 -99 37t-98 -37t-34 -100v-754h-184z" />
    <glyph glyph-name="n.ss01" horiz-adv-x="808" 
d="M272 0h-184v748q0 143 84 218q84 74 234 74t232 -74t83 -218v-748h-184v754q0 63 -34 100q-35 37 -99 37t-98 -37t-34 -100v-754z" />
    <glyph glyph-name="nacute.ss01" horiz-adv-x="808" 
d="M272 0h-184v748q0 143 84 218q84 74 234 74t232 -74t83 -218v-748h-184v754q0 63 -34 100q-35 37 -99 37t-98 -37t-34 -100v-754zM481 1413h172l-178 -287h-141z" />
    <glyph glyph-name="ncaron.ss01" horiz-adv-x="808" 
d="M272 0h-184v748q0 143 84 218q84 74 234 74t232 -74t83 -218v-748h-184v754q0 63 -34 100q-35 37 -99 37t-98 -37t-34 -100v-754zM164 1413h147l92 -168l95 168h149l-168 -287h-149z" />
    <glyph glyph-name="ntilde.ss01" horiz-adv-x="808" 
d="M272 0h-184v748q0 143 84 218q84 74 234 74t232 -74t83 -218v-748h-184v754q0 63 -34 100q-35 37 -99 37t-98 -37t-34 -100v-754zM565 1339h107q0 -205 -146 -204q-49 -1 -122 37t-99 38q-61 0 -61 -75h-107q0 205 146 204q49 0 121 -39t100 -38q61 -1 61 77z" />
    <glyph glyph-name="s.ss01" horiz-adv-x="731" 
d="M68 780q0 125 78 193q79 68 223 67q289 0 288 -282v-60h-159v60q0 133 -129 133q-119 0 -119 -109v-39q0 -97 150 -155q62 -25 124 -56t108 -92q44 -61 44 -151v-41q0 -127 -83 -196q-83 -68 -229 -68t-228 70q-81 70 -81 212v60h170v-60q0 -61 37 -97t99 -36t97 30
q34 30 34 83v39q0 93 -151 151q-61 25 -123 56t-106 94t-44 155v39z" />
    <glyph glyph-name="sacute.ss01" horiz-adv-x="731" 
d="M68 780q0 125 78 193q79 68 223 67q289 0 288 -282v-60h-159v60q0 133 -129 133q-119 0 -119 -109v-39q0 -97 150 -155q62 -25 124 -56t108 -92q44 -61 44 -151v-41q0 -127 -83 -196q-83 -68 -229 -68t-228 70q-81 70 -81 212v60h170v-60q0 -61 37 -97t99 -36t97 30
q34 30 34 83v39q0 93 -151 151q-61 25 -123 56t-106 94t-44 155v39zM444 1413h172l-178 -287h-141z" />
    <glyph glyph-name="scaron.ss01" horiz-adv-x="731" 
d="M68 780q0 125 78 193q79 68 223 67q289 0 288 -282v-60h-159v60q0 133 -129 133q-119 0 -119 -109v-39q0 -97 150 -155q62 -25 124 -56t108 -92q44 -61 44 -151v-41q0 -127 -83 -196q-83 -68 -229 -68t-228 70q-81 70 -81 212v60h170v-60q0 -61 37 -97t99 -36t97 30
q34 30 34 83v39q0 93 -151 151q-61 25 -123 56t-106 94t-44 155v39zM127 1413h147l93 -168l94 168h149l-168 -287h-149z" />
    <glyph glyph-name="scedilla.ss01" horiz-adv-x="731" 
d="M250 782v-39q0 -97 150 -155q62 -25 124 -56t108 -92q44 -61 44 -151v-41q0 -117 -70 -185t-194 -77v-76h12q178 0 178 -158v-31q0 -82 -54 -129t-155 -47t-180 33l23 90q68 -29 141 -28q90 0 90 81v15q1 41 -19 59t-73 19h-58v172q-125 10 -193 81t-69 199v60h170v-60
q0 -61 37 -97t99 -36t97 30q34 30 34 83v39q0 93 -151 151q-61 25 -123 56t-106 94t-44 155v39q0 125 78 193q79 68 223 67q289 0 288 -282v-60h-159v60q0 133 -129 133q-119 0 -119 -109z" />
    <glyph glyph-name="scircumflex.ss01" horiz-adv-x="731" 
d="M68 780q0 125 78 193q79 68 223 67q289 0 288 -282v-60h-159v60q0 133 -129 133q-119 0 -119 -109v-39q0 -97 150 -155q62 -25 124 -56t108 -92q44 -61 44 -151v-41q0 -127 -83 -196q-83 -68 -229 -68t-228 70q-81 70 -81 212v60h170v-60q0 -61 37 -97t99 -36t97 30
q34 30 34 83v39q0 93 -151 151q-61 25 -123 56t-106 94t-44 155v39zM127 1126l166 287h149l168 -287h-149l-94 168l-93 -168h-147z" />
    <glyph glyph-name="t.ss01" horiz-adv-x="520" 
d="M352 0h-184v885h-137v139h137v205h184v-205h137v-139h-137v-885z" />
    <glyph glyph-name="tbar.ss01" horiz-adv-x="516" 
d="M492 885h-138v-258h135v-125h-135v-502h-184v502h-135v125h135v258h-137v139h137v205h184v-205h138v-139z" />
    <glyph glyph-name="tcaron.ss01" horiz-adv-x="694" 
d="M352 0h-184v885h-137v139h137v205h184v-205h137v-139h-137v-885zM668 1038h-82l-64 234v203h146v-437z" />
    <glyph glyph-name="tcedilla.ss01" horiz-adv-x="520" 
d="M307 -90h12q178 0 179 -158v-31q0 -82 -54 -129t-156 -47q-100 0 -179 33l22 90q68 -29 141 -28q90 0 90 81v15q0 41 -19 59t-73 19h-57v186h-45v885h-137v139h137v205h184v-205h137v-139h-137v-885h-45v-90z" />
    <glyph glyph-name="u.ss01" horiz-adv-x="808" 
d="M272 1024v-754q0 -63 34 -100t98 -37t99 37q34 37 34 100v754h184v-748q0 -143 -83 -218q-82 -74 -232 -74t-234 74t-84 218v748h184z" />
    <glyph glyph-name="uacute.ss01" horiz-adv-x="808" 
d="M272 1024v-754q0 -63 34 -100t98 -37t99 37q34 37 34 100v754h184v-748q0 -143 -83 -218q-82 -74 -232 -74t-234 74t-84 218v748h184zM481 1413h172l-178 -287h-141z" />
    <glyph glyph-name="ubreve.ss01" horiz-adv-x="808" 
d="M272 1024v-754q0 -63 34 -100t98 -37t99 37q34 37 34 100v754h184v-748q0 -143 -83 -218q-82 -74 -232 -74t-234 74t-84 218v748h184zM272 1413q0 -67 34 -111t97 -44t99 44t35 111h98q1 -131 -61 -209t-171 -78t-169 78t-60 209h98z" />
    <glyph glyph-name="ucircumflex.ss01" horiz-adv-x="808" 
d="M272 1024v-754q0 -63 34 -100t98 -37t99 37q34 37 34 100v754h184v-748q0 -143 -83 -218q-82 -74 -232 -74t-234 74t-84 218v748h184zM164 1126l166 287h149l168 -287h-149l-95 168l-92 -168h-147z" />
    <glyph glyph-name="udieresis.ss01" horiz-adv-x="808" 
d="M272 1024v-754q0 -63 34 -100t98 -37t99 37q34 37 34 100v754h184v-748q0 -143 -83 -218q-82 -74 -232 -74t-234 74t-84 218v748h184zM485 1427h185v-266h-185v266zM141 1427h183v-266h-183v266z" />
    <glyph glyph-name="ugrave.ss01" horiz-adv-x="808" 
d="M272 1024v-754q0 -63 34 -100t98 -37t99 37q34 37 34 100v754h184v-748q0 -143 -83 -218q-82 -74 -232 -74t-234 74t-84 218v748h184zM328 1413l149 -287h-141l-178 287h170z" />
    <glyph glyph-name="uhungarumlaut.ss01" horiz-adv-x="808" 
d="M272 1024v-754q0 -63 34 -100t98 -37t99 37q34 37 34 100v754h184v-748q0 -143 -83 -218q-82 -74 -232 -74t-234 74t-84 218v748h184zM612 1413h152l-180 -287h-121zM369 1413h151l-178 -287h-121z" />
    <glyph glyph-name="umacron.ss01" horiz-adv-x="808" 
d="M272 1024v-754q0 -63 34 -100t98 -37t99 37q34 37 34 100v754h184v-748q0 -143 -83 -218q-82 -74 -232 -74t-234 74t-84 218v748h184zM143 1286h525v-125h-525v125z" />
    <glyph glyph-name="uogonek.ss01" horiz-adv-x="808" 
d="M721 1024v-748q0 -132 -72 -206t-200 -84q-95 -111 -95 -202t86 -91q33 0 78 20l19 -75q-72 -50 -151 -50t-128 38t-49 108q0 135 139 254q-124 12 -192 86t-68 202v748h184v-754q0 -63 34 -100t98 -37t99 37q34 37 34 100v754h184z" />
    <glyph glyph-name="uring.ss01" horiz-adv-x="808" 
d="M272 1024v-754q0 -63 34 -100t98 -37t99 37q34 37 34 100v754h184v-748q0 -143 -83 -218q-82 -74 -232 -74t-234 74t-84 218v748h184zM406 1380q-94 0 -94 -95t94 -95t94 95t-94 95zM406 1112q-211 0 -211 174t211 174t210 -174q1 -174 -210 -174z" />
    <glyph glyph-name="utilde.ss01" horiz-adv-x="808" 
d="M272 1024v-754q0 -63 34 -100t98 -37t99 37q34 37 34 100v754h184v-748q0 -143 -83 -218q-82 -74 -232 -74t-234 74t-84 218v748h184zM565 1339h107q0 -205 -146 -204q-49 -1 -122 37t-99 38q-61 0 -61 -75h-107q0 205 146 204q49 0 121 -39t100 -38q61 -1 61 77z" />
    <glyph glyph-name="w.ss01" horiz-adv-x="1257" 
d="M985 1024h184v-748q1 -143 -77 -218t-215 -74q-178 0 -248 147q-70 -147 -248 -147q-137 0 -215 78t-78 221v741h184v-754q0 -63 34 -100t98 -37t99 37q34 37 34 100v754h184v-754q0 -63 34 -100t98 -37t98 37t34 100v754z" />
    <glyph glyph-name="wacute.ss01" horiz-adv-x="1257" 
d="M1169 1024v-748q1 -143 -77 -218t-215 -74q-178 0 -248 147q-70 -147 -248 -147q-137 0 -215 78t-78 221v741h184v-754q0 -63 34 -100t98 -37t99 37q34 37 34 100v754h184v-754q0 -63 34 -100t98 -37t98 37t34 100v754h184zM705 1413h172l-179 -287h-141z" />
    <glyph glyph-name="wcircumflex.ss01" horiz-adv-x="1257" 
d="M1169 1024v-748q1 -143 -77 -218t-215 -74q-178 0 -248 147q-70 -147 -248 -147q-137 0 -215 78t-78 221v741h184v-754q0 -63 34 -100t98 -37t99 37q34 37 34 100v754h184v-754q0 -63 34 -100t98 -37t98 37t34 100v754h184zM387 1126l166 287h149l168 -287h-149l-94 168
l-92 -168h-148z" />
    <glyph glyph-name="wdieresis.ss01" horiz-adv-x="1257" 
d="M1169 1024v-748q1 -143 -77 -218t-215 -74q-178 0 -248 147q-70 -147 -248 -147q-137 0 -215 78t-78 221v741h184v-754q0 -63 34 -100t98 -37t99 37q34 37 34 100v754h184v-754q0 -63 34 -100t98 -37t98 37t34 100v754h184zM709 1427h184v-266h-184v266zM365 1427h182
v-266h-182v266z" />
    <glyph glyph-name="wgrave.ss01" horiz-adv-x="1257" 
d="M1169 1024v-748q1 -143 -77 -218t-215 -74q-178 0 -248 147q-70 -147 -248 -147q-137 0 -215 78t-78 221v741h184v-754q0 -63 34 -100t98 -37t99 37q34 37 34 100v754h184v-754q0 -63 34 -100t98 -37t98 37t34 100v754h184zM551 1413l149 -287h-141l-178 287h170z" />
    <glyph glyph-name="y.ss01" horiz-adv-x="808" 
d="M537 1024h184v-1161q0 -143 -83 -218t-230 -75t-228 71q-80 71 -80 212v57h172v-57q0 -63 34 -99t98 -37q64 0 99 38q34 38 34 100v274q-74 -113 -204 -113t-188 77q-57 77 -57 190v741h184v-719q0 -59 32 -97t96 -38t101 52q36 52 36 138v664z" />
    <glyph glyph-name="yacute.ss01" horiz-adv-x="808" 
d="M537 1024h184v-1161q0 -143 -83 -218t-230 -75t-228 71q-80 71 -80 212v57h172v-57q0 -63 34 -99t98 -37q64 0 99 38q34 38 34 100v274q-74 -113 -204 -113t-188 77q-57 77 -57 190v741h184v-719q0 -59 32 -97t96 -38t101 52q36 52 36 138v664zM481 1413h172l-178 -287
h-141z" />
    <glyph glyph-name="ycircumflex.ss01" horiz-adv-x="808" 
d="M537 1024h184v-1161q0 -143 -83 -218t-230 -75t-228 71q-80 71 -80 212v57h172v-57q0 -63 34 -99t98 -37q64 0 99 38q34 38 34 100v274q-74 -113 -204 -113t-188 77q-57 77 -57 190v741h184v-719q0 -59 32 -97t96 -38t101 52q36 52 36 138v664zM164 1126l166 287h149
l168 -287h-149l-95 168l-92 -168h-147z" />
    <glyph glyph-name="ydieresis.ss01" horiz-adv-x="808" 
d="M537 1024h184v-1161q0 -143 -83 -218t-230 -75t-228 71q-80 71 -80 212v57h172v-57q0 -63 34 -99t98 -37q64 0 99 38q34 38 34 100v274q-74 -113 -204 -113t-188 77q-57 77 -57 190v741h184v-719q0 -59 32 -97t96 -38t101 52q36 52 36 138v664zM485 1427h185v-266h-185
v266zM141 1427h183v-266h-183v266z" />
    <glyph glyph-name="ygrave.ss01" horiz-adv-x="808" 
d="M537 1024h184v-1161q0 -143 -83 -218t-230 -75t-228 71q-80 71 -80 212v57h172v-57q0 -63 34 -99t98 -37q64 0 99 38q34 38 34 100v274q-74 -113 -204 -113t-188 77q-57 77 -57 190v741h184v-719q0 -59 32 -97t96 -38t101 52q36 52 36 138v664zM328 1413l149 -287h-141
l-178 287h170z" />
    <glyph glyph-name="a.ss02" horiz-adv-x="796" 
d="M520 694q0 86 -36 138t-100 53q-64 0 -96 -38t-32 -97v-476q0 -59 32 -97t96 -38t100 52t36 139v364zM72 772q0 113 57 191q57 77 192 77t214 -127l18 111h152v-1024h-152l-18 119q-39 -74 -101 -105t-121 -30q-127 0 -184 78t-57 190v520z" />
    <glyph glyph-name="aacute.ss02" horiz-adv-x="796" 
d="M520 694q0 86 -36 138t-100 53q-64 0 -96 -38t-32 -97v-476q0 -59 32 -97t96 -38t100 52t36 139v364zM72 772q0 113 57 191q57 77 192 77t214 -127l18 111h152v-1024h-152l-18 119q-39 -74 -101 -105t-121 -30q-127 0 -184 78t-57 190v520zM455 1413h172l-178 -287h-142z
" />
    <glyph glyph-name="abreve.ss02" horiz-adv-x="796" 
d="M520 694q0 86 -36 138t-100 53q-64 0 -96 -38t-32 -97v-476q0 -59 32 -97t96 -38t100 52t36 139v364zM72 772q0 113 57 191q57 77 192 77t214 -127l18 111h152v-1024h-152l-18 119q-39 -74 -101 -105t-121 -30q-127 0 -184 78t-57 190v520zM248 1413q0 -67 34 -111
t97 -44t98 44t35 111h98q0 -131 -61 -209t-170 -78t-169 78t-60 209h98z" />
    <glyph glyph-name="acircumflex.ss02" horiz-adv-x="796" 
d="M520 694q0 86 -36 138t-100 53q-64 0 -96 -38t-32 -97v-476q0 -59 32 -97t96 -38t100 52t36 139v364zM72 772q0 113 57 191q57 77 192 77t214 -127l18 111h152v-1024h-152l-18 119q-39 -74 -101 -105t-121 -30q-127 0 -184 78t-57 190v520zM139 1126l166 287h150
l168 -287h-150l-94 168l-92 -168h-148z" />
    <glyph glyph-name="adieresis.ss02" horiz-adv-x="796" 
d="M520 694q0 86 -36 138t-100 53q-64 0 -96 -38t-32 -97v-476q0 -59 32 -97t96 -38t100 52t36 139v364zM72 772q0 113 57 191q57 77 192 77t214 -127l18 111h152v-1024h-152l-18 119q-39 -74 -101 -105t-121 -30q-127 0 -184 78t-57 190v520zM461 1427h184v-266h-184v266z
M117 1427h182v-266h-182v266z" />
    <glyph glyph-name="agrave.ss02" horiz-adv-x="796" 
d="M520 694q0 86 -36 138t-100 53q-64 0 -96 -38t-32 -97v-476q0 -59 32 -97t96 -38t100 52t36 139v364zM72 772q0 113 57 191q57 77 192 77t214 -127l18 111h152v-1024h-152l-18 119q-39 -74 -101 -105t-121 -30q-127 0 -184 78t-57 190v520zM303 1413l150 -287h-142
l-178 287h170z" />
    <glyph glyph-name="amacron.ss02" horiz-adv-x="796" 
d="M520 694q0 86 -36 138t-100 53q-64 0 -96 -38t-32 -97v-476q0 -59 32 -97t96 -38t100 52t36 139v364zM72 772q0 113 57 191q57 77 192 77t214 -127l18 111h152v-1024h-152l-18 119q-39 -74 -101 -105t-121 -30q-127 0 -184 78t-57 190v520zM119 1286h524v-125h-524v125z
" />
    <glyph glyph-name="aogonek.ss02" horiz-adv-x="796" 
d="M520 330v364q0 86 -36 138t-100 53q-64 0 -96 -38t-32 -97v-476q0 -59 32 -97t96 -38q64 1 100 53t36 138zM428 -265q0 71 43 141t113 124h-31l-18 119q-39 -74 -101 -105t-121 -30q-127 0 -184 78t-57 190v520q0 113 57 191q57 77 192 77t214 -127l18 111h152v-1024h-23
q-45 -46 -77 -108t-32 -111q0 -88 86 -88q33 0 78 20l19 -75q-72 -50 -151 -50t-128 38t-49 109z" />
    <glyph glyph-name="aring.ss02" horiz-adv-x="796" 
d="M520 694q0 86 -36 138t-100 53q-64 0 -96 -38t-32 -97v-476q0 -59 32 -97t96 -38t100 52t36 139v364zM72 772q0 113 57 191q57 77 192 77t214 -127l18 111h152v-1024h-152l-18 119q-39 -74 -101 -105t-121 -30q-127 0 -184 78t-57 190v520zM379 1380q-94 0 -94 -95
t94 -95t94 95t-94 95zM379 1112q-211 0 -211 174t211 174t211 -174t-211 -174z" />
    <glyph glyph-name="atilde.ss02" horiz-adv-x="796" 
d="M520 694q0 86 -36 138t-100 53q-64 0 -96 -38t-32 -97v-476q0 -59 32 -97t96 -38t100 52t36 139v364zM72 772q0 113 57 191q57 77 192 77t214 -127l18 111h152v-1024h-152l-18 119q-39 -74 -101 -105t-121 -30q-127 0 -184 78t-57 190v520zM541 1339h106
q0 -205 -145 -204q-49 -1 -122 37t-99 38q-61 0 -62 -75h-106q0 205 145 204q49 0 122 -39t99 -38q62 -1 62 77z" />
    <glyph glyph-name="a.sups" horiz-adv-x="479" 
d="M305 1040v90q-90 -2 -122 -24t-31 -62v-55q0 -70 69 -69q84 -1 84 120zM238 1458q182 0 182 -170v-454h-94l-13 69q-41 -78 -125 -78t-118 43t-33 105v53q0 86 54 132t214 48v74q0 80 -82 80q-59 0 -137 -43l-33 86q86 55 185 55z" />
    <glyph glyph-name="b.sups" horiz-adv-x="495" 
d="M332 1282q0 36 -18 58t-54 22q-84 0 -84 -113v-217q0 -113 84 -112q70 0 72 79v283zM63 834v884h113v-327q47 67 124 67t112 -47t34 -115v-311q0 -68 -34 -114t-117 -46q-82 0 -125 74l-14 -65h-93z" />
    <glyph glyph-name="c.sups" horiz-adv-x="415" 
d="M47 1276q0 182 193 182q70 0 159 -26l-14 -95q-68 25 -121 25q-102 0 -102 -100v-242q0 -100 102 -100q53 0 121 24l14 -94q-84 -25 -159 -25q-193 0 -193 181v270z" />
    <glyph glyph-name="d.sups" horiz-adv-x="495" 
d="M319 1032v217q0 113 -83 113q-36 0 -54 -23t-18 -57v-283q0 -35 18 -57t54 -22q83 -1 83 112zM200 825q-81 0 -115 46t-34 114v311q0 68 34 115t111 47t123 -67v327h113v-884h-92l-12 65q-47 -74 -128 -74z" />
    <glyph glyph-name="e.sups" horiz-adv-x="471" 
d="M317 1194v94q1 78 -77 78t-78 -80v-92h155zM248 825q-199 0 -199 181v276q0 86 50 131t141 45q182 0 182 -174v-174h-260v-96q0 -94 106 -94q78 -1 146 24l14 -94q-84 -25 -180 -25z" />
    <glyph glyph-name="egrave.sups" horiz-adv-x="471" 
d="M317 1194v94q1 78 -77 78t-78 -80v-92h155zM248 825q-199 0 -199 181v276q0 86 50 131t141 45q182 0 182 -174v-174h-260v-96q0 -94 106 -94q78 -1 146 24l14 -94q-84 -25 -180 -25zM281 1509h-86l-109 172h107z" />
    <glyph glyph-name="f.sups" horiz-adv-x="307" 
d="M195 1448h100v-86h-100v-528h-113v528h-57v86h57v141q0 139 133 140q35 0 90 -11l-6 -90q-20 6 -47 6q-57 0 -57 -59v-127z" />
    <glyph glyph-name="g.sups" horiz-adv-x="495" 
d="M322 1249q0 113 -82 113q-74 0 -74 -80v-264q0 -80 74 -80q82 0 82 113v198zM434 1448v-682q0 -190 -203 -191q-80 0 -170 27l15 94q68 -25 141 -24q104 0 105 96v141q-45 -65 -123 -65t-112 46t-34 114v292q0 68 34 115t115 47t128 -76l12 66h92z" />
    <glyph glyph-name="h.sups" horiz-adv-x="507" 
d="M446 834h-114v448q0 36 -18 58t-54 22q-82 0 -82 -113v-415h-115v884h115v-327q45 67 122 67t112 -47t34 -115v-462z" />
    <glyph glyph-name="i.sups" horiz-adv-x="241" 
d="M178 1448v-614h-115v614h115zM178 1690v-160h-115v160h115z" />
    <glyph glyph-name="j.sups" horiz-adv-x="241" 
d="M63 1448h115v-733q0 -139 -135 -140q-33 0 -90 11l8 90q23 -6 47 -6q55 0 55 59v719zM178 1690v-160h-115v160h115z" />
    <glyph glyph-name="k.sups" horiz-adv-x="499" 
d="M178 834h-115v884h115v-544l195 274h129l-215 -295l221 -319h-133l-197 286v-286z" />
    <glyph glyph-name="l.sups" horiz-adv-x="241" 
d="M178 1718v-884h-115v884h115z" />
    <glyph glyph-name="m.sups" horiz-adv-x="776" 
d="M307 1458q90 0 127 -84q45 84 128 84t118 -47t35 -115v-462h-115v448q0 36 -18 58t-54 22q-82 0 -82 -113v-415h-114v448q0 36 -18 58t-54 22q-82 0 -82 -113v-415h-115v614h95l12 -66q47 76 137 76z" />
    <glyph glyph-name="n.sups" horiz-adv-x="507" 
d="M446 834h-114v448q0 36 -18 58t-54 22q-82 0 -82 -113v-415h-115v614h95l12 -66q47 76 127 76t115 -47t34 -115v-462z" />
    <glyph glyph-name="o.sups" horiz-adv-x="479" 
d="M162 1286v-291q0 -80 78 -80t77 80v291q1 80 -77 80t-78 -80zM430 1282v-283q0 -174 -190 -174t-191 174v283q0 86 50 131q51 45 141 45t140 -45t50 -131z" />
    <glyph glyph-name="p.sups" horiz-adv-x="495" 
d="M332 1282q0 36 -18 58t-54 22q-82 0 -82 -113v-217q0 -113 82 -112q70 0 72 79v283zM297 1458q80 0 115 -47t34 -115v-311q0 -68 -34 -114t-113 -46q-78 0 -121 66v-303h-115v860h95l12 -66q47 76 127 76z" />
    <glyph glyph-name="q.sups" horiz-adv-x="497" 
d="M319 1249q0 113 -81 113q-74 0 -74 -80v-283q0 -80 74 -79q82 0 81 112v217zM432 1448v-860h-113v303q-45 -66 -123 -66t-111 46q-34 46 -34 114v311q0 68 34 115t115 47t128 -76l12 66h92z" />
    <glyph glyph-name="r.sups" horiz-adv-x="321" 
d="M305 1337q-127 0 -127 -108v-395h-115v614h95l12 -90q16 51 56 76t79 24v-121z" />
    <glyph glyph-name="s.sups" horiz-adv-x="448" 
d="M297 1004q0 69 -128 109q-48 15 -88 58t-40 111v23q0 69 50 111t132 42t172 -26l-16 -95q-79 29 -149 29t-70 -63v-17q0 -68 127 -109q47 -15 87 -59t40 -110v-23q0 -76 -54 -118t-147 -42q-94 0 -178 31l20 92q76 -33 159 -33t83 72v17z" />
    <glyph glyph-name="t.sups" horiz-adv-x="313" 
d="M193 1362v-385q0 -59 57 -59q27 0 45 6l8 -90q-43 -8 -90 -9q-133 0 -133 138v399h-57v86h57v123h113v-123h102v-86h-102z" />
    <glyph glyph-name="u.sups" horiz-adv-x="507" 
d="M61 1448h113v-449q0 -80 74 -79q82 0 82 112v416h114v-614h-94l-12 65q-47 -74 -127 -74t-115 46t-35 114v463z" />
    <glyph glyph-name="uacute.sups" horiz-adv-x="507" 
d="M61 1448h113v-449q0 -80 74 -79q82 0 82 112v416h114v-614h-94l-12 65q-47 -74 -127 -74t-115 46t-35 114v463zM403 1681l-106 -172h-88l90 172h104z" />
    <glyph glyph-name="v.sups" horiz-adv-x="442" 
d="M326 1448h110l-160 -621h-110l-160 621h115l102 -473z" />
    <glyph glyph-name="w.sups" horiz-adv-x="681" 
d="M555 1448h113l-131 -621h-119l-78 459l-76 -459h-121l-129 621h111l80 -471l80 471h110l80 -471z" />
    <glyph glyph-name="x.sups" horiz-adv-x="456" 
d="M444 1448l-159 -307l159 -307h-110l-105 204l-102 -204h-115l160 307l-160 307h115l102 -205l105 205h110z" />
    <glyph glyph-name="y.sups" horiz-adv-x="442" 
d="M76 575q-23 0 -78 11l6 90q25 -8 65 -8t57 15t30 56l24 88h-16l-158 621h113l106 -473l101 473h110l-176 -690q-29 -109 -70 -146t-114 -37z" />
    <glyph glyph-name="z.sups" horiz-adv-x="409" 
d="M383 920v-86h-356v86l229 442h-217v86h336v-86l-230 -442h238z" />
    <glyph glyph-name="T_h" horiz-adv-x="1550" 
d="M1014 1434v-508q74 114 204 114t187 -78t57 -190v-772h-184v750q0 59 -32 97t-98 38t-100 -52t-34 -139v-694h-185v1276h-360v-1276h-190v1276h-240v158h975z" />
    <glyph glyph-name="f_f_j" horiz-adv-x="1345" 
d="M1069 1024h184v-1225q0 -125 -57 -177q-56 -52 -146 -52t-169 14l12 148q45 -10 80 -11q96 0 96 101v1202zM1253 1475v-314h-184v162h-192q-96 0 -97 -100v-199h170v-139h-170v-885h-184v885h-287v-885h-184v885h-92v139h92v236q0 127 57 179q56 52 148 52t166 -16
l-11 -146q-45 10 -79 10q-96 0 -97 -102v-213h287v221q0 125 57 177t166 53h434z" />
    <glyph glyph-name="f_j" horiz-adv-x="872" 
d="M596 -178v1202h184v-1225q0 -125 -56 -177t-146 -52t-168 14l12 148q41 -10 80 -11q94 1 94 101zM348 1475h432v-314h-184v162h-190q-96 0 -97 -100v-199h170v-139h-170v-885h-184v885h-92v139h92v221q0 125 57 177t166 53z" />
    <glyph glyph-name="zero.subs" horiz-adv-x="569" 
d="M180 418v-496q0 -40 29 -66t76 -26t75 26t29 66v496q0 40 -29 66q-30 26 -76 26t-75 -26t-29 -66zM506 418v-496q0 -88 -60 -140t-161 -52q-100 0 -161 52q-60 52 -61 140v496q1 88 61 140t160 52t162 -52q60 -52 60 -140z" />
    <glyph glyph-name="one.subs" horiz-adv-x="428" 
d="M285 -162h125v-98h-369v98h125v666h-125v96h244v-762z" />
    <glyph glyph-name="two.subs" horiz-adv-x="544" 
d="M496 418v-68q0 -82 -52 -152t-111 -107q-59 -38 -111 -90t-52 -105v-58h326v-98h-445v156q0 124 116 221q48 39 96 75q116 86 116 160v66q0 40 -30 66t-75 26q-46 0 -74 -26t-28 -66v-115h-115v115q1 88 59 140t157 52t161 -52t62 -140z" />
    <glyph glyph-name="three.subs" horiz-adv-x="548" 
d="M483 430v-98q0 -98 -84 -144q94 -43 95 -143v-131q0 -86 -60 -135t-162 -49q-100 0 -161 52t-62 140v115h119v-115q0 -40 29 -66t75 -26t75 25q30 25 30 65v127q0 41 -30 67t-75 25h-49v99h49q45 0 72 24t27 64v96q0 88 -99 88q-46 0 -74 -26t-28 -66v-115h-115v115
q1 88 59 140t157 52t155 -48t57 -132z" />
    <glyph glyph-name="four.subs" horiz-adv-x="563" 
d="M322 59v336l-183 -336h183zM539 59v-98h-99v-221h-118v221h-302v98l302 541h118v-541h99z" />
    <glyph glyph-name="five.subs" horiz-adv-x="540" 
d="M182 256h92q100 0 162 -52t62 -138v-144q0 -88 -62 -140t-160 -52q-100 0 -159 52t-60 140v115h115v-115q0 -40 29 -66t75 -26t74 26q29 26 29 66v144q0 44 -29 68t-76 24h-206v442h403v-96h-289v-248z" />
    <glyph glyph-name="six.subs" horiz-adv-x="559" 
d="M389 -78v125q0 43 -29 68t-75 24h-105v-217q0 -40 29 -66t76 -26t75 26t29 66zM180 238h105q100 0 160 -52t61 -139v-125q0 -88 -60 -140t-161 -52q-100 0 -161 52q-60 52 -61 140v496q1 88 61 140t160 52t158 -52q57 -52 58 -140v-115h-113v115q0 40 -28 66
q-29 26 -75 26t-75 -26t-29 -66v-180z" />
    <glyph glyph-name="seven.subs" horiz-adv-x="458" 
d="M20 600h426v-96q-213 -324 -213 -764h-120q0 203 57 410t158 354h-308v96z" />
    <glyph glyph-name="eight.subs" horiz-adv-x="555" 
d="M381 -80v111q0 41 -29 65t-75 25q-45 0 -75 -25t-30 -65v-111q0 -42 30 -66t76 -24t74 24q29 24 29 66zM178 420v-109q0 -41 27 -65t71 -25q44 0 73 25q28 25 28 65v109q0 42 -27 66t-73 24q-47 0 -73 -24t-26 -66zM487 428v-111q0 -100 -84 -145q96 -45 97 -145v-113
q0 -86 -62 -135t-162 -49t-160 49t-61 135v113q0 102 99 147q-86 47 -86 143v111q0 84 55 133t154 49t155 -49t55 -133z" />
    <glyph glyph-name="nine.subs" horiz-adv-x="559" 
d="M274 201h105v217q0 40 -29 66t-76 26q-48 0 -76 -26t-28 -66v-125q0 -43 28 -67t76 -25zM53 293v125q1 88 61 140t160 52t160 -52t62 -140v-496q0 -88 -60 -140t-162 -52q-100 0 -157 52t-58 140v115h113v-115q0 -40 29 -66t75 -26t74 26q29 26 29 66v180h-105
q-100 0 -160 52t-61 139z" />
    <glyph glyph-name="zero.sups" horiz-adv-x="569" 
d="M180 1511v-495q0 -41 29 -67q29 -25 76 -25t75 26t29 66v495q0 41 -29 67q-30 26 -76 26t-75 -26t-29 -67zM506 1511v-495q0 -88 -60 -139t-161 -51t-161 50q-60 52 -61 140v495q1 89 61 141t160 52t162 -52q60 -52 60 -141z" />
    <glyph glyph-name="four.sups" horiz-adv-x="563" 
d="M324 1153v336l-183 -336h183zM539 1153v-98h-99v-221h-116v221h-304v98l304 541h116v-541h99z" />
    <glyph glyph-name="five.sups" horiz-adv-x="542" 
d="M182 1366h92q100 0 162 -52t62 -138v-160q0 -86 -62 -138t-160 -52q-100 0 -159 50q-59 52 -60 140v114h115v-114q0 -41 29 -67q29 -25 75 -25t74 26q29 26 29 66v160q0 42 -29 66t-76 24h-206v428h403v-97h-289v-231z" />
    <glyph glyph-name="six.sups" horiz-adv-x="559" 
d="M389 1016v125q0 43 -29 67t-75 25h-105v-217q0 -41 29 -67q29 -25 76 -25t75 26t29 66zM180 1331h105q100 0 160 -51t61 -139v-125q0 -88 -60 -139t-161 -51t-161 50q-60 52 -61 140v495q1 89 61 141t160 52t158 -52q57 -52 58 -141v-114h-113v114q0 41 -28 67
q-29 26 -75 26t-75 -26t-29 -67v-180z" />
    <glyph glyph-name="seven.sups" horiz-adv-x="460" 
d="M20 1694h426v-97q-211 -319 -210 -763h-123q0 204 57 410t158 353h-308v97z" />
    <glyph glyph-name="eight.sups" horiz-adv-x="555" 
d="M381 1014v110q0 41 -29 66q-29 24 -75 24q-45 0 -75 -24t-30 -66v-110q0 -41 30 -66q30 -24 76 -24t74 24q29 24 29 66zM178 1513v-108q0 -41 27 -66t71 -25t73 26q28 24 28 65v108q0 41 -27 66t-73 25q-47 0 -73 -25t-26 -66zM487 1522v-111q0 -100 -84 -145
q96 -45 97 -146v-112q0 -86 -60 -134t-162 -49q-102 0 -162 48t-61 135v112q0 102 99 148q-86 47 -86 143v111q0 84 55 133t154 49t155 -49t55 -133z" />
    <glyph glyph-name="nine.sups" horiz-adv-x="559" 
d="M274 1294h105v217q0 41 -29 67t-76 26q-48 0 -76 -26t-28 -67v-125q0 -44 28 -68t76 -24zM53 1386v125q1 89 61 141t160 52t160 -52t62 -141v-495q0 -88 -60 -139t-162 -51q-100 0 -157 50q-57 52 -58 140v114h113v-114q0 -41 29 -67q29 -25 75 -25t74 26q29 26 29 66
v180h-105q-100 0 -160 51t-61 139z" />
    <glyph glyph-name="zero.tosf" 
d="M295 926v-623q0 -72 49 -115t127 -43t127 43t49 115v623q0 72 -49 114t-127 43q-78 -1 -127 -43t-49 -114zM840 926v-623q0 -145 -102 -232t-267 -87q-166 0 -266 87t-101 232v623q0 145 100 232t267 87q165 0 267 -87t102 -232z" />
    <glyph glyph-name="one.tosf" 
d="M588 158h233v-158h-657v158h233v913h-233v158h424v-1071z" />
    <glyph glyph-name="two.tosf" 
d="M840 932v-113q0 -109 -56 -187t-137 -119q-80 -42 -160 -78q-192 -86 -192 -208v-69h545v-158h-736v223q0 113 56 191t137 120q80 42 160 76q192 83 192 211v111q0 68 -49 110t-127 41q-78 0 -126 -43t-48 -114v-191h-184v191q0 145 97 232t262 87q166 0 266 -84
t100 -229z" />
    <glyph glyph-name="three.tosf" 
d="M817 944v-158q0 -166 -139 -239q158 -78 158 -246v-215q0 -143 -100 -225t-268 -82q-167 0 -267 87t-101 232v191h191v-191q0 -72 49 -114t127 -43q78 0 127 42t49 113v211q0 70 -49 113t-127 43h-82v162h82q76 0 122 42t46 109v156q0 70 -45 110t-123 41q-78 0 -125 -43
t-47 -114v-191h-184v191q0 145 96 232t260 87t257 -81t93 -220z" />
    <glyph glyph-name="four.tosf" 
d="M541 158v721l-324 -721h324zM897 158v-158h-164v-205h-192v205h-502v158l502 1071h192v-1071h164z" />
    <glyph glyph-name="five.tosf" 
d="M317 686h160q166 0 266 -86t101 -231v-271q0 -145 -100 -232t-266 -87q-165 0 -263 87t-98 232v191h184v-191q0 -72 49 -114t127 -43q78 0 127 43t49 114v271q0 71 -49 113t-127 42h-344v705h668v-158h-484v-385z" />
    <glyph glyph-name="six.tosf" 
d="M657 303v209q0 72 -49 114t-129 42h-176v-365q0 -72 49 -115t128 -43t128 43t49 115zM303 829h176q166 0 267 -86t102 -231v-209q0 -145 -102 -232t-267 -87q-166 0 -266 87t-100 232v827q0 144 100 232t265 88t262 -87t98 -233v-190h-185v190q0 72 -48 115t-126 43
t-127 -43t-49 -115v-301z" />
    <glyph glyph-name="seven.tosf" 
d="M125 1229h704v-158q-168 -256 -261 -584t-93 -692h-196q0 336 96 684t264 592h-514v158z" />
    <glyph glyph-name="eight.tosf" 
d="M647 301v182q0 70 -49 113t-127 43t-127 -43t-49 -113v-182q0 -72 49 -114t127 -42t127 42t49 114zM303 1135v-183q0 -68 46 -110t122 -41q76 0 122 42t46 109v183q0 69 -45 111t-123 42t-123 -42t-45 -111zM819 1149v-186q0 -166 -139 -242q160 -76 160 -244v-186
q0 -143 -100 -225t-268 -82q-167 0 -267 82t-101 225v186q0 172 162 246q-143 80 -143 240v186q0 141 92 221t256 80t256 -80t92 -221z" />
    <glyph glyph-name="nine.tosf" 
d="M461 561h176v365q0 72 -49 114t-127 43q-78 0 -127 -43t-49 -114v-209q0 -72 49 -114t127 -42zM94 717v209q0 145 100 232t267 87q166 0 267 -87t101 -232v-828q0 -145 -101 -232t-266 -87t-261 87t-97 232v191h185v-191q0 -72 47 -114t125 -43q78 0 127 43t49 114v301
h-176q-167 1 -267 87t-100 231z" />
    <glyph glyph-name="zero.osf" horiz-adv-x="927" 
d="M287 926v-623q0 -72 49 -115t128 -43t128 43t49 115v623q0 72 -49 114t-128 43q-79 -1 -128 -43t-49 -114zM831 926v-623q0 -145 -101 -232t-266 -87t-266 87t-102 232v623q0 145 102 232t266 87q165 0 266 -87t101 -232z" />
    <glyph glyph-name="one.osf" horiz-adv-x="718" 
d="M475 158h209v-158h-608v158h209v913h-209v158h399v-1071z" />
    <glyph glyph-name="two.osf" horiz-adv-x="897" 
d="M817 932v-113q0 -109 -56 -187t-136 -119q-80 -42 -159 -78q-190 -87 -192 -208v-69h543v-158h-735v223q0 113 56 191t136 120t160 76q191 82 193 211v111q0 68 -49 110t-127 41q-78 0 -126 -43t-49 -114v-191h-184v191q0 145 97 232t263 87t265 -84q100 -84 100 -229z
" />
    <glyph glyph-name="three.osf" horiz-adv-x="890" 
d="M791 944v-158q0 -166 -140 -239q158 -78 158 -246v-215q0 -143 -100 -225q-101 -82 -267 -82t-267 87t-101 232v191h190v-191q0 -72 49 -114t128 -43q79 0 128 42t49 113v211q0 70 -49 113t-127 43h-82v162h82q76 0 122 42t46 109v156q0 70 -45 110t-123 41
q-78 0 -126 -43t-48 -114v-191h-184v191q0 145 97 232t261 87t256 -80t93 -221z" />
    <glyph glyph-name="four.osf" horiz-adv-x="933" 
d="M539 158v721l-328 -721h328zM893 158v-158h-164v-205h-190v205h-506v158l506 1071h190v-1071h164z" />
    <glyph glyph-name="five.osf" horiz-adv-x="888" 
d="M287 686h159q166 0 268 -86t101 -231v-271q0 -145 -101 -232q-100 -87 -266 -87t-264 87t-98 232v191h184v-191q0 -72 49 -114t128 -43q79 0 128 43t50 114v271q1 71 -49 113t-130 42h-344v705h668v-158h-483v-385z" />
    <glyph glyph-name="six.osf" horiz-adv-x="911" 
d="M641 303v209q0 72 -49 114t-127 42h-178v-365q0 -72 49 -115t128 -43t128 43t49 115zM287 829h178q164 0 265 -86t101 -231v-209q0 -145 -101 -232t-266 -87t-266 87t-102 232v827q0 144 102 232t265 88q164 0 261 -87t97 -233v-190h-184v190q0 72 -47 115t-126 43
t-128 -43t-49 -115v-301z" />
    <glyph glyph-name="seven.osf" horiz-adv-x="798" 
d="M47 1229h707v-158q-168 -256 -262 -584t-95 -692h-196q0 338 97 685t265 591h-516v158z" />
    <glyph glyph-name="eight.osf" horiz-adv-x="897" 
d="M627 301v182q0 70 -49 113t-128 43t-128 -43t-50 -113v-182q0 -72 50 -114t128 -42q79 0 128 42t49 114zM283 1135v-183q0 -68 45 -110t122 -41q78 0 122 42t44 109v183q0 73 -45 113t-121 40t-122 -40q-45 -40 -45 -113zM799 1149v-186q0 -166 -142 -242
q160 -74 160 -244v-186q0 -143 -100 -225t-267 -82t-268 82q-100 82 -100 225v186q0 172 162 246q-143 80 -144 240v186q0 141 92 221t257 80q164 0 257 -81t93 -220z" />
    <glyph glyph-name="nine.osf" horiz-adv-x="909" 
d="M444 561h179v365q1 72 -49 114t-129 43q-79 0 -128 -43t-49 -114v-209q0 -72 49 -114t127 -42zM78 717v209q0 145 101 232t266 87t267 -87t101 -232v-828q0 -145 -101 -232q-102 -87 -266 -87t-261 87t-97 232v191h184v-191q0 -72 47 -114t126 -43q79 0 128 43t50 114
v301h-179q-164 1 -265 87t-101 231z" />
    <glyph glyph-name="zero.lf" horiz-adv-x="927" 
d="M287 1130v-827q0 -72 49 -115t128 -43t128 43t49 115v827q0 72 -49 115t-128 43t-128 -43t-49 -115zM831 1130v-827q0 -145 -101 -232t-266 -87t-266 87t-102 232v827q0 144 102 232t266 88q165 0 266 -88t101 -232z" />
    <glyph glyph-name="one.lf" horiz-adv-x="702" 
d="M461 158h209v-158h-609v158h209v1118h-209v158h400v-1276z" />
    <glyph glyph-name="two.lf" horiz-adv-x="886" 
d="M813 1130v-112q0 -113 -56 -208t-136 -161t-160 -124q-191 -139 -193 -267v-100h545v-158h-735v254q0 113 56 208t136 162t160 126q191 141 193 270v110q1 72 -49 115t-129 43t-126 -43t-47 -115v-190h-184v190q0 144 96 232t261 88t267 -87q101 -88 101 -233z" />
    <glyph glyph-name="three.lf" horiz-adv-x="892" 
d="M793 1149v-158q0 -166 -140 -239q158 -78 158 -246v-215q0 -143 -100 -225q-101 -82 -267 -82t-267 87t-101 232v191h190v-191q0 -72 49 -115t128 -43t128 42t50 114v211q1 70 -49 113t-130 43h-82v161h82q78 0 123 42t45 110v156q0 71 -45 111t-123 40t-125 -43
t-47 -115v-190h-184v190q0 144 97 232t260 88t257 -81t93 -220z" />
    <glyph glyph-name="four.lf" horiz-adv-x="933" 
d="M541 530v574l-312 -574h312zM895 530v-159h-164v-371h-190v371h-508v159l508 906v-2h190v-904h164z" />
    <glyph glyph-name="five.lf" horiz-adv-x="880" 
d="M287 860h159q166 0 268 -86t101 -231v-240q0 -145 -101 -232q-100 -87 -266 -87t-264 87t-98 232v191h184v-191q0 -72 49 -115t128 -43t128 43t50 115v240q1 71 -49 113t-130 42h-344v736h668v-158h-483v-416z" />
    <glyph glyph-name="six.lf" horiz-adv-x="911" 
d="M641 303v209q0 72 -49 114t-127 42h-178v-365q0 -72 49 -115t128 -43t128 43t49 115zM287 829h178q164 0 265 -86t101 -231v-209q0 -145 -101 -232t-266 -87t-266 87t-102 232v827q0 144 102 232t265 88q164 0 261 -87t97 -233v-190h-184v190q0 72 -47 115t-126 43
t-128 -43t-49 -115v-301z" />
    <glyph glyph-name="seven.lf" horiz-adv-x="776" 
d="M35 1434h706v-158q-168 -256 -262 -584t-94 -692h-197q0 336 97 684q96 348 264 592h-514v158z" />
    <glyph glyph-name="eight.lf" horiz-adv-x="897" 
d="M627 301v182q0 70 -49 113t-128 43t-128 -43t-50 -113v-182q0 -72 50 -114t128 -42q79 0 128 42t49 114zM283 1135v-183q0 -68 45 -110t122 -41q78 0 122 42t44 109v183q0 73 -45 113t-121 40t-122 -40q-45 -40 -45 -113zM799 1149v-186q0 -166 -142 -242
q160 -74 160 -244v-186q0 -143 -100 -225t-267 -82t-268 82q-100 82 -100 225v186q0 172 162 246q-143 80 -144 240v186q0 141 92 221t257 80q164 0 257 -81t93 -220z" />
    <glyph glyph-name="nine.lf" horiz-adv-x="911" 
d="M446 766h177v364q1 72 -49 115t-128 43t-127 -43t-49 -115v-208q0 -72 49 -114t127 -42zM78 922v208q0 144 101 232t267 88t266 -87t101 -233v-827q0 -145 -100 -232q-99 -87 -265 -87t-263 87t-97 232v191h184v-191q0 -72 48 -115t126 -43t127 43t50 115v301h-177
q-166 0 -267 86t-101 232z" />
    <glyph glyph-name="zero.tf" 
d="M295 1130v-827q0 -72 49 -115t127 -43t127 43t49 115v827q0 72 -49 115t-127 43t-127 -43t-49 -115zM840 1130v-827q0 -145 -102 -232t-267 -87q-166 0 -266 87t-101 232v827q0 144 100 232t267 88q165 0 267 -88t102 -232z" />
    <glyph glyph-name="one.tf" 
d="M582 158h233v-158h-657v158h233v1118h-233v158h424v-1276z" />
    <glyph glyph-name="two.tf" 
d="M840 1130v-112q0 -113 -56 -208t-137 -161q-80 -66 -160 -124q-192 -139 -192 -267v-100h545v-158h-736v254q0 113 57 208q56 95 136 162t160 126q192 142 192 270v110q0 72 -49 115t-127 43t-126 -43t-48 -115v-190h-184v190q0 144 97 232t261 88q163 0 265 -88
t102 -232z" />
    <glyph glyph-name="three.tf" 
d="M817 1149v-158q0 -166 -139 -239q158 -78 158 -246v-215q0 -143 -100 -225t-268 -82q-167 0 -267 87t-101 232v191h191v-191q0 -72 49 -115t127 -43t127 42t49 114v211q0 70 -49 113t-127 43h-82v161h82q76 0 122 42t46 110v156q0 71 -45 111t-123 40t-125 -43t-47 -115
v-190h-184v190q0 144 96 232t260 88t257 -81t93 -220z" />
    <glyph glyph-name="four.tf" 
d="M543 530v574l-307 -574h307zM897 530v-159h-164v-371h-190v371h-504v159l504 906v-2h190v-904h164z" />
    <glyph glyph-name="five.tf" 
d="M317 891h160q166 0 266 -86t101 -232v-270q0 -145 -100 -232t-266 -87q-165 0 -263 87t-98 232v191h184v-191q0 -72 49 -115t127 -43t127 43t49 115v270q0 72 -49 114t-127 42h-344v705h668v-158h-484v-385z" />
    <glyph glyph-name="six.tf" 
d="M657 303v209q0 72 -49 114t-129 42h-176v-365q0 -72 49 -115t128 -43t128 43t49 115zM303 829h176q166 0 267 -86t102 -231v-209q0 -145 -102 -232t-267 -87q-166 0 -266 87t-100 232v827q0 144 100 232t265 88t262 -87t98 -233v-190h-185v190q0 72 -48 115t-126 43
t-127 -43t-49 -115v-301z" />
    <glyph glyph-name="seven.tf" 
d="M123 1434h706v-158q-168 -256 -262 -584t-94 -692h-197q0 338 98 685q97 347 265 591h-516v158z" />
    <glyph glyph-name="eight.tf" 
d="M647 301v182q0 70 -49 113t-127 43t-127 -43t-49 -113v-182q0 -72 49 -114t127 -42t127 42t49 114zM303 1135v-183q0 -68 46 -110t122 -41q76 0 122 42t46 109v183q0 69 -45 111t-123 42t-123 -42t-45 -111zM819 1149v-186q0 -166 -139 -242q160 -76 160 -244v-186
q0 -143 -100 -225t-268 -82q-167 0 -267 82t-101 225v186q0 172 162 246q-143 80 -143 240v186q0 141 92 221t256 80t256 -80t92 -221z" />
    <glyph glyph-name="nine.tf" 
d="M463 766h176v364q0 72 -49 115t-128 43t-128 -43t-49 -115v-208q0 -72 49 -114t129 -42zM94 922v208q0 144 102 232t266 88q165 0 266 -87t101 -233v-827q0 -145 -101 -232t-265 -87t-261 87t-98 232v191h185v-191q0 -72 48 -115t126 -43t127 43t49 115v301h-176
q-165 0 -267 86t-102 232z" />
    <glyph glyph-name="zero.dnom" horiz-adv-x="569" 
d="M180 678v-496q0 -40 29 -66t76 -26t75 26t29 66v496q0 40 -29 66q-30 26 -76 26t-75 -26t-29 -66zM506 678v-496q0 -88 -60 -140t-161 -52q-100 0 -161 52q-60 52 -61 140v496q1 88 61 140t160 52t162 -52q60 -52 60 -140z" />
    <glyph glyph-name="one.dnom" horiz-adv-x="428" 
d="M285 98h125v-98h-369v98h125v666h-125v96h244v-762z" />
    <glyph glyph-name="two.dnom" horiz-adv-x="544" 
d="M496 678v-68q0 -82 -52 -152t-111 -107q-59 -38 -111 -90t-52 -105v-58h326v-98h-445v156q0 127 116 221q48 39 96 75q116 87 116 160v66q0 40 -30 66t-75 26q-46 0 -74 -26t-28 -66v-115h-115v115q1 88 59 140t157 52t161 -52t62 -140z" />
    <glyph glyph-name="three.dnom" horiz-adv-x="550" 
d="M483 690v-98q0 -98 -84 -143q94 -43 95 -144v-131q0 -86 -60 -135t-162 -49q-100 0 -161 52t-62 140v115h119v-115q0 -40 29 -66t75 -26t75 25q30 25 30 65v127q0 41 -30 67t-75 25h-49v99h49q45 0 72 24t27 64v96q0 88 -99 88q-46 0 -74 -26t-28 -66v-115h-115v115
q1 88 59 140t157 52t155 -48t57 -132z" />
    <glyph glyph-name="four.dnom" horiz-adv-x="563" 
d="M324 319v336l-183 -336h183zM539 319v-98h-99v-221h-116v221h-304v98l304 541h116v-541h99z" />
    <glyph glyph-name="five.dnom" horiz-adv-x="540" 
d="M182 532h92q100 0 162 -52t62 -138v-160q0 -88 -62 -140t-160 -52q-100 0 -159 52t-60 140v115h115v-115q0 -40 29 -66t75 -26t74 26q29 26 29 66v160q0 41 -29 66t-76 24h-206v428h403v-96h-289v-232z" />
    <glyph glyph-name="six.dnom" horiz-adv-x="559" 
d="M389 182v125q0 43 -29 68t-75 24h-105v-217q0 -40 29 -66t76 -26t75 26t29 66zM180 498h105q100 0 160 -52t61 -139v-125q0 -88 -60 -140t-161 -52q-100 0 -161 52q-60 52 -61 140v496q1 88 61 140t160 52t158 -52q57 -52 58 -140v-115h-113v115q0 40 -28 66
q-29 26 -75 26t-75 -26t-29 -66v-180z" />
    <glyph glyph-name="seven.dnom" horiz-adv-x="458" 
d="M20 860h426v-96q-213 -324 -213 -764h-120q0 203 57 410t158 354h-308v96z" />
    <glyph glyph-name="eight.dnom" horiz-adv-x="555" 
d="M381 180v111q0 41 -29 65t-75 25q-45 0 -75 -25t-30 -65v-111q0 -42 30 -66t76 -24t74 24q29 24 29 66zM178 680v-109q0 -41 27 -65t71 -25q44 0 73 25q28 25 28 65v109q0 42 -27 66t-73 24q-47 0 -73 -24t-26 -66zM487 688v-110q0 -100 -84 -146q96 -45 97 -145v-113
q0 -86 -62 -135t-162 -49t-160 49t-61 135v113q0 102 99 147q-86 47 -86 144v110q0 84 55 133t154 49t155 -49t55 -133z" />
    <glyph glyph-name="nine.dnom" horiz-adv-x="559" 
d="M274 461h105v217q0 40 -29 66t-76 26q-48 0 -76 -26t-28 -66v-125q0 -43 28 -67t76 -25zM53 553v125q1 88 61 140t160 52t160 -52t62 -140v-496q0 -88 -60 -140t-162 -52q-100 0 -157 52t-58 140v115h113v-115q0 -40 29 -66t75 -26t74 26q29 26 29 66v180h-105
q-100 0 -160 52t-61 139z" />
    <glyph glyph-name="zero.numr" horiz-adv-x="569" 
d="M180 1251v-495q0 -41 29 -67q29 -25 76 -25t75 26t29 66v495q0 41 -29 67q-30 26 -76 26t-75 -26t-29 -67zM506 1251v-495q0 -88 -60 -140t-161 -51q-100 0 -161 51q-60 51 -61 140v495q1 89 61 141t160 52t162 -52q60 -52 60 -141z" />
    <glyph glyph-name="one.numr" horiz-adv-x="428" 
d="M285 672h125v-99h-369v99h125v665h-125v97h244v-762z" />
    <glyph glyph-name="two.numr" horiz-adv-x="544" 
d="M496 1251v-67q0 -82 -52 -152t-111 -108t-111 -89q-52 -52 -52 -106v-57h326v-99h-445v156q0 127 116 221q48 39 96 75q116 87 116 161v65q0 41 -30 67t-75 26q-46 0 -74 -26t-28 -67v-114h-115v114q1 89 59 141t157 52t161 -52t62 -141z" />
    <glyph glyph-name="three.numr" horiz-adv-x="550" 
d="M483 1264v-99q0 -98 -84 -143q94 -43 95 -143v-131q0 -86 -60 -134t-162 -49q-100 0 -161 52t-62 139v114h119v-114q0 -41 29 -67q29 -25 75 -25t75 24q30 24 30 66v127q0 41 -30 67t-75 25h-49v98h49q45 0 72 25t27 63v96q0 88 -99 88q-46 1 -74 -25t-28 -67v-114h-115
v114q1 89 59 141t157 52t155 -48t57 -132z" />
    <glyph glyph-name="four.numr" horiz-adv-x="563" 
d="M324 893v336l-183 -336h183zM539 893v-98h-99v-222h-116v222h-304v98l304 541h116v-541h99z" />
    <glyph glyph-name="five.numr" horiz-adv-x="540" 
d="M182 1106h92q100 0 162 -52t62 -139v-159q0 -86 -62 -138t-160 -53q-100 0 -159 51t-60 140v114h115v-114q0 -41 29 -67q29 -25 75 -25t74 26q29 26 29 66v159q0 41 -29 66t-76 25h-206v428h403v-97h-289v-231z" />
    <glyph glyph-name="six.numr" horiz-adv-x="559" 
d="M389 756v125q0 43 -29 67t-75 25h-105v-217q0 -41 29 -67q29 -25 76 -25t75 26t29 66zM180 1071h105q100 0 160 -51t61 -139v-125q0 -88 -60 -140t-161 -51q-100 0 -161 51q-60 51 -61 140v495q1 89 61 141t160 52t158 -52q57 -52 58 -141v-114h-113v114q0 41 -28 67
q-29 26 -75 26t-75 -26t-29 -67v-180z" />
    <glyph glyph-name="seven.numr" horiz-adv-x="458" 
d="M20 1434h426v-97q-213 -324 -213 -764h-120q0 203 57 410t158 354h-308v97z" />
    <glyph glyph-name="eight.numr" horiz-adv-x="555" 
d="M381 754v110q0 41 -29 66q-29 24 -75 24q-45 0 -75 -24t-30 -66v-110q0 -41 30 -66q30 -24 76 -24t74 24q29 24 29 66zM178 1253v-108q0 -41 27 -66t71 -25t73 26q28 24 28 65v108q0 41 -27 66t-73 25q-47 0 -73 -26q-26 -24 -26 -65zM487 1262v-111q0 -100 -84 -145
q96 -45 97 -146v-112q0 -86 -60 -134t-162 -49q-102 0 -162 48t-61 135v112q0 102 99 148q-86 47 -86 143v111q0 84 55 133t154 49t155 -49t55 -133z" />
    <glyph glyph-name="nine.numr" horiz-adv-x="559" 
d="M274 1034h105v217q0 41 -29 67t-76 26q-48 0 -76 -26t-28 -67v-125q0 -44 28 -68t76 -24zM53 1126v125q1 89 61 141t160 52t160 -52t62 -141v-495q0 -88 -60 -140t-162 -51q-100 0 -157 51t-58 140v114h113v-114q0 -41 29 -67q29 -25 75 -25t74 26q29 26 29 66v180h-105
q-100 0 -160 51t-61 139z" />
    <glyph glyph-name="numbersign.tf" 
d="M616 567v322h-286v-322h286zM913 889h-198v-322h198v-98h-198v-469h-99v469h-286v-469h-99v469h-202v98h202v322h-202v98h202v447h99v-447h286v447h99v-447h198v-98z" />
    <glyph glyph-name="florin.tosf" horiz-adv-x="501" 
d="M125 885h-92v139h92v236q0 127 57 179q56 52 148 52t166 -16l-11 -146q-45 10 -79 10q-96 0 -97 -102v-213h170v-139h-170v-1086q0 -125 -56 -177q-57 -52 -147 -52t-167 14l12 148q41 -10 78 -11q96 0 96 101v1063z" />
    <glyph glyph-name="florin.osf" horiz-adv-x="501" 
d="M125 885h-92v139h92v236q0 127 57 179q56 52 148 52t166 -16l-11 -146q-45 10 -79 10q-96 0 -97 -102v-213h170v-139h-170v-1086q0 -125 -56 -177q-57 -52 -147 -52t-167 14l12 148q41 -10 78 -11q96 0 96 101v1063z" />
    <glyph glyph-name="florin.tf" horiz-adv-x="501" 
d="M125 885h-92v139h92v236q0 127 57 179q56 52 148 52t166 -16l-11 -146q-45 10 -79 10q-96 0 -97 -102v-213h170v-139h-170v-1086q0 -125 -56 -177q-57 -52 -147 -52t-167 14l12 148q41 -10 78 -11q96 0 96 101v1063z" />
    <glyph glyph-name="cent.tosf" 
d="M551 -205h-98v191q-266 27 -267 301v450q0 274 267 301v191h98v-191q106 -4 217 -43l-23 -151q-119 41 -200 41q-174 0 -174 -170v-406q0 -170 174 -170q81 0 200 41l23 -151q-121 -37 -217 -43v-191z" />
    <glyph glyph-name="currency.tosf" 
d="M877 922h-185v208q0 72 -52 115t-131 43t-128 -43t-49 -115v-215h164v-118h-164v-150h164v-119h-164v-225q0 -76 48 -117t129 -41t132 42t51 116v209h185v-209q1 -145 -101 -232t-267 -87t-266 87t-102 232v225h-100v119h100v150h-100v118h100v215q-1 144 101 232t267 88
t266 -87t102 -233v-208z" />
    <glyph glyph-name="dollar.tosf" 
d="M305 1151v-111q0 -128 190 -228q79 -42 157 -90t132 -130q55 -82 56 -195v-104q0 -131 -87 -212t-233 -95v-191h-98v191q-145 12 -232 97q-86 85 -86 220v209h185v-209q0 -74 51 -116t130 -42t128 38t49 104v100q0 125 -188 229q-78 42 -156 92t-133 134t-55 196v113
q0 129 82 207t225 90v190h98v-190q143 -14 226 -98t83 -220v-208h-184v208q0 72 -48 115t-125 43t-122 -38t-45 -99z" />
    <glyph glyph-name="sterling.tosf" 
d="M342 158h528v-158h-800v158h82v379h-84v157h84v457q0 139 95 219t260 80t262 -87t97 -233v-208h-184v208q0 72 -48 115t-125 43t-122 -38t-45 -99v-457h221v-157h-221v-379z" />
    <glyph glyph-name="yen.tosf" 
d="M756 588v-144h-193v-444h-190v444h-193v144h174l-307 846h199l225 -686l229 686h195l-311 -846h172z" />
    <glyph glyph-name="cent.osf" horiz-adv-x="729" 
d="M442 -205h-98v191q-264 27 -264 301v450q0 274 264 301v191h98v-191q100 -4 217 -43l-20 -151q-119 41 -203 41q-172 0 -172 -170v-406q0 -170 172 -170q84 0 203 41l20 -151q-129 -37 -217 -43v-191z" />
    <glyph glyph-name="currency.osf" horiz-adv-x="985" 
d="M897 922h-184v208q-1 72 -53 115t-130 43t-127 -43t-49 -115v-215h164v-118h-164v-150h164v-119h-164v-225q0 -76 48 -117t128 -41t132 42q51 42 51 116v209h184v-209q0 -145 -100 -232q-101 -87 -267 -87t-267 87t-101 232v225h-99v119h99v150h-99v118h99v215
q0 144 101 232t267 88t266 -87t101 -233v-208z" />
    <glyph glyph-name="dollar.osf" horiz-adv-x="874" 
d="M270 1151v-111q0 -126 189 -228q79 -42 157 -90t134 -130t55 -195v-104q0 -131 -86 -212t-232 -95v-191h-98v191q-147 12 -233 97t-86 220v209h184v-209q0 -74 51 -116t131 -42t129 38t49 104v100q0 125 -188 229q-78 42 -157 92t-134 134t-55 196v113q0 129 83 207
t226 90v190h98v-190q143 -14 225 -98t83 -220v-208h-185v208q0 72 -47 115t-125 43t-123 -38t-45 -99z" />
    <glyph glyph-name="sterling.osf" horiz-adv-x="956" 
d="M348 158h531v-158h-803v158h82v379h-84v157h84v457q0 139 96 219t260 80t261 -87t97 -233v-208h-184v208q0 72 -48 115t-125 43t-122 -38t-45 -99v-457h223v-157h-223v-379z" />
    <glyph glyph-name="yen.osf" horiz-adv-x="952" 
d="M762 588v-144h-193v-444h-190v444h-195v144h174l-311 846h197l233 -689l236 689h194l-317 -846h172z" />
    <glyph glyph-name="cent.tf" 
d="M551 -205h-98v191q-266 27 -267 301v450q0 274 267 301v191h98v-191q106 -4 217 -43l-23 -151q-119 41 -200 41q-174 0 -174 -170v-406q0 -170 174 -170q81 0 200 41l23 -151q-121 -37 -217 -43v-191z" />
    <glyph glyph-name="currency.tf" 
d="M877 922h-185v208q0 72 -52 115t-131 43t-128 -43t-49 -115v-215h164v-118h-164v-150h164v-119h-164v-225q0 -76 48 -117t129 -41t132 42t51 116v209h185v-209q1 -145 -101 -232t-267 -87t-266 87t-102 232v225h-100v119h100v150h-100v118h100v215q-1 144 101 232t267 88
t266 -87t102 -233v-208z" />
    <glyph glyph-name="dollar.tf" 
d="M305 1151v-111q0 -128 190 -228q79 -42 157 -90t132 -130q55 -82 56 -195v-104q0 -131 -87 -212t-233 -95v-191h-98v191q-145 12 -232 97q-86 85 -86 220v209h185v-209q0 -74 51 -116t130 -42t128 38t49 104v100q0 125 -188 229q-78 42 -156 92t-133 134t-55 196v113
q0 129 82 207t225 90v190h98v-190q143 -14 226 -98t83 -220v-208h-184v208q0 72 -48 115t-125 43t-122 -38t-45 -99z" />
    <glyph glyph-name="sterling.tf" 
d="M342 158h528v-158h-800v158h82v379h-84v157h84v457q0 139 95 219t260 80t262 -87t97 -233v-208h-184v208q0 72 -48 115t-125 43t-122 -38t-45 -99v-457h221v-157h-221v-379z" />
    <glyph glyph-name="yen.tf" 
d="M756 588v-144h-193v-444h-190v444h-193v144h174l-307 846h199l225 -686l229 686h195l-311 -846h172z" />
    <glyph glyph-name="percent.osf" horiz-adv-x="1349" 
d="M946 678v-496q0 -40 29 -66t76 -26t75 26t29 66v496q0 40 -29 66q-30 26 -76 26t-75 -26t-29 -66zM1272 678v-496q0 -88 -60 -140t-161 -52q-100 0 -161 52q-60 52 -61 140v496q1 88 61 140t160 52t162 -52q60 -52 60 -140zM195 1262v-494q1 -43 29 -68q28 -24 74 -24
t76 24t29 68v494q1 44 -29 68t-76 24t-74 -24t-29 -68zM965 1434h98l-676 -1434h-98zM520 1262v-494q0 -88 -60 -140t-160 -52t-162 52q-60 52 -60 140v494q0 88 60 140t160 52t162 -52q60 -52 60 -140z" />
    <glyph glyph-name="perthousand.osf" horiz-adv-x="1888" 
d="M1487 678v-496q0 -40 29 -66q30 -26 76 -26t75 26t29 66v496q0 40 -29 66t-76 26t-75 -26t-29 -66zM946 678v-496q0 -40 29 -66t76 -26t75 26t29 66v496q0 40 -29 66q-30 26 -76 26t-75 -26t-29 -66zM1812 678v-496q0 -88 -60 -140t-160 -52t-161 52q-60 52 -61 140v496
q0 88 60 140t161 52t161 -52t60 -140zM1272 678v-496q0 -88 -60 -140t-161 -52q-100 0 -161 52q-60 52 -61 140v496q1 88 61 140t160 52t162 -52q60 -52 60 -140zM195 1262v-494q1 -43 29 -68q28 -24 75 -24t76 24t28 68v494q-1 44 -29 68t-75 24t-75 -24t-29 -68zM965 1434
h98l-676 -1434h-98zM520 1262v-494q0 -88 -60 -140t-160 -52t-162 52q-60 52 -60 140v494q0 88 60 140t160 52t162 -52q60 -52 60 -140z" />
    <glyph glyph-name="colonsign.tosf" 
d="M301 690v-194l361 651q-6 57 -54 98zM462 1288q-64 0 -112 -43q-49 -43 -49 -115v-342l266 482q-41 18 -105 18zM846 922h-184v131l-361 -654v-96q0 -76 48 -117t128 -41t132 42t53 116v209h184v-209q0 -145 -102 -232t-267 -87q-166 0 -266 87t-100 232v827
q0 144 100 232t266 88t267 -87t102 -233v-208z" />
    <glyph glyph-name="Euro.tosf" 
d="M877 922h-185v208q0 72 -52 115t-131 43t-128 -43t-49 -115v-215h164v-118h-164v-150h164v-119h-164v-225q0 -76 48 -117t129 -41t132 42t51 116v209h185v-209q1 -145 -101 -232t-267 -87t-266 87t-102 232v225h-100v119h100v150h-100v118h100v215q-1 144 101 232t267 88
t266 -87t102 -233v-208z" />
    <glyph glyph-name="uni20A8.tosf" 
d="M885 1294h-185q35 -59 39 -145h146v-139h-146v-70q0 -207 -170 -266q123 -51 146 -234l47 -440h-191l-41 432q-12 94 -54 129t-124 35h-272v137h315q154 0 154 148v129h-469v139h469q0 65 -39 105t-115 40h-315v140h805v-140z" />
    <glyph glyph-name="colonsign.osf" horiz-adv-x="919" 
d="M291 690v-194l360 651q-6 57 -53 98zM452 1288q-64 0 -112 -43q-49 -43 -49 -115v-342l266 482q-41 18 -105 18zM836 922h-185v131l-360 -654v-96q0 -76 48 -117t128 -41t132 42t52 116v209h185v-209q0 -145 -102 -232t-267 -87q-166 0 -266 87t-101 232v827
q0 144 100 232t267 88q166 0 267 -87t102 -233v-208z" />
    <glyph glyph-name="Euro.osf" horiz-adv-x="985" 
d="M897 922h-184v208q-1 72 -53 115t-130 43t-127 -43t-49 -115v-215h164v-118h-164v-150h164v-119h-164v-225q0 -76 48 -117t128 -41t132 42q51 42 51 116v209h184v-209q0 -145 -100 -232q-101 -87 -267 -87t-267 87t-101 232v225h-99v119h99v150h-99v118h99v215
q0 144 101 232t267 88t266 -87t101 -233v-208z" />
    <glyph glyph-name="uni20A8.osf" horiz-adv-x="1046" 
d="M983 1294h-184q33 -61 37 -145h147v-139h-147v-70q0 -207 -168 -266q123 -51 145 -234l47 -440h-190l-41 432q-11 94 -55 129t-123 35h-361v137h404q152 0 151 148v129h-555v139h555q0 65 -38 105t-113 40h-404v140h893v-140z" />
    <glyph glyph-name="colonsign.tf" 
d="M301 690v-194l361 651q-6 57 -54 98zM462 1288q-64 0 -112 -43q-49 -43 -49 -115v-342l266 482q-41 18 -105 18zM846 922h-184v131l-361 -654v-96q0 -76 48 -117t128 -41t132 42t53 116v209h184v-209q0 -145 -102 -232t-267 -87q-166 0 -266 87t-100 232v827
q0 144 100 232t266 88t267 -87t102 -233v-208z" />
    <glyph glyph-name="Euro.tf" 
d="M877 922h-185v208q0 72 -52 115t-131 43t-128 -43t-49 -115v-215h164v-118h-164v-150h164v-119h-164v-225q0 -76 48 -117t129 -41t132 42t51 116v209h185v-209q1 -145 -101 -232t-267 -87t-266 87t-102 232v225h-100v119h100v150h-100v118h100v215q-1 144 101 232t267 88
t266 -87t102 -233v-208z" />
    <glyph glyph-name="uni20A8.tf" 
d="M885 1294h-185q35 -59 39 -145h146v-139h-146v-70q0 -207 -170 -266q123 -51 146 -234l47 -440h-191l-41 432q-12 94 -54 129t-124 35h-272v137h315q154 0 154 148v129h-469v139h469q0 65 -39 105t-115 40h-315v140h805v-140z" />
    <glyph glyph-name="AT" horiz-adv-x="1067" 
d="M618 580v221q0 111 -81 110q-72 0 -72 -77v-287q0 -78 72 -78q81 0 81 111zM96 360v713q0 161 109 269t334 108t333 -108t109 -269v-692h-336l-27 55q-42 -63 -120 -63t-113 46t-35 116v311q0 70 35 116t117 46t125 -72l14 63h92v-524h129v598q0 123 -81 195t-243 72
t-242 -72q-81 -72 -81 -195v-713q0 -122 81 -194t243 -72v-110q-225 0 -334 107t-109 269z" />
    <glyph glyph-name="Ampersand" horiz-adv-x="1052" 
d="M270 461v-158q0 -76 48 -117t127 -41t128 38t50 104l-287 334q-66 -66 -66 -160zM991 616h-176v-276l176 -205v-135h-123l-104 121q-98 -137 -322 -137q-164 0 -263 87t-99 232v158q0 176 147 284q-131 164 -131 330v76q0 139 96 219t261 80q164 0 261 -87t97 -233v-208
h-188v208q0 72 -46 115t-123 43t-122 -38t-45 -99v-72q0 -115 104 -248l232 -268v211h368v-158z" />
    <glyph glyph-name="Braceleft" horiz-adv-x="526" 
d="M479 -307q-82 0 -132 9t-96 38q-91 57 -89 246l20 430q0 63 -2 92q-6 87 -59 118q-31 17 -82 25v131q103 16 126 79q13 36 15 65t2 92l-20 430q0 190 89 246q46 29 96 38t132 9v-125q-80 0 -126 -36t-46 -153l21 -466q0 -113 -39 -165t-125 -77v-4q86 -25 125 -77
t39 -165l-21 -467q0 -124 51 -156t121 -32v-125z" />
    <glyph glyph-name="Braceright" horiz-adv-x="526" 
d="M47 1616v125q82 0 132 -9t96 -38q90 -57 90 -246l-21 -430q0 -63 2 -92q6 -89 60 -118q31 -17 81 -26v-131q-51 -8 -81 -25q-53 -30 -60 -118q-2 -29 -2 -92l21 -430q0 -189 -90 -246q-46 -29 -96 -38t-132 -9v125q73 0 109 22q63 39 63 166l-20 467q-1 113 37 165
t126 77v4q-88 25 -126 77t-37 165l20 466q0 117 -46 153t-126 36z" />
    <glyph glyph-name="Bracketleft" horiz-adv-x="565" 
d="M522 1616h-260v-1798h260v-125h-405v2048h405v-125z" />
    <glyph glyph-name="Bracketright" horiz-adv-x="565" 
d="M41 1741h408v-2048h-408v125h262v1798h-262v125z" />
    <glyph glyph-name="Emdash" horiz-adv-x="1107" 
d="M80 651v146h948v-146h-948z" />
    <glyph glyph-name="Endash" horiz-adv-x="903" 
d="M80 651v146h743v-146h-743z" />
    <glyph glyph-name="Exclamdown" horiz-adv-x="419" 
d="M305 0h-190v614l32 441h125l33 -441v-614zM115 1219v215h190v-215h-190z" />
    <glyph glyph-name="Guillemotleft" horiz-adv-x="1038" 
d="M954 274l-448 375v146l448 379v-160l-272 -289v-4l272 -287v-160zM492 274l-449 375v146l449 379v-160l-271 -289v-4l271 -287v-160z" />
    <glyph glyph-name="Guillemotright" horiz-adv-x="1038" 
d="M547 274v160l270 287v4l-270 289v160l448 -379v-146zM84 274v160l270 287v4l-270 289v160l448 -379v-146z" />
    <glyph glyph-name="Guilsinglleft" horiz-adv-x="575" 
d="M492 274l-449 375v146l449 379v-160l-271 -289v-4l271 -287v-160z" />
    <glyph glyph-name="Guilsinglright" horiz-adv-x="575" 
d="M84 274v160l270 287v4l-270 289v160l448 -379v-146z" />
    <glyph glyph-name="Hyphen" horiz-adv-x="671" 
d="M80 651v146h512v-146h-512z" />
    <glyph glyph-name="Parenleft" horiz-adv-x="536" 
d="M518 1741q-278 -487 -278 -1024t278 -1024h-121q-160 223 -247 489q-178 538 0 1069q88 266 247 490h121z" />
    <glyph glyph-name="Parenright" horiz-adv-x="536" 
d="M475 717q0 -271 -88 -537t-248 -487h-121q281 487 281 1024t-281 1024h121q160 -221 248 -487t88 -537z" />
    <glyph glyph-name="Periodcentered" horiz-adv-x="354" 
d="M94 825h166v-215h-166v215z" />
    <glyph glyph-name="Questiondown" horiz-adv-x="860" 
d="M797 494v-191q1 -145 -97 -232t-262 -87t-265 87t-101 232v254q0 123 74 206q75 83 202 105l23 199h143v-352h-76q-78 0 -127 -43t-49 -115v-254q0 -72 49 -115t127 -43t126 43t48 115v191h185zM535 1219h-191v215h191v-215z" />
    </font>
</defs>
</svg>
